<svg width="24" height="24" viewBox="0 0 24 24" fill="none" xmlns="http://www.w3.org/2000/svg">
<path d="M16.7099 10.71L12.7099 14.71C12.617 14.8037 12.5064 14.8781 12.3845 14.9289C12.2627 14.9797 12.132 15.0058 11.9999 15.0058C11.8679 15.0058 11.7372 14.9797 11.6154 14.9289C11.4935 14.8781 11.3829 14.8037 11.2899 14.71L7.28994 10.71C7.1967 10.6168 7.12274 10.5061 7.07228 10.3843C7.02182 10.2624 6.99585 10.1319 6.99585 10C6.99585 9.86814 7.02182 9.73757 7.07228 9.61575C7.12274 9.49393 7.1967 9.38324 7.28994 9.29C7.38318 9.19676 7.49387 9.1228 7.61569 9.07234C7.73751 9.02188 7.86808 8.99591 7.99994 8.99591C8.1318 8.99591 8.26237 9.02188 8.38419 9.07234C8.50601 9.1228 8.6167 9.19676 8.70994 9.29L11.9999 12.59L15.2899 9.29C15.4782 9.1017 15.7336 8.99591 15.9999 8.99591C16.2662 8.99591 16.5216 9.1017 16.7099 9.29C16.8982 9.47831 17.004 9.7337 17.004 10C17.004 10.2663 16.8982 10.5217 16.7099 10.71Z" fill="#222221"/>
</svg>
