<svg width="72" height="72" viewBox="0 0 72 72" fill="none" xmlns="http://www.w3.org/2000/svg">
<g clip-path="url(#clip0_209_2582)">
<path d="M0 36C0 16.1178 16.1178 0 36 0C55.8823 0 72 16.1178 72 36C72 55.8823 55.8823 72 36 72C16.1178 72 0 55.8823 0 36Z" fill="#6CFFB0"/>
<path d="M28.8116 21.9113C28.8116 21.9113 10.6461 32.6223 17.081 35.5153C24.3907 38.8029 36.8687 34.2546 36.8687 34.2546L28.8116 21.9113Z" fill="#D6261D"/>
<path d="M39.0859 87.8911C39.0859 87.8911 89.7778 111.335 98.2399 112.932C106.705 114.539 111.892 116.72 114.332 112.528C117.052 112.192 117.251 111.341 118.182 109.132C120.515 108.772 119.633 105.074 115.662 104.344C111.702 103.612 99.308 98.7971 99.308 98.7971C99.308 98.7971 111.617 97.2035 111.721 94.8692C111.837 92.5427 95.2657 91.4501 95.2657 91.4501L47.0454 68.0774L39.0859 87.8911Z" fill="#F8934F"/>
<path d="M55.0123 70.8175C54.4666 71.1059 53.8878 71.4845 53.2814 71.975C47.5401 76.6417 48.0078 85.5308 50.0279 92.0463C53.4264 93.6362 57.3758 95.4818 61.5456 97.3949C61.5166 96.8458 61.5248 96.3097 61.6123 95.7752C61.8284 94.4281 62.7751 93.334 62.9651 92.0171C63.3933 89.0454 60.8004 85.5527 60.2092 82.6506C59.5522 79.4067 61.2036 76.9364 61.3173 73.9693L55.0123 70.8175Z" fill="#F77C2D"/>
<path d="M60.6915 70.8081L60.331 71.9624L53.4877 93.917L50.961 105.568L50.2355 117.184L-15.6375 134.324C-15.6375 134.324 -13.7275 72.4502 19.817 52.58C20.2241 52.6793 20.6341 52.7893 21.044 52.8993C27.1145 54.5129 33.6117 57.0761 39.5533 59.761L39.5805 59.7767C51.2081 65.0533 60.6915 70.8081 60.6915 70.8081Z" fill="#0064C8"/>
<path d="M23.0962 53.2629C23.0962 53.2629 33.3832 64.4905 37.2981 63.5551C41.2131 62.6197 40.9023 59.3399 40.9023 59.3399L23.0962 53.2629Z" fill="#0055A8"/>
<path d="M62.0344 71.315L61.6777 72.4757C60.1828 71.7704 57.6057 70.4455 56.1581 70.3927C53.742 70.3209 52.8475 70.7525 51.0595 68.7717C50.0506 67.6512 49.1313 66.2204 47.715 65.5516C45.9195 64.708 44.1455 63.8586 42.5342 62.3701C41.4517 61.3608 41.1911 61.2004 40.9941 60.2435L41.0213 60.2592C52.5986 65.544 62.0344 71.315 62.0344 71.315Z" fill="#0F70D1"/>
<path d="M20.2867 51.9593C19.6953 53.9521 18.0349 56.0361 16.7786 57.1465C13.3261 60.2082 9.61071 62.4871 7.03773 66.5118C4.18113 71.0164 4.36596 77.1717 2.23872 82.0685C1.28217 84.2747 -0.183997 86.1451 -1.11362 88.3671C-2.79204 92.4167 -2.73173 96.8869 -2.64163 101.211C-2.50157 108.105 -0.39566 113.513 -3.60836 119.866C-5.57739 123.763 -5.52904 127.626 -5.36515 131.537L-15.7324 134.324C-15.7324 134.324 -13.9817 71.781 19.0725 51.6283C19.4773 51.7386 19.882 51.849 20.2867 51.9593Z" fill="#0F70D1"/>
<path d="M42.938 63.9763C42.938 63.9763 48.7845 70.2832 49.4642 87.9985" stroke="#1A1B16" stroke-width="1.89034" stroke-miterlimit="10" stroke-linecap="round" stroke-linejoin="round"/>
<path d="M22.664 25.3541C22.664 25.3541 22.5814 34.0098 27.3599 40.032C28.7517 41.7807 31.7161 35.7531 31.7161 35.7531L33.1858 23.8816L22.664 25.3541Z" fill="#1A1B16"/>
<path d="M49.4751 26.8236C49.4566 27.8391 49.4376 28.8088 49.3965 29.7384C49.3978 29.83 49.3883 29.9244 49.3788 30.0188L49.3766 30.0538C48.5758 47.7689 43.3856 49.6181 43.3856 49.6181C43.3856 49.6181 43.2031 50.4019 42.9293 51.5777C42.3033 54.2831 41.2415 59.069 40.9593 61.2115C38.0556 62.5288 31.3792 58.4373 26.6767 55.1033C26.4925 54.9689 26.3111 54.8452 26.1268 54.7108C23.4719 52.8036 21.9161 52.026 21.9161 52.026L24.8141 37.2287L24.8767 36.9019L24.907 36.756C24.13 36.2406 22.7831 35.0396 22.5031 33.9777C21.9629 31.929 22.9466 29.8857 24.4926 29.5406C25.6401 29.2907 28.2295 30.1245 28.369 32.6939C28.5567 36.0542 30.6974 35.056 30.7816 30.7732C30.8066 29.6526 30.8776 26.579 30.9092 26.1342C31.5123 26.2942 48.3882 27.3903 49.4751 26.8236Z" fill="#F8934F"/>
<path d="M49.7296 28.3457L49.6648 30.2322L49.6626 30.2674C48.8693 48.0526 43.7098 49.9119 43.7098 49.9119C43.7098 49.9119 43.5286 50.6993 43.2568 51.8805L39.4803 50.5386C39.9305 50.6935 40.7952 50.3439 41.2147 50.2072C42.3989 49.8171 43.4887 49.1527 44.3374 48.219C46.7699 45.5065 47.5388 41.0873 48.3046 37.615C48.947 34.6722 49.3889 31.7029 49.7106 28.7085C49.7037 28.595 49.7287 28.4729 49.7296 28.3457Z" fill="#F9AF79"/>
<path d="M50.3909 26.7427C50.378 27.183 50.3624 27.6127 50.3468 28.0424C49.2281 28.4496 47.8977 28.5835 46.9512 28.6238C45.67 28.6785 44.44 28.2611 43.1564 28.4844C42.1169 28.6595 41.1026 29.1533 40.0077 29.0281C38.8413 28.8978 37.9151 28.0365 36.6916 28.1331C35.4324 28.2272 34.3007 28.9851 33.0278 29.0714C32.7068 29.0936 31.9108 28.9067 31.2847 28.611C31.3161 27.8412 31.3393 27.0399 31.3711 26.4941C31.6286 26.2744 31.8972 26.0969 32.1959 25.9456C35.6893 26.2705 49.3959 27.2207 50.3909 26.7427Z" fill="#F77C2D"/>
<path d="M25.3297 43.9605C25.4069 44.976 25.7157 45.7995 26.1043 46.7174C26.428 47.4669 27.0903 48.6705 27.0161 49.5297C26.9457 50.2713 26.3921 51.0064 26.1663 51.7093C25.8545 52.6923 25.9758 53.6606 26.1605 54.6581C26.1715 54.7017 26.1825 54.7452 26.1857 54.8026C26.0056 54.6659 25.8282 54.54 25.6481 54.4033C23.0524 52.4631 21.5307 51.6712 21.5307 51.6712L24.3932 36.6587C24.7371 36.6454 25.087 36.7003 25.336 36.888C25.9031 36.65 26.1587 39.2588 26.0647 39.774C25.7968 41.1525 25.2241 42.5219 25.3297 43.9605Z" fill="#F77C2D"/>
<path d="M26.6644 33.6733C26.6644 33.6733 25.3344 34.2465 24.7463 33.1376C24.1582 32.0287 25.0007 31.0672 25.0007 31.0672C25.3273 31.3179 25.6225 31.5778 25.887 31.8928C26.3133 32.3913 26.6229 33.0047 26.6644 33.6733Z" fill="#F77C2D"/>
<path d="M25.0018 31.0544C25.0018 31.0544 24.1637 32.0199 24.7473 33.1346C25.331 34.2494 26.6535 33.6745 26.6535 33.6745C26.6156 33.0134 26.3055 32.386 25.8821 31.8848C25.4588 31.3835 24.9299 30.9944 24.3962 30.63" stroke="#BF3028" stroke-width="1.89034" stroke-miterlimit="10" stroke-linecap="round" stroke-linejoin="round"/>
<path d="M24.2195 35.8789C24.2195 35.8789 25.0839 36.6877 26.393 36.5998" stroke="#BF3028" stroke-width="1.89034" stroke-miterlimit="10" stroke-linecap="round" stroke-linejoin="round"/>
<path d="M31.3655 48.2163C31.3655 48.2163 38.1519 52.2827 43.2137 49.8337C42.8132 51.63 42.3666 53.4269 42.3666 53.4269C42.3666 53.4269 35.2365 54.0613 31.3655 48.2163Z" fill="#BF3028"/>
<path d="M41.2242 39.1678C40.8944 38.3096 42.7191 36.5927 43.4145 37.6446C44.0991 38.6995 41.6227 40.233 41.2242 39.1678Z" fill="#F77C2D"/>
<path d="M38.0315 34.6469C38.0236 35.121 37.8568 35.4682 37.5048 35.466C37.1529 35.4638 36.8768 35.0715 36.8847 34.5974C36.8926 34.1233 37.1827 33.729 37.5347 33.7312C37.8866 33.7334 38.0394 34.1728 38.0315 34.6469Z" fill="#1A1B16"/>
<path d="M46.3876 34.9432C46.3845 35.3927 46.2252 35.7261 45.8836 35.7209C45.5419 35.7156 45.2849 35.3524 45.2881 34.9029C45.2912 34.4534 45.5768 34.0837 45.9079 34.0919C46.239 34.1002 46.4013 34.4906 46.3876 34.9432Z" fill="#1A1B16"/>
<path d="M35.1489 31.8237C35.1489 31.8237 37.1769 31.0598 39.1188 31.5419" stroke="#1A1B16" stroke-width="1.89034" stroke-miterlimit="10" stroke-linecap="round" stroke-linejoin="round"/>
<path d="M44.791 31.9197C44.791 31.9197 46.4022 31.5529 48.0404 31.957" stroke="#1A1B16" stroke-width="1.89034" stroke-miterlimit="10" stroke-linecap="round" stroke-linejoin="round"/>
<path d="M40.4686 43.8028C40.4892 43.4484 40.0932 43.1216 39.5842 43.0728C39.0751 43.0241 38.6458 43.2719 38.6252 43.6263C38.6046 43.9807 39.0006 44.3076 39.5096 44.3563C40.0187 44.4051 40.448 44.1572 40.4686 43.8028Z" fill="#F77C2D"/>
<path d="M37.9766 40.8899C39.3785 41.9634 41.0603 42.3612 42.8209 41.9461" stroke="#BF3028" stroke-width="1.89034" stroke-miterlimit="10" stroke-linecap="round" stroke-linejoin="round"/>
<path d="M42.0439 32.5945L43.4408 37.7979C43.5382 38.1443 43.4355 38.5259 43.1921 38.7845L42.0078 39.4591" stroke="#BF3028" stroke-width="1.89034" stroke-miterlimit="10" stroke-linecap="round" stroke-linejoin="round"/>
<path d="M39.5446 12.0013C39.5446 12.0013 39.3038 9.98948 40.0787 9.86871C40.8536 9.74795 40.9068 12.1982 40.9068 12.1982L39.5446 12.0013Z" fill="#BF3028"/>
<path d="M50.4624 26.5998C41.7515 27.8555 29.7676 26.8475 25.1683 26.3697C23.9605 26.2487 23.2681 26.1606 23.2681 26.1606C23.2681 26.1606 21.7935 11.3016 39.1621 11.7822C40.8787 11.8357 42.3357 12.1403 43.574 12.6396C51.436 15.8156 50.4624 26.5998 50.4624 26.5998Z" fill="#F52A21"/>
<path d="M40.3966 26.924C40.5763 26.8739 40.6795 26.6857 40.6271 26.5038C40.5747 26.3218 40.3866 26.2149 40.2069 26.265C40.0273 26.3151 39.9241 26.5032 39.9764 26.6852C40.0288 26.8672 40.217 26.9741 40.3966 26.924Z" fill="#FF8A74"/>
<path d="M42.7316 26.9684C42.9113 26.9183 43.0145 26.7302 42.9621 26.5482C42.9097 26.3662 42.7216 26.2593 42.5419 26.3094C42.3622 26.3595 42.259 26.5477 42.3114 26.7296C42.3638 26.9116 42.5519 27.0185 42.7316 26.9684Z" fill="#FF8A74"/>
<path d="M45.0668 27.0128C45.2465 26.9627 45.3497 26.7746 45.2973 26.5926C45.2449 26.4107 45.0568 26.3038 44.8771 26.3539C44.6974 26.404 44.5942 26.5921 44.6466 26.7741C44.699 26.956 44.8871 27.0629 45.0668 27.0128Z" fill="#FF8A74"/>
<path d="M43.932 12.5211C43.9162 12.5477 43.8974 12.5638 43.8678 12.5825C42.8646 13.6044 41.3029 13.7078 39.9286 13.6509C37.5533 13.5438 35.9466 14.2339 34.4774 16.0396C33.8715 16.78 33.218 17.8483 32.2471 18.1964C31.6252 18.4221 30.9169 18.2975 30.2793 18.4256C29.0692 18.6654 27.6064 19.2061 27.1271 20.3994C26.8366 21.1048 26.9528 21.9776 26.8405 22.7392C26.6686 23.9108 26.1407 25.387 25.0295 26.0641C23.809 25.9343 23.1096 25.8412 23.1096 25.8412C23.1096 25.8412 21.8815 11.0171 39.4562 11.628C41.2039 11.6915 42.6764 12.0167 43.932 12.5211Z" fill="#F65852"/>
<path d="M37.3033 25.1917C40.2748 25.5696 44.6551 25.6857 47.6119 25.2082C47.6119 25.2082 48.1926 19.5929 43.0247 19.5765C36.9714 19.546 37.3033 25.1917 37.3033 25.1917Z" fill="#1A1B16"/>
</g>
<defs>
<clipPath id="clip0_209_2582">
<path d="M0 36C0 16.1178 16.1178 0 36 0C55.8823 0 72 16.1178 72 36C72 55.8823 55.8823 72 36 72C16.1178 72 0 55.8823 0 36Z" fill="white"/>
</clipPath>
</defs>
</svg>
