<svg width="72" height="72" viewBox="0 0 72 72" fill="none" xmlns="http://www.w3.org/2000/svg">
<g clip-path="url(#clip0_209_2579)">
<path d="M0 36C0 16.1178 16.1178 0 36 0C55.8823 0 72 16.1178 72 36C72 55.8823 55.8823 72 36 72C16.1178 72 0 55.8823 0 36Z" fill="#7AC7FF"/>
<path d="M26.5959 17.4568C26.886 17.2223 26.7532 16.5883 26.2993 16.0408C25.8454 15.4933 25.2422 15.2397 24.9521 15.4742C24.662 15.7088 24.7947 16.3427 25.2486 16.8902C25.7026 17.4377 26.3057 17.6914 26.5959 17.4568Z" fill="#D6261D"/>
<path d="M42.5884 20.0409L29.7111 32.9285C29.7111 32.9285 25.779 34.4975 23.1972 32.294C22.3648 31.57 21.7195 30.656 21.3162 29.6298C19.9421 26.2157 20.7892 21.1465 26.3956 16.627C28.8604 14.6403 31.043 13.7351 32.9429 13.5222C39.3874 12.8 42.5884 20.0409 42.5884 20.0409Z" fill="#F52A21"/>
<path d="M32.801 13.5288C31.7286 15.4661 29.4579 15.2467 28.0408 16.6311C27.4621 17.1967 27.1733 18.0315 26.5366 18.5287C26.0904 18.8773 25.5254 19.0198 25.03 19.2964C24.481 19.6069 24.0372 20.0777 23.7563 20.6474C23.5148 21.138 23.4065 21.6825 23.2992 22.2194C22.9934 23.7525 22.6868 25.2866 22.4923 26.8383C22.4099 27.4972 22.3412 28.1789 22.0262 28.7609C21.8296 29.1245 21.5464 29.4303 21.2574 29.7311C19.8945 26.2986 20.7367 21.2008 26.3021 16.6537C28.7489 14.6549 30.9153 13.7437 32.801 13.5288Z" fill="#F65852"/>
<path d="M96.831 48.6608L82.2464 76.1543C79.9454 80.4907 74.3461 81.903 70.2102 79.1893L56.389 70.1174L50.8944 93.2177L28.4227 90.2738L26.9878 90.8966C25.3539 91.4622 23.5923 91.5685 21.8994 91.2036C20.2066 90.8386 18.6491 90.0169 17.4005 88.8298L0.416129 86.6048L5.77418 67.0675L4.36855 63.4552L2.78612 59.387C1.11294 53.4867 5.86759 46.3689 12.0621 46.062L22.1286 45.5639L28.2085 45.2627L48.2829 44.904C53.2255 44.8164 58.0134 46.6202 61.6437 49.9376L73.099 60.4057L80.4408 41.1952C80.6512 41.5695 81.0953 41.936 81.845 42.236C82.3877 42.4509 82.9116 42.7094 83.4115 43.0088C86.0822 44.6215 86.4705 46.6644 88.0154 47.4236C90.6194 48.7033 92.0221 47.7242 93.541 48.2546C93.6751 48.3014 93.8055 48.358 93.931 48.4241C95.4098 49.1978 96.2641 49.4914 96.831 48.6608Z" fill="#0064C8"/>
<path d="M8.19991 88.5659C8.34902 87.8461 8.54849 87.132 8.47575 86.4052C8.29137 84.5601 6.44838 83.2626 6.09227 81.4405C5.84801 80.192 6.34562 78.9217 6.35235 77.6482C6.35828 76.1952 5.72687 74.8277 5.22873 73.4632C5.01907 72.9031 4.84342 72.3308 4.70277 71.7493L5.67935 68.1285C5.74413 68.0875 5.81444 68.0497 5.88401 68.013L15.5959 87.5792C16.0428 88.3934 16.6082 89.1359 17.2731 89.7819L8.19991 88.5659Z" fill="#0055A8"/>
<path d="M21.6477 45.8547C20.5443 46.5296 19.3121 46.9661 18.03 47.1361C16.4068 47.3489 14.6255 47.1527 13.2618 48.0632C12.3112 48.6995 11.7394 49.779 10.8304 50.4746C9.95133 51.1472 8.81867 51.4119 7.91728 52.0547C6.36636 53.1604 5.76357 55.1751 5.53459 57.0697C5.30562 58.9643 5.3395 60.9298 4.63587 62.7019C4.46891 63.1202 4.25204 63.5166 3.98997 63.8825L2.42122 59.7797C0.763714 53.8293 5.49202 46.6552 11.6454 46.3494L21.6477 45.8547Z" fill="#0F70D1"/>
<path d="M27.8486 45.6423C27.8486 45.6423 23.8585 48.9415 26.7832 50.7805C29.708 52.6195 35.1259 50.206 37.1127 47.94C37.1127 47.94 42.1369 51.4931 45.1916 49.6959C47.6379 48.2557 42.5691 46.2054 42.5691 46.2054" stroke="#173F80" stroke-width="0.99749" stroke-linecap="round" stroke-linejoin="round"/>
<path d="M35.1197 64.5928C35.1197 64.5928 38.1103 55.2208 37.1582 48.0751" stroke="#173F80" stroke-width="0.99749" stroke-linecap="round" stroke-linejoin="round"/>
<path d="M38.2327 58.8673C38.4162 58.8917 38.5847 58.7629 38.6089 58.5795C38.6332 58.3961 38.504 58.2276 38.3204 58.2032C38.1369 58.1788 37.9684 58.3076 37.9441 58.491C37.9199 58.6744 38.0491 58.8428 38.2327 58.8673Z" fill="#1A1B16"/>
<path d="M37.5661 62.5252C37.7497 62.5497 37.9182 62.4208 37.9424 62.2374C37.9667 62.0541 37.8375 61.8856 37.6539 61.8612C37.4704 61.8367 37.3019 61.9656 37.2776 62.1489C37.2534 62.3323 37.3826 62.5008 37.5661 62.5252Z" fill="#1A1B16"/>
<path d="M29.3965 42.1925C29.3965 42.1925 27.8867 44.2024 26.5201 43.3005C25.1535 42.3986 26.9813 39.7736 26.9813 39.7736C26.9813 39.7736 25.5768 42.2762 24.027 40.9907C22.4772 39.7053 26.672 36.6896 26.7082 34.5966C26.7444 32.5037 23.8107 24.5816 25.9368 20.9696C27.927 17.5888 30.833 18.04 30.833 18.04C30.833 18.04 32.6227 13.4358 37.3047 15.3226C39.541 12.7526 44.7009 11.8923 45.6108 16.7405C48.4213 15.6834 51.7214 22.6516 44.5853 25.0367C37.4492 27.4217 29.3965 42.1925 29.3965 42.1925Z" fill="#FACC73"/>
<path d="M42.081 13.2618C41.7156 13.5935 41.3729 13.9495 41.055 14.3273C40.192 15.334 39.3796 16.4396 38.224 17.0849C37.4096 17.5371 36.4776 17.73 35.5513 17.6381C35.1065 17.5934 34.6548 17.4832 34.2177 17.5788C33.0612 17.8332 32.6624 19.293 31.7367 20.0343C30.7919 20.7904 29.3979 20.7159 28.405 21.4081C27.2357 22.2256 26.9699 23.8227 26.8037 25.2455C26.7215 25.9517 26.6315 29.862 25.9431 31.1909C25.2339 27.9337 24.3132 23.4355 25.774 20.961C27.7681 17.5827 30.6776 18.0324 30.6776 18.0324C30.6776 18.0324 32.4714 13.432 37.1586 15.3153C38.3372 13.966 40.3277 13.0848 42.081 13.2618Z" fill="#F9BD64"/>
<path d="M30.196 19.4916C30.196 19.4916 30.2738 18.9882 30.577 18.0349" stroke="#BF3028" stroke-width="0.99749" stroke-linecap="round" stroke-linejoin="round"/>
<path d="M37.1152 15.1869C36.8463 15.5363 36.6014 15.9043 36.3824 16.2881" stroke="#BF3028" stroke-width="0.99749" stroke-linecap="round" stroke-linejoin="round"/>
<path d="M45.5816 16.4713C45.5816 16.4713 45.3824 17.3469 44.9331 17.8877" stroke="#BF3028" stroke-width="0.99749" stroke-linecap="round" stroke-linejoin="round"/>
<path d="M28.907 30.295L28.6831 27.9146" stroke="#BF3028" stroke-width="0.99749" stroke-linecap="round" stroke-linejoin="round"/>
<path d="M42.2198 42.7096L42.24 43.4618L42.3081 46.0334C41.4662 46.6964 40.0408 47.7287 36.906 47.7862C32.0049 47.8762 27.7453 45.4253 27.7453 45.4253L27.5554 36.1199C26.6055 35.8602 25.7638 35.0904 25.3908 34.0086C24.8885 32.5605 25.387 31.0346 26.5101 30.3346L26.5152 30.3318C26.6049 30.2841 27.8494 29.6667 29.1047 30.2537C29.3199 32.6445 29.6979 35.4008 29.9217 36.9465C29.9668 37.2541 30.1213 37.5353 30.3567 37.7382C30.5921 37.9411 30.8926 38.0521 31.2028 38.0507C31.513 38.0493 31.8121 37.9356 32.0449 37.7306C32.2777 37.5257 32.4285 37.2431 32.4697 36.9351C32.4813 36.8454 32.4837 36.7547 32.4767 36.6645C32.4767 36.6645 31.9637 29.8979 31.771 27.2864C35.4028 27.5987 40.3968 26.413 42.9958 25.6781C43.9591 25.4055 44.5933 25.1939 44.7085 25.1424C44.7528 25.4265 44.8016 25.7433 44.8536 26.0862C44.8521 26.098 46.1895 35.6418 45.8552 38.1839C45.3825 41.7608 42.2198 42.7096 42.2198 42.7096Z" fill="#F8934F"/>
<path d="M41.3875 25.9836C38.8224 27.9515 33.7418 28.8397 31.7595 29.1214C31.7011 28.369 31.6492 27.694 31.6093 27.1818C34.6445 27.4321 38.6189 26.6681 41.3875 25.9836Z" fill="#F77C2D"/>
<path d="M42.2963 42.6281L42.3166 43.3858L37.5921 43.299C37.8055 43.2847 43.7291 42.3627 44.7206 38.5512C45.7268 34.6852 44.1762 27.3848 43.7145 25.2755C44.6653 25 44.6292 24.9837 44.7426 24.9341C44.7864 25.2202 44.8348 25.5393 44.8862 25.8847C44.8847 25.8965 44.8896 25.9086 44.8912 25.9196C45.4078 29.3863 46.2095 35.5044 45.8807 38.0654C45.4179 41.6691 42.2963 42.6281 42.2963 42.6281Z" fill="#F9AF79"/>
<path d="M30.9984 47.03C29.0369 46.3715 27.7584 45.6158 27.7584 45.6158L27.5702 36.2573C27.5338 36.2469 27.4979 36.2367 27.4617 36.2246C27.8809 36.2141 28.4029 36.3351 28.5547 36.6395C28.7509 37.034 28.4659 37.6622 28.702 38.1448C28.8121 38.3704 28.9667 38.5714 29.0648 38.8025C29.5363 39.9105 28.5841 41.2647 29.0819 42.3613C29.3298 42.908 29.8764 43.2352 30.3055 43.6498C30.9182 44.241 31.3205 45.0816 31.2944 45.9393C31.2804 46.3214 31.1791 46.6949 30.9984 47.03Z" fill="#F77C2D"/>
<path d="M28.7755 34.0035C28.7755 34.0035 27.6986 34.5194 27.1485 33.6428C26.5983 32.7663 27.2527 31.9508 27.2527 31.9508C27.5355 32.1346 27.7986 32.3473 28.0375 32.5855C28.4178 32.9743 28.7106 33.4659 28.7755 34.0035Z" fill="#F77C2D"/>
<path d="M27.2497 31.9526C27.2497 31.9526 26.5932 32.7668 27.1454 33.6436C27.6977 34.5204 28.7735 34.0045 28.7735 34.0045C28.7085 33.4667 28.415 32.9754 28.0362 32.587C27.6574 32.1987 27.1948 31.9029 26.7271 31.6279" stroke="#BF3028" stroke-width="0.99749" stroke-linecap="round" stroke-linejoin="round"/>
<path d="M36.1516 43.2235C36.1516 43.2235 39.1913 43.892 42.4138 42.7357L42.4326 44.7818C42.4326 44.7818 39.3858 45.5945 36.1516 43.2235Z" fill="#BF3028"/>
<path d="M27.4487 36.2556C27.4487 36.2556 27.8114 36.4438 29.0775 36.4473" stroke="#BF3028" stroke-width="0.99749" stroke-linecap="round" stroke-linejoin="round"/>
<path d="M37.7985 32.0842C37.8326 32.3944 37.7517 32.6312 37.5209 32.6571C37.2901 32.6829 37.0728 32.4521 37.0409 32.1427C37.009 31.8334 37.1653 31.5612 37.3964 31.5324C37.6276 31.5037 37.7637 31.7744 37.7985 32.0842Z" fill="#1A1B16"/>
<path d="M41.8883 33.7456C42.4618 34.0607 41.2101 35.6021 40.5707 35.1505C39.9313 34.6989 41.3231 33.4363 41.8883 33.7456Z" fill="#F77C2D"/>
<path d="M44.2302 31.3034C44.2623 31.593 44.1863 31.8149 43.9705 31.8391C43.7547 31.8634 43.5539 31.6474 43.5215 31.3601C43.4891 31.0728 43.638 30.8158 43.8531 30.7915C44.0683 30.7672 44.1973 31.0154 44.2302 31.3034Z" fill="#1A1B16"/>
<path d="M41.3762 30.0293C41.5954 30.6615 42.0973 32.6441 42.1578 33.4156C42.2015 33.9962 41.6509 34.6925 41.2729 35.0544" stroke="#BF3028" stroke-width="0.99749" stroke-linecap="round" stroke-linejoin="round"/>
<path d="M36.067 30.6231L38.2196 30.3883" stroke="#1A1B16" stroke-width="0.99749" stroke-linecap="round" stroke-linejoin="round"/>
<path d="M42.8628 29.748L44.4686 29.5727" stroke="#1A1B16" stroke-width="0.99749" stroke-linecap="round" stroke-linejoin="round"/>
<path d="M39.7103 37.8945L42.5294 37.2879" stroke="#BF3028" stroke-width="0.99749" stroke-linecap="round" stroke-linejoin="round"/>
<path d="M41.4991 39.2866C41.8442 39.2119 42.0939 39.0052 42.0569 38.8251C42.0198 38.6449 41.71 38.5594 41.3649 38.6342C41.0198 38.7089 40.77 38.9156 40.8071 39.0958C40.8442 39.2759 41.154 39.3614 41.4991 39.2866Z" fill="#F77C2D"/>
</g>
<defs>
<clipPath id="clip0_209_2579">
<path d="M0 36C0 16.1178 16.1178 0 36 0C55.8823 0 72 16.1178 72 36C72 55.8823 55.8823 72 36 72C16.1178 72 0 55.8823 0 36Z" fill="white"/>
</clipPath>
</defs>
</svg>
