<svg width="72" height="72" viewBox="0 0 72 72" fill="none" xmlns="http://www.w3.org/2000/svg">
<g clip-path="url(#clip0_209_2581)">
<path d="M0 36C0 16.1178 16.1178 0 36 0C55.8823 0 72 16.1178 72 36C72 55.8823 55.8823 72 36 72C16.1178 72 0 55.8823 0 36Z" fill="#80C2FE"/>
<path d="M-9.30005 79.932C-9.30005 79.932 -6.48741 55.3482 11.172 52.1672C25.0276 49.676 28.7979 49.6291 28.7979 49.6291L35.7224 56.6809L48.2386 49.0532C48.2386 49.0532 66.6213 50.4328 74.1953 55.7433C81.7694 61.0538 85.1513 78.653 85.5263 93.2988C78.5817 108.829 75.7423 116.383 75.7423 116.383C75.7423 116.383 58.0092 126.501 42.2249 121.707C26.4406 116.912 7.34143 118.117 -1.98048 121.184C-1.17686 112.311 -9.30005 79.932 -9.30005 79.932Z" fill="#F52A21"/>
<path d="M13.4423 71.0256C12.0092 74.8428 8.55369 77.9568 8.60727 82.0619C8.65414 86.013 12.0226 89.2743 12.0762 93.2254C12.1298 97.3439 8.60057 100.672 8.22555 104.771C7.87062 108.648 10.3752 112.13 11.152 115.941C11.3596 116.965 11.4467 117.776 11.4132 118.787C6.07589 119.262 1.41493 120.079 -1.97364 121.198C-1.17002 112.318 -9.29321 79.939 -9.29321 79.939C-9.29321 79.939 -6.48056 55.3552 11.1788 52.1742C12.1298 52.0068 13.0271 51.8461 13.8843 51.6987C14.0517 52.6296 14.1455 53.614 14.1991 54.6587C14.4602 59.755 15.2505 66.2106 13.4423 71.0256Z" fill="#D6261D"/>
<path d="M85.4056 90.0776C84.7493 91.7251 83.9189 93.2921 82.834 94.6984C80.4634 97.7522 76.6462 99.9152 72.8157 99.4196C74.3693 104.02 75.9297 108.648 76.9476 113.382C76.1373 115.398 75.7622 116.396 75.7622 116.396C75.7622 116.396 67.0163 121.385 56.3416 122.698C56.3014 122.584 56.2679 122.47 56.2411 122.356C55.3907 119.155 57.326 115.927 57.681 112.639C58.1029 108.748 56.2947 104.878 56.6697 100.973C57.1184 96.299 60.661 91.9327 59.5628 87.3721C58.9801 84.9546 57.1653 82.9925 56.4688 80.6084C55.7121 78.0168 56.3483 75.251 56.3751 72.5522C56.4086 69.0163 55.384 65.5741 54.8616 62.0784C54.3661 58.73 54.8147 53.7543 56.7769 50.1448C62.6232 51.1158 70.0432 52.8436 74.2086 55.7567C81.2268 60.6721 84.6422 76.1684 85.4056 90.0776Z" fill="#D6261D"/>
<path d="M26.7888 49.79L18.0964 56.6877L29.3403 55.1675L26.1594 60.7527L35.7223 56.6877" stroke="#BF3028" stroke-width="1.56258" stroke-miterlimit="10" stroke-linecap="round" stroke-linejoin="round"/>
<path d="M48.2453 49.0601L53.3683 56.6877L42.1245 55.1675L45.3054 60.7526L35.7424 56.6877" stroke="#BF3028" stroke-width="1.56258" stroke-miterlimit="10" stroke-linecap="round" stroke-linejoin="round"/>
<path d="M16.9383 74.1126C17.7218 76.6373 17.5745 79.4164 16.5365 81.4723C16.4561 81.6264 14.0319 77.4476 13.8578 77.0257C13.1546 75.3314 12.7059 73.5166 12.5385 71.7152C12.3912 70.0544 12.4648 67.8712 14.1859 69.5521C15.4248 70.7508 16.4026 72.3781 16.9383 74.1126Z" stroke="#F65852" stroke-width="2.45548" stroke-miterlimit="10" stroke-linecap="round" stroke-linejoin="round"/>
<path d="M45.6739 68.3534C45.6739 68.3534 45.4195 64.2081 41.5755 62.2527C40.3299 65.5006 43.464 69.0365 43.464 69.0365C43.464 69.0365 39.158 69.9138 38.207 74.4944C39.9683 74.193 43.6314 72.9675 44.6493 70.6638C43.5644 73.5836 46.2766 77.6486 46.2766 77.6486C46.2766 77.6486 48.1785 73.8515 46.2766 70.0477C49.8058 69.9808 51.2256 65.6413 51.1586 64.4827C48.8147 64.6501 47.4352 65.7082 45.6739 68.3534Z" stroke="#F65852" stroke-width="2.45548" stroke-miterlimit="10" stroke-linecap="round" stroke-linejoin="round"/>
<path d="M29.354 67.5698C29.7571 67.5698 30.0839 67.2429 30.0839 66.8398C30.0839 66.4367 29.7571 66.1099 29.354 66.1099C28.9508 66.1099 28.624 66.4367 28.624 66.8398C28.624 67.2429 28.9508 67.5698 29.354 67.5698Z" fill="#F65852"/>
<path d="M35.7224 56.6877C35.7224 56.6877 32.6017 91.8056 34.2759 119.624" stroke="#BF3028" stroke-width="1.56258" stroke-miterlimit="10" stroke-linecap="round" stroke-linejoin="round"/>
<path d="M49.2566 28.9299C48.4999 28.6755 46.0489 28.6018 45.6136 31.9904C45.5064 32.9212 44.6158 33.4503 44.1537 31.9904C43.6849 30.5305 44.1537 23.5926 44.1537 23.5926C44.1537 23.5926 39.2115 16.1391 33.6799 19.3803C30.7133 21.1215 27.3783 26.5057 25.0411 26.1173C25.0344 26.653 25.0277 27.3227 25.0277 28.0862C25.0277 28.0862 24.5121 42.8994 28.798 45.779C28.798 47.0983 28.798 49.6364 28.798 49.6364L35.7225 56.6881L48.2387 49.0604V36.4906C49.6919 36.1959 50.9308 34.9972 51.2858 33.3632C51.6943 31.4948 50.8103 29.6666 49.2566 28.9299Z" fill="#F8934F"/>
<path d="M38.12 46.763L35.6891 48.0354L28.8048 46.5554V45.7718C24.5189 42.8855 25.0345 28.079 25.0345 28.079C25.0278 27.3088 25.0345 26.6392 25.0479 26.1101L26.0391 27.5231C26.0391 27.5231 25.3091 40.91 29.287 44.7606C30.7804 46.2071 33.8006 47.4527 38.12 46.763Z" fill="#F9AF79"/>
<path d="M39.8143 46.0796C35.7024 51.5509 28.7378 48.4838 28.7378 48.4838C28.7378 48.4838 28.7646 46.8899 28.7914 45.7649C28.8449 45.7984 28.8985 45.8319 28.9521 45.8653C32.2603 47.8342 36.3453 47.7538 39.3321 46.2538C39.4861 46.2002 39.6535 46.1399 39.8143 46.0796Z" fill="#BF3028"/>
<path d="M44.06 31.5614C43.973 31.5815 43.8859 31.5949 43.7989 31.5949C42.7743 31.6284 42.0376 30.5703 41.8166 29.5725C41.5956 28.5679 41.6693 27.4965 41.2675 26.5522C40.2429 26.7531 39.3053 27.2554 38.341 27.6572C37.3767 28.0657 36.332 28.3938 35.3007 28.2264C34.2694 28.0657 33.2715 27.2822 33.1778 26.2375C33.1309 25.7084 33.2448 25.0253 32.776 24.7709C32.4813 24.6101 32.1197 24.7307 31.8049 24.8646C30.7669 25.3066 29.7624 25.8156 28.7981 26.3915L29.0794 24.7441C29.0861 24.3088 29.1262 23.8735 29.2066 23.4516C30.6799 21.9582 32.2201 20.2238 33.68 19.3733C39.2049 16.132 44.1538 23.5855 44.1538 23.5855C44.1538 23.5855 43.7587 29.4988 44.06 31.5614Z" fill="#F77C2D"/>
<path d="M48.2456 36.7315V49.067L42.7476 52.4153C43.002 52.0671 43.2163 51.6921 43.3637 51.2836C43.7387 50.2322 43.5914 49.067 43.9128 47.9955C44.3682 46.4686 45.7008 45.3101 46.0959 43.7631C46.3973 42.5979 46.116 41.3724 45.962 40.1803C45.8415 39.2763 45.6607 37.4748 46.4576 36.7784C46.9263 36.3565 47.6295 36.4502 48.2456 36.7315Z" fill="#F77C2D"/>
<path d="M46.5376 33.6708C46.5376 33.6708 47.8234 34.3405 48.5265 33.3025C49.2297 32.2645 48.4663 31.2466 48.4663 31.2466C48.118 31.4609 47.7832 31.702 47.4885 31.9832C47.0131 32.4386 46.638 33.0279 46.5376 33.6708Z" fill="#F77C2D"/>
<path d="M48.4663 31.2536C48.4663 31.2536 49.2297 32.2715 48.5265 33.3095C47.8234 34.3475 46.5376 33.6778 46.5376 33.6778C46.638 33.0282 47.0131 32.4456 47.4885 31.9902C47.964 31.5348 48.5332 31.1933 49.1159 30.8853" stroke="#BF3028" stroke-width="1.56258" stroke-miterlimit="10" stroke-linecap="round" stroke-linejoin="round"/>
<path d="M46.4641 36.7983C46.4641 36.7983 47.261 36.8452 48.2455 36.4902" stroke="#BF3028" stroke-width="1.56258" stroke-miterlimit="10" stroke-linecap="round" stroke-linejoin="round"/>
<path d="M46.0353 15.9313C42.1713 12.5829 31.3091 9.66308 25.0142 15.2147C22.1412 17.7528 25.9048 18.6502 25.9048 18.6502C25.9048 18.6502 17.8218 23.2441 22.0676 27.4899C25.3691 30.7914 35.2535 21.5499 35.2535 21.5499C35.2535 21.5499 33.1775 25.1661 36.171 26.3715C39.1644 27.577 43.5374 23.9607 43.5374 23.9607C43.5374 23.9607 41.1065 31.3271 44.187 32.7335C47.2675 34.1398 45.2384 28.5145 49.6583 29.0034C51.5803 25.8358 50.328 19.648 46.0353 15.9313Z" fill="#1A1B16"/>
<path d="M44.7698 16.3463C44.7698 16.3463 45.935 11.0223 47.3815 11.7724C48.828 12.5224 45.6069 17.0494 45.6069 17.0494L44.7698 16.3463Z" fill="#1A1B16"/>
<path d="M45.8948 16.44C45.8948 16.44 49.0891 13.8952 49.578 15.0136C50.0669 16.1319 46.0555 17.2436 46.0555 17.2436L45.8948 16.44Z" fill="#1A1B16"/>
<path d="M18.4376 55.0203C17.9019 54.8931 17.6474 54.0426 17.5135 53.5939C17.2724 52.7702 17.1786 51.8527 17.3193 51.0022C17.5135 49.8102 18.5582 48.8124 19.8105 49.1204C21.7927 49.6093 21.5315 51.7456 20.7011 53.105C20.3462 53.7077 19.3283 55.2346 18.4376 55.0203Z" fill="#F3EDF3"/>
<path d="M18.652 54.1901C17.9019 54.0093 17.8685 52.0606 17.9421 51.5248C18.0761 50.5203 18.873 49.864 19.8775 50.2658C20.7481 50.6208 20.7012 51.5717 20.3931 52.3083C20.1922 52.7905 19.3484 54.3576 18.652 54.1901Z" fill="#FACC73"/>
<path d="M18.9066 54.6658C18.6789 55.168 17.7949 55.2551 17.3328 55.2953C16.4756 55.3756 15.5649 55.2886 14.7546 54.9872C13.6228 54.5653 12.846 53.3465 13.3884 52.1746C14.2523 50.3196 16.2948 50.996 17.4668 52.0674C17.9824 52.5429 19.2816 53.8354 18.9066 54.6658Z" fill="#F3EDF3"/>
<path d="M18.1298 54.2911C17.8084 54.9943 15.8931 54.646 15.3775 54.4719C14.4198 54.1438 13.9243 53.2397 14.5136 52.3289C15.0292 51.5387 15.9534 51.7731 16.6164 52.2218C17.0517 52.5165 18.4245 53.6415 18.1298 54.2911Z" fill="#FACC73"/>
<path d="M18.9802 54.3509C19.3418 54.7728 19.0471 55.6032 18.8931 56.0452C18.6051 56.8555 18.1431 57.6457 17.5337 58.2618C16.6832 59.1123 15.2434 59.3065 14.413 58.3287C13.087 56.7751 14.5536 55.1947 16.0202 54.5786C16.6631 54.304 18.3775 53.6611 18.9802 54.3509Z" fill="#F3EDF3"/>
<path d="M18.3173 54.9001C18.8196 55.4827 17.7079 57.0833 17.3329 57.4784C16.6364 58.215 15.6051 58.282 15.0292 57.3645C14.5269 56.5676 15.1296 55.8243 15.8127 55.4091C16.248 55.1345 17.8485 54.3577 18.3173 54.9001Z" fill="#FACC73"/>
<path d="M18.3977 54.1768C18.9066 53.9625 19.6098 54.4915 19.9848 54.7728C20.6679 55.2952 21.284 55.9715 21.6791 56.7417C22.2349 57.8131 21.9805 59.2396 20.7951 59.7351C18.9133 60.5186 17.8552 58.6502 17.7146 57.0631C17.6476 56.3666 17.5539 54.5317 18.3977 54.1768Z" fill="#F3EDF3"/>
<path d="M18.7191 54.9737C19.429 54.6723 20.6143 56.2193 20.8755 56.6947C21.3644 57.5854 21.1166 58.5832 20.0652 58.8578C19.1544 59.0922 18.6321 58.2953 18.4379 57.5184C18.3173 57.0095 18.0629 55.2482 18.7191 54.9737Z" fill="#FACC73"/>
<path d="M18.5383 54.4713C18.545 53.9155 19.3218 53.4869 19.7303 53.2659C20.487 52.8507 21.3576 52.5694 22.2215 52.5158C23.4269 52.4489 24.6256 53.2525 24.5988 54.545C24.552 56.5875 22.409 56.7884 20.9022 56.2727C20.2325 56.045 18.5182 55.3888 18.5383 54.4713Z" fill="#F3EDF3"/>
<path d="M19.3956 54.5051C19.409 53.7349 21.3042 53.2796 21.8466 53.2394C22.8578 53.1523 23.6748 53.7885 23.494 54.8533C23.34 55.7841 22.3957 55.9382 21.6055 55.7975C21.0899 55.6971 19.3822 55.2149 19.3956 54.5051Z" fill="#FACC73"/>
<path d="M19.3553 66.5987C18.8397 66.3978 18.7124 65.5205 18.6455 65.0584C18.5249 64.2079 18.5584 63.2905 18.8196 62.4668C19.1745 61.3149 20.3598 60.4711 21.5519 60.9533C23.4471 61.7167 22.8845 63.7927 21.8733 65.025C21.4246 65.5607 20.2058 66.9335 19.3553 66.5987Z" fill="#F3EDF3"/>
<path d="M19.6834 65.8019C18.9669 65.5206 19.208 63.5852 19.3553 63.0629C19.6299 62.0852 20.5071 61.5494 21.4447 62.0919C22.2617 62.5606 22.0742 63.4982 21.6657 64.188C21.3978 64.63 20.3464 66.0631 19.6834 65.8019Z" fill="#F9BD64"/>
<path d="M19.8642 66.3107C19.5628 66.7728 18.6856 66.7326 18.2168 66.7125C17.3596 66.6723 16.4689 66.4514 15.7055 66.0428C14.6407 65.4669 14.0447 64.1477 14.7478 63.0695C15.8595 61.3551 17.7882 62.3061 18.7994 63.5383C19.2481 64.074 20.3597 65.5406 19.8642 66.3107Z" fill="#F3EDF3"/>
<path d="M19.1476 65.8286C18.7324 66.4781 16.8841 65.8687 16.3952 65.621C15.4911 65.1656 15.1295 64.1945 15.8461 63.3842C16.4689 62.6744 17.3461 63.036 17.9422 63.5717C18.3306 63.92 19.536 65.2325 19.1476 65.8286Z" fill="#F9BD64"/>
<path d="M19.9781 66.0095C20.2727 66.4783 19.8709 67.2618 19.6566 67.677C19.2548 68.4404 18.6923 69.157 17.9958 69.6793C17.0315 70.4026 15.585 70.3959 14.8952 69.3043C13.8036 67.5765 15.4778 66.2238 17.0181 65.8153C17.6945 65.6345 19.4892 65.2394 19.9781 66.0095Z" fill="#F3EDF3"/>
<path d="M19.2482 66.4582C19.6634 67.1077 18.3375 68.5342 17.9089 68.869C17.112 69.4985 16.0873 69.4248 15.6454 68.4337C15.2636 67.5765 15.9601 66.9269 16.6968 66.6055C17.1722 66.4046 18.8665 65.8555 19.2482 66.4582Z" fill="#F9BD64"/>
<path d="M19.4289 65.7486C19.9647 65.608 20.5875 66.2308 20.9156 66.5656C21.5183 67.175 22.034 67.9385 22.3152 68.7555C22.7104 69.8939 22.2617 71.2735 21.0161 71.5949C19.0405 72.1106 18.257 70.1015 18.3374 68.5144C18.3775 67.8112 18.545 65.9897 19.4289 65.7486Z" fill="#F3EDF3"/>
<path d="M19.6365 66.5857C20.3799 66.3848 21.3375 68.0858 21.525 68.5948C21.8866 69.5457 21.4982 70.5033 20.42 70.6172C19.4825 70.7176 19.0807 69.8604 19.0003 69.0635C18.9534 68.5479 18.9467 66.7666 19.6365 66.5857Z" fill="#F9BD64"/>
<path d="M19.5295 66.063C19.6166 65.5205 20.4403 65.1991 20.8823 65.0383C21.6859 64.737 22.59 64.5763 23.4539 64.6432C24.6593 64.7437 25.7308 65.7147 25.5232 66.9871C25.1883 69.0029 23.0387 68.9024 21.6189 68.1791C20.9827 67.8644 19.3822 66.967 19.5295 66.063Z" fill="#F3EDF3"/>
<path d="M20.3734 66.217C20.4939 65.4536 22.436 65.2728 22.9784 65.3063C23.9896 65.3665 24.7062 66.1032 24.378 67.1412C24.0901 68.0385 23.1391 68.0586 22.3757 67.8109C21.8868 67.6434 20.2595 66.9202 20.3734 66.217Z" fill="#F9BD64"/>
<path d="M20.6547 77.4744C20.206 77.1529 20.2931 76.2689 20.3466 75.8069C20.4337 74.9497 20.7016 74.0724 21.1502 73.3358C21.7797 72.3044 23.1325 71.7821 24.1705 72.5455C25.8179 73.751 24.7665 75.6261 23.4807 76.5703C22.9182 76.9855 21.398 78.0101 20.6547 77.4744Z" fill="#F3EDF3"/>
<path d="M21.2171 77.3203C20.8153 77.6953 19.9648 77.4409 19.5228 77.3002C18.6991 77.0458 17.8888 76.6172 17.2526 76.0346C16.3619 75.2175 16.1141 73.7911 17.0584 72.9139C18.5585 71.5276 20.1925 72.9273 20.8755 74.3671C21.1702 75.0033 21.8867 76.6975 21.2171 77.3203Z" fill="#F3EDF3"/>
<path d="M51.7341 77.2134C51.2385 77.4612 50.5019 76.9858 50.1068 76.7313C49.3835 76.2625 48.7272 75.6263 48.2786 74.8897C47.6491 73.8584 47.8031 72.4185 48.9549 71.8426C50.7832 70.9252 51.9618 72.7199 52.2163 74.2936C52.3301 74.9767 52.5511 76.7982 51.7341 77.2134Z" fill="#F3EDF3"/>
<path d="M53.0201 65.6476C53.1942 65.1252 54.0581 64.9444 54.5135 64.8506C55.3573 64.6765 56.2747 64.6631 57.1118 64.8707C58.2837 65.1587 59.1878 66.2904 58.7793 67.5093C58.1297 69.4446 56.0202 69.0027 54.7345 68.0651C54.1719 67.6566 52.7321 66.5114 53.0201 65.6476Z" fill="#F3EDF3"/>
<path d="M53.8303 65.929C54.0714 65.199 56.0135 65.3263 56.5425 65.4401C57.5337 65.6611 58.123 66.5049 57.6341 67.4692C57.2122 68.3063 56.268 68.1791 55.5514 67.8108C55.096 67.5764 53.6027 66.6054 53.8303 65.929Z" fill="#F9BD64"/>
<path d="M53.3349 66.1367C52.8527 65.8688 52.8393 64.9848 52.8393 64.5161C52.8326 63.6522 52.9933 62.7548 53.3617 61.9713C53.8706 60.8797 55.1564 60.2033 56.2748 60.8462C58.0494 61.8574 57.2123 63.8397 56.0404 64.9179C55.5247 65.3933 54.1318 66.5854 53.3349 66.1367Z" fill="#F3EDF3"/>
<path d="M53.7703 65.3999C53.1006 65.0249 53.6029 63.1431 53.8172 62.6408C54.219 61.71 55.1699 61.2948 56.0204 61.9645C56.7638 62.5404 56.449 63.4445 55.9535 64.0739C55.632 64.4691 54.3931 65.7481 53.7703 65.3999Z" fill="#F9BD64"/>
<path d="M53.6428 66.2375C53.1941 66.559 52.3905 66.204 51.9619 66.0098C51.1783 65.6549 50.4283 65.1325 49.8658 64.4696C49.0889 63.5454 49.0153 62.0989 50.06 61.3489C51.7208 60.1636 53.1673 61.7507 53.6628 63.2642C53.8838 63.9338 54.3794 65.7018 53.6428 66.2375Z" fill="#F3EDF3"/>
<path d="M53.1474 65.5344C52.5246 65.9831 51.0245 64.7441 50.6629 64.3356C49.9865 63.5789 50.0066 62.5476 50.9642 62.052C51.8013 61.6167 52.4911 62.2797 52.8527 62.9963C53.0871 63.4584 53.73 65.1125 53.1474 65.5344Z" fill="#F9BD64"/>
<path d="M53.8638 65.6748C54.038 66.1972 53.4486 66.8602 53.1339 67.2084C52.558 67.8513 51.828 68.4004 51.0311 68.7353C49.9194 69.1973 48.5131 68.829 48.118 67.6035C47.4885 65.6614 49.444 64.7641 51.0378 64.7507C51.7477 64.744 53.5826 64.8042 53.8638 65.6748Z" fill="#F3EDF3"/>
<path d="M53.0468 65.9292C53.2879 66.6592 51.6472 67.7105 51.1516 67.9315C50.2275 68.3467 49.2498 68.0119 49.0689 66.9471C48.9082 66.023 49.752 65.5609 50.5422 65.4403C51.0445 65.36 52.8191 65.2528 53.0468 65.9292Z" fill="#F9BD64"/>
<path d="M53.5559 65.7885C54.105 65.8421 54.4666 66.6524 54.6608 67.0743C55.0091 67.8578 55.2234 68.7552 55.2033 69.619C55.1698 70.8245 54.2657 71.9562 52.9866 71.8156C50.9575 71.6013 50.9307 69.4449 51.5669 67.985C51.8482 67.3488 52.6451 65.6947 53.5559 65.7885Z" fill="#F3EDF3"/>
<path d="M53.4555 66.6392C54.2189 66.7195 54.5136 68.6415 54.5136 69.1839C54.5136 70.1952 53.8171 70.9586 52.7657 70.6907C51.855 70.4563 51.7746 69.5054 51.9822 68.7353C52.1229 68.233 52.7457 66.5722 53.4555 66.6392Z" fill="#F9BD64"/>
<path d="M54.8146 54.6652C54.5401 54.183 54.9887 53.4196 55.2298 53.0178C55.6718 52.2745 56.2745 51.5914 56.9911 51.1092C57.9956 50.4395 59.4421 50.5266 60.0649 51.6517C61.0627 53.433 59.3149 54.6987 57.7545 55.0201C57.0781 55.1675 55.27 55.4621 54.8146 54.6652Z" fill="#F3EDF3"/>
<path d="M55.5713 54.2569C55.1896 53.5872 56.5959 52.2344 57.0379 51.9197C57.8616 51.3371 58.8862 51.4643 59.2746 52.4755C59.6095 53.3528 58.8795 53.9689 58.1295 54.2435C57.6406 54.4243 55.9262 54.8797 55.5713 54.2569Z" fill="#F9BD64"/>
<path d="M55.3971 54.7656C54.8748 54.9397 54.2118 54.3504 53.8636 54.0423C53.2207 53.4664 52.6648 52.7431 52.33 51.9462C51.8679 50.8346 52.2296 49.4282 53.4551 49.0331C55.3971 48.4036 56.3012 50.3524 56.3146 51.9462C56.3213 52.6427 56.261 54.4776 55.3971 54.7656Z" fill="#F3EDF3"/>
<path d="M55.136 53.9417C54.406 54.1828 53.348 52.5488 53.127 52.0532C52.7118 51.1291 53.0399 50.1514 54.1047 49.9638C55.0289 49.8031 55.4909 50.6402 55.6182 51.4304C55.7052 51.9461 55.8191 53.7207 55.136 53.9417Z" fill="#F9BD64"/>
<path d="M55.6717 54.6054C55.6114 55.1546 54.8011 55.5095 54.3725 55.697C53.5823 56.0386 52.6916 56.2395 51.8277 56.2127C50.6223 56.1725 49.504 55.2483 49.6513 53.9693C49.8924 51.9401 52.042 51.9401 53.4952 52.5897C54.1314 52.8777 55.7721 53.6947 55.6717 54.6054Z" fill="#F3EDF3"/>
<path d="M54.8212 54.4984C54.7341 55.2618 52.8054 55.5364 52.263 55.5364C51.2518 55.5297 50.4951 54.8198 50.7763 53.7751C51.0174 52.8644 51.9683 52.7974 52.7385 53.0117C53.2407 53.1456 54.9015 53.7818 54.8212 54.4984Z" fill="#F9BD64"/>
<path d="M55.4105 54.056C55.9127 54.2836 56.0065 55.1609 56.0533 55.623C56.1404 56.4802 56.06 57.3909 55.7654 58.2079C55.3569 59.3464 54.1448 60.1299 52.9661 59.6009C51.1044 58.7571 51.7607 56.7079 52.8255 55.5225C53.2943 55.0002 54.5734 53.6876 55.4105 54.056Z" fill="#F3EDF3"/>
<path d="M55.0421 54.8393C55.7453 55.1541 55.4171 57.076 55.2497 57.5917C54.9349 58.556 54.0309 59.0583 53.1201 58.4689C52.3299 57.96 52.5509 57.0358 52.9929 56.3662C53.2808 55.9309 54.3925 54.5447 55.0421 54.8393Z" fill="#F9BD64"/>
<path d="M55.2834 54.3641C55.6919 53.9958 56.5357 54.2703 56.9776 54.411C57.7946 54.6788 58.5983 55.1208 59.2211 55.7235C60.0916 56.5606 60.3193 57.987 59.355 58.8442C57.8281 60.2037 56.2209 58.7706 55.5713 57.3174C55.2834 56.6812 54.607 54.9735 55.2834 54.3641Z" fill="#F3EDF3"/>
<path d="M55.8457 55.0136C56.415 54.498 58.0423 55.5761 58.4441 55.9445C59.1941 56.6275 59.2879 57.6521 58.3838 58.2481C57.6003 58.7638 56.8436 58.1812 56.4083 57.5115C56.127 57.0695 55.3167 55.4891 55.8457 55.0136Z" fill="#F9BD64"/>
<path d="M33.2781 36.0217C33.8473 35.3788 31.8785 33.6644 31.4633 34.689C31.2758 35.1511 32.6017 36.7851 33.2781 36.0217Z" fill="#F77C2D"/>
<path d="M28.2554 32.4722C28.2755 32.8941 28.4429 33.1887 28.7577 33.1753C29.0724 33.1552 29.3135 32.8003 29.2867 32.3851C29.2599 31.9699 28.9921 31.6351 28.6773 31.6552C28.3559 31.6685 28.2286 32.0503 28.2554 32.4722Z" fill="#1A1B16"/>
<path d="M35.689 32.4722C35.7091 32.8941 35.8765 33.1887 36.1913 33.1753C36.506 33.1552 36.7471 32.8003 36.7203 32.3851C36.6935 31.9699 36.4257 31.6351 36.1109 31.6552C35.7895 31.6685 35.6622 32.0503 35.689 32.4722Z" fill="#1A1B16"/>
<path d="M35.3005 29.2979C36.5261 29.0032 37.8051 29.0032 39.0306 29.2979" stroke="#1A1B16" stroke-width="1.56258" stroke-miterlimit="10" stroke-linecap="round" stroke-linejoin="round"/>
<path d="M27.2444 29.2984C28.2221 29.064 29.2333 29.0171 30.2244 29.1577" stroke="#1A1B16" stroke-width="1.56258" stroke-miterlimit="10" stroke-linecap="round" stroke-linejoin="round"/>
<path d="M35.0989 42.7294C35.6268 42.5154 35.9714 42.1363 35.8686 41.8826C35.7657 41.629 35.2544 41.5968 34.7266 41.8108C34.1987 42.0248 33.8541 42.4039 33.9569 42.6575C34.0598 42.9112 34.571 42.9433 35.0989 42.7294Z" fill="#F77C2D"/>
<path d="M32.9301 30.3828L31.517 34.354C31.363 34.796 31.4903 35.2849 31.8452 35.5929L32.3943 36.0617" stroke="#BF3028" stroke-width="1.56258" stroke-miterlimit="10" stroke-linecap="round" stroke-linejoin="round"/>
<path d="M36.9884 38.2992C36.7004 39.1563 35.495 40.0805 34.4168 40.3082C34.3097 40.3283 34.2092 40.3484 34.1088 40.3551C33.1779 40.4287 32.3743 40.2077 31.9055 39.7323C31.6176 39.4443 31.4769 39.0827 31.5037 38.7144C31.5372 38.3125 31.718 38.0648 31.9792 37.9174C32.3676 37.6898 32.9234 37.6764 33.3453 37.663C33.6065 37.6563 33.8811 37.6496 34.0686 37.6094C34.2896 37.5558 34.5641 37.4219 34.832 37.2813C35.3142 37.0335 35.8901 36.7388 36.3991 36.9263C36.5062 36.9665 36.6066 37.0268 36.7071 37.1138C37.0352 37.4085 37.1424 37.8371 36.9884 38.2992Z" fill="#1A1B16"/>
<path d="M35.7425 37.2339C35.689 37.4549 35.6019 38.0241 35.4479 38.2384C35.026 38.8277 34.3429 38.9014 33.5326 38.9751C32.9902 39.0219 32.7692 38.3523 32.6821 38.1313C32.9902 37.9036 33.4255 37.8902 33.7603 37.8768C33.9679 37.8701 34.1822 37.8634 34.3295 37.8232C34.5036 37.7696 34.7179 37.6357 34.9322 37.4951C35.314 37.2406 35.7425 37.2339 35.7425 37.2339Z" fill="#EDE3EB"/>
<path d="M36.044 37.3274C36.1043 37.3274 36.1511 37.3341 36.2047 37.3475L36.2315 37.3542C36.2851 37.3743 36.3386 37.4078 36.3855 37.4547C36.6333 37.669 36.6065 37.9502 36.5395 38.1444C36.3119 38.8342 35.2471 39.6445 34.3162 39.8387C34.2359 39.8588 34.1488 39.8722 34.0684 39.8789C33.9613 39.8856 33.8608 39.8923 33.7604 39.8923C33.1108 39.8923 32.5483 39.7115 32.2335 39.3967C32.0393 39.2092 31.9523 38.9815 31.9657 38.7404C31.9857 38.4793 32.0996 38.3788 32.2134 38.3118C32.5014 38.1444 32.9903 38.131 33.3519 38.1243H33.3586C33.6398 38.1176 33.9345 38.1109 34.1689 38.0574C34.4502 37.9904 34.7515 37.8364 35.0395 37.689C35.3743 37.5216 35.7493 37.3274 36.044 37.3274ZM36.044 36.8586C35.6288 36.8586 35.2002 37.0796 34.8252 37.2738C34.5573 37.4078 34.2894 37.5484 34.0617 37.602C33.8742 37.6422 33.5997 37.6489 33.3385 37.6556C32.9166 37.669 32.3608 37.6823 31.9724 37.91C31.7112 38.0641 31.5304 38.3051 31.4969 38.707C31.4701 39.082 31.6107 39.4436 31.8987 39.7249C32.3072 40.1334 32.9769 40.3611 33.7537 40.3611C33.8675 40.3611 33.9814 40.3544 34.1019 40.3477C34.2024 40.341 34.3095 40.3209 34.41 40.3008C35.4815 40.0731 36.6936 39.1556 36.9815 38.2918C37.1356 37.8364 37.0284 37.4011 36.6936 37.1064C36.5931 37.0194 36.4927 36.9591 36.3855 36.9189C36.2784 36.8787 36.1645 36.8586 36.044 36.8586Z" fill="#1A1B16"/>
</g>
<defs>
<clipPath id="clip0_209_2581">
<path d="M0 36C0 16.1178 16.1178 0 36 0C55.8823 0 72 16.1178 72 36C72 55.8823 55.8823 72 36 72C16.1178 72 0 55.8823 0 36Z" fill="white"/>
</clipPath>
</defs>
</svg>
