<svg width="72" height="72" viewBox="0 0 72 72" fill="none" xmlns="http://www.w3.org/2000/svg">
<g clip-path="url(#clip0_209_2586)">
<path d="M0 36C0 16.1178 16.1178 0 36 0C55.8823 0 72 16.1178 72 36C72 55.8823 55.8823 72 36 72C16.1178 72 0 55.8823 0 36Z" fill="#EFFC5E"/>
<path d="M15.115 44.0378C15.115 44.0378 15.3707 40.609 18.9197 39.8722C22.4839 39.1353 22.4538 40.1278 25.2961 39.6315C28.1383 39.1353 28.8452 35.511 28.8452 35.511V40.3835C28.8452 40.3835 27.1458 41.782 22.935 41.4813C18.7242 41.1805 17.4159 41.3309 15.115 44.0378Z" fill="#0064C8"/>
<path d="M27.1157 35.1652C27.1157 35.1652 21.1604 24.8036 29.7926 18.6679C38.3795 12.5623 45.7033 16.9686 47.8087 21.9764C49.9141 26.9842 47.8087 32.0071 47.8087 32.0071L32.2739 37.7217L27.1157 35.1652Z" fill="#0064C8"/>
<path d="M35.7929 15.9312C34.4394 16.5628 33.0107 17.9613 32.1836 19.1644C31.2061 20.5781 31.8829 22.1421 31.2212 23.6309C30.6798 24.849 29.3414 25.3753 28.7849 26.5784C28.1232 28.0071 28.7248 29.4207 29.0406 30.8343C29.4015 32.4434 29.6572 34.3684 27.8375 35.1654C27.7172 35.2256 27.5818 35.2707 27.4615 35.3158L27.1457 35.1654C27.1457 35.1654 21.1905 24.8039 29.8226 18.6682C31.8829 17.1793 33.898 16.3071 35.7929 15.9312Z" fill="#0055A8"/>
<path d="M41.5978 16.2618L33.071 16.7882C33.071 16.7882 32.9958 15.8107 32.695 14.758C23.7922 12.5623 12.7389 19.9462 2.36235 27.7362C0.43742 29.1799 -1.47248 30.6386 -3.32221 32.0522C-15.2026 41.0754 -37.9108 44.4891 -48.4377 35.2103C-60.9498 24.1871 -42.8735 15.2091 -39.8658 17.7657C-42.0313 17.886 -44.3924 21.8561 -36.6325 23.2998C-34.6925 23.6608 -32.1059 23.8713 -28.7373 23.8262C-11.8942 23.5705 -10.0896 11.4495 11.6712 7.38909C33.4169 3.32869 41.5978 16.2618 41.5978 16.2618Z" fill="#0064C8"/>
<path d="M2.36234 27.7361C0.437416 29.1798 -1.47248 30.6385 -3.32222 32.0521C-15.2026 41.0752 -37.9108 44.489 -48.4377 35.2102C-60.9498 24.187 -42.8735 15.209 -39.8658 17.7655C-42.0313 17.8858 -44.3924 21.856 -36.6325 23.2997C-32.7526 25.4803 -26.4665 24.7133 -22.6918 24.187C-18.4209 23.6005 -12.8265 20.8935 -9.81885 24.5479C-6.45022 28.6384 -2.94625 26.7586 1.7608 27.5857C1.97134 27.6458 2.16684 27.6909 2.36234 27.7361Z" fill="#0055A8"/>
<path d="M-39.8657 17.7655C-46.4526 18.8332 -46.9188 23.9012 -45.4901 27.345C-41.8659 36.0674 -29.0079 33.992 -21.6691 31.8867C-12.5408 29.2549 -4.87113 24.0215 3.23463 19.4498C10.799 15.1789 19.1604 11.4042 28.2286 12.096C30.2288 12.2464 32.2138 12.6073 34.1388 13.1487" stroke="#173F80" stroke-width="2.50642" stroke-miterlimit="10" stroke-linecap="round" stroke-linejoin="round"/>
<path d="M35.3267 23.2546L34.5146 25.6307" stroke="#173F80" stroke-width="2.50642" stroke-miterlimit="10" stroke-linecap="round" stroke-linejoin="round"/>
<path d="M21.8223 41.0152L22.9501 40.1279" stroke="#173F80" stroke-width="2.50642" stroke-miterlimit="10" stroke-linecap="round" stroke-linejoin="round"/>
<path d="M42.1842 16.4874C38.966 15.4798 35.462 15.7656 32.3791 17.1491C32.3791 17.1491 32.3791 17.1341 32.3641 17.1341C31.8377 15.9611 32.4694 14.5926 33.7176 14.2467C35.9433 13.6301 38.2893 13.4948 40.5751 13.8707C41.7932 14.0662 42.5602 15.2994 42.1842 16.4874Z" fill="#F52A21"/>
<path d="M42.1994 16.4725V16.4876C41.3121 16.2169 40.4098 16.0364 39.4924 15.9462C39.4774 15.886 39.4624 15.8259 39.4473 15.7657C39.312 15.1642 39.0864 14.7582 38.6052 14.3672C38.4097 14.2017 38.0037 13.931 37.7781 13.6453C38.7105 13.6303 39.6579 13.6904 40.5903 13.8408C41.8084 14.0513 42.5603 15.2845 42.1994 16.4725Z" fill="#F65852"/>
<path d="M62.9977 64.8811V87.093C62.9977 87.093 60.9374 86.7471 58.4561 86.4012C56.0649 86.0704 53.2678 85.7395 51.5684 85.7395C50.3653 91.003 44.6507 99.4246 44.6507 99.4246C44.6507 99.4246 35.6577 124.163 24.86 160.722C14.9647 147.187 -4.25453 152.029 -21.8496 153.834C-39.4446 155.639 -52.2424 142.781 -52.2424 142.781L-14.7514 91.0181L-2.97626 55.6926C-0.570099 51.9931 3.56548 49.7825 7.97176 49.8276L18.1228 49.9328L43.8386 50.2035L48.5156 50.2487C49.0419 50.2487 49.5683 50.2938 50.0796 50.3539C50.0946 50.3539 50.0946 50.3539 50.1097 50.3539C57.3883 51.2262 62.9977 57.3919 62.9977 64.8811Z" fill="#5FAEF2"/>
<path d="M46.0493 57.437C45.2522 59.2567 43.7935 59.6928 42.2896 60.7305C39.9737 62.3396 37.0262 62.881 34.244 62.2644C32.8455 61.9486 31.3566 61.5576 29.9129 61.5125C29.2061 61.4974 28.4843 61.5576 27.7775 61.5275C25.5668 61.3922 24.093 60.0537 22.6945 58.4596C22.2132 57.9032 21.6418 57.3468 21.2508 56.7302C20.6943 55.873 20.5891 54.8053 20.0477 53.9481C19.8823 53.6774 19.6266 53.151 19.401 52.8352C19.3108 52.6999 19.3258 52.5194 19.4461 52.4292C21.4613 55.5271 26.033 60.3846 34.8756 60.174C40.3346 60.0537 43.9439 58.1739 46.2748 56.0685C46.35 56.3994 46.2899 56.8505 46.0493 57.437Z" fill="#4598E0"/>
<path d="M-19.9395 98.1917C-16.9318 95.5149 -13.9241 92.838 -10.8412 90.2363C-8.13431 87.9655 -5.11158 86.4917 -2.99115 83.7547C1.73095 77.6341 9.17501 68.1297 18.0477 72.0698C22.0179 73.8293 23.8827 76.1302 28.3792 76.8821C30.7854 77.2882 34.8307 77.6341 36.5601 79.574C42.1544 85.8 31.4922 93.8005 29.086 98.7331C26.2888 104.448 32.0787 110.538 28.8604 116.118C25.8226 121.381 18.4989 118.479 13.8069 121.516C9.62617 124.223 9.11485 128.9 5.88157 132.194C2.04675 136.119 -2.0738 136.044 -7.20193 136.254C-10.4803 136.39 -13.3978 136.72 -16.2551 138.435C-19.729 140.525 -21.7592 143.397 -26.1204 143.187C-29.7296 143.006 -33.79 141.458 -36.3616 138.946C-38.6324 136.72 -40.1062 130.81 -43.0236 130.239C-43.0537 130.224 -43.0988 130.194 -43.1289 130.179L-19.9395 98.1917Z" fill="#4598E0"/>
<path d="M55.5835 86.0404C54.0646 85.8749 52.6059 85.7396 51.5682 85.7396C51.5532 85.7997 51.5381 85.8599 51.5231 85.92C51.4329 85.3035 51.6284 85.0328 51.884 84.341C52.8314 81.7243 53.2525 78.8369 53.3728 76.0548C53.433 74.581 53.042 73.2125 52.9217 71.6184C53.3879 71.7387 53.9293 73.5734 54.1097 74.1148C54.6511 75.7239 54.6511 77.4985 54.9519 79.1527C55.2226 80.6265 56.3204 84.1455 55.5835 86.0404Z" fill="#4598E0"/>
<path d="M53.0271 71.3027C53.0271 71.3027 54.2302 77.7242 51.5684 85.7397" stroke="#1A1B16" stroke-width="2.00513" stroke-miterlimit="10" stroke-linecap="round" stroke-linejoin="round"/>
<path d="M62.9978 64.8811V87.093C62.9978 87.093 60.9375 86.7471 58.4562 86.4012C58.6517 84.5966 59.6893 82.9424 59.6893 80.9723C59.7043 78.3105 58.8923 76.3705 59.5389 73.6185C60.1104 71.1672 61.6894 68.761 60.6367 66.3098C60.1405 65.1668 59.0878 64.2344 58.7419 63.0464C58.4561 62.0388 58.4862 60.7154 58.3509 59.6627C57.9599 56.7152 56.8169 55.6174 54.2153 54.0684C52.8017 53.2263 50.576 52.0382 50.0947 50.3389C50.1098 50.3389 50.1098 50.3389 50.1248 50.3389C57.3884 51.2261 62.9978 57.3919 62.9978 64.8811Z" fill="#71B6F2"/>
<path d="M50.1246 50.3541C49.4028 52.4294 46.0041 59.9186 34.8756 60.1743C21.9424 60.475 18.1377 49.933 18.1377 49.933L26.9503 49.7375L28.6647 36.8646C27.5819 36.3382 26.83 35.1201 26.83 33.6914C26.83 31.7966 28.1684 30.2176 29.8377 30.2476C30.1835 30.2476 31.3716 30.6537 31.3716 32.3079C31.3716 33.9621 32.8754 34.308 33.2213 32.3079C33.4018 31.2703 33.6123 29.2701 34.1387 27.5557C34.6199 25.9767 35.3718 24.6232 36.6351 24.4879C38.8457 24.2322 45.959 23.3901 48.696 25.6759C48.711 25.691 48.711 25.721 48.726 25.7511C48.9215 26.7888 48.7411 35.7216 48.32 38.5188C47.4177 44.5342 44.3047 45.241 44.3047 45.241L43.8535 50.2037L48.5305 50.2488C49.0569 50.2488 49.5983 50.294 50.1246 50.3541Z" fill="#F8934F"/>
<path d="M31.3415 47.9779C31.2663 48.7299 30.8001 49.3765 30.6948 50.1435C30.5896 50.9255 30.8152 51.7225 30.4091 52.4293C29.7474 53.5422 28.424 53.7377 27.236 53.7227C25.9728 53.6926 25.2359 53.0008 24.0779 52.6399C23.341 52.4143 22.5289 52.5497 21.7921 52.685C20.9499 52.8354 20.3935 53.061 19.8521 53.0158C18.634 51.2864 18.1377 49.948 18.1377 49.948L26.9503 49.7525L28.6195 37.2705C28.8451 37.1953 29.1308 37.1803 29.4767 37.2555C30.6497 37.1352 30.3339 39.6917 30.1685 40.2632C29.8978 41.1505 29.7023 41.8122 29.7023 42.7596C29.7023 44.098 30.1384 44.6394 30.74 45.7974C31.0708 46.444 31.4167 47.211 31.3415 47.9779Z" fill="#F77C2D"/>
<path d="M37.7478 44.4893C37.7478 44.4893 41.4022 46.339 44.3046 45.2412C44.1392 47.0909 44.079 47.7526 44.079 47.7526C44.079 47.7526 40.5149 47.888 37.7478 44.4893Z" fill="#BF3028"/>
<path d="M30.3941 34.4588C30.3941 34.4588 29.3564 34.9852 28.8 34.143C28.2436 33.3008 28.8602 32.4888 28.8602 32.4888C29.1459 32.6692 29.4015 32.8647 29.6421 33.0903C30.0181 33.4663 30.3189 33.9325 30.3941 34.4588Z" fill="#F77C2D"/>
<path d="M28.8602 32.4885C28.8602 32.4885 28.2436 33.3006 28.8 34.1428C29.3565 34.9849 30.3941 34.4586 30.3941 34.4586C30.3189 33.9322 30.0182 33.466 29.6422 33.0901C29.2662 32.7141 28.8 32.4434 28.3489 32.1877" stroke="#BF3028" stroke-width="2.00513" stroke-miterlimit="10" stroke-linecap="round" stroke-linejoin="round"/>
<path d="M28.6646 36.8496C28.6646 36.8496 29.5969 37.391 30.394 37.2406" stroke="#BF3028" stroke-width="2.00513" stroke-miterlimit="10" stroke-linecap="round" stroke-linejoin="round"/>
<path d="M26.9053 49.7527L26.6045 51.1212" stroke="#BF3028" stroke-width="2.00513" stroke-miterlimit="10" stroke-linecap="round" stroke-linejoin="round"/>
<path d="M43.8535 50.2039L43.6731 52.1288" stroke="#BF3028" stroke-width="2.00513" stroke-miterlimit="10" stroke-linecap="round" stroke-linejoin="round"/>
<path d="M48.726 25.7513C47.944 26.2776 46.8161 25.646 45.989 25.4355C44.9062 25.1497 44.0039 25.5407 42.9362 25.5257C41.8384 25.5257 40.8007 25.1347 39.718 25.1196C38.4998 25.1046 37.5073 25.3001 36.3944 25.8415C35.7328 26.1723 34.6801 26.7889 34.1387 27.5408C34.6199 25.9618 35.3718 24.6083 36.6351 24.473C38.8457 24.2173 45.9589 23.3752 48.696 25.661C48.711 25.6911 48.711 25.7061 48.726 25.7513Z" fill="#F77C2D"/>
<path d="M41.5077 35.9771C41.0565 35.3755 42.9664 34.0521 43.3875 34.9845C43.8236 35.9169 42.1092 36.8042 41.5077 35.9771Z" fill="#F77C2D"/>
<path d="M39.6131 33.4957C39.553 33.8716 39.3725 34.1273 39.0868 34.0822C38.801 34.037 38.6206 33.6912 38.6807 33.3152C38.7409 32.9392 39.0266 32.6685 39.2973 32.7137C39.5981 32.7588 39.6733 33.1197 39.6131 33.4957Z" fill="#1A1B16"/>
<path d="M45.6885 33.932C45.6284 34.2929 45.4629 34.5335 45.1923 34.4884C44.9216 34.4433 44.7561 34.1124 44.8163 33.7666C44.8764 33.4056 45.1321 33.15 45.4028 33.1951C45.6735 33.2252 45.7487 33.5711 45.6885 33.932Z" fill="#1A1B16"/>
<path d="M42.6206 36.3079L42.9364 36.1425C43.2973 35.947 43.4928 35.556 43.4477 35.15L42.9063 31.3452" stroke="#BF3028" stroke-width="2.00513" stroke-miterlimit="10" stroke-linecap="round" stroke-linejoin="round"/>
<path d="M38.2594 36.5636C37.6729 36.8944 37.6128 37.8118 37.9436 38.3983C38.3948 39.2254 39.282 39.857 40.1844 40.0976C41.0265 40.3232 42.0491 40.2179 42.6807 39.5713C43.0567 39.1803 43.2522 38.4133 42.6958 38.0825C42.395 37.902 42.004 37.9622 41.6732 37.9471C41.237 37.917 40.8009 37.8418 40.455 37.5712C39.9888 37.2102 39.4174 36.4282 38.7858 36.4282C38.5752 36.4282 38.3948 36.4884 38.2594 36.5636Z" fill="#1A1B16"/>
<path d="M42.0341 38.3232L41.598 38.7593C41.192 39.1503 40.9513 39.3608 40.4551 39.0902L39.8836 38.8646C39.5077 38.654 39.267 38.263 39.2219 37.842L39.1467 36.8945C39.643 37.3156 39.7332 37.3457 40.3197 37.6615C40.9965 37.9923 41.3123 38.1427 42.0341 38.3232C42.0492 38.3232 42.0341 38.3232 42.0341 38.3232Z" fill="#F3EDF3"/>
<path d="M38.7858 36.4285V36.8796C39.0565 36.8796 39.4324 37.2405 39.7181 37.5112C39.8685 37.6616 40.0189 37.812 40.1693 37.9173C40.6505 38.2782 41.207 38.3534 41.6431 38.3835C41.7333 38.3835 41.8236 38.3835 41.9138 38.3835C42.1243 38.3835 42.3499 38.3835 42.4702 38.4587C42.5454 38.5038 42.5755 38.5639 42.5905 38.6391C42.6206 38.8196 42.5153 39.0752 42.3649 39.2407C42.0491 39.5565 41.5679 39.7369 41.0115 39.7369C40.7709 39.7369 40.5302 39.7069 40.3047 39.6467C39.4926 39.4211 38.7106 38.8497 38.3346 38.1579C38.109 37.7669 38.1241 37.1202 38.485 36.9247C38.5602 36.8796 38.6655 36.8495 38.7858 36.8495V36.4285ZM38.7858 36.4285C38.5752 36.4285 38.3948 36.4736 38.2594 36.5638C37.6729 36.8947 37.6128 37.812 37.9436 38.3985C38.3948 39.2256 39.282 39.8573 40.1844 40.0979C40.44 40.1731 40.7257 40.2031 41.0115 40.2031C41.6281 40.2031 42.2446 40.0076 42.6807 39.5715C43.0567 39.1805 43.2522 38.4136 42.6958 38.0827C42.395 37.9022 42.004 37.9624 41.6732 37.9474C41.237 37.9173 40.8009 37.8421 40.455 37.5714C39.9888 37.2255 39.4174 36.4285 38.7858 36.4285Z" fill="#1A1B16"/>
<path d="M37.7485 29.8266C37.7485 29.8266 39.2825 29.0897 40.8164 29.3754" stroke="#1A1B16" stroke-width="2.00513" stroke-miterlimit="10" stroke-linecap="round" stroke-linejoin="round"/>
<path d="M44.8464 29.4956C44.8464 29.4956 46.1397 29.5257 47.2977 30.1723" stroke="#1A1B16" stroke-width="2.00513" stroke-miterlimit="10" stroke-linecap="round" stroke-linejoin="round"/>
<path d="M39.4963 41.0888C39.5678 40.8588 39.3364 40.5824 38.9796 40.4715C38.6227 40.3605 38.2754 40.4571 38.2039 40.6871C38.1324 40.9171 38.3638 41.1934 38.7207 41.3044C39.0776 41.4153 39.4248 41.3188 39.4963 41.0888Z" fill="#F77C2D"/>
</g>
<defs>
<clipPath id="clip0_209_2586">
<path d="M0 36C0 16.1178 16.1178 0 36 0C55.8823 0 72 16.1178 72 36C72 55.8823 55.8823 72 36 72C16.1178 72 0 55.8823 0 36Z" fill="white"/>
</clipPath>
</defs>
</svg>
