<svg width="72" height="72" viewBox="0 0 72 72" fill="none" xmlns="http://www.w3.org/2000/svg">
<g clip-path="url(#clip0_209_2588)">
<path d="M0 36C0 16.1178 16.1178 0 36 0C55.8823 0 72 16.1178 72 36C72 55.8823 55.8823 72 36 72C16.1178 72 0 55.8823 0 36Z" fill="#91D767"/>
<path d="M57.2668 50.772L38.1096 54.8786L36.2688 49.7201L33.8817 43.1253L29.7751 31.716L43.7536 27.3464C44.1987 28.7625 57.2668 50.772 57.2668 50.772Z" fill="#FFA79B"/>
<path d="M36.2478 49.7403L36.349 50.0033C38.8979 47.8185 40.5567 44.7639 41.3052 41.3047C42.2964 36.7126 41.2243 32.7072 40.1116 28.4792L29.7947 31.7159L33.9012 43.1253L36.2478 49.7403Z" fill="black"/>
<path d="M46.727 29.3897C46.4033 32.3027 44.4006 38.6548 44.1579 39.1807C41.4471 45.2495 33.6184 49.6798 27.7114 44.8652C27.6709 44.8247 27.6305 44.8045 27.59 44.764C27.5293 44.7236 27.4889 44.6629 27.4282 44.6022C27.3877 44.5617 27.3473 44.501 27.2866 44.4404C27.2664 44.4201 27.2664 44.3999 27.2461 44.3797C27.1652 44.2785 27.1045 44.1774 27.0236 44.0762C26.9225 43.9346 26.8415 43.7728 26.7404 43.5907C26.6999 43.53 26.6797 43.4693 26.6393 43.4087C26.5988 43.3277 26.5381 43.2266 26.4976 43.1255C26.4572 43.0648 26.437 42.9838 26.3965 42.9029C26.3358 42.7613 26.2751 42.5995 26.1942 42.4377C26.1335 42.2758 26.0728 42.114 26.0121 41.9319C25.7896 41.3453 25.5873 40.6979 25.4053 40.0101C25.4053 39.9899 25.4053 39.9899 25.4053 39.9697C25.385 39.8685 25.3446 39.7674 25.3243 39.6662C25.3041 39.5651 25.2637 39.4639 25.2434 39.3628C25.0614 38.6345 24.8793 37.8456 24.6972 37.0364C24.414 35.7215 24.1713 34.3459 23.9488 32.9703C23.9488 32.9501 23.9487 32.9299 23.9285 32.8894C23.3216 29.0661 22.8968 25.2427 22.6541 22.8556C22.6338 22.7343 22.6338 22.6129 22.6136 22.5117C22.6136 22.4713 22.6136 22.4308 22.5934 22.3904C21.8651 15.2899 38.9589 10.5562 43.8747 15.8765C46.7675 18.9918 47.3136 24.2919 46.727 29.3897Z" fill="#FFA79B"/>
<path d="M43.9353 15.9172C41.0223 12.7816 33.8813 13.1457 28.6622 15.4317C27.7316 15.4317 26.8213 15.5126 25.911 15.6542C24.8995 15.816 23.625 15.9779 22.9373 16.8275C22.6338 17.2118 22.4922 17.6771 22.5327 18.1222C22.4315 18.1829 22.3304 18.2435 22.209 18.3042C20.9345 19.0527 19.9635 20.8531 21.3594 22.0264C22.6338 23.0784 24.9197 22.4715 26.3155 22.0871C26.3965 22.0669 26.4976 22.0264 26.5785 22.0062C29.0263 22.2894 31.4943 21.8444 33.679 20.752C34.8321 20.9138 35.9447 20.8734 37.0573 20.6508C37.1585 20.6913 37.2596 20.752 37.3608 20.8127C37.8463 21.1161 38.1902 21.5612 38.4734 22.0467C38.5745 22.1276 41.1639 27.9739 39.2623 29.309C34.4275 32.748 28.1362 33.6988 23.9892 33.011C24.2117 34.3866 24.4544 35.7824 24.7377 37.0771C24.8995 37.8862 25.0816 38.655 25.2839 39.4034C25.3041 39.5046 25.3445 39.6057 25.3648 39.7069C25.385 39.808 25.4255 39.9092 25.4457 40.0103C25.4457 40.0306 25.4457 40.0306 25.4457 40.0508C25.648 40.7386 25.8503 41.3859 26.0526 41.9726C26.1133 42.1344 26.1739 42.3165 26.2346 42.4783C26.2953 42.6401 26.356 42.802 26.4369 42.9436C26.4774 43.0245 26.4976 43.0852 26.5381 43.1661C26.5785 43.2673 26.6392 43.3684 26.6797 43.4493C26.7201 43.51 26.7404 43.5707 26.7808 43.6314C26.882 43.7932 26.9629 43.955 27.064 44.1169C27.1247 44.218 27.2056 44.3192 27.2866 44.4203C27.3068 44.4406 27.3068 44.4608 27.327 44.481C27.3675 44.5417 27.4079 44.5822 27.4686 44.6428C27.5293 44.7035 27.5698 44.7642 27.6304 44.8047C27.6709 44.8451 27.7114 44.8654 27.7518 44.9058C33.6588 49.7204 41.7708 45.6948 44.3197 39.5451C44.9468 38.0076 44.3197 34.3259 43.996 32.93C43.7937 32.04 45.7357 30.7048 46.7472 29.4101C47.3136 24.2921 46.7674 18.992 43.9353 15.9172Z" fill="#697CCC"/>
<path d="M30.6848 31.2507C30.1588 31.453 29.5924 31.6755 29.0057 31.6351C28.3382 31.5946 27.5492 31.0484 27.8729 30.2999C27.9943 29.9965 27.5492 29.7537 27.4278 30.0572C27.1244 30.7652 27.4278 31.5541 28.1156 31.9183C28.9855 32.3835 29.9767 32.0599 30.8466 31.7362C31.15 31.6351 31.0084 31.1496 30.6848 31.2507Z" fill="#D24A43"/>
<path d="M34.1239 26.5979C34.225 27.0632 34.3059 27.5285 34.4071 27.9937C34.5082 28.4792 35.2162 28.2365 35.1353 27.7712C35.0342 27.3059 34.9533 26.8407 34.8521 26.3754C34.751 25.8899 34.0429 26.1326 34.1239 26.5979Z" fill="black"/>
<path d="M24.5963 27.6096C24.6974 28.0749 24.7783 28.5401 24.8795 29.0054C24.9806 29.4909 25.6887 29.2482 25.6077 28.7829C25.5066 28.3176 25.4257 27.8523 25.3245 27.3871C25.2234 26.9218 24.4951 27.1443 24.5963 27.6096Z" fill="black"/>
<path d="M25.2635 23.6648C24.7375 23.8266 24.2116 24.0087 23.6856 24.1705C23.4226 24.2514 23.3215 24.6155 23.4226 24.8583C23.544 25.1415 23.8272 25.2022 24.1104 25.1213C24.6364 24.9594 25.1623 24.7774 25.6883 24.6155C25.9513 24.5346 26.0524 24.1705 25.9513 23.9277C25.8299 23.6445 25.5265 23.5636 25.2635 23.6648Z" fill="#697CCC"/>
<path d="M33.517 22.5117C33.0113 22.6331 32.5257 22.7747 32.02 22.8961C31.3727 23.0579 31.6963 24.0289 32.3234 23.8671C32.8292 23.7457 33.3147 23.6041 33.8204 23.4827C34.4678 23.3411 34.1441 22.3499 33.517 22.5117Z" fill="#697CCC"/>
<path d="M37.6235 38.1086C37.2391 39.1605 36.3895 39.9495 35.2971 40.2327C34.9734 40.3136 35.0544 40.8193 35.378 40.7384C36.6323 40.3945 37.6437 39.5246 38.0888 38.2906C38.2101 37.9872 37.7246 37.8051 37.6235 38.1086Z" fill="#FFA79B"/>
<path d="M50.0043 24.5551C48.6489 22.3905 44.7244 21.905 42.5801 24.636C43.106 27.3669 43.5713 30.0979 43.9759 32.8491C45.5336 33.2132 48.4668 32.6266 49.8424 30.9273C51.4203 28.9651 51.4608 26.8814 50.0043 24.5551Z" fill="#FFA79B"/>
<path d="M46.3623 26.315C45.8566 27.1849 45.3711 28.0749 44.8654 28.9448C44.7035 29.228 45.1486 29.4505 45.3306 29.1673C45.3711 29.1066 45.4116 29.046 45.4318 28.9853C45.452 28.965 45.452 28.9448 45.452 28.9246C45.8971 28.1356 46.3623 27.3265 46.8074 26.5375C46.9895 26.2543 46.5242 26.0318 46.3623 26.315Z" fill="#D24A43"/>
<path d="M70.8 50.5496V77.8187H4.44778C4.38709 74.7236 4.48824 68.5537 5.58062 59.5719C7.05736 47.6568 15.8167 49.0728 33.8613 49.9022C35.9853 50.0034 38.2308 50.0843 40.6178 50.145C45.4527 50.2664 52.189 50.3675 58.5411 50.4282C63.1129 50.4889 67.4824 50.5293 70.8 50.5496Z" fill="#EBF4FF"/>
<path d="M41.8115 61.0487C39.8493 61.7163 37.887 62.3838 35.9248 63.0716C36.0866 59.1067 36.2484 55.1417 36.4103 51.1768C36.4305 50.8936 35.9652 50.8936 35.9652 51.1768C35.8034 55.2429 35.6416 59.3292 35.4797 63.3953C35.4797 63.5369 35.6213 63.6583 35.7629 63.6178L41.9531 61.4937C42.1959 61.3926 42.0745 60.9475 41.8115 61.0487Z" fill="white"/>
<path d="M55.668 52.8557C52.9775 57.1241 50.2869 61.3925 47.5964 65.6407C46.3018 64.2651 45.0273 62.8895 43.7326 61.5341C43.5303 61.3318 43.2269 61.6352 43.409 61.8578C44.7643 63.294 46.1197 64.7303 47.4751 66.1868C47.5762 66.288 47.7583 66.2678 47.819 66.1464C50.5702 61.7971 53.3011 57.4478 56.0523 53.0985C56.2141 52.8355 55.8298 52.5927 55.668 52.8557Z" fill="white"/>
<path d="M43.2877 63.1323C43.2877 62.8491 42.8225 62.8491 42.8427 63.1323L43.227 77.212C43.227 77.4952 43.6923 77.4952 43.6721 77.212L43.2877 63.1323Z" fill="white"/>
<path d="M14.7847 61.6758V64.6697C14.7847 64.9529 15.2297 64.9529 15.2297 64.6697V61.6758C15.2499 61.3926 14.7847 61.3926 14.7847 61.6758Z" fill="white"/>
<path d="M40.6175 50.145C39.2015 50.1046 37.664 50.0439 36.3491 50.0034L43.0855 61.1902L57.0437 50.4282C51.2379 50.3271 45.1084 50.2462 40.6175 50.145Z" fill="#FFA79B"/>
<path d="M25.6065 81.0958C25.1007 80.4485 24.5748 79.8214 24.0488 79.1741C22.8351 76.9084 21.6415 74.6427 20.3873 72.377C18.9915 69.8483 16.8269 66.7937 12.336 66.8746C12.154 66.8746 11.9719 66.8948 11.7898 66.8948C11.7696 70.8598 12.8215 74.845 14.4399 78.4458C14.8849 79.4573 15.3907 80.4485 15.9166 81.4195V81.3993C16.0178 80.2462 16.1189 79.0931 16.1998 77.9401C17.0697 78.5874 17.7575 79.5382 18.7285 80.0237C19.2545 81.3386 20.4278 82.0871 21.6011 82.9165C22.6732 83.6852 25.3233 85.0001 26.2741 83.3413C26.7798 82.5321 26.1324 81.7432 25.6065 81.0958Z" fill="#FFA79B"/>
<path d="M18.0211 69.0998C16.686 67.8051 14.8856 66.8341 12.3569 66.8948C9.72708 66.9555 6.95567 67.5421 4.89228 69.3021C2.80865 70.2731 1.69603 72.296 1.3319 74.5415C0.8464 77.495 0.886866 80.7114 1.25099 83.6851C1.49375 85.6474 2.84911 87.7917 4.9125 87.3264C4.99342 87.8119 5.1148 88.2772 5.29686 88.702C5.74191 89.6528 6.87475 90.2395 7.78507 90.0169C8.10874 91.2914 9.07975 92.4445 10.4553 92.0803C10.4553 92.1815 10.3744 95.054 11.3454 95.843C12.0737 96.4296 13.4088 96.2678 13.9955 95.135C14.9463 93.2739 15.5329 86.0318 15.8566 82.2084C15.7757 81.7836 16.8478 71.0013 18.0211 69.0998Z" fill="#FFA79B"/>
</g>
<defs>
<clipPath id="clip0_209_2588">
<path d="M0 36C0 16.1178 16.1178 0 36 0C55.8823 0 72 16.1178 72 36C72 55.8823 55.8823 72 36 72C16.1178 72 0 55.8823 0 36Z" fill="white"/>
</clipPath>
</defs>
</svg>
