<svg width="72" height="72" viewBox="0 0 72 72" fill="none" xmlns="http://www.w3.org/2000/svg">
<g clip-path="url(#clip0_209_2597)">
<path d="M0 36C0 16.1178 16.1178 0 36 0C55.8823 0 72 16.1178 72 36C72 55.8823 55.8823 72 36 72C16.1178 72 0 55.8823 0 36Z" fill="#FFC121"/>
<path d="M35.408 13.3198C27.508 13.3198 21.1007 20.8925 21.1007 30.2372C21.1007 33.8468 15.9547 42.9471 17.5828 45.6925H53.29C54.918 42.9471 49.711 33.8424 49.711 30.2372C49.711 20.8925 43.308 13.3198 35.408 13.3198Z" fill="black"/>
<path d="M44.9751 18.5661C47.5808 18.8193 51.4784 20.9318 53.2592 17.7194C54.071 16.2529 55.555 13.9832 57.7286 13.442M44.9751 18.5661C45.0493 16.7373 45.8568 12.9226 48.4974 12.2941C51.138 11.6656 47.2491 16.2136 44.9751 18.5661ZM44.9751 18.5661C48.0042 15.9779 53.9183 11.4561 53.3291 14.0705C52.7398 16.6893 47.511 18.1558 44.9751 18.5661ZM44.9751 18.5661C47.5284 19.797 51.1598 24.2664 54.4202 20.3338C57.685 16.4013 61.4255 16.8552 61.7397 19.0681L44.9751 18.5661Z" stroke="black" stroke-width="0.872932" stroke-linecap="round"/>
<path d="M18.3507 42.6285L55.1491 41.9258C58.5579 41.7599 66.279 43.3312 69.8886 50.9475C69.7795 50.7074 83.2488 74.569 84.3661 77.9996C88.0237 84.8696 82.5417 95.6372 72.1058 91.9404C70.8401 91.6698 60.4871 85.952 60.4871 85.952L60.4085 91.2376C60.4085 91.2376 58.2262 90.0592 54.1496 90.3909C50.073 90.727 45.3418 95.0698 45.3418 95.0698C46.2627 86.7159 36.5732 90.9016 33.483 95.0698C33.483 95.0698 30.6023 92.0887 27.5252 91.5737C23.3264 90.8666 17.4036 95.6329 17.4036 95.6329V90.3996L8.02829 92.8613C1.62534 94.7032 -5.40613 97.4224 -7.59282 97.5926C-15.9337 98.2429 -25.1737 89.7362 -18.2426 80.2824C-16.3483 78.2353 0.158808 56.0367 0.158808 56.0367C8.47785 45.5353 12.2664 42.6285 18.3507 42.6285Z" fill="#FF85D2"/>
<path d="M55.1493 41.9258L18.3509 42.6285C12.2709 42.6285 8.478 45.5353 0.15896 56.0367C0.15896 56.0367 -2.72608 59.9169 -6.22217 64.5783L10.0318 76.2625L62.9053 74.233L77.8761 65.3203C73.9872 58.1841 69.8233 50.8166 69.8844 50.9519C66.2748 43.3312 58.5581 41.7599 55.1493 41.9258Z" fill="white"/>
<path d="M18.3509 42.6285L55.1493 41.9258C58.5581 41.7599 66.2792 43.3312 69.8888 50.9519C69.7927 50.7555 73.9741 58.1536 77.8805 65.3203L62.9097 74.233L10.0362 76.2625L-6.21777 64.5783C-2.72168 59.9125 0.163357 56.0367 0.163357 56.0367C8.47803 45.5353 12.2666 42.6285 18.3509 42.6285Z" stroke="black" stroke-width="0.581954"/>
<path d="M17.4034 95.6417V90.3997L8.02808 92.8614L10.0358 76.2626L18.3549 42.6285L24.3126 42.515L25.8402 57.9397L45.3415 58.5682L48.5234 42.0568L55.1533 41.9302L62.9136 74.2374L60.4825 85.987L60.404 91.2464C60.404 91.2464 58.2216 90.068 54.1451 90.3997C50.0685 90.7358 45.3372 95.0786 45.3372 95.0786C46.2581 86.7247 36.5686 90.9104 33.4784 95.0786C33.4784 95.0786 30.5977 92.0976 27.5206 91.5825C23.3218 90.8754 17.4034 95.6417 17.4034 95.6417Z" fill="#6983FF"/>
<path d="M65.1572 72.9192L77.8016 65.3552L65.7246 74.5036L64.5854 74.0147L65.1572 72.9192Z" fill="black"/>
<path d="M5.95075 73.2029L-6.0957 64.718L5.2655 74.7436L6.43523 74.3421L5.95075 73.2029Z" fill="black"/>
<path d="M43.1857 61.9944C43.1072 61.0167 43.1988 59.105 44.2027 59.2839C45.4553 59.5065 47.0746 61.9944 48.467 61.0647C49.1609 60.506 48.4059 58.1666 48.9427 57.4988" stroke="white" stroke-width="0.581954" stroke-linecap="round"/>
<path d="M17.6569 54.2471C17.5784 53.2694 17.67 51.3577 18.6739 51.5366C19.9265 51.7592 21.5458 54.2471 22.9382 53.3174C23.6321 52.7587 22.8771 50.4193 23.4139 49.7515" stroke="white" stroke-width="0.581954" stroke-linecap="round"/>
<path d="M65.009 66.4944C64.9304 65.5167 65.0221 63.605 66.0259 63.7839C67.2786 64.0065 68.8979 66.4944 70.2902 65.5647C70.9842 65.006 70.2291 62.6666 70.766 61.9988" stroke="white" stroke-width="0.581954" stroke-linecap="round"/>
<path d="M48.8637 46.7051C48.7851 45.7274 48.8768 43.8157 49.8807 43.9946C51.1333 44.2172 52.7526 46.7051 54.145 45.7754C54.8389 45.2167 54.0839 42.8773 54.6207 42.2095" stroke="white" stroke-width="0.872932" stroke-linecap="round"/>
<path d="M18.1413 47.3467C18.0627 46.369 18.1544 44.4573 19.1583 44.6362C20.4109 44.8588 22.0302 47.3467 23.4182 46.417C24.1121 45.8583 23.3571 43.5189 23.8939 42.8511" stroke="white" stroke-width="0.872932" stroke-linecap="round"/>
<path d="M25.0853 33.4277L25.1944 33.8773C25.3821 34.6498 25.8797 35.3089 26.5693 35.7017C25.8797 36.0945 25.3821 36.7536 25.1944 37.5262L25.0853 37.9757L24.9762 37.5262C24.7885 36.7536 24.2909 36.0945 23.6013 35.7017C24.2909 35.3089 24.7885 34.6498 24.9762 33.8773L25.0853 33.4277Z" fill="#FECB4B"/>
<path d="M26.7223 27.7539L25.57 25.7244C25.941 20.0198 29.4502 18.4136 32.8502 18.4136C33.5486 20.6745 39.873 26.3834 42.1208 27.1909L42.614 29.4518C44.6697 27.7539 47.4806 28.0551 48.1615 30.0978C49.0824 33.7161 46.145 34.781 42.9544 34.6457V37.9541V43.6544C42.9544 43.6544 41.7847 45.1165 40.4666 45.7756C36.0364 48.2329 31.8595 45.2431 30.7814 43.6544V38.3906C29.472 38.3906 26.7266 38.5565 25.5744 36.2519C24.3872 33.8863 25.6049 29.7617 26.7223 27.7539Z" fill="#FF85D2"/>
<path d="M44.6434 33.4277L44.7525 33.8773C44.9402 34.6498 45.4378 35.3089 46.1274 35.7017C45.4378 36.0945 44.9402 36.7536 44.7525 37.5262L44.6434 37.9757L44.5343 37.5262C44.3466 36.7536 43.849 36.0945 43.1594 35.7017C43.849 35.3089 44.3466 34.6498 44.5343 33.8773L44.6434 33.4277Z" fill="#FECB4B"/>
<path d="M30.7551 40.6731L34.8491 37.9714C34.8491 37.9714 33.579 38.1897 32.7672 38.2682C31.9772 38.3468 30.7507 38.3861 30.7507 38.3861V40.6731H30.7551Z" fill="black"/>
<path d="M31.0127 25.842C30.6112 27.9109 32.1956 29.1243 32.1956 29.1243L30.3057 32.4632H32.536" stroke="black" stroke-width="0.872932" stroke-linecap="round"/>
<path d="M34.9321 25.8156C35.5868 25.7022 36.2503 25.7152 36.7085 25.8462" stroke="black" stroke-width="0.872932" stroke-linecap="round"/>
<path d="M27.9004 25.4231C28.5551 25.3096 29.2185 25.3227 29.6768 25.4536" stroke="black" stroke-width="0.872932" stroke-linecap="round"/>
<path d="M33.9109 34.5058C34.5001 34.1959 35.0151 33.7769 35.2989 33.3972" stroke="black" stroke-width="0.872932" stroke-linecap="round"/>
<path d="M44.0542 31.5727L46.4286 29.6392" stroke="black" stroke-width="0.872932" stroke-linecap="round"/>
<path d="M45.7917 30.3376L47.0531 31.5728" stroke="black" stroke-width="0.872932" stroke-linecap="round"/>
<path d="M35.914 28.871C36.1334 28.871 36.3112 28.6932 36.3112 28.4738C36.3112 28.2545 36.1334 28.0767 35.914 28.0767C35.6947 28.0767 35.5168 28.2545 35.5168 28.4738C35.5168 28.6932 35.6947 28.871 35.914 28.871Z" fill="black"/>
<path d="M28.8825 28.4782C29.1019 28.4782 29.2797 28.3004 29.2797 28.081C29.2797 27.8617 29.1019 27.6838 28.8825 27.6838C28.6632 27.6838 28.4854 27.8617 28.4854 28.081C28.4854 28.3004 28.6632 28.4782 28.8825 28.4782Z" fill="black"/>
</g>
<defs>
<clipPath id="clip0_209_2597">
<path d="M0 36C0 16.1178 16.1178 0 36 0C55.8823 0 72 16.1178 72 36C72 55.8823 55.8823 72 36 72C16.1178 72 0 55.8823 0 36Z" fill="white"/>
</clipPath>
</defs>
</svg>
