<svg width="72" height="72" viewBox="0 0 72 72" fill="none" xmlns="http://www.w3.org/2000/svg">
<g clip-path="url(#clip0_209_2596)">
<path d="M0 36C0 16.1178 16.1178 0 36 0C55.8823 0 72 16.1178 72 36C72 55.8823 55.8823 72 36 72C16.1178 72 0 55.8823 0 36Z" fill="#C870FF"/>
<path d="M34.7028 13.2C27.3083 13.2 21.311 20.288 21.311 29.0348C21.311 32.4093 22.2057 35.5428 23.7296 38.1125H45.6761C47.1999 35.5428 48.0946 32.4134 48.0946 29.0348C48.0906 20.288 42.0973 13.2 34.7028 13.2Z" fill="black"/>
<path d="M61.1063 47.9542C57.6174 40.5883 50.1535 39.0685 46.8566 39.2319C46.8566 39.2319 41.2147 39.3341 39.6132 42.1325C38.6859 43.7544 38.596 44.167 38.596 44.167L13.2749 44.6491C5.91314 45.7317 2.1832 52.2969 -0.280266 57.5793L-10.7183 80.7963C-15.1387 96.3207 3.33527 95.953 3.33527 95.953H28.0598H38.0363H54.9619H59.754C78.4568 95.953 77.8563 86.2217 74.3347 74.5416C74.3388 73.8308 63.4921 52.9873 61.1063 47.9542Z" fill="#6983FF" stroke="black" stroke-width="0.817071"/>
<path d="M67.3529 76.0287L50.6316 46.8347L38.8984 49.3309L49.9861 85.7314C50.6929 88.873 53.5158 95.3197 59.1332 95.9856" stroke="white" stroke-width="0.817071" stroke-linecap="round"/>
<path d="M16.3474 62.645L5.82764 81.1476H28.007V95.5975" stroke="white" stroke-width="0.817071" stroke-linecap="round"/>
<path d="M47.1345 40.727L49.3242 47.0348L40.9206 48.8201L39.1108 41.2827C40.9738 37.0502 44.0909 30.0929 44.2788 29.5209C44.4708 28.9449 45.3206 28.7079 45.7005 29.0756C45.8884 28.4015 47.3224 28.6303 47.3224 29.5209C48.499 29.0756 48.7441 30.0806 48.7196 30.4565C49.6919 29.9948 50.3047 30.8323 50.0841 31.4778C49.9697 31.8128 49.5122 36.8092 49.5122 36.8092C48.8258 38.954 47.1345 40.727 47.1345 40.727Z" fill="#FF85D2"/>
<path d="M48.3885 31.0938L47.7961 35.8042" stroke="#FF01A1" stroke-width="0.817071" stroke-linecap="round"/>
<path d="M47.7919 35.8042C46.795 35.8655 44.5767 36.6703 43.6575 39.3952" stroke="#FF01A1" stroke-width="0.817071" stroke-linecap="round"/>
<path d="M46.9381 30.1624L46.3457 34.8728" stroke="#FF01A1" stroke-width="0.817071" stroke-linecap="round"/>
<path d="M45.7252 29.6108L45.1328 34.3213" stroke="#FF01A1" stroke-width="0.817071" stroke-linecap="round"/>
<path d="M42.763 27.65L43.4167 23.0049C43.3472 22.5269 39.0413 18.4538 28.2478 22.1552C29.314 25.6032 27.733 29.4761 27.733 29.4761C25.5228 27.65 22.6222 28.8552 22.5405 31.0939C22.6753 34.9301 25.768 34.591 27.1529 33.6636V44.7513C27.1529 44.7513 27.8964 46.7776 29.314 47.4844C34.0776 50.1276 37.2437 46.459 38.404 44.7513V39.089C39.8134 39.089 42.7671 39.2646 44.005 36.7889C45.2714 34.2478 43.96 29.8111 42.763 27.65Z" fill="#FF85D2"/>
<path d="M44.0173 30.7097C44.6547 33.1977 46.6687 38.7783 40.6592 39.097" stroke="#FF01A1" stroke-width="0.817071" stroke-linecap="round"/>
<path d="M38.4082 41.9526L33.2239 38.5332C33.2239 38.5332 34.8294 38.8069 35.8589 38.9091C36.8558 39.0112 38.4082 39.0602 38.4082 39.0602V41.9526Z" fill="black"/>
<path d="M38.2322 24.8962C38.6407 27.0043 37.027 28.2421 37.027 28.2421L38.9553 31.6452H36.6838" stroke="black" stroke-width="0.817071" stroke-linecap="round"/>
<path d="M34.3473 24.2263C33.518 24.0833 32.6805 24.0996 32.1003 24.2631" stroke="black" stroke-width="0.817071" stroke-linecap="round"/>
<path d="M41.8929 24.4143C41.0635 24.2713 40.2261 24.2876 39.6418 24.451" stroke="black" stroke-width="0.817071" stroke-linecap="round"/>
<path d="M36.5492 35.024C35.8056 34.6318 35.152 34.1048 34.7925 33.6187" stroke="black" stroke-width="0.817071" stroke-linecap="round"/>
<path d="M27.4635 31.9395L24.7141 29.6885" stroke="black" stroke-width="0.817071" stroke-linecap="round"/>
<path d="M25.5107 30.3748L24.1421 31.6698" stroke="black" stroke-width="0.817071" stroke-linecap="round"/>
<path d="M33.1055 28.0953C33.3831 28.0953 33.608 27.8704 33.608 27.5928C33.608 27.3153 33.3831 27.0903 33.1055 27.0903C32.828 27.0903 32.603 27.3153 32.603 27.5928C32.603 27.8704 32.828 28.0953 33.1055 28.0953Z" fill="black"/>
<path d="M40.6473 28.2831C40.9248 28.2831 41.1498 28.0581 41.1498 27.7806C41.1498 27.5031 40.9248 27.2781 40.6473 27.2781C40.3698 27.2781 40.1448 27.5031 40.1448 27.7806C40.1448 28.0581 40.3698 28.2831 40.6473 28.2831Z" fill="black"/>
</g>
<defs>
<clipPath id="clip0_209_2596">
<path d="M0 36C0 16.1178 16.1178 0 36 0C55.8823 0 72 16.1178 72 36C72 55.8823 55.8823 72 36 72C16.1178 72 0 55.8823 0 36Z" fill="white"/>
</clipPath>
</defs>
</svg>
