<svg width="72" height="72" viewBox="0 0 72 72" fill="none" xmlns="http://www.w3.org/2000/svg">
<g clip-path="url(#clip0_209_2594)">
<path d="M0 36C0 16.1178 16.1178 0 36 0C55.8823 0 72 16.1178 72 36C72 55.8823 55.8823 72 36 72C16.1178 72 0 55.8823 0 36Z" fill="#63E296"/>
<path d="M20.9036 43.5686L51.4322 50.4564C62.4215 52.9376 66.0819 58.2349 66.5367 60.5716C67.7249 67.9456 70.7016 84.7982 73.1183 93.2029C75.5351 101.608 72.2804 106.744 69.4219 107.321L60.5615 107.896L57.1549 94.5967L51.5983 78.8833L46.5785 107.01L30.5305 93.7368L5.50328 89.4717L9.58103 70.1207C2.52332 73.544 -7.38463 80.6025 -11.4191 82.0971C-20.3905 85.4088 -27.0118 79.6861 -28.2233 75.8358L-38.3455 46.2962L-27.2691 41.2674L-15.995 64.5818C-10.0899 59.8508 -1.74839 53.3161 2.56695 50.1885C12.0876 41.5058 18.1918 42.9688 20.9036 43.5686Z" fill="#FF85D2"/>
<path d="M17.4659 74.5905C17.9423 75.135 18.5052 76.163 16.9463 75.968C15.0026 75.7236 16.3797 72.6838 17.9157 73.3979C19.4517 74.112 20.8462 77.1618 16.5313 77.0682C12.2164 76.9746 14.5316 71.2186 17.28 71.901" stroke="white" stroke-width="1.20319" stroke-linecap="round"/>
<path d="M-1.68991 68.5122C-1.21346 69.0566 -0.650538 70.0847 -2.20948 69.8896C-4.15317 69.6452 -2.77604 66.6054 -1.24004 67.3195C0.295972 68.0337 1.69356 71.0751 -2.62451 70.9899C-6.9394 70.8963 -4.62414 65.1402 -1.87578 65.8226" stroke="white" stroke-width="1.20319" stroke-linecap="round"/>
<path d="M44.275 61.4643C44.7514 62.0088 45.3143 63.0368 43.7585 62.8333C41.8149 62.589 43.192 59.5491 44.728 60.2633C46.2608 60.9858 47.6584 64.0272 43.3435 63.9336C39.037 63.8432 41.3439 58.0839 44.0922 58.7664" stroke="white" stroke-width="1.20319" stroke-linecap="round"/>
<path d="M10.5923 49.1541C11.0688 49.6986 11.6317 50.7266 10.0759 50.5231C8.13223 50.2788 9.50936 47.2389 11.0454 47.9531C12.5782 48.6756 13.9758 51.717 9.66089 51.6234C5.34599 51.5298 7.66126 45.7737 10.4096 46.4562" stroke="white" stroke-width="1.20319" stroke-linecap="round"/>
<path d="M11.0825 63.2942L9.77209 69.0951" stroke="white" stroke-width="1.80478" stroke-linecap="round"/>
<path d="M53.1948 71.623L51.8844 77.424" stroke="white" stroke-width="1.80478" stroke-linecap="round"/>
<path d="M46.8258 27.2908C46.9392 34.1971 43.0152 41.6034 37.4305 41.5474C33.7124 41.5056 29.9463 36.8284 27.5817 32.4311C26.0625 30.2732 25.2373 28.5407 25.2614 26.6684C25.3182 21.0166 29.8869 16.4842 35.4632 16.537C41.0426 16.5813 46.7233 21.3485 46.8258 27.2908Z" fill="black"/>
<path d="M27.0854 31.6053L25.9941 29.6369C27.3678 29.2249 30.465 24.058 30.7133 21.9719C31.3672 24.1591 35.0562 28.6562 41.9273 31.226L40.537 33.3891C42.5284 31.7702 45.1212 32.8852 45.1745 34.8837C45.0216 38.3215 42.2479 37.9927 41.0223 37.1451L40.7712 47.7483L45.3012 48.7893C44.8675 49.9409 40.2503 54.4561 34.2814 53.2359C27.2554 51.5871 25.3842 46.1353 24.9286 44.1096L30.9227 45.3393L30.8991 41.9116C29.6385 41.8958 26.989 42.027 25.9023 39.7914C24.7812 37.4947 25.997 33.5273 27.0854 31.6053Z" fill="#6983FF"/>
<path d="M30.9314 44.402L35.5569 41.5039C35.5569 41.5039 34.1154 41.7368 33.1914 41.8197C32.2957 41.9037 30.905 41.9254 30.905 41.9254L30.9314 44.402Z" fill="black"/>
<path d="M31.0815 29.1836C30.6977 31.0784 32.1336 32.2012 32.1336 32.2012L30.3832 35.2423L32.4135 35.2625" stroke="black" stroke-width="1.80478" stroke-linecap="round"/>
<path d="M34.5416 28.5701C35.2915 28.4478 36.0447 28.4698 36.5677 28.6162" stroke="black" stroke-width="1.80478" stroke-linecap="round"/>
<path d="M27.7506 28.7495C28.5005 28.6272 29.2537 28.6492 29.7767 28.7956" stroke="black" stroke-width="1.80478" stroke-linecap="round"/>
<path d="M32.5613 38.2982C33.2262 37.954 33.8138 37.4842 34.1477 37.0528" stroke="black" stroke-width="1.80478" stroke-linecap="round"/>
<path d="M40.746 35.5098L43.2164 33.5123" stroke="black" stroke-width="1.80478" stroke-linecap="round"/>
<path d="M42.5039 34.1189L43.7308 35.282" stroke="black" stroke-width="1.80478" stroke-linecap="round"/>
<path d="M35.6549 32.05C35.9003 32.0539 36.1024 31.858 36.1062 31.6126C36.11 31.3672 35.9141 31.1651 35.6686 31.1613C35.4231 31.1574 35.221 31.3533 35.2173 31.5987C35.2135 31.8441 35.4094 32.0462 35.6549 32.05Z" fill="black"/>
<path d="M28.867 32.219C29.1125 32.2228 29.3146 32.027 29.3184 31.7815C29.3222 31.5361 29.1262 31.334 28.8808 31.3302C28.6353 31.3264 28.4332 31.5222 28.4294 31.7676C28.4256 32.0131 28.6215 32.2151 28.867 32.219Z" fill="black"/>
<path d="M50.4262 21.998C53.3756 19.952 54.3704 16.2663 52.648 13.7657C50.9256 11.2651 47.1383 10.8966 44.1889 12.9426C41.2394 14.9886 40.2447 18.6743 41.967 21.1749C43.6894 23.6755 47.4767 24.044 50.4262 21.998Z" fill="black"/>
<path d="M36.8025 79.5232L47.638 102.62L43.8569 124.066C43.5062 125.941 42.5551 129.617 41.2443 130.552C38.4728 132.846 36.3378 132.48 35.9013 132.315L34.2432 151.201L12.2511 148.737L13.5443 126.436L9.04558 121.264L6.62768 147.473L-16.302 145.614C-15.6996 128.259 -13.2442 87.1917 -10.6915 78.8766C-4.90552 65.2808 4.38626 68.5197 8.30642 71.8389L17.8026 84.0427C24.3886 69.7986 33.6607 74.135 36.8025 79.5232Z" fill="black" stroke="black" stroke-width="1.20319"/>
</g>
<defs>
<clipPath id="clip0_209_2594">
<path d="M0 36C0 16.1178 16.1178 0 36 0C55.8823 0 72 16.1178 72 36C72 55.8823 55.8823 72 36 72C16.1178 72 0 55.8823 0 36Z" fill="white"/>
</clipPath>
</defs>
</svg>
