<svg width="73" height="73" viewBox="0 0 73 73" fill="none" xmlns="http://www.w3.org/2000/svg">
<g clip-path="url(#clip0_209_2589)">
<path d="M0 36.5C0 16.3416 16.3416 0 36.5 0C56.6584 0 73 16.3416 73 36.5C73 56.6584 56.6584 73 36.5 73C16.3416 73 0 56.6584 0 36.5Z" fill="#FBED72"/>
<path d="M24.6113 36.8281C26.2847 37.2328 28.4772 36.7451 30.1566 37.1086C30.1625 37.0675 32.1933 37.3967 32.2357 37.4027C38.3169 41.4543 37.1437 34.6117 37.1616 34.4882C36.2054 32.4214 28.1845 30.6989 26.9983 28.7255C24.8423 29.2604 23.7637 31.9212 25.0348 33.9067C25.0653 33.995 24.5748 36.781 24.6113 36.8281Z" fill="#952C28"/>
<path d="M6.27699 89.1975C14.4511 48.8122 12.3818 33.5325 33.3507 36.6142C34.0905 36.7421 34.7961 36.8223 35.4948 36.943C35.988 37.0283 36.4812 37.1136 36.9813 37.1582C40.7283 37.7642 44.0642 38.2991 46.4069 38.7041C48.3796 39.0452 50.181 39.3984 51.859 39.7303C52.1467 39.78 52.4274 39.8703 52.674 39.913C53.6945 40.1312 54.708 40.39 55.6463 40.594C70.6255 43.5598 74.6048 48.7201 71.9945 70.0458C71.2061 76.5973 68.0278 93.3523 66.6097 99.6277L6.27699 89.1975Z" fill="#2252B2"/>
<path d="M20.878 72.2093C17.2354 70.5731 19.7109 64.2521 20.4975 61.313L23.3585 50.3405C23.4392 50.0028 23.0262 49.79 22.9455 50.1277C21.7498 54.7982 20.5183 59.4618 19.3226 64.1324C18.5886 66.9491 17.647 71.3599 20.6976 72.7484C20.9483 72.7972 21.1231 72.3011 20.878 72.2093Z" fill="white"/>
<path d="M20.7412 72.1177C20.7493 71.7657 20.3209 71.6839 20.3128 72.0359C20.1569 74.1276 20.0011 76.2192 19.8453 78.3109C19.8015 78.6561 20.2657 78.7447 20.2738 78.3927C20.4296 76.301 20.5854 74.2094 20.7412 72.1177Z" fill="white"/>
<path d="M52.2639 56.9513L49.8302 73.9355C49.7909 74.2828 50.2218 74.3478 50.2611 74.0005L52.6947 57.0163C52.77 56.6744 52.3032 56.604 52.2639 56.9513Z" fill="white"/>
<path d="M50.4707 38.4709L34.9938 54.4229C34.9938 54.4229 35.5492 41.1963 35.7921 35.7825C39.4788 36.4154 42.761 36.9743 45.0659 37.3964C47.0069 37.7519 48.7792 38.1188 50.4707 38.4709Z" fill="#FFA79B"/>
<path d="M49.6501 37.4033L36.1782 39.4216L35.0588 35.802L33.646 31.1707L31.2026 23.1441L41.0969 20.7482C41.3492 21.7527 49.6501 37.4033 49.6501 37.4033Z" fill="#FFA79B"/>
<path d="M34.6252 36.3298L34.677 36.5116C36.452 35.0908 37.6847 33.0073 38.3207 30.5945C39.1642 27.4051 38.5799 24.5003 38.0159 21.4705L31.0197 23.2639L33.3335 31.5276L34.6252 36.3298Z" fill="black"/>
<path d="M40.652 12.7594C37.5013 8.81507 25.7371 11.3476 25.9365 16.3589C26.1013 20.0883 26.6057 30.4707 28.5401 32.2757C32.3618 35.9196 37.8719 33.16 39.9256 29.0351C42.0263 24.8765 43.7694 16.655 40.652 12.7594Z" fill="#FFA79B"/>
<path d="M59.1952 33.8351C58.6016 31.301 56.0204 29.8752 53.6855 30.5123C55.5352 25.957 51.6517 21.135 46.4196 21.943L46.4265 21.9029C46.8116 20.1528 46.9882 18.1201 45.5509 16.7636C44.7386 16.0077 43.7954 15.766 42.86 15.9793C42.6013 14.7394 42.1072 13.6247 41.3639 12.7154C39.3286 10.3505 33.9636 10.4348 30.1468 11.9767C29.1959 11.2799 27.9822 10.8688 26.8392 11.2946C25.703 11.6803 24.9285 12.7045 25.0276 13.8763C25.1614 15.0952 26.2303 15.8532 27.4436 16.0168C28.1994 16.1031 29.149 16.0571 29.9664 15.7826C31.7348 16.2049 33.7245 16.3346 35.1033 16.0311C35.6331 17.6881 39.0636 21.1548 41.0506 19.799C41.4868 19.5014 41.3418 19.8482 41.8964 19.8593C42.2863 20.8326 42.6277 21.8391 43.0176 22.8124C42.9692 22.8455 42.9554 22.9257 42.9486 22.9658C42.9349 23.0459 42.928 23.086 42.9143 23.1662C41.4557 25.4363 42.4315 28.4886 45.1924 29.6148C43.1651 31.7063 42.6505 34.7133 44.1663 37.3618C46.1064 40.7831 50.5798 42.1571 54.3348 40.976C57.3829 39.9231 59.9635 37.0999 59.1952 33.8351Z" fill="#952C28"/>
<path d="M46.0614 19.5025C45.1944 17.9513 42.5248 17.4233 40.9629 19.2503C41.2269 21.1562 41.4433 23.0957 41.6193 25.0278C42.6529 25.3426 44.7031 25.0823 45.7282 23.9599C46.8689 22.6474 46.9889 21.1914 46.0614 19.5025Z" fill="#FFA79B"/>
<path d="M31.4149 29.2539C32.1281 29.4696 32.9594 28.7329 32.7535 27.9751C32.6806 27.6652 33.1258 27.4929 33.2391 27.8102C33.5513 28.9263 32.4757 30.1263 31.3657 29.7954C31.0495 29.695 31.1391 29.1609 31.4149 29.2539Z" fill="#D24A43"/>
<path d="M27.8908 23.6966C28.0287 23.3888 28.4571 23.6279 28.3675 23.9025C28.0778 24.5986 28.8378 25.143 29.4868 24.8398C29.7699 24.6812 29.9428 25.1665 29.6597 25.3251C28.5896 25.8461 27.4563 24.7407 27.8908 23.6966Z" fill="#D24A43"/>
<path d="M32.1644 20.1367C32.2616 20.5409 32.3916 20.9941 32.4888 21.3982C32.56 21.7117 32.123 21.8856 32.0122 21.5646C31.915 21.1604 31.785 20.7072 31.6878 20.3031C31.6562 19.9971 32.0932 19.8232 32.1644 20.1367Z" fill="black"/>
<path d="M26.6839 20.4581C26.7812 20.8621 26.9113 21.3151 27.0086 21.719C27.0798 22.0324 26.6425 22.2062 26.5316 21.8853C26.4343 21.4814 26.3042 21.0284 26.2069 20.6244C26.1356 20.3111 26.573 20.1372 26.6839 20.4581Z" fill="black"/>
<path d="M30.7577 17.9501C31.0584 17.9581 31.3658 17.9265 31.6244 17.9277C31.8831 17.9289 32.1566 18.0958 32.1932 18.3873C32.2365 18.6392 32.0143 18.9295 31.7136 18.9215C31.413 18.9134 31.1056 18.9451 30.8469 18.9439C30.5883 18.9427 30.3147 18.7758 30.2782 18.4843C30.2769 18.2392 30.4503 17.9818 30.7577 17.9501Z" fill="#952C28"/>
<path d="M25.8712 18.068C26.086 18.0631 26.3077 18.018 26.4809 18.006C27.1322 17.9511 27.2655 18.9227 26.6073 19.0178C26.3925 19.0228 26.1708 19.0678 25.9976 19.0798C25.3395 19.1749 25.2131 18.1631 25.8712 18.068Z" fill="#952C28"/>
<path d="M42.5439 21.2172C42.2296 21.6278 41.9085 22.0798 41.5942 22.4904C41.3869 22.7503 41.7842 23.0815 41.9914 22.8216C42.3057 22.411 42.6268 21.959 42.9411 21.5484C43.1484 21.2885 42.7511 20.9573 42.5439 21.2172Z" fill="#D24A43"/>
</g>
<defs>
<clipPath id="clip0_209_2589">
<path d="M0 36.5C0 16.3416 16.3416 0 36.5 0C56.6584 0 73 16.3416 73 36.5C73 56.6584 56.6584 73 36.5 73C16.3416 73 0 56.6584 0 36.5Z" fill="white"/>
</clipPath>
</defs>
</svg>
