<svg width="72" height="72" viewBox="0 0 72 72" fill="none" xmlns="http://www.w3.org/2000/svg">
<g clip-path="url(#clip0_209_2580)">
<path d="M0 36C0 16.1178 16.1178 0 36 0C55.8823 0 72 16.1178 72 36C72 55.8823 55.8823 72 36 72C16.1178 72 0 55.8823 0 36Z" fill="#FF9797"/>
<path d="M39.6119 17.9749C43.6025 17.5944 49.584 22.2132 49.3362 31.8137C49.0531 42.8387 57.8041 38.503 57.8041 46.9975C51.9642 52.3596 14.6153 57.2616 8.85498 51.2978C8.94346 43.2104 13.9339 42.6441 17.7476 39.0074C21.5612 35.3707 16.8185 14.3205 39.6119 17.9749Z" fill="#0064C8"/>
<path d="M37.1077 14.3999C37.1077 14.3999 39.5056 16.2758 39.6029 17.9923C40.3285 16.5677 41.9389 14.7627 41.9389 14.7627" stroke="#0064C8" stroke-width="1.53917" stroke-miterlimit="10" stroke-linecap="round" stroke-linejoin="round"/>
<path d="M39.6384 18.125C39.7623 18.8506 40.249 22.1687 39.4526 24.5578" stroke="#0055A8" stroke-width="1.53917" stroke-miterlimit="10" stroke-linecap="round" stroke-linejoin="round"/>
<path d="M28.8965 28.1768C29.0469 27.9113 29.2681 27.6901 29.5601 27.6282C28.9849 27.7167 26.0119 28.2564 25.5518 29.6987C25.1801 30.2915 25.1713 31.1056 24.8704 31.7604C24.2511 33.1407 22.4548 33.6981 21.8443 35.0785C21.2249 36.4765 22.0655 38.1046 21.8531 39.6177C21.5435 41.7944 19.1721 43.2278 18.8359 45.4045C18.7208 46.1301 18.8536 46.8734 18.8005 47.5989C18.7385 48.3864 18.4642 49.1651 18.0041 49.811C17.5794 50.4127 17.0131 50.8905 16.4468 51.3683C15.5708 52.1116 14.6948 52.846 13.8188 53.5893H14.2082C18.3227 53.5981 22.3841 53.5893 26.4985 53.5804C27.0914 53.5804 27.7196 53.5627 28.1974 53.2353C28.2594 53.1911 28.3213 53.1468 28.3744 53.0937C26.9587 52.8194 25.9145 52.5894 25.9145 52.5894L25.9765 39.2549C25.9146 39.2638 25.8438 39.2638 25.7818 39.2638C24.1803 39.2638 22.8796 37.7595 22.8796 35.8925C22.8796 34.9104 23.2423 34.0255 23.8175 33.415C24.897 32.2559 26.8259 32.6452 27.4276 34.1052C27.4365 34.1229 27.4453 34.1494 27.4542 34.1671C27.5692 34.4591 27.9939 34.4326 28.0647 34.1229C28.2948 33.0876 28.339 31.9727 28.4009 30.964C28.4275 30.4862 28.454 30.0261 28.5071 29.6102C28.5691 29.1235 28.6575 28.69 28.8168 28.336C28.8345 28.3006 28.8522 28.2653 28.8699 28.2299C28.8787 28.2122 28.8876 28.1945 28.8965 28.1768Z" fill="#0055A8"/>
<path d="M29.5779 27.6282C29.6044 27.6194 29.631 27.6194 29.6664 27.6194C29.6575 27.6105 29.631 27.6194 29.5779 27.6282Z" fill="#0055A8"/>
<path d="M47.3896 30.4861C47.5754 31.8488 47.1772 33.3176 47.7435 34.5652C48.0886 35.335 48.7699 35.9102 49.0796 36.6977C49.6459 38.1311 48.8672 39.9096 49.6547 41.2369C50.2918 42.3164 51.6987 42.6349 52.5658 43.5286C53.1941 44.1834 53.4861 45.1125 53.4595 46.0239C53.433 46.9352 53.1056 47.8112 52.6189 48.581C51.1147 50.9878 48.2744 52.2 45.5049 52.6867C44.6731 52.8282 43.7883 52.9167 43.0273 52.5539C41.7355 51.9434 41.2842 50.3242 41.2046 48.8819C41.0364 45.8911 41.8151 42.9358 42.8238 40.1132C43.4697 38.2992 44.2307 36.4942 44.4431 34.5741C44.5758 33.3884 44.505 32.1939 44.6289 31.0082C44.7174 30.2118 44.974 28.451 45.7615 27.9909C46.5844 27.5485 47.3011 29.8137 47.3896 30.4861Z" fill="#0055A8"/>
<path d="M80.6682 63.2608L77.0227 82.2759L76.1998 82.8422L72.0322 85.6914L64.3076 77.4359L64.0864 77.197L64.9181 90.3987L38.1341 107.299L10.7662 90.8323L8.89033 81.0106L7.41266 82.621L3.97065 86.3639L0.0154362 83.9306L-6.17841 80.1081L-8.7002 68.4194C-8.7002 68.4194 -6.19612 65.1101 1.41347 56.1556C12.5624 43.0246 33.6215 58.6331 49.7786 48.2009C65.9357 37.7687 80.6682 63.2608 80.6682 63.2608Z" fill="#5FAEF2"/>
<path d="M58.4322 45.6968C57.6624 46.4401 56.4767 46.9356 55.6096 47.6257C53.5921 49.2184 52.9374 52.3065 50.5925 53.3772C49.0441 54.0939 47.2036 53.6869 45.549 54.1116C42.8679 54.8018 41.231 57.4386 38.9923 59.0844C35.4176 61.7123 30.0113 61.4646 26.702 58.5004C25.2685 57.2262 24.074 55.4477 22.1893 55.0849C20.6585 54.7929 18.9862 55.5273 17.5705 54.8725C16.7033 54.4744 16.137 53.6249 15.4469 52.9613C14.5886 52.1295 13.4914 51.5544 12.3234 51.2978C11.6775 51.1562 10.713 51.2978 10.0051 51.0854C21.5434 48.6256 37.143 56.3414 49.7608 48.2009C52.7338 46.2808 55.6538 45.5729 58.4322 45.6968Z" fill="#4598E0"/>
<path d="M8.92577 81.1524C8.89037 81.2143 8.84613 81.2763 8.79304 81.3559C8.65147 81.5417 3.81142 86.4349 3.81142 86.4349L-0.143799 84.0016C0.0685618 83.8246 0.289769 83.6565 0.528674 83.5149C1.1923 83.1167 1.93557 82.8778 2.62574 82.5062C3.30707 82.1434 3.95299 81.6037 4.1919 80.8692C4.43965 80.0906 4.19189 79.2234 4.42195 78.4448C4.75819 77.2768 6.03235 76.622 6.53671 75.5248C7.10301 74.3037 6.63405 72.8703 7.1738 71.6492C7.35962 71.2334 7.57197 71.0387 7.80203 70.9856C7.82858 71.2864 8.13826 76.9052 8.92577 81.1524Z" fill="#4598E0"/>
<path d="M7.81079 70.968C7.81079 70.968 8.05854 76.6133 8.89029 81.0109" stroke="#1A1B16" stroke-width="1.47473" stroke-miterlimit="10" stroke-linecap="round" stroke-linejoin="round"/>
<path d="M63.4937 70.968L64.0865 77.1972" stroke="#1A1B16" stroke-width="1.47473" stroke-miterlimit="10" stroke-linecap="round" stroke-linejoin="round"/>
<path d="M26.7463 55.0938C26.7463 55.0938 30.56 57.1908 34.816 57.005" stroke="#0064C8" stroke-width="1.47473" stroke-miterlimit="10" stroke-linecap="round" stroke-linejoin="round"/>
<path d="M29.7371 54.731C29.7371 54.731 32.0376 55.5804 34.9399 55.6689" stroke="#0064C8" stroke-width="1.47473" stroke-miterlimit="10" stroke-linecap="round" stroke-linejoin="round"/>
<path d="M46.0446 37.618C46.2038 46.9442 42.1248 48.2007 42.1248 48.2007L42.0628 52.439C42.0628 52.439 38.612 53.9432 34.6214 53.9255C31.8695 53.9167 25.9234 52.5894 25.9234 52.5894L25.9854 39.255C25.9234 39.2638 25.8526 39.2638 25.7907 39.2638C24.1891 39.2638 22.8884 37.7596 22.8884 35.8926C22.8884 34.9104 23.2512 34.0256 23.8264 33.415C24.9059 32.2559 26.8348 32.6452 27.4365 34.1052C27.4453 34.1229 27.4542 34.1495 27.463 34.1672C27.5781 34.4592 28.0028 34.4326 28.0736 34.1229C28.3036 33.0877 28.3479 31.9728 28.4098 30.9641C28.4364 30.4862 28.4629 30.0261 28.516 29.6103C28.5779 29.097 28.6752 28.6458 28.8434 28.2918C29.0469 27.8583 29.4805 27.5928 29.9583 27.5751C32.4624 27.4778 36.4441 26.3983 38.2669 25.1684C38.4084 25.071 38.5589 25.0091 38.7181 24.9649C39.196 24.8321 39.718 24.9383 40.1162 25.2657C40.3905 25.4869 40.771 25.7258 41.2045 25.9736C42.6468 26.7699 44.6996 27.584 45.6641 27.8494C46.2039 27.991 46.0446 28.7431 46.0357 29.2917C46.0357 29.4067 46.0357 29.5129 46.0269 29.6368C46.0269 29.6633 46.0269 29.681 46.0269 29.7076C46.0092 31.548 45.9826 33.9548 46.0446 37.618Z" fill="#F8934F"/>
<path d="M46.0444 37.6181C46.2037 46.9443 42.1246 48.2007 42.1246 48.2007L42.1069 49.2625L39.4524 48.767C40.7443 48.2361 42.6024 47.0593 43.8412 44.8206C44.6021 43.4492 44.9738 41.8918 44.9738 40.3257V27.6106C45.2392 27.6991 45.4781 27.7787 45.664 27.8318C46.2037 27.9734 46.0444 28.7255 46.0356 29.2741C46.0356 29.3891 46.0356 29.4953 46.0267 29.6192C46.0267 29.6457 46.0267 29.6634 46.0267 29.69C46.009 31.5481 45.9825 33.9549 46.0444 37.6181Z" fill="#F9AF79"/>
<path d="M29.0291 53.2178C28.7814 53.2355 25.9233 52.5896 25.9233 52.5896L25.9676 39.4233C26.2773 39.379 26.5073 39.4321 26.5339 40.0426C26.5693 40.839 26.41 41.4407 26.7285 42.2105C26.9321 42.7148 27.2417 43.1219 27.3833 43.6616C27.7196 44.9004 27.0913 46.3161 27.3125 47.608C27.578 49.1565 28.9495 49.9263 29.153 51.5013C29.2061 51.9702 29.1088 52.7489 29.0291 53.2178Z" fill="#F77C2D"/>
<path d="M26.9762 37.1137C26.9762 37.1137 25.6312 37.5916 25.0915 36.4855C24.5429 35.3795 25.4277 34.4946 25.4277 34.4946C25.7374 34.7512 26.0294 35.0255 26.2772 35.3441C26.6753 35.8484 26.9673 36.4678 26.9762 37.1137Z" fill="#F77C2D"/>
<path d="M25.4277 34.495C25.4277 34.495 24.5518 35.3798 25.0915 36.4858C25.6313 37.5919 26.9762 37.1141 26.9762 37.1141C26.9673 36.4682 26.6754 35.8488 26.2772 35.3444C25.879 34.8401 25.3658 34.433 24.8438 34.0437" stroke="#BF3028" stroke-width="1.47473" stroke-miterlimit="10" stroke-linecap="round" stroke-linejoin="round"/>
<path d="M34.3118 48.3158C34.3118 48.3158 39.3376 49.4572 42.1249 48.1919C42.116 49.0148 42.0983 50.3067 42.0983 50.3067C42.0983 50.3067 38.3024 50.873 34.3118 48.3158Z" fill="#BF3028"/>
<path d="M25.9854 39.2551C25.9854 39.2551 26.5605 39.3435 27.1356 39.1931" stroke="#BF3028" stroke-width="1.47473" stroke-miterlimit="10" stroke-linecap="round" stroke-linejoin="round"/>
<path d="M38.7183 24.9561C38.0192 25.9117 37.0459 26.6638 35.9487 27.0885C35.232 27.3717 34.4622 27.5221 33.7897 27.8937C32.9934 28.345 32.3917 29.0882 31.5688 29.4864C30.8432 29.8403 30.0026 29.8934 29.2859 30.2562C28.9497 30.4243 28.6488 30.6721 28.4099 30.9641C28.4365 30.4863 28.463 30.0262 28.5161 29.6103C28.578 29.0971 28.6754 28.6458 28.8435 28.2919C29.047 27.8583 29.4806 27.5929 29.9584 27.5752C32.4625 27.4778 36.4442 26.3983 38.267 25.1684C38.4085 25.0622 38.559 25.0003 38.7183 24.9561Z" fill="#F77C2D"/>
<path d="M42.7619 35.3264C42.7707 35.7334 42.9212 36.0254 43.222 36.0166C43.5228 36.0077 43.7617 35.6803 43.7529 35.2733C43.7441 34.8663 43.4875 34.5477 43.1866 34.5566C42.8858 34.5566 42.753 34.9282 42.7619 35.3264Z" fill="#1A1B16"/>
<path d="M37.665 42.193C37.665 42.193 38.5322 40.8657 40.1249 40.5914C41.7176 40.3171 41.5052 41.1754 41.5052 41.1754C41.5052 41.1754 41.4698 42.1665 40.0541 42.37C38.6384 42.5646 37.665 42.193 37.665 42.193Z" fill="#F77C2D"/>
<path d="M40.3792 44.5721C40.7265 44.5163 40.9798 44.295 40.945 44.0779C40.9101 43.8608 40.6002 43.73 40.2528 43.7859C39.9054 43.8417 39.6521 44.063 39.687 44.2801C39.7219 44.4972 40.0318 44.6279 40.3792 44.5721Z" fill="#F77C2D"/>
<path d="M34.0548 35.3973C34.0637 35.8309 34.223 36.1406 34.5415 36.1318C34.86 36.1229 35.1255 35.769 35.1078 35.3354C35.0989 34.9018 34.8246 34.5567 34.5061 34.5656C34.1876 34.5744 34.046 34.9638 34.0548 35.3973Z" fill="#1A1B16"/>
<path d="M39.1162 39.2287C39.7532 39.5207 41.2221 37.8838 40.5584 37.1405C40.2045 36.7512 37.5765 38.5297 39.1162 39.2287Z" fill="#F77C2D"/>
<path d="M39.4171 39.3435L40.1692 38.6711C40.6381 38.2463 40.8062 37.5827 40.5939 36.9899L38.8242 32.9285" stroke="#BF3028" stroke-width="1.47473" stroke-miterlimit="10" stroke-linecap="round" stroke-linejoin="round"/>
<path d="M37.665 42.3609C37.665 42.3609 40.3284 40.7416 41.5229 41.2548" stroke="#BF3028" stroke-width="1.47473" stroke-miterlimit="10" stroke-linecap="round" stroke-linejoin="round"/>
<path d="M33.0374 31.2034C33.0374 31.2034 34.5681 30.5309 36.1166 30.7344" stroke="#1A1B16" stroke-width="1.47473" stroke-miterlimit="10" stroke-linecap="round" stroke-linejoin="round"/>
<path d="M41.6733 30.6103C41.6733 30.6103 42.921 30.336 44.2305 30.6192" stroke="#1A1B16" stroke-width="1.47473" stroke-miterlimit="10" stroke-linecap="round" stroke-linejoin="round"/>
<path d="M26.8259 33.1228L31.5156 34.6801" stroke="#C9CEEF" stroke-width="1.47473" stroke-miterlimit="10" stroke-linecap="round" stroke-linejoin="round"/>
<path d="M37.7537 34.4945C38.6916 33.5565 40.2224 33.5565 41.1603 34.4945" stroke="#C9CEEF" stroke-width="1.47473" stroke-miterlimit="10" stroke-linecap="round" stroke-linejoin="round"/>
<path d="M37.9042 35.4766C37.9042 37.2639 36.4531 38.7151 34.6657 38.7151C34.6304 38.7151 34.5861 38.7151 34.5507 38.7151C32.8164 38.6531 31.4272 37.2285 31.4272 35.4766C31.4272 34.5652 31.7989 33.7511 32.4006 33.1583C32.9846 32.592 33.7809 32.2381 34.6657 32.2381C36.4531 32.2292 37.9042 33.6804 37.9042 35.4766Z" stroke="#EDE3EB" stroke-width="1.47473" stroke-miterlimit="10" stroke-linecap="round" stroke-linejoin="round"/>
<path d="M47.5488 35.4766C47.5488 37.2639 46.0976 38.7151 44.3103 38.7151C44.266 38.7151 44.2218 38.7151 44.1775 38.7151C44.0537 38.7151 43.9386 38.6974 43.8236 38.6797C42.4256 38.4673 41.3195 37.3613 41.1072 35.9632C41.0806 35.804 41.0718 35.6447 41.0718 35.4766C41.0718 34.574 41.4434 33.7511 42.0362 33.1672C42.6202 32.592 43.4254 32.2381 44.3103 32.2381C46.0976 32.2292 47.5488 33.6804 47.5488 35.4766Z" stroke="#EDE3EB" stroke-width="1.47473" stroke-miterlimit="10" stroke-linecap="round" stroke-linejoin="round"/>
</g>
<defs>
<clipPath id="clip0_209_2580">
<path d="M0 36C0 16.1178 16.1178 0 36 0C55.8823 0 72 16.1178 72 36C72 55.8823 55.8823 72 36 72C16.1178 72 0 55.8823 0 36Z" fill="white"/>
</clipPath>
</defs>
</svg>
