<svg width="72" height="72" viewBox="0 0 72 72" fill="none" xmlns="http://www.w3.org/2000/svg">
<g clip-path="url(#clip0_209_2585)">
<path d="M0 36C0 16.1178 16.1178 0 36 0C55.8823 0 72 16.1178 72 36C72 55.8823 55.8823 72 36 72C16.1178 72 0 55.8823 0 36Z" fill="#E773FA"/>
<path d="M43.7564 13.6231C39.3085 12.4515 30.6188 13.2868 26.6157 21.6511C23.1767 28.8328 24.6195 31.4147 21.6579 32.2826C18.6962 33.1505 16.277 34.3113 15.1162 36.0471C13.9554 37.7828 15.2572 42.0463 12.8055 43.2831C10.3428 44.5089 7.16422 47.4055 7.02319 50.1502C12.3715 50.3672 70.7801 53.2963 70.7801 53.2963C70.7801 53.2963 71.865 48.1974 67.7425 46.2447C63.6201 44.292 63.2946 47.0041 61.2334 44.4005C59.1722 41.7968 62.3182 38.2168 59.0637 36.3725C55.8091 34.5283 55.7006 37.3489 53.4224 35.0707C51.1442 32.7925 55.7983 16.8126 43.7564 13.6231Z" fill="#0064C8"/>
<path d="M26.2468 27.4658C26.1926 28.5615 26.2685 29.6681 26.0841 30.7529C25.661 33.2806 23.7625 35.5046 21.3433 36.3291C19.6835 36.8932 17.6765 36.9258 16.5699 38.2927C15.4525 39.6596 15.8322 41.6557 15.5827 43.4023C15.1813 46.1796 13.0007 48.5012 10.3971 49.5209C9.80042 49.7596 9.1712 49.9332 8.60708 50.2261C7.89107 50.1935 7.3595 50.1718 7.02319 50.161C7.16422 47.4163 10.3537 44.5197 12.8055 43.2939C15.2681 42.068 13.9663 37.7936 15.1162 36.0579C16.277 34.3221 18.6854 33.1613 21.6579 32.2934C24.6195 31.4255 23.1767 28.8436 26.6157 21.6619C26.7459 21.4015 26.876 21.1411 27.0062 20.8916C27.0171 20.9133 27.0279 20.935 27.0388 20.9567C27.9175 22.5406 26.3228 25.7518 26.2468 27.4658Z" fill="#0F70D1"/>
<path d="M51.5673 39.3233C51.8385 40.4624 51.2636 41.7317 51.7735 42.784C52.4244 44.1293 54.3988 44.2269 55.3535 45.3877C56.0912 46.2773 56.0912 47.6442 56.9265 48.4361C57.5232 49.0003 58.3911 49.1304 59.1722 49.38C59.9532 49.6295 60.7886 50.1502 60.8645 50.9638C60.973 52.0921 59.6386 52.7755 58.5212 52.9708C57.0458 53.2312 55.527 53.2312 54.0191 53.2312C51.5673 53.2203 49.1264 53.1769 46.6746 53.1227C45.5247 53.0902 44.2337 52.9925 43.5177 52.0921C43.0078 51.4412 42.9536 50.5516 42.921 49.7271C42.8342 46.9933 42.8017 44.2486 42.8234 41.5039C42.8343 40.419 42.8559 39.3233 43.1597 38.2819C43.6479 36.6329 45.9152 33.7472 47.9656 34.1377C48.9745 34.333 49.0722 35.3745 49.4844 36.1447C50.0811 37.2513 51.2636 38.0649 51.5673 39.3233Z" fill="#0055A8"/>
<path d="M29.1542 32.7056C30.4018 33.4976 31.2263 34.8971 31.2263 36.4809C31.2263 38.9544 29.2193 40.9614 26.7458 40.9614C24.2724 40.9614 22.2654 38.9544 22.2654 36.4809C22.2654 34.0075 24.2724 32.0005 26.7458 32.0005" stroke="#F9BD64" stroke-width="1.44647" stroke-miterlimit="10" stroke-linecap="round" stroke-linejoin="round"/>
<path d="M-1.19995 65.3381L2.93334 55.3791C4.58232 51.0288 8.82411 48.2082 13.4781 48.3709L64.8243 50.1935C71.5721 50.4322 76.8879 56.0409 76.7577 62.7887L76.237 91.4722L50.9382 89.7473L48.9854 103.742L-1.19995 65.3381Z" fill="#FACC73"/>
<path d="M57.328 49.9335C55.2993 52.7541 53.2815 55.5639 51.2528 58.3845C50.6779 59.1873 50.0703 60.0118 49.1916 60.4783C47.7921 61.216 46.0998 60.8146 44.5159 60.9665C41.9773 61.1943 39.8185 62.8107 37.562 63.9715C35.2946 65.1432 32.3764 65.8375 30.326 64.3295C28.5034 62.9951 27.8959 60.2613 25.8238 59.3609C23.5673 58.3737 20.508 60.0226 18.6638 58.3954C16.7327 56.703 17.7308 52.689 17.1341 50.3674C17.0148 49.9118 16.7327 49.2392 16.4507 48.5015L57.328 49.9335Z" fill="#FBD488"/>
<path d="M76.7578 62.7996L76.2262 91.4832L64.5098 90.6804C64.6833 89.0639 65.1824 87.4801 65.9526 86.0589C66.8965 84.3231 68.1983 82.8043 69.1421 81.0686C70.0859 79.3328 70.6609 77.239 69.9883 75.3839C69.652 74.4401 69.0119 73.6265 68.6214 72.7043C67.0158 68.8965 69.7713 65.0127 70.6501 61.3893C71.4312 58.1564 69.218 54.7066 70.3029 51.7124C74.2409 53.8496 76.8446 58.0371 76.7578 62.7996Z" fill="#F9BD64"/>
<path d="M54.3446 49.8248C54.3446 49.8248 53.672 50.9639 52.2833 52.4501C49.5929 55.3358 44.2446 59.5234 36.0105 59.3172C27.5161 59.1003 22.6234 54.1859 20.3669 51.0832C19.3146 49.6295 18.8264 48.5663 18.8264 48.5663L27.5595 48.8809L28.6986 44.8561L29.5882 41.6883C29.5882 41.6883 25.4332 39.7898 26.5723 31.4365C26.7459 30.1346 27.169 28.5941 27.6897 27.0428C27.9934 26.1532 28.3189 25.2636 28.6552 24.4066C28.6552 24.3958 28.6661 24.3849 28.6661 24.3741C29.3821 22.5515 30.9226 21.1629 32.821 20.6639C33.0923 20.5879 33.3743 20.5228 33.6672 20.4686C33.6889 20.4686 33.7215 20.4577 33.754 20.4577C34.8606 20.2516 36.119 20.1757 37.4751 20.3167C43.4309 20.9785 46.6421 23.0831 45.0582 27.748C44.1144 30.5252 44.5266 31.0785 45.3403 30.5903C46.3926 29.3427 47.5425 28.9521 48.7793 29.7441C50.1462 30.612 50.2221 32.3586 49.5495 33.8774C49.0505 35.0165 47.293 35.5589 46.6096 35.4721C46.5987 35.4938 43.9734 49.4559 43.9734 49.4559L54.3446 49.8248Z" fill="#F8934F"/>
<path d="M33.754 20.4578C33.6455 20.6313 33.4828 20.7941 33.3309 20.9351C32.4196 21.7379 31.4107 22.4105 30.4452 23.1482C29.957 23.5171 29.3386 24.2873 28.666 24.4175C28.666 24.4066 28.6769 24.3958 28.6769 24.3849C29.3929 22.5624 30.9334 21.1738 32.8318 20.6747C33.1031 20.5988 33.3851 20.5337 33.678 20.4795C33.6997 20.4686 33.7214 20.4578 33.754 20.4578Z" fill="#F77C2D"/>
<path d="M46.6313 35.483C46.6204 35.483 46.6204 35.483 46.6096 35.483C46.5987 35.5047 44.2337 48.0782 43.9951 49.3583C43.1706 49.3583 42.3569 49.3583 41.5324 49.3583C41.4023 49.3583 41.2721 49.3583 41.1636 49.3041C40.99 49.2173 40.8815 49.0329 40.849 48.8376C40.6862 48.1108 41.2395 47.4273 41.782 46.95C42.3352 46.4618 42.9645 45.9736 43.0946 45.2359C43.214 44.4982 42.7692 43.7713 42.7909 43.0228C42.8451 41.4063 44.9063 40.6036 45.2318 39.0197C45.362 38.3796 45.1776 37.707 45.2318 37.0561C45.286 36.4486 45.9586 34.7779 46.6313 35.483Z" fill="#F77C2D"/>
<path d="M45.2644 35.1467C45.2644 35.1467 45.5682 35.4179 46.6096 35.483" stroke="#BF3028" stroke-width="1.44647" stroke-miterlimit="10" stroke-linecap="round" stroke-linejoin="round"/>
<path d="M42.3459 49.4016L44.9388 49.4993" stroke="#BF3028" stroke-width="1.44647" stroke-miterlimit="10" stroke-linecap="round" stroke-linejoin="round"/>
<path d="M45.0583 27.7481C44.9064 28.2037 44.7871 28.5943 44.7003 28.9414C44.6027 28.8329 44.5376 28.6919 44.4833 28.5617C44.1036 27.542 44.2664 26.4029 44.1145 25.3289C43.9843 24.3742 43.5829 23.4629 42.9971 22.7035C42.4655 22.0201 41.7929 21.4451 41.0227 21.0545C40.9576 21.022 40.8925 20.9786 40.8274 20.946C44.5593 21.9658 46.3059 24.0596 45.0583 27.7481Z" fill="#F77C2D"/>
<path d="M37.9199 42.8601L31.7471 43.8365L28.7095 44.8563L29.5991 41.6885C29.5991 41.6885 25.4441 39.79 26.5832 31.4366C26.7568 30.1348 27.1799 28.5943 27.7006 27.043C22.8513 43.8365 37.9199 42.8601 37.9199 42.8601Z" fill="#F9AF79"/>
<path d="M40.2849 42.2309C40.2849 42.2309 34.6653 44.4874 29.5773 41.6885C29.0024 43.7172 28.3623 45.9845 28.3623 45.9845C28.3623 45.9845 36.2709 45.5397 40.2849 42.2309Z" fill="#BF3028"/>
<path d="M45.6875 32.8576C45.6875 32.8576 46.6747 33.6929 47.4884 32.9227C48.302 32.1524 47.8355 31.1218 47.8355 31.1218C47.4884 31.2412 47.1521 31.3822 46.8375 31.5666C46.3384 31.8812 45.9045 32.3152 45.6875 32.8576Z" fill="#F77C2D"/>
<path d="M47.8358 31.1327C47.8358 31.1327 48.3023 32.1633 47.4886 32.9335C46.675 33.7038 45.6877 32.8684 45.6877 32.8684C45.9047 32.326 46.3387 31.8921 46.8485 31.5883C47.3476 31.2846 47.9117 31.1001 48.4758 30.9482" stroke="#BF3028" stroke-width="1.44647" stroke-miterlimit="10" stroke-linecap="round" stroke-linejoin="round"/>
<path d="M34.676 32.6731C35.3052 31.9571 33.1246 30.0586 32.6581 31.1977C32.4629 31.7185 33.9274 33.5302 34.676 32.6731Z" fill="#F77C2D"/>
<path d="M34.6759 27.5203C34.6759 27.5203 32.7123 30.7206 32.6689 31.3715C32.6255 32.0224 33.7972 32.7276 33.7972 32.7276" stroke="#BF3028" stroke-width="1.44647" stroke-miterlimit="10" stroke-linecap="round" stroke-linejoin="round"/>
<path d="M30.391 29.2233C30.3259 29.6247 30.4236 29.9394 30.7273 29.9827C31.0311 30.0261 31.324 29.7441 31.3891 29.3427C31.4542 28.9413 31.2589 28.5833 30.9551 28.529C30.6514 28.4748 30.4561 28.822 30.391 29.2233Z" fill="#1A1B16"/>
<path d="M36.5856 30.4383C36.5205 30.8397 36.6181 31.1543 36.9219 31.1977C37.2257 31.2411 37.5186 30.9591 37.5837 30.5577C37.6487 30.1563 37.4535 29.7983 37.1497 29.744C36.8351 29.7006 36.6398 30.0369 36.5856 30.4383Z" fill="#1A1B16"/>
<path d="M30.2607 26.3594C30.2607 26.3594 31.8772 25.7952 32.9295 26.7608" stroke="#1A1B16" stroke-width="1.44647" stroke-miterlimit="10" stroke-linecap="round" stroke-linejoin="round"/>
<path d="M36.9434 27.0645C36.9434 27.0645 38.6032 26.6306 39.8833 27.4117" stroke="#1A1B16" stroke-width="1.44647" stroke-miterlimit="10" stroke-linecap="round" stroke-linejoin="round"/>
<path d="M32.5821 34.7779L36.9541 33.3784C37.1819 33.3025 37.4097 33.4869 37.388 33.7147C37.3446 34.3657 36.9975 35.5373 35.2075 36.0146C33.526 36.4703 32.734 35.7651 32.3977 35.2878C32.2784 35.1034 32.376 34.843 32.5821 34.7779Z" fill="#1A1B16"/>
<path d="M33.5151 34.9299L36.1079 34.1379C36.1079 34.1379 36.2164 34.8756 35.0556 35.2119C33.7104 35.5916 33.5151 34.9299 33.5151 34.9299Z" fill="#EDE3EB"/>
<path d="M35.9772 37.4685C36.4381 37.2817 36.7388 36.9502 36.6487 36.728C36.5587 36.5059 36.1121 36.4773 35.6512 36.6642C35.1903 36.851 34.8896 37.1825 34.9797 37.4046C35.0697 37.6267 35.5163 37.6553 35.9772 37.4685Z" fill="#F77C2D"/>
<path d="M35.5986 18.4944L40.2852 26.1969C40.2852 26.186 43.1818 20.3061 35.5986 18.4944Z" fill="#0064C8"/>
<path d="M31.2266 24.6345L38.9616 20.0021C38.9616 20.0021 33.1034 17.0622 31.2266 24.6345Z" fill="#0064C8"/>
<path d="M40.8276 13.634C40.8276 13.634 38.2565 15.6302 37.5947 19.8719" stroke="#0055A8" stroke-width="1.44647" stroke-miterlimit="10" stroke-linecap="round" stroke-linejoin="round"/>
<path d="M48.8553 35.0273C50.1029 35.6674 51.0359 36.8716 51.2528 38.3578C51.6217 40.8096 49.9293 43.0878 47.4775 43.4458C45.0258 43.8146 42.7476 42.1223 42.3896 39.6705C42.0316 37.2187 43.7131 34.9405 46.1649 34.5825" stroke="#FBD488" stroke-width="1.44647" stroke-miterlimit="10" stroke-linecap="round" stroke-linejoin="round"/>
</g>
<defs>
<clipPath id="clip0_209_2585">
<path d="M0 36C0 16.1178 16.1178 0 36 0C55.8823 0 72 16.1178 72 36C72 55.8823 55.8823 72 36 72C16.1178 72 0 55.8823 0 36Z" fill="white"/>
</clipPath>
</defs>
</svg>
