<svg width="72" height="72" viewBox="0 0 72 72" fill="none" xmlns="http://www.w3.org/2000/svg">
<g clip-path="url(#clip0_209_2583)">
<path d="M0 36C0 16.1178 16.1178 0 36 0C55.8823 0 72 16.1178 72 36C72 55.8823 55.8823 72 36 72C16.1178 72 0 55.8823 0 36Z" fill="#91C8FB"/>
<path d="M48.7239 20.1386L23.1529 33.6596C23.0717 33.5002 22.9945 33.3304 22.9205 33.1677C22.8625 33.0404 22.8046 32.9131 22.757 32.7896C19.3953 24.9115 22.3861 16.0355 29.5547 12.8135C35.3622 10.2032 42.1704 12.0933 46.5247 17.0033C47.3521 17.935 48.0976 18.9887 48.7239 20.1386Z" fill="#0064C8"/>
<path d="M39.297 11.9439C39.297 11.9439 34.6997 11.6614 38.7975 2.93404C40.9543 7.13793 41.0425 10.6645 39.297 11.9439Z" fill="#0061CB"/>
<path d="M39.7733 12.1042C39.7733 12.1042 39.63 8.96753 46.7578 7.61311C44.597 11.0135 41.4863 12.8427 39.7733 12.1042Z" fill="#0061CB"/>
<path d="M41.0249 12.0893C41.1087 11.3581 40.4543 10.6729 39.5634 10.5589C38.6725 10.445 37.8823 10.9454 37.7986 11.6766C37.7149 12.4079 38.3692 13.0931 39.2601 13.2071C40.151 13.321 40.9412 12.8206 41.0249 12.0893Z" fill="#0061CB" stroke="#F9BD64" stroke-width="1.04356" stroke-miterlimit="10"/>
<path d="M41.0249 12.0893C41.1087 11.3581 40.4543 10.6729 39.5634 10.5589C38.6725 10.445 37.8823 10.9454 37.7986 11.6766C37.7149 12.4079 38.3692 13.0931 39.2601 13.2071C40.151 13.321 40.9412 12.8206 41.0249 12.0893Z" fill="#0061CB" stroke="#F9BD64" stroke-width="1.04356" stroke-miterlimit="10"/>
<path d="M60.8296 37.8229C58.8462 32.5406 56.9839 31.1397 52.3193 31.1806C49.9014 31.2015 48.8716 28.552 48.9179 24.8851L49.9093 24.8026L50.8161 24.7414C50.8161 24.7414 49.9443 20.5517 46.2754 17.3488C44.0408 15.3996 40.6519 13.4957 36.047 14.1328C26.0056 15.5196 22.5141 22.4569 23.1318 31.0738C23.1459 31.2723 23.1496 31.467 23.1501 31.6546C23.1236 34.7491 21.1235 37.5433 18.1124 38.4565C18.0523 38.4752 17.9852 38.4971 17.9149 38.512C13.75 39.6582 6.36615 44.604 10.1561 51.4832C7.55711 51.1849 5.27877 54.5493 6.01098 57.5216C16.1351 55.6618 68.9956 45.2275 68.9956 45.2275C68.9956 45.2275 67.2426 37.2194 60.8296 37.8229Z" fill="#F52A21"/>
<path d="M23.6427 39.9101C22.8171 40.9783 21.8117 42.1379 21.9676 43.4927C22.1097 44.7422 23.2206 45.7255 23.307 46.9835C23.4022 48.3921 22.2044 49.5029 21.5428 50.7447C20.8105 52.1308 20.7519 53.894 21.5033 55.2665C22.2547 56.6391 23.8498 57.5453 25.3912 57.359C26.8352 57.1832 28.0762 56.1298 28.7741 54.8369C29.4721 53.5439 29.6951 52.0488 29.7612 50.5831C29.9494 46.0701 28.6733 41.6133 26.8562 37.4833C26.4822 36.6415 25.0222 34.7964 24.7477 36.5903C24.5581 37.9153 24.5296 38.7707 23.6427 39.9101Z" fill="#D6261D"/>
<path d="M9.91528 51.3223C9.91528 51.3223 10.9755 52.837 12.4831 53.2939" stroke="#BF3028" stroke-width="1.30446" stroke-miterlimit="10" stroke-linecap="round" stroke-linejoin="round"/>
<path d="M60.9178 38.1941C60.9178 38.1941 59.9172 38.0343 58.2029 38.6846" stroke="#BF3028" stroke-width="1.30446" stroke-miterlimit="10" stroke-linecap="round" stroke-linejoin="round"/>
<path d="M26.8091 28.8267C26.8091 28.8267 27.6722 29.8034 28.1903 31.3813" stroke="#BF3028" stroke-width="1.30446" stroke-miterlimit="10" stroke-linecap="round" stroke-linejoin="round"/>
<path d="M30.4042 25.9922L30.2061 24.1892" stroke="#BF3028" stroke-width="1.30446" stroke-miterlimit="10" stroke-linecap="round" stroke-linejoin="round"/>
<path d="M28.8508 90.5348L29.5462 81.2813C26.9019 84.5641 16.9455 86.1722 10.9507 81.6512L7.47649 103.708L3.2314 117.822L-1.09542 89.1838L-1.16107 88.7613C-1.32588 87.6755 -1.49069 86.5897 -1.6555 85.5039C-2.0022 83.2206 -2.34504 80.927 -2.69174 78.6437C-3.00165 76.6083 -3.30445 74.5696 -3.61762 72.5271C-3.89014 70.7222 -4.11858 68.9571 -3.82055 67.1421C-3.57103 65.6135 -3.02252 64.1377 -2.22722 62.8065C-0.610806 60.1068 2.01698 58.0939 5.04906 57.2209C5.31413 57.144 5.59281 57.078 5.86437 57.0152L25.5547 52.7562L25.5853 53.6808C26.4311 54.6982 29.5115 57.7359 35.2724 56.357C42.1519 54.7038 43.6638 50.9935 43.6638 50.9935L43.6551 48.8477C43.6551 48.8477 61.0649 45.0801 61.072 45.0769C62.32 44.804 63.5909 44.6743 64.8711 44.6768C66.1268 44.6819 67.3847 44.8225 68.61 45.0972C69.8248 45.3681 71.0109 45.7629 72.1435 46.2841C73.4516 46.8883 74.6877 47.6529 75.814 48.5523C76.9028 49.426 77.8923 50.4383 78.7384 51.5495C79.0997 52.0177 79.4359 52.5059 79.747 53.0139L86.5112 64.0206L28.8508 90.5348Z" fill="white"/>
<path d="M-4.05384 69.1098C-3.67843 68.5829 -3.24967 68.2118 -2.79193 67.9991C-2.09155 67.6824 -1.28119 67.7788 -0.816314 68.242C-0.475192 68.5821 -0.279887 69.1276 -0.257325 69.8565C-0.205784 71.3285 -0.706427 72.7475 -1.32119 74.0647C-1.77997 74.5014 -2.05607 75.0595 -2.10155 75.6566C-2.1117 75.7473 -2.05589 75.8332 -1.95978 75.8573C-1.87072 75.8847 -1.77917 75.8422 -1.73122 75.7597C-1.49344 75.3054 -1.23712 74.8166 -1.00068 74.3027C-0.879093 74.1946 -0.747258 74.0904 -0.591708 74.0009C0.130326 73.5623 0.999413 73.4681 1.68829 73.7671C3.04938 74.347 3.75976 76.1835 3.20413 77.6882C2.69323 79.1034 1.23653 80.1412 -0.416512 80.2729C-0.51386 80.2837 -0.596396 80.3651 -0.593084 80.4667C-0.589772 80.5683 -0.516664 80.6547 -0.412896 80.6581C0.574864 80.7323 1.54646 81.261 2.24361 82.1064C2.94398 82.9588 3.2769 84.0164 3.16524 85.0139C3.05358 86.0115 2.48968 86.9698 1.62762 87.6454C1.13612 88.0285 0.558033 88.3142 -0.0592951 88.4377C-0.464012 88.5225 -0.88095 88.5615 -1.27883 88.454L-1.21432 88.8797C-1.20406 88.8835 -1.19381 88.8873 -1.17652 88.8879C-0.873501 88.9363 -0.567998 88.9147 -0.272124 88.8718C0.152476 88.8121 0.565481 88.6891 0.959844 88.5059C1.27674 88.3586 1.57759 88.1759 1.85917 87.9505C2.81019 87.2078 3.42267 86.1495 3.54831 85.0509C3.67395 83.9523 3.29992 82.7849 2.5399 81.8569C2.00886 81.2095 1.33324 80.7324 0.601488 80.4706C1.97689 80.0638 3.11338 79.0715 3.57384 77.8088C4.1882 76.1134 3.38212 74.0463 1.84354 73.3941C1.07968 73.0612 0.120911 73.1455 -0.681176 73.5955C-0.189238 72.4212 0.18858 71.1453 0.137863 69.8449C0.10878 69.0072 -0.118006 68.3732 -0.539904 67.9674C-1.11186 67.3992 -2.10096 67.2655 -2.94219 67.6477L-2.96332 67.6575C-3.35768 67.8407 -3.71735 68.1195 -4.04938 68.4973L-4.05384 69.1098Z" fill="#F77C2D"/>
<path d="M49.669 69.3492C49.6337 69.3654 49.5918 69.3675 49.5467 69.3625C49.443 69.3415 49.3697 69.2382 49.3904 69.1345C49.5441 68.3533 49.8668 67.6231 50.178 66.9238C50.3543 66.5261 50.5377 66.1252 50.683 65.7161C50.9655 64.9358 51.3185 63.4724 50.5552 62.4095C49.8917 61.4892 48.4536 61.1724 47.2883 61.6896C46.2714 62.1387 45.4177 63.1466 44.9615 64.4604C44.8924 64.6633 44.8265 64.8733 44.7748 65.0769C44.81 66.1568 44.6745 67.2379 44.3734 68.275C44.3494 68.3716 44.2467 68.4273 44.1533 68.4102C44.0598 68.3931 43.986 68.3071 43.9925 68.2099C44.0573 67.1612 44.1264 66.0848 44.3895 65.0394C44.3681 64.5098 44.3049 63.9822 44.196 63.467C44.015 62.5909 43.7051 62.048 43.2434 61.7887C42.8534 61.5737 42.4512 61.6296 42.1838 61.7179C41.6561 61.8914 41.1902 62.3105 40.9513 62.8139C40.5215 63.7388 40.6556 64.8847 40.762 65.8035C40.7761 65.9084 40.7 66.0032 40.588 66.0203C40.4831 66.0341 40.3881 65.9578 40.3708 65.8459C40.2589 64.8782 40.1162 63.6763 40.5945 62.6522C40.8747 62.0527 41.4303 61.5497 42.0564 61.3482C42.5488 61.191 43.0177 61.2243 43.4316 61.4541C43.996 61.7691 44.3727 62.4013 44.5742 63.3963C44.6192 63.6241 44.6571 63.855 44.6917 64.0789C45.2027 62.7914 46.0836 61.8052 47.1288 61.3432C48.4669 60.7553 50.1088 61.1243 50.8754 62.1942C51.7418 63.4068 51.3599 65.0119 51.0508 65.8643C50.9016 66.2838 50.7145 66.695 50.5382 67.0926C50.2307 67.7816 49.9124 68.4841 49.774 69.2241C49.769 69.2691 49.7255 69.3233 49.669 69.3492Z" fill="#F77C2D"/>
<path d="M74.3196 47.356C74.1173 48.4039 73.4394 49.4442 72.4664 49.8829C72.1681 50.0174 71.8437 50.0953 71.5009 50.0962C70.1288 50.1168 69.142 49.0583 68.4272 47.9199C68.5236 48.5 68.5774 49.0993 68.5089 49.694C68.4012 50.631 67.9011 51.7961 66.8216 52.2828L66.8074 52.2893C66.1081 52.596 65.2909 52.5545 64.4992 52.1597C63.7834 51.7991 63.1634 51.1816 62.8019 50.4733C62.5852 50.0414 62.4395 49.5775 62.3429 49.1085C62.095 49.9464 61.7156 50.741 61.2057 51.4578C60.2446 52.8137 58.4728 53.7151 57.192 52.8746C56.4796 52.4099 56.0888 51.5269 56.019 50.2428C55.9444 48.8926 56.1434 47.5216 56.584 46.2465L57.0352 46.1456C56.5518 47.4399 56.331 48.8379 56.4045 50.2228C56.4646 51.3745 56.8026 52.1618 57.4021 52.5492C58.1178 53.021 59.6778 52.9241 60.8774 51.23C61.5704 50.2598 62.0175 49.11 62.1927 47.929C62.156 47.2366 62.1924 46.5538 62.2162 45.9366C62.2196 45.8326 62.3027 45.7524 62.4043 45.7493C62.5058 45.7462 62.5909 45.8189 62.6049 45.9236C62.6843 46.5969 62.6757 47.2841 62.5836 47.9578C62.6306 48.7652 62.772 49.5728 63.1433 50.3023C63.7641 51.5344 65.345 52.5044 66.637 51.939L66.6512 51.9326C67.5816 51.5131 68.0214 50.4776 68.1115 49.6511C68.2209 48.6621 67.9842 47.6669 67.7606 46.6999C67.7356 46.6087 67.7915 46.5066 67.8871 46.472C67.9826 46.4375 68.0825 46.4864 68.1288 46.5681C69.5117 49.4127 70.7119 49.7258 71.4888 49.7172C72.5355 49.698 73.7325 48.7227 73.9486 47.1474C74.0796 47.2079 74.1996 47.2819 74.3196 47.356Z" fill="#F77C2D"/>
<path d="M65.5294 64.925C65.4584 64.957 65.3749 64.9434 65.3138 64.8855C64.5134 64.119 63.2498 62.3312 63.2894 60.8013C63.3039 60.1455 63.5596 59.603 64.0416 59.1977C64.4301 58.8686 64.9232 58.7658 65.4963 58.8917C66.2811 59.0673 67.139 59.6798 67.8407 60.3628C67.7902 60.1977 67.7505 60.019 67.7213 59.8443C67.5577 58.8588 67.8308 57.8899 68.4479 57.3125C69.4476 56.3746 71.0736 56.6065 72.0897 57.3014C73.1642 58.0298 73.8292 59.1905 74.4186 60.2061C74.4714 60.3019 74.4396 60.4187 74.3435 60.4706C74.2473 60.5226 74.1294 60.4903 74.0766 60.3945C73.5107 59.4111 72.8652 58.2927 71.866 57.6159C70.665 56.7994 69.3469 56.9924 68.7079 57.5967C68.1881 58.0875 67.9507 58.9293 68.0975 59.7857C68.1912 60.3414 68.4187 60.8709 68.6965 61.3607C68.8807 61.6107 69.0267 61.8524 69.1176 62.0677C69.16 62.1596 69.125 62.2694 69.0359 62.3181C68.9469 62.3668 68.829 62.3346 68.7794 62.2459C68.6329 62.0215 68.4934 61.794 68.3578 61.5562C67.6717 60.6099 66.4383 59.5004 65.4139 59.2706C64.9658 59.1737 64.5891 59.2497 64.2978 59.4921C63.9021 59.8244 63.6952 60.268 63.6879 60.8094C63.6513 62.1416 64.7747 63.8302 65.5888 64.6077C65.6667 64.6836 65.6699 64.8018 65.5939 64.8788C65.5688 64.8987 65.5507 64.9154 65.5294 64.925Z" fill="#F77C2D"/>
<path d="M50.7938 54.2C51.158 54.341 51.4114 54.5758 51.2939 54.8783C51.1764 55.1807 50.7929 55.314 50.4216 55.1762C50.0574 55.0352 49.7052 54.623 49.8157 54.3238C49.9262 54.0246 50.4224 54.0622 50.7938 54.2Z" fill="#F77C2D"/>
<path d="M9.00454 71.2478C8.7468 71.058 8.60892 70.8129 8.76534 70.5949C8.92501 70.3839 9.25893 70.367 9.51667 70.5567C9.77442 70.7465 9.95217 71.1533 9.79575 71.3713C9.63609 71.5823 9.25524 71.4408 9.00454 71.2478Z" fill="#F77C2D"/>
<path d="M19.8783 55.8456C20.0826 56.754 20.0493 57.4445 19.7788 58.0111C19.6923 58.1954 19.5785 58.3579 19.4408 58.5055C18.6427 59.3783 17.1244 59.5071 16.036 59.0059C15.0714 58.5687 14.3251 57.7679 13.7114 56.9758C13.9071 57.8281 14.024 58.7331 13.8059 59.618C13.5181 60.8166 12.3921 61.9827 11.0664 61.7852C9.9355 61.6196 9.23658 60.5495 8.92165 59.9219C8.33746 58.7659 8.07329 57.4485 8.14741 56.1582L8.54534 56.0728C8.45492 57.3278 8.70219 58.6271 9.27007 59.7477C9.55238 60.3045 10.1713 61.2568 11.1282 61.3982C12.1963 61.5579 13.184 60.5568 13.435 59.5202C13.7032 58.3903 13.3864 57.1822 13.1033 56.1213C13.0784 56.0299 13.1232 55.9413 13.2052 55.8958C13.2904 55.8574 13.3874 55.882 13.4479 55.9574C14.1769 56.9626 15.0029 58.1036 16.2052 58.6475C17.3039 59.1525 18.902 58.9365 19.4315 57.8342C19.6642 57.353 19.6843 56.7454 19.5017 55.9214C19.3435 55.2061 19.0969 54.5221 18.758 53.8797L19.1488 53.7975C19.4703 54.4392 19.7202 55.1303 19.8783 55.8456Z" fill="#F77C2D"/>
<path d="M47.7987 24.9838C47.8081 25.1164 47.8143 25.242 47.8269 25.3817C47.8591 25.8632 47.9011 26.3659 47.9354 26.8893C48.1383 29.7057 48.5321 33.0507 48.5063 35.8349C48.4423 42.0678 44.1167 44.1935 44.1167 44.1935L44.128 46.9093L44.1443 50.701C44.1443 50.701 42.6407 54.4269 35.7912 56.1079C30.0515 57.5205 26.9826 54.4845 26.1436 53.4567L25.6816 37.9838L25.6742 37.3883C25.0381 37.0463 24.4961 36.4986 24.1688 35.7842C23.8707 35.1335 23.7934 34.4416 23.903 33.7838C23.919 33.7252 23.9317 33.6595 23.9547 33.5976C24.2366 32.5872 25.0071 30.7371 27.2345 30.8897C29.0276 31.01 28.4868 35.8097 30.0468 35.7202C31.4149 35.6416 30.5258 28.3562 30.2876 26.5656C30.258 26.3139 30.235 26.1704 30.235 26.1704L35.4017 25.8245L36.1984 22.4992L38.4565 25.6154L47.7987 24.9838Z" fill="#F8934F"/>
<path d="M28.1082 35.2502C28.1082 35.2502 26.8202 35.8393 26.1961 34.7813C25.572 33.7234 26.3734 32.7764 26.3734 32.7764C26.6982 33.0033 27.0083 33.2543 27.2786 33.5494C27.7228 34.0213 28.0484 34.6084 28.1082 35.2502Z" fill="#F77C2D"/>
<path d="M26.3846 32.7682C26.3846 32.7682 25.5865 33.7231 26.2061 34.7759C26.8289 35.8357 28.116 35.2467 28.116 35.2467C28.0566 34.604 27.7286 34.0087 27.2954 33.5397C26.8622 33.0706 26.3282 32.6999 25.7859 32.3674" stroke="#BF3028" stroke-width="1.30446" stroke-miterlimit="10" stroke-linecap="round" stroke-linejoin="round"/>
<path d="M29.4962 48.86C29.7294 49.5871 29.638 50.404 29.2855 51.0745C29.0965 51.4286 28.8435 51.7348 28.7159 52.1122C28.4952 52.7735 28.7079 53.4929 28.7902 54.1864C28.843 54.644 28.8363 55.1205 28.6998 55.5536C27.2524 54.845 26.3598 53.8974 25.9592 53.4025L25.5321 37.824L25.5266 37.3962C25.8669 37.5489 26.2954 37.7469 26.3908 37.9782C26.6157 38.5543 26.3552 39.1651 26.7175 39.7638C27.0472 40.3087 27.5935 40.6933 27.8841 41.2648C28.5884 42.6436 27.4835 44.3416 27.8375 45.8478C28.1119 46.969 29.138 47.7603 29.4962 48.86Z" fill="#F77C2D"/>
<path d="M48.0658 24.963C48.0748 25.095 48.0806 25.2199 48.0928 25.359C47.353 25.8446 46.4468 26.0988 45.5568 26.2012C44.3994 26.3387 43.2355 26.275 42.0767 26.3536C40.6193 26.4558 39.1742 26.7906 37.7202 26.7128C36.9617 26.671 36.2039 26.5183 35.4371 26.5143C34.7226 26.5122 34.0069 26.6383 33.2905 26.6881C32.7497 26.7271 31.2619 26.8004 30.4543 26.483C30.4252 26.2325 30.4026 26.0895 30.4026 26.0895L35.5986 25.7613L36.4098 22.454L38.6707 25.5626L48.0658 24.963Z" fill="#F77C2D"/>
<path d="M48.0161 26.801C48.0175 26.8602 48.3602 30.992 48.4856 33.0232C48.5364 33.8816 48.5703 34.7221 48.5745 35.5163C48.5729 35.6626 48.5753 35.7985 48.5743 35.9273C48.5108 42.1627 44.1872 44.2895 44.1872 44.2895L44.1912 45.4947L44.1894 45.5468C43.8658 45.6438 43.5363 45.7092 43.2042 45.7501C41.9703 45.8961 40.6533 45.6178 39.684 44.8465C41.4679 44.7053 43.241 44.1667 44.6938 43.1157C46.15 42.0717 47.2518 40.4968 47.5591 38.7381C47.7226 37.8242 47.8875 30.7634 47.8743 29.7251C47.8709 29.213 47.8083 28.7024 47.8049 28.1903C47.8027 27.849 47.7802 27.183 48.0161 26.801Z" fill="#F9AF79"/>
<path d="M44.0488 44.301L44.0597 47.0146C43.0761 47.1305 39.3421 47.34 37.6309 44.3003C37.627 44.3106 40.5054 45.8597 44.0488 44.301Z" fill="#BF3028"/>
<path d="M25.7673 37.3777C25.7673 37.3777 26.5857 37.8507 27.5265 37.6373" stroke="#BF3028" stroke-width="1.30446" stroke-miterlimit="10" stroke-linecap="round" stroke-linejoin="round"/>
<path d="M41.632 35.532C42.2366 35.8188 43.6721 34.2885 43.0444 33.5781C42.7156 33.1998 40.1718 34.8427 41.632 35.532Z" fill="#F77C2D"/>
<path d="M42.1306 40.6495C42.1233 40.951 41.6846 40.9124 41.1509 40.8916C40.6173 40.8707 40.1799 40.8911 40.1943 40.5864C40.2088 40.2816 40.6851 39.9538 41.2226 39.9644C41.7563 39.9853 42.145 40.3448 42.1306 40.6495Z" fill="#F77C2D"/>
<path d="M38.5662 32.6747C38.5492 33.0681 38.404 33.3494 38.116 33.3368C37.8209 33.3274 37.5957 33.003 37.6127 32.6096C37.6297 32.2162 37.8834 31.9105 38.1714 31.9231C38.4562 31.9286 38.5831 32.2813 38.5662 32.6747Z" fill="#1A1B16"/>
<path d="M45.7205 32.2226C45.7041 32.5986 45.5666 32.8593 45.2992 32.8543C45.0286 32.8422 44.8202 32.5357 44.8366 32.1597C44.8529 31.7836 45.0855 31.4876 45.3561 31.4997C45.6267 31.5118 45.7369 31.8465 45.7205 32.2226Z" fill="#1A1B16"/>
<path d="M34.9195 29.9593C36.0813 29.3574 37.4379 29.1265 38.7419 29.3087" stroke="#BF3028" stroke-width="1.30446" stroke-miterlimit="10" stroke-linecap="round" stroke-linejoin="round"/>
<path d="M44.3955 28.907C45.425 28.7715 46.4909 28.8832 47.467 29.2482" stroke="#BF3028" stroke-width="1.30446" stroke-miterlimit="10" stroke-linecap="round" stroke-linejoin="round"/>
<path d="M42.1583 35.42C42.4142 35.2325 42.6732 35.052 42.8791 34.8103C43.0849 34.5686 43.2305 34.2688 43.2313 33.9502C43.2244 33.5579 42.9876 33.2034 42.806 32.8577C42.4195 32.1342 42.227 31.312 42.2419 30.4967" stroke="#BF3028" stroke-width="1.30446" stroke-miterlimit="10" stroke-linecap="round" stroke-linejoin="round"/>
<path d="M38.3345 36.5943C38.3345 36.5943 39.5086 39.3157 41.9725 38.8118C43.4487 38.5122 43.6729 36.9086 43.6729 36.9086C43.6729 36.9086 42.9199 36.6899 41.8803 37.4723C40.8858 36.8778 38.1572 35.9845 38.3345 36.5943Z" fill="#F52A21"/>
<path d="M38.1978 36.4949C38.1978 36.4949 40.056 37.9737 41.7687 37.9784C42.8452 37.9828 43.6712 36.9012 43.6712 36.9012" stroke="#BF3028" stroke-width="1.30446" stroke-miterlimit="10" stroke-linecap="round" stroke-linejoin="round"/>
</g>
<defs>
<clipPath id="clip0_209_2583">
<path d="M0 36C0 16.1178 16.1178 0 36 0C55.8823 0 72 16.1178 72 36C72 55.8823 55.8823 72 36 72C16.1178 72 0 55.8823 0 36Z" fill="white"/>
</clipPath>
</defs>
</svg>
