<svg width="72" height="72" viewBox="0 0 72 72" fill="none" xmlns="http://www.w3.org/2000/svg">
<g clip-path="url(#clip0_209_2593)">
<path d="M0 36C0 16.1178 16.1178 0 36 0C55.8823 0 72 16.1178 72 36C72 55.8823 55.8823 72 36 72C16.1178 72 0 55.8823 0 36Z" fill="#719CCF"/>
<path d="M77.8051 86.117C73.5561 86.5788 69.2763 87.0099 64.9965 87.3178C64.1344 87.3793 63.3031 87.4409 62.4409 87.5025C62.4101 94.5226 62.3793 101.512 62.3485 108.532C54.3432 108.44 46.3378 108.07 38.3324 107.731C30.6041 107.393 22.8451 107.054 15.1168 107.085C11.576 107.085 8.06594 107.116 4.5251 107.054C4.49431 103.267 4.46351 99.4798 4.46351 95.7234C3.17034 95.9389 1.84638 95.6926 0.737942 94.7997C0.645572 93.4142 0.614775 92.0286 0.614775 90.6739C0.553195 86.7328 0.55321 82.7609 0.55321 78.789C0.49163 70.0754 0.676359 61.3619 1.60006 52.7099C2.15427 53.3257 2.7085 53.9107 3.26272 54.5265C6.15697 49.9388 9.7286 45.7514 15.0245 43.9656C18.4421 42.8263 22.1369 42.9803 25.647 43.3498C26.4475 43.4421 27.2788 43.5345 28.0794 43.6269C31.3123 43.9964 34.5761 44.4582 37.7782 44.9201C40.8264 45.3511 43.8746 45.8438 46.9228 46.3672C51.88 47.1985 56.8064 48.1222 61.702 49.1691C63.4878 49.5385 69.6458 51.2628 71.8626 55.2039L71.8934 55.2347C73.1866 57.5439 73.9871 60.0995 74.5413 62.7474C75.5574 67.5199 76.1424 72.4155 76.789 77.2803C77.1585 80.2053 77.4972 83.1611 77.8051 86.117Z" fill="#BCD7FD"/>
<path d="M46.9231 46.3363C45.1373 50.4005 41.966 53.695 37.132 54.0953C31.3127 54.5879 26.0784 49.0766 28.0797 43.5959C31.3127 43.9654 34.5764 44.4273 37.7785 44.8891C40.8267 45.351 43.8749 45.8436 46.9231 46.3363Z" fill="#952C28"/>
<path d="M53.1118 67.7045C53.1118 67.4582 52.6807 67.4582 52.7115 67.7045C53.0194 73.4622 53.2966 79.2199 53.6045 85.0084C53.5429 85.0392 53.5121 85.1316 53.5121 85.224C53.5429 85.3779 53.6044 85.5319 53.6352 85.6858C53.6968 85.9014 54.0355 85.8706 54.0355 85.6242C53.7276 79.651 53.4197 73.6778 53.1118 67.7045Z" fill="white"/>
<path d="M8.52797 53.0179C8.25086 54.9885 7.97375 56.9591 7.69664 58.9296C7.66585 59.1759 8.03535 59.2991 8.09693 59.022C8.37404 57.0514 8.65113 55.0809 8.92824 53.1103C8.95903 52.864 8.55876 52.7716 8.52797 53.0179Z" fill="white"/>
<path d="M3.23241 54.5266C-4.18796 46.2133 -12.5628 38.793 -21.7382 32.3887C-22.8466 31.0647 -24.3553 30.2334 -26.2027 31.1571C-26.3567 31.2494 -27.8346 32.8813 -28.0501 33.4971C-29.7436 36.145 -37.2871 42.9188 -37.1024 43.6886C-36.8253 44.8894 -32.9149 45.7207 -33.1921 44.212C-32.9765 43.8425 -32.8534 43.5962 -32.6378 43.2575C-32.4223 43.1651 -32.2376 43.0728 -32.0528 42.9804C-31.8065 45.2281 -29.9899 46.9215 -27.6807 46.9215C-26.5722 50.0005 -24.0167 52.2482 -20.8761 53.0487C-12.5012 70.5066 -0.308418 93.3219 0.39975 94.4919C1.1695 95.7543 2.83214 98.5254 4.52559 98.0328C4.89507 86.3326 6.15745 72.1385 7.45063 60.4999C6.15745 58.3138 3.32478 54.3419 3.23241 54.5266Z" fill="#952C28"/>
<path d="M44.8595 49.1073L29.5569 47.691L29.3721 43.4112L29.1566 37.8998L28.7563 28.4165H40.241C40.241 29.5557 44.8595 49.1073 44.8595 49.1073Z" fill="#952C28"/>
<path d="M43.0742 19.9185C40.6418 14.7766 26.7556 14.3455 25.6471 19.7954C24.8158 23.9212 25.0621 26.7231 24.0461 29.9252C23.2147 32.5732 22.5373 35.2827 24.1692 37.7767C27.4637 42.7646 34.3607 41.2867 37.8092 37.3764C41.2576 33.4353 45.4758 24.9989 43.0742 19.9185Z" fill="#952C28"/>
<path d="M43.0738 19.9186C41.5343 16.6241 35.2839 15.2693 30.6962 16.1315C30.5731 16.0699 30.4499 15.9775 30.296 15.9467C29.557 15.6696 28.5717 15.762 28.0483 16.2854C27.063 15.9159 25.8622 16.2238 25.308 17.2399C24.5382 18.6254 25.5543 20.1034 25.5543 20.1957C27.0938 20.9963 29.3723 21.2426 30.8502 21.4889C33.1594 21.92 35.9305 22.1355 37.7471 21.9815C37.9934 23.5826 37.8395 27.7392 36.4847 29.3095C34.5757 31.5264 26.1085 30.1409 24.4151 28.4166C24.3227 28.9093 24.1688 29.4019 24.0148 29.8945C23.1835 32.5425 22.5061 35.252 24.138 37.746C27.4325 42.7339 34.3294 41.256 37.7779 37.3457C41.2572 33.4354 45.4754 24.9989 43.0738 19.9186Z" fill="black"/>
<path d="M29.5886 29.4018C29.1575 29.4326 28.6649 29.4634 28.2338 29.3095C27.7412 29.1247 27.2793 28.5397 27.7104 28.0471C27.8643 27.8623 27.5872 27.5544 27.4333 27.77C27.033 28.2318 27.0946 28.8784 27.5256 29.3095C28.0799 29.8637 28.8804 29.8637 29.6193 29.8021C29.8349 29.7713 29.8349 29.371 29.5886 29.4018Z" fill="black"/>
<path d="M33.4371 32.6965C33.4064 32.4501 33.0061 32.4501 33.0369 32.6965C33.1292 33.7125 32.3595 34.5439 31.3434 34.5131C31.0971 34.5131 31.0971 34.9133 31.3434 34.9133C32.575 34.9441 33.5603 33.9281 33.4371 32.6965Z" fill="white"/>
<path d="M28.3564 25.2452C28.2025 26.8771 26.663 28.1087 25.0311 27.6776C23.3684 27.2466 22.6603 25.43 23.3069 23.9213C23.3992 23.6749 23.0605 23.4902 22.9682 23.7057C22.1984 25.4608 22.999 27.5545 24.9079 28.0471C26.8477 28.5705 28.5719 27.1234 28.7567 25.2144C28.7875 24.9989 28.3872 24.9989 28.3564 25.2452Z" fill="#BCD7FD"/>
<path d="M36.3308 26.0151C36.4231 27.6778 35.0992 29.0941 33.4057 28.9094C31.7123 28.7246 30.727 27.0312 31.1581 25.4301C31.2197 25.1838 30.8502 25.0298 30.7886 25.2761C30.296 27.1235 31.3736 29.0633 33.3442 29.2788C35.3147 29.4944 36.8234 27.8317 36.7311 25.9227C36.7311 25.7072 36.3308 25.738 36.3308 26.0151Z" fill="#BCD7FD"/>
<path d="M30.9427 25.861C30.0805 25.7994 29.2492 25.7686 28.4179 25.707C28.1716 25.707 28.1716 26.1073 28.4179 26.1073C29.2492 26.1689 30.0805 26.1997 30.9427 26.2612C30.9427 26.1073 30.9427 25.9841 30.9427 25.861Z" fill="#BCD7FD"/>
<path d="M33.2205 25.6147C33.1897 25.9841 33.1282 26.3536 33.0974 26.7231C33.0666 27.0926 33.6516 27.0926 33.6824 26.7231C33.7132 26.3536 33.7748 25.9841 33.8055 25.6147C33.8363 25.2144 33.2513 25.2144 33.2205 25.6147Z" fill="black"/>
<path d="M25.8316 24.1369C25.8008 24.5064 25.7392 24.8758 25.7084 25.2453C25.6777 25.6148 26.2627 25.6148 26.2935 25.2453C26.3243 24.8758 26.3858 24.5064 26.4166 24.1369C26.4782 23.7366 25.8932 23.7366 25.8316 24.1369Z" fill="black"/>
<path d="M46.4608 27.7391C45.9373 25.7994 43.1355 24.5062 40.8878 26.0457C40.6415 28.201 40.3336 30.3563 39.9949 32.5116C41.0725 33.1582 43.4126 33.4045 44.8289 32.45C46.4608 31.3723 46.9842 29.8021 46.4608 27.7391Z" fill="#952C28"/>
<path d="M43.228 28.3859C42.643 28.9401 42.058 29.4636 41.5038 30.0178C41.3191 30.2025 41.5962 30.4488 41.7809 30.2949C41.8117 30.2641 41.8733 30.2333 41.9041 30.2025C41.9349 30.2025 41.9348 30.1717 41.9348 30.1717C42.4583 29.6791 42.9817 29.1864 43.5051 28.6938C43.7207 28.5091 43.4128 28.232 43.228 28.3859Z" fill="black"/>
<path d="M27.2475 22.7513C26.8472 22.5974 26.447 22.4434 26.0467 22.2895C25.8312 22.1971 25.6157 22.3818 25.5541 22.5666C25.4925 22.7821 25.6465 22.9976 25.8312 23.0592C26.2315 23.2132 26.6317 23.3671 27.032 23.5211C27.2475 23.6134 27.4631 23.4287 27.5246 23.2439C27.5862 22.9976 27.463 22.8129 27.2475 22.7513Z" fill="black"/>
<path d="M33.7142 22.4128C33.3139 22.382 32.9137 22.382 32.5134 22.3512C31.99 22.3204 31.99 23.121 32.5134 23.1517C32.9137 23.1825 33.3139 23.1825 33.7142 23.2133C34.2376 23.2441 34.2376 22.4128 33.7142 22.4128Z" fill="black"/>
</g>
<defs>
<clipPath id="clip0_209_2593">
<path d="M0 36C0 16.1178 16.1178 0 36 0C55.8823 0 72 16.1178 72 36C72 55.8823 55.8823 72 36 72C16.1178 72 0 55.8823 0 36Z" fill="white"/>
</clipPath>
</defs>
</svg>
