<svg width="72" height="72" viewBox="0 0 72 72" fill="none" xmlns="http://www.w3.org/2000/svg">
<g clip-path="url(#clip0_209_2590)">
<path d="M0 36C0 16.1178 16.1178 0 36 0C55.8823 0 72 16.1178 72 36C72 55.8823 55.8823 72 36 72C16.1178 72 0 55.8823 0 36Z" fill="#438DD2"/>
<path d="M43.7754 25.2473C43.8278 25.1164 43.6707 24.9854 43.5397 25.0378C43.435 25.0378 43.3564 25.1425 43.3564 25.2473C43.016 25.771 42.6756 26.3209 42.3352 26.8447C41.6805 24.2784 39.219 22.4715 36.5218 22.8905C33.9555 23.2833 32.2272 25.4568 32.1224 27.8921C31.2321 26.4257 29.2681 25.8496 27.566 25.6925C25.0783 25.4568 22.4597 25.7972 20.4171 27.2898C18.6102 28.6253 17.4057 30.8512 17.8246 33.1294C18.1651 35.1196 19.7886 36.6908 21.7788 36.9003C21.2027 38.8119 22.7739 40.4354 24.4498 41.1425C26.5447 42.0328 28.9801 42.4256 31.2583 42.2161C35.2648 41.8757 40.633 41.7709 40.6592 37.4764C42.8851 38.0001 43.9063 33.9936 44.8752 31.8987C45.8703 29.6728 45.2419 27.0803 43.7754 25.2473Z" fill="#642421"/>
<path d="M62.2898 62.9294C60.8495 65.7576 59.4093 68.5857 57.9952 71.44C57.8905 71.6495 58.2047 71.8328 58.3094 71.6233C59.7497 68.7952 61.1899 65.9671 62.604 63.1127C62.7088 62.9032 62.3945 62.7199 62.2898 62.9294Z" fill="white"/>
<path d="M68.7575 79.7152L52.4957 79.5057L44.5612 79.4009L14.2373 79.0081L22.1456 47.4535L29.504 44.6777L38.0408 41.4568C42.7805 42.0067 46.4466 42.5566 49.3271 43.1851C61.4515 45.7252 59.5399 49.1818 61.8705 57.352C64.4367 66.3077 67.841 76.9918 68.5742 79.2962C68.7051 79.5581 68.7575 79.7152 68.7575 79.7152Z" fill="#D24A43"/>
<path d="M54.9311 75.3943C54.9049 75.5252 54.8787 75.6299 54.8525 75.7609C54.7478 75.7347 54.643 75.7085 54.5383 75.6823C54.5644 75.5776 54.5906 75.4466 54.643 75.3157C55.1667 73.0637 54.643 70.3141 54.4335 68.2192C54.0669 64.3959 53.6741 60.5727 53.3075 56.7495C53.2813 56.5138 53.6479 56.5138 53.6741 56.7495L54.9311 69.6332C55.0882 71.4401 55.35 73.5612 54.9311 75.3943Z" fill="white"/>
<path d="M64.882 78.5628C63.5989 78.3533 62.3158 78.1962 61.0064 78.0653C51.7626 76.1536 36.2079 73.2208 25.4191 72.4875L34.4272 50.3862L38.0671 41.4304C34.4534 41.1947 31.2848 41.0376 28.4567 40.9852C5.30786 40.5401 6.19821 46.4582 1.956 65.2601C-5.45476 98.1503 -3.12417 98.3336 30.8396 94.7198C56.0048 92.0488 57.9688 91.2109 62.63 90.2158C62.7609 85.607 63.1799 82.7264 64.882 78.5628Z" fill="#D24A43"/>
<path d="M24.2668 72.6972C24.1358 72.6972 24.0311 72.6972 23.9002 72.6972C23.9002 72.5663 23.874 72.4615 23.874 72.3306C23.5597 68.2193 23.2455 64.1342 22.9313 60.023C22.9051 59.7873 23.2717 59.7873 23.2979 60.023C23.6121 64.108 23.9264 68.2193 24.2406 72.3044C24.2668 72.4353 24.2668 72.5663 24.2668 72.6972Z" fill="white"/>
<path d="M61.6346 77.594C59.3826 76.9131 57.1044 76.2846 54.8261 75.7347C54.7214 75.7085 54.6167 75.6824 54.5119 75.6562C44.6134 73.3256 34.4269 72.3043 24.2666 72.6709C24.1356 72.6709 24.0309 72.6709 23.9 72.6709C23.2453 72.6971 22.6168 72.7233 21.9622 72.7495C21.7265 72.7757 21.7265 72.4091 21.9622 72.3829C22.5906 72.3567 23.2453 72.3305 23.8738 72.3043C24.0047 72.3043 24.1094 72.3043 24.2404 72.2781C34.4531 71.9115 44.6658 72.9328 54.5905 75.2634C54.6952 75.2896 54.8 75.3157 54.9047 75.3419C57.1829 75.8918 59.4612 76.5203 61.7132 77.2012C61.9489 77.3321 61.8703 77.6725 61.6346 77.594Z" fill="white"/>
<path d="M44.9809 34.9627C44.6405 35.2508 41.053 50.1509 41.053 50.1509L29.8713 41.7974L36.9155 31.2966L44.9809 34.9627Z" fill="#FFA79B"/>
<path d="M43.6187 39.7807C44.2995 37.1621 44.8495 35.0672 44.9804 34.9624L41.1833 33.2341C41.3405 35.6433 42.2046 37.8953 43.6187 39.7807Z" fill="black"/>
<path d="M30.0805 20.6384C30.6566 17.1556 36.4961 14.3537 40.7122 14.4846C42.5452 14.537 43.1999 13.1491 43.8807 14.5108C45.5566 17.8888 51.0558 29.2014 50.244 31.7415C48.6466 36.8216 42.4666 37.1097 38.6434 34.5172C34.794 31.9248 29.2425 25.6138 30.0805 20.6384Z" fill="#FFA79B"/>
<path d="M42.8069 11.7089C40.8691 11.5518 38.4862 13.4896 37.5958 14.8513C34.0607 15.6893 30.5255 17.9675 30.0803 20.6385C29.5304 23.9642 31.8348 27.8922 34.5582 30.9036C35.6318 29.8561 35.5533 28.5468 36.1556 26.9494C39.5074 23.8856 40.1359 19.6172 39.6646 17.8628C40.9739 18.1246 44.0377 16.213 44.4043 14.6418C44.7447 12.3636 43.383 11.7613 42.8069 11.7089Z" fill="#642421"/>
<path d="M31.3895 30.4845C31.2062 28.4943 33.4844 26.2946 36.1816 26.9755C37.1505 28.9395 38.1718 30.8511 39.2454 32.7627C38.4337 33.7316 36.2864 34.779 34.5581 34.3862C32.5941 33.9149 31.5728 32.6317 31.3895 30.4845Z" fill="#FFA79B"/>
<path d="M34.9257 29.7515C35.5804 30.0396 36.235 30.3014 36.8897 30.5895C37.0992 30.6942 36.9421 30.9823 36.7326 30.9037C36.6802 30.8775 36.654 30.8775 36.6017 30.8514C36.5755 30.8514 36.5755 30.8252 36.5493 30.8252C35.947 30.5633 35.3709 30.3276 34.7686 30.0658C34.5591 29.9872 34.7162 29.673 34.9257 29.7515Z" fill="#952C28"/>
<path d="M40.9223 23.4664C40.9747 23.8068 41.0271 24.1211 41.0794 24.4615C41.1318 24.8019 41.6555 24.6448 41.6032 24.3044C41.5508 23.964 41.4984 23.6497 41.446 23.3093C41.3675 22.9689 40.8699 23.126 40.9223 23.4664Z" fill="black"/>
<path d="M45.5044 20.7694C45.5568 21.1098 45.6091 21.424 45.6615 21.7645C45.7139 22.1049 46.2376 21.9478 46.1853 21.6074C46.1329 21.2669 46.0805 20.9527 46.0281 20.6123C45.9758 20.2718 45.452 20.429 45.5044 20.7694Z" fill="black"/>
<path d="M46.2897 24.0951C46.054 24.1213 46.0802 24.4617 46.3159 24.4617C46.8134 24.4355 46.8658 25.0378 46.6563 25.352C46.4468 25.6925 46.054 25.8496 45.6874 26.0067C45.4779 26.1115 45.5827 26.4519 45.7922 26.3471C46.3683 26.0853 47.0753 25.7448 47.1277 25.0378C47.2062 24.5141 46.8134 24.0689 46.2897 24.0951Z" fill="#952C28"/>
<path d="M41.0789 21.6859C40.7385 21.8692 40.4243 22.0787 40.0838 22.262C39.691 22.4977 40.0838 23.1 40.4766 22.8643C40.8171 22.681 41.1313 22.4715 41.4717 22.2882C41.8645 22.0525 41.4717 21.4764 41.0789 21.6859Z" fill="#642421"/>
<path d="M45.0591 18.8316C44.8496 18.9101 44.6139 18.9887 44.4045 19.0673C43.9593 19.2244 44.195 19.9052 44.6401 19.7481C44.8496 19.6695 45.0853 19.591 45.2948 19.5124C45.7138 19.3291 45.4781 18.6483 45.0591 18.8316Z" fill="#642421"/>
<path d="M46.7087 30.0919C46.3159 30.3014 45.8446 30.249 45.5041 29.961C45.3208 29.8039 45.0852 30.0919 45.2685 30.2228C45.7398 30.6156 46.3683 30.668 46.9182 30.38C47.1277 30.3014 46.9182 29.9872 46.7087 30.0919Z" fill="#952C28"/>
<path d="M49.3538 43.1588C47.2851 51.3028 41.4717 52.4027 38.0675 51.8004C36.9414 51.5909 35.6845 51.1457 34.4275 50.3863C32.5421 49.2341 30.7091 47.401 29.5307 44.6515C29.0593 43.5778 28.6927 42.347 28.457 40.9854C31.2852 41.0377 34.4537 41.1948 38.0675 41.4305C42.781 42.0066 46.4733 42.5565 49.3538 43.1588Z" fill="#FFA79B"/>
</g>
<defs>
<clipPath id="clip0_209_2590">
<path d="M0 36C0 16.1178 16.1178 0 36 0C55.8823 0 72 16.1178 72 36C72 55.8823 55.8823 72 36 72C16.1178 72 0 55.8823 0 36Z" fill="white"/>
</clipPath>
</defs>
</svg>
