<svg width="72" height="72" viewBox="0 0 72 72" fill="none" xmlns="http://www.w3.org/2000/svg">
<g clip-path="url(#clip0_209_2591)">
<path d="M0 36C0 16.1178 16.1178 0 36 0C55.8823 0 72 16.1178 72 36C72 55.8823 55.8823 72 36 72C16.1178 72 0 55.8823 0 36Z" fill="#5599FE"/>
<path d="M16.3538 44.9317L39.4843 42.3538L67.3468 53.1598C67.3468 53.1598 68.1944 127.036 66.4993 126.612C64.7689 126.189 2.3342 122.728 2.3342 121.421C2.3342 120.115 -1.76221 86.4253 -1.76221 86.4253L16.3538 44.9317Z" fill="#FECA55"/>
<path d="M-4.41068 53.1598C-13.6982 70.4283 -16.2761 75.6194 -16.2761 75.6194L-44.9509 50.1582C-45.0215 46.1677 -45.6572 42.0713 -47.1756 38.3987C-49.0826 33.8432 -52.0489 33.2429 -55.2272 29.6762C-57.0635 27.5927 -59.253 30.4178 -57.4166 32.5013L-55.545 34.7613C-55.5097 35.8914 -54.8741 38.8577 -54.7328 39.9878C-57.8051 37.0567 -61.9015 32.7838 -65.8566 30.9475C-66.9514 30.4531 -67.9755 30.8415 -68.5758 31.5831C-69.494 31.689 -70.2355 32.466 -70.4474 33.3488C-71.3303 34.0198 -71.8247 35.397 -71.0478 36.5624C-71.6481 37.198 -71.9659 38.1162 -71.5421 39.1049C-71.5068 39.1756 -71.4715 39.2109 -71.4715 39.2815C-71.7187 39.5287 -71.4009 40.4116 -71.6481 40.8353C-72.7428 42.7776 -69.5646 50.5466 -63.6672 54.4311C-61.9368 58.4569 -58.3348 61.0701 -58.0523 61.1407C-51.8017 69.5454 -30.1544 99.4915 -19.5956 109.309C-7.62422 120.468 2.22832 106.484 10.2092 81.0224C18.1901 55.5259 19.7086 46.9093 19.7086 46.9093L40.2259 42.601C14.1997 41.0472 4.91216 35.8561 -4.41068 53.1598Z" fill="#FFA79B"/>
<path d="M40.3325 42.5658L39.8381 42.6717L25.9244 45.6028L19.8152 46.874C19.8152 46.874 18.2967 55.5259 10.3158 80.9872C9.78606 82.6469 9.25635 84.2713 8.72664 85.8252C1.76983 79.8924 -5.39886 74.2069 -12.6382 68.592C-10.8019 65.096 -8.15333 60.0814 -4.37475 53.0893C2.79394 39.776 9.92731 39.8113 24.7944 41.1885C29.0674 41.577 33.9407 42.1067 39.6615 42.4598C39.8734 42.5304 40.0853 42.5305 40.3325 42.5658Z" fill="#FECA55"/>
<path d="M9.67906 56.3733C9.04341 63.3654 8.40776 70.3575 7.7368 77.3496C7.70149 77.6322 8.16057 77.6322 8.16057 77.3496C8.79622 70.3575 9.43186 63.3654 10.1028 56.3733C10.1028 56.0907 9.67906 56.0907 9.67906 56.3733Z" fill="white"/>
<path d="M39.4485 42.3538C55.2337 43.8723 75.292 41.5062 77.6933 55.9496C80.0593 70.4282 81.7897 77.1025 82.8844 87.4847C83.9792 97.867 87.8637 110.368 74.9035 111.675C61.9434 112.981 32.1385 115.347 32.1385 115.347L26.3118 99.5621C26.3118 99.5621 50.5017 90.9102 58.2707 88.5442L56.7522 57.4327L39.4485 42.3538Z" fill="#FFA79B"/>
<path d="M82.2836 82.6114C74.1614 82.788 66.0393 83.1412 58.0584 84.4831L56.7517 57.468L46.087 48.1452L39.8364 42.6716L39.6599 42.5303L39.448 42.3538C42.9794 42.7069 46.7226 42.8482 50.4306 43.0247C63.3201 43.6604 75.8212 44.7198 77.6575 55.9849C79.6704 68.0269 81.2242 74.7012 82.2836 82.6114Z" fill="#FECA55"/>
<path d="M57.6352 62.2356C57.6352 61.9531 57.2114 61.9531 57.2114 62.2356C57.2467 68.9452 57.282 75.6195 57.3174 82.3291C57.3174 82.6116 57.7411 82.6116 57.7411 82.3291C57.7058 75.6195 57.6705 68.9099 57.6352 62.2356Z" fill="white"/>
<path d="M37.8254 45.9557C40.8624 45.2142 43.8287 44.3666 46.8304 43.5191L40.262 28.0164L28.7498 33.1369C28.9616 33.3134 30.7979 40.8353 32.2458 46.9799C34.1174 46.6267 35.9891 46.3795 37.8254 45.9557Z" fill="#FFA79B"/>
<path d="M36.7651 30.6651C36.7298 30.206 36.6945 29.7469 36.5885 29.2878L28.7842 33.1724C28.9254 33.2783 29.773 36.5978 30.7264 40.5882C33.6928 37.7985 36.0235 34.4083 36.7651 30.6651Z" fill="black"/>
<path d="M49.1251 20.3532C49.0544 16.3628 43.0864 12.2664 38.3544 11.7013C36.3062 11.4541 35.8118 9.79439 34.823 11.1716C32.3863 14.6324 24.4407 25.1206 24.7939 29.217C25.3236 35.185 32.5276 36.5269 37.2243 34.3021C41.9564 32.0774 49.231 26.0034 49.1251 20.3532Z" fill="#FFA79B"/>
<path d="M49.3727 21.2362C50.0083 20.2121 49.6905 18.9408 48.843 18.2345C48.8077 18.1992 48.8077 18.1992 48.7724 18.1639C49.0549 16.1863 47.607 14.5972 45.8413 14.4206C45.6294 13.9262 45.241 13.5378 44.7113 13.2906C44.6407 13.0787 44.57 12.9021 44.4288 12.7608C44.1109 12.443 43.7225 12.3018 43.2987 12.3018C43.0162 11.4189 42.5218 10.642 41.6743 10.2183C41.1446 9.93574 40.5443 10.0064 40.0852 10.2536C39.0611 9.19416 37.7898 8.31132 36.5185 8.24069C35.9888 8.20538 34.9294 8.45257 34.4703 9.75918C33.9406 9.72386 33.4462 10.0064 33.199 10.5714C32.8459 11.4189 33.2696 12.3018 33.9406 12.8315C34.3291 13.1493 34.8941 13.3612 35.4238 13.3259C37.0482 15.1269 41.4624 18.2345 42.5218 18.1992C41.7096 20.0708 40.7915 24.3791 43.0162 24.7675C43.44 26.6392 41.3565 29.7115 42.3806 31.0181C44.6407 29.1818 46.7595 26.957 47.9955 24.5557C48.0308 24.5557 48.1014 24.5557 48.172 24.5557C49.7612 24.2025 50.2555 22.3662 49.3727 21.2362Z" fill="#952C28"/>
<path d="M47.3244 29.3583C47.8541 27.2395 45.7706 24.5203 42.7689 24.8028C41.3917 26.7451 39.9791 28.652 38.5312 30.5236C39.2375 31.7243 41.3917 33.1722 43.2986 33.0309C45.4527 32.819 46.7593 31.6184 47.3244 29.3583Z" fill="#FFA79B"/>
<path d="M44.0759 27.9457C43.2284 28.0516 42.3809 28.1223 41.5334 28.2282C41.2509 28.2635 41.3215 28.652 41.604 28.652C41.6746 28.652 41.7099 28.652 41.7805 28.652C41.8159 28.652 41.8159 28.652 41.8512 28.652C42.6281 28.5813 43.3697 28.4754 44.1466 28.4048C44.4291 28.3341 44.3585 27.9104 44.0759 27.9457Z" fill="#952C28"/>
<path d="M37.1891 20.6357C36.9419 20.9182 36.6594 21.236 36.4122 21.5185C36.1297 21.8364 35.7059 21.342 35.9884 21.0595C36.2356 20.777 36.5181 20.4591 36.7653 20.1766C37.0125 19.8588 37.4363 20.3179 37.1891 20.6357Z" fill="black"/>
<path d="M33.1984 17.3518C32.9512 17.6343 32.6687 17.9521 32.4215 18.2346C32.1389 18.5524 31.7152 18.058 31.9977 17.7755C32.2449 17.493 32.5274 17.1752 32.7746 16.8927C33.0218 16.5749 33.4456 17.0339 33.1984 17.3518Z" fill="black"/>
<path d="M30.763 20.4593C31.0102 20.5652 30.8689 20.9537 30.6217 20.8478C30.0567 20.6359 29.7742 21.3068 29.9154 21.7659C30.0567 22.225 30.4451 22.5428 30.7983 22.8606C31.0102 23.0372 30.763 23.3903 30.5511 23.2138C29.9861 22.7194 29.3151 22.0837 29.4917 21.2362C29.5623 20.6359 30.198 20.2474 30.763 20.4593Z" fill="#952C28"/>
<path d="M38.0012 18.3758C38.319 18.7289 38.6015 19.0467 38.9193 19.3999C39.3078 19.8236 38.6368 20.3533 38.2483 19.9296C37.9305 19.5764 37.648 19.2586 37.3302 18.9055C36.9771 18.4817 37.648 17.952 38.0012 18.3758Z" fill="#952C28"/>
<path d="M34.0464 14.8797C34.2583 15.0563 34.4702 15.2328 34.7174 15.4094C35.1412 15.7625 34.6468 16.4335 34.223 16.1157C34.0111 15.9391 33.7992 15.7625 33.552 15.586C33.1283 15.2328 33.6227 14.5266 34.0464 14.8797Z" fill="#952C28"/>
<path d="M28.1846 27.1689C28.5377 27.5573 29.1381 27.6633 29.5971 27.4514C29.8443 27.3455 30.0209 27.7339 29.7737 27.8399C29.1028 28.1224 28.3612 27.9811 27.8315 27.4514C27.6549 27.2395 27.9727 26.9923 28.1846 27.1689Z" fill="#952C28"/>
<path d="M50.4674 43.0247C49.408 45.0376 47.8895 46.768 46.0885 48.1452C44.111 49.6637 41.7449 50.7231 39.0964 51.1469C34.0112 51.9591 28.2904 49.805 25.8891 45.6026C25.1828 44.3313 24.759 42.8835 24.759 41.259C29.032 41.6475 33.9053 42.1772 39.6261 42.5303L39.4142 42.3538C42.9809 42.6716 46.7242 42.8128 50.4674 43.0247Z" fill="#FFA79B"/>
</g>
<defs>
<clipPath id="clip0_209_2591">
<path d="M0 36C0 16.1178 16.1178 0 36 0C55.8823 0 72 16.1178 72 36C72 55.8823 55.8823 72 36 72C16.1178 72 0 55.8823 0 36Z" fill="white"/>
</clipPath>
</defs>
</svg>
