<svg width="72" height="72" viewBox="0 0 72 72" fill="none" xmlns="http://www.w3.org/2000/svg">
<g clip-path="url(#clip0_209_2584)">
<path d="M0 36C0 16.1178 16.1178 0 36 0C55.8823 0 72 16.1178 72 36C72 55.8823 55.8823 72 36 72C16.1178 72 0 55.8823 0 36Z" fill="#FF7070"/>
<path d="M116.86 101.911L105.13 106.867L92.0956 112.818L88.8914 114.282C84.5697 116.258 79.3007 114.948 76.5196 111.208L72.0759 105.235L63.5266 93.7357C63.5266 93.7357 64.3895 109.266 60.4197 124.98C42.8816 129.136 28.8973 127.909 15.1074 124.591C12.0094 123.85 8.93587 122.985 5.81826 122.064C-0.0921742 115.033 3.70826 76.0658 3.70826 76.0658L-1.36946 77.92L-2.83878 78.4588L-25.3103 86.7185L-18.2897 109.672L-42.707 115.513L-50.8029 83.1231L-51.0491 82.1502C-52.4215 76.6627 -49.3715 71.1022 -43.8362 68.9911L-36.9212 66.3292L-4.20068 53.7353C2.89097 51.0095 10.7284 50.3625 18.2844 51.883L18.8141 51.9814L55.2744 59.3248L62.5984 60.7912C68.6444 61.6769 73.9326 65.1412 76.8896 70.1674L89.8978 92.2617C89.8978 92.2617 102.081 86.1466 111.986 80.854C109.924 97.7562 116.86 101.911 116.86 101.911Z" fill="#5FAEF2"/>
<path d="M14.4295 128.329C11.5083 127.524 8.61156 126.588 5.67384 125.591C0.165879 118.1 4.21302 76.8193 4.21302 76.8193L-0.610711 78.7519C0.861349 74.4466 3.40156 69.3914 6.86747 74.3826C7.89693 75.875 8.1112 77.8169 8.09244 79.6489C8.04879 82.9401 7.36853 86.1853 7.16046 89.4825C6.9566 92.7657 7.28088 96.2589 9.04239 99.0037C10.0784 100.622 11.5762 101.933 12.3343 103.689C13.7026 106.856 12.421 110.577 13.0373 113.984C13.5797 116.949 15.547 119.501 15.9207 122.485C16.1817 124.567 15.5804 126.665 14.4295 128.329Z" fill="#4598E0"/>
<path d="M111.622 80.3599C109.956 80.7645 108.23 81.0187 106.619 81.587C103.125 82.8022 100.379 85.3464 97.4271 87.4753C94.4704 89.6175 90.9085 91.4731 87.1962 90.9626C85.9917 90.8025 84.7368 90.3186 84.0805 89.3262C83.1901 87.9543 83.7551 86.1579 83.2109 84.6268C82.6654 83.0513 81.0416 82.0294 80.1955 80.5682C78.4153 77.4869 79.422 72.7404 78.6369 69.3151C78.4094 68.2914 78.1569 67.2013 78.0346 66.0921L89.9968 86.9519C89.9968 86.9519 102.125 80.8096 111.99 75.4783C111.789 77.2529 111.668 78.8757 111.622 80.3599Z" fill="#71B6F2"/>
<path d="M-25.5526 89.8013L-19.184 114.193L-27.7385 116.42C-29.0401 115.345 -30.262 114.25 -30.7331 112.621C-31.511 109.899 -29.7296 107.211 -29.2202 104.432C-28.5892 100.951 -30.0062 97.4558 -30.5483 93.9482C-31.0904 90.4405 -30.2653 86.0677 -27.0908 84.8888C-25.3602 84.2398 -23.3882 84.7549 -21.6242 84.2409C-19.7454 83.6886 -18.3376 82.0488 -16.5339 81.2546C-13.4513 79.8899 -9.65015 81.1498 -6.7288 79.4366C-5.20648 78.5468 -4.17087 76.9662 -2.80824 75.8212C-1.90123 75.0626 0.0311591 73.9874 1.21591 74.7144C2.56225 75.5426 2.05159 76.8996 1.89435 78.4075C1.88747 78.5288 1.86298 78.6596 1.8561 78.7809L-25.5526 89.8013Z" fill="#4598E0"/>
<path d="M29.0347 34.4447C29.0347 34.4447 15.2858 31.8897 9.55967 41.5153C7.01221 42.0558 4.10948 44.174 3.0535 49.0693C1.49895 56.2252 51.7299 60.3433 51.7299 60.3433C51.7299 60.3433 59.5088 42.795 29.0347 34.4447Z" fill="#5FAEF2"/>
<path d="M25.8764 36.2728C25.8764 36.2728 17.815 35.8932 17.5732 41.5547C17.402 45.4565 21.1214 48.6312 25.3119 50.7859C30.9158 53.6879 44.2779 55.3027 45.5679 54.2622C47.8825 52.4218 48.9067 48.6833 44.6896 45.1166C35.424 37.3198 25.8764 36.2728 25.8764 36.2728Z" fill="#1A1B16"/>
<path d="M62.6821 68.0398C62.6821 68.0398 63.8848 75.8416 63.0846 91.2427" stroke="#1A1B16" stroke-width="2.51285" stroke-miterlimit="10" stroke-linecap="round" stroke-linejoin="round"/>
<path d="M2.32764 73.0833L2.01729 78.9529" stroke="#1A1B16" stroke-width="2.51285" stroke-miterlimit="10" stroke-linecap="round" stroke-linejoin="round"/>
<path d="M45.9762 54.0226C45.7111 50.0953 45.4717 46.584 45.4717 46.584L45.9762 54.0226Z" fill="#0F70D1"/>
<path d="M37.2756 60.1472C37.2323 62.2017 35.6606 63.9863 33.7497 64.8614C31.8432 65.7229 29.6468 65.8094 27.538 65.6704C25.4249 65.5449 23.3123 65.2261 21.2041 65.3253C17.4644 65.5241 13.8528 67.1466 11.2763 69.7624" stroke="white" stroke-width="2.01028" stroke-miterlimit="10" stroke-linecap="round" stroke-linejoin="round"/>
<path d="M9.07124 73.4476C8.93813 73.2962 8.95218 73.0561 9.11218 72.9257L10.3242 71.8599C10.4706 71.725 10.7051 71.7418 10.8339 71.907C10.9671 72.0584 10.953 72.2985 10.793 72.4289L9.58097 73.4947C9.42097 73.6251 9.20435 73.599 9.07124 73.4476Z" fill="white"/>
<path d="M40.7032 60.6962C40.3922 65.4468 36.7948 69.1135 33.1583 71.817C29.5218 74.5205 25.4189 76.9234 23.1503 80.985" stroke="white" stroke-width="2.01028" stroke-miterlimit="10" stroke-linecap="round" stroke-linejoin="round"/>
<path d="M3.4593 49.4198C3.4593 49.4198 8.18161 48.82 9.93372 49.7452C11.1021 52.2622 15.8077 56.5256 20.3976 57.6819C24.9876 58.8382 26.8922 60.9194 26.8922 60.9194" stroke="#1A1B16" stroke-width="2.51285" stroke-miterlimit="10" stroke-linecap="round" stroke-linejoin="round"/>
<path d="M8.97165 42.5116L10.9496 42.3589" stroke="#1A1B16" stroke-width="2.51285" stroke-miterlimit="10" stroke-linecap="round" stroke-linejoin="round"/>
<path d="M53.5057 54.833C53.5057 54.833 53.1379 56.5906 48.3096 59.4313" stroke="#1A1B16" stroke-width="2.51285" stroke-miterlimit="10" stroke-linecap="round" stroke-linejoin="round"/>
<path d="M22.0617 30.524C22.0617 30.524 18.0814 11.3577 30.829 13.701C35.2067 9.53031 42.8792 9.65984 46.1527 12.5349C48.3093 14.4268 47.9659 17.0235 47.3874 18.7837C47.3874 18.7837 52.0612 19.1869 50.8038 22.4597C49.4959 25.8622 43.1 29.3428 27.957 25.9552C28.9602 30.8915 29.6115 35.4086 22.0617 30.524Z" fill="#1A1B16"/>
<path d="M47.7622 15.3178C47.7622 15.3178 47.6183 17.4229 45.1532 19.7073" stroke="#0064C8" stroke-width="2.01028" stroke-miterlimit="10" stroke-linecap="round" stroke-linejoin="round"/>
<path d="M29.9723 13.3143C29.4165 13.8248 28.8277 14.4643 28.3314 15.216" stroke="#0064C8" stroke-width="2.01028" stroke-miterlimit="10" stroke-linecap="round" stroke-linejoin="round"/>
<path d="M26.1836 23.9106L27.6065 25.289" stroke="#0064C8" stroke-width="2.01028" stroke-miterlimit="10" stroke-linecap="round" stroke-linejoin="round"/>
<path d="M44.6828 54.2727C43.1218 55.6278 39.4513 55.6447 36.2643 55.1828C28.813 54.1203 25.1417 50.4709 25.1417 50.4709L24.7612 37.1523C24.6513 37.1166 24.5413 37.0808 24.4314 37.045C22.5558 36.3131 21.8314 34.2291 22.3424 32.214C22.4443 31.7927 22.7094 31.3337 23.0115 30.9018C24.2551 29.1101 27.0361 29.2732 27.819 31.3157C28.1719 32.2183 28.4225 33.2543 28.89 33.1641C29.4391 33.055 29.4206 32.0037 29.3322 31.1266C29.1801 29.7288 28.9155 25.3101 28.9155 25.3101C28.9155 25.3101 35.6522 30.5331 46.7578 27.0439C46.7715 27.0483 46.7759 27.0346 46.7896 27.0391C47.0804 30.3605 47.4905 35.281 47.722 39.3709C48.0703 45.6953 44.2101 47.0897 44.2101 47.0897L44.3096 48.6067L44.6828 54.2727Z" fill="#F8934F"/>
<path d="M26.4258 34.816C26.4258 34.816 25.4075 35.7109 24.4863 34.9616C23.5652 34.2122 24.0043 33.1416 24.0043 33.1416C24.3857 33.2573 24.7487 33.3822 25.0943 33.5605C25.6574 33.8341 26.1545 34.2639 26.4258 34.816Z" fill="#F77C2D"/>
<path d="M44.5406 46.4223L44.5815 48.0152L40.717 47.0898C40.717 47.0898 47.598 46.4404 47.2317 37.2946C46.9544 30.2615 47.2273 26.7844 47.3764 25.5496C47.3883 25.5549 47.3925 25.5407 47.4044 25.5461C47.5573 29.0369 47.7657 34.2075 47.8434 38.5002C47.9551 45.138 44.5406 46.4223 44.5406 46.4223Z" fill="#F9AF79"/>
<path d="M31.8249 55.1213C27.3534 53.3159 25.2126 50.9379 25.2126 50.9379L25.4415 37.9855C26.0783 37.9284 26.9947 38.2864 27.136 38.7507C27.2464 39.0969 26.8306 39.8465 26.8416 40.2578C26.8509 40.834 27.0051 41.424 27.3483 41.9102C27.5906 42.2649 27.9144 42.5625 28.1388 42.925C29.2657 44.7245 27.6858 47.2598 28.7491 49.1088C29.1215 49.7575 29.7789 50.2059 30.3012 50.7349C31.427 51.8561 31.9988 53.5351 31.8249 55.1213Z" fill="#F77C2D"/>
<path d="M24.027 33.1806C24.027 33.1806 23.5545 34.1683 24.4545 34.912C25.3545 35.6556 26.4018 34.8578 26.4018 34.8578C26.1608 34.3318 25.6759 33.9066 25.1249 33.6131C24.574 33.3195 23.9664 33.1327 23.3445 32.9831" stroke="#BF3028" stroke-width="2.01028" stroke-miterlimit="10" stroke-linecap="round" stroke-linejoin="round"/>
<path d="M24.2911 37.9288C24.2911 37.9288 25.0895 38.1886 26.1377 38.0353" stroke="#BF3028" stroke-width="2.01028" stroke-miterlimit="10" stroke-linecap="round" stroke-linejoin="round"/>
<path d="M39.2536 47.3973C39.2536 47.3973 42.3977 48.1128 45.2425 46.9952C45.3168 48.1304 45.4236 50.0954 45.4236 50.0954C45.4236 50.0954 40.2246 48.2543 39.2536 47.3973Z" fill="#BF3028"/>
<path d="M44.0779 26.8188C41.8686 27.7314 39.4725 28.2409 37.0384 28.2747C33.9233 28.322 30.7802 27.614 28.0336 26.2515C27.9652 26.2189 27.8824 26.1824 27.7995 26.1459C27.7219 25.4478 27.6736 24.9552 27.6736 24.9552C27.6736 24.9552 33.9141 29.0953 44.0779 26.8188Z" fill="#F77C2D"/>
<path d="M42.2582 36.5802C42.2582 36.5802 40.9538 36.9938 40.7422 36.0741C40.5299 35.1976 41.7225 34.669 42.5037 35.0249C43.2849 35.3809 43.3563 35.7263 43.3563 35.7263L42.2582 36.5802Z" fill="#F77C2D"/>
<path d="M41.8431 36.5733L42.4105 36.2801C42.8087 36.0674 43.0129 35.5784 42.9034 35.0889L42.0437 31.0386" stroke="#BF3028" stroke-width="2.01028" stroke-miterlimit="10" stroke-linecap="round" stroke-linejoin="round"/>
<path d="M39.8674 43.0618C39.6916 43.361 39.125 43.3917 38.5985 43.1466C38.072 42.9014 37.7689 42.4419 37.9306 42.138C38.1065 41.8388 38.5631 42.1431 39.1037 42.393C39.6442 42.6428 40.0433 42.7626 39.8674 43.0618Z" fill="#F77C2D"/>
<path d="M42.5883 39.9613C42.6375 38.9465 41.472 38.817 40.714 38.7226C40.4322 38.6863 40.1313 38.6579 39.9254 38.5895C39.692 38.5119 39.4025 38.3441 39.1405 38.1854C38.5394 37.8281 37.7894 37.3784 37.1166 37.8279C36.7085 38.0933 36.535 38.5083 36.6465 38.9893C36.8547 39.8748 38.0595 40.9196 39.201 41.256C39.3108 41.2925 39.4259 41.3164 39.5272 41.3358C40.5376 41.4997 41.442 41.3562 42.025 40.9342C42.3814 40.6803 42.5751 40.3293 42.5883 39.9613Z" fill="#1A1B16"/>
<path d="M39.7056 40.7339C39.5179 40.6986 39.3272 40.6334 39.1419 40.5557C38.7083 40.3645 38.4597 39.9197 38.5206 39.4799L38.5945 38.9726C38.6302 38.7401 38.9195 38.6086 39.1434 38.7426C39.3673 38.8767 39.6049 39.0154 39.8417 39.0818C40.5825 39.3204 41.9465 39.1529 41.905 39.916C41.8674 40.5222 40.9838 40.9545 39.7056 40.7339Z" fill="white"/>
<path d="M37.5799 33.2289C37.5937 33.6877 37.462 34.0099 37.128 34.0208C36.7941 34.0317 36.5101 33.6558 36.4832 33.1915C36.4564 32.7272 36.7207 32.37 37.0499 32.3723C37.397 32.3669 37.566 32.77 37.5799 33.2289Z" fill="#1A1B16"/>
<path d="M45.3636 31.8891C45.3834 32.2901 45.2612 32.5862 44.9628 32.5817C44.6644 32.5773 44.4184 32.2626 44.4033 31.8485C44.3835 31.4475 44.6075 31.1187 44.9059 31.1231C45.1913 31.1221 45.3438 31.4881 45.3636 31.8891Z" fill="#1A1B16"/>
<path d="M34.9455 30.1106C35.8787 29.8235 36.911 29.7852 37.9008 29.9915" stroke="#1A1B16" stroke-width="2.01028" stroke-miterlimit="10" stroke-linecap="round" stroke-linejoin="round"/>
<path d="M43.5655 28.29C44.3608 28.1155 45.2082 28.1053 46.0372 28.2782" stroke="#1A1B16" stroke-width="2.01028" stroke-miterlimit="10" stroke-linecap="round" stroke-linejoin="round"/>
</g>
<defs>
<clipPath id="clip0_209_2584">
<path d="M0 36C0 16.1178 16.1178 0 36 0C55.8823 0 72 16.1178 72 36C72 55.8823 55.8823 72 36 72C16.1178 72 0 55.8823 0 36Z" fill="white"/>
</clipPath>
</defs>
</svg>
