<svg width="72" height="72" viewBox="0 0 72 72" fill="none" xmlns="http://www.w3.org/2000/svg">
<g clip-path="url(#clip0_209_2592)">
<path d="M0 36C0 16.1178 16.1178 0 36 0C55.8823 0 72 16.1178 72 36C72 55.8823 55.8823 72 36 72C16.1178 72 0 55.8823 0 36Z" fill="#D7D372"/>
<path d="M14.1425 84.7968C20.5521 87.2918 27.088 89.437 33.6402 91.499C42.0986 94.1446 50.6398 96.6624 59.0432 99.4412C64.9953 79.5435 69.9271 55.5755 69.8881 49.74C69.8009 37.0862 50.3622 35.6753 50.3622 35.6753C50.3622 35.6753 23.938 37.9436 23.742 38.9429C23.5678 39.8312 7.47376 74.0565 4.77506 81.046C7.90497 82.3074 11.0017 83.5909 14.1425 84.7968Z" fill="#697CCC"/>
<path d="M7.64761 82.7249C6.63374 85.0487 6.08057 86.5167 6.19258 86.5384C6.30459 86.5602 7.80218 87.3668 10.2142 88.6948C4.40638 90.1158 -4.30442 91.8034 -17.2904 93.4911C-48.7932 97.625 -54.7472 97.5853 -49.6881 136.122C-48.0326 148.733 -48.3822 157.087 -48.1472 162.203C-41.5826 162.39 -31.5475 162.821 -25.0158 163.174C-21.4698 129.488 -25.9588 122.801 -25.9588 122.801C-25.9588 122.801 -25.8061 121.886 3.42476 126.706C44.2529 133.464 48.7396 135.769 54.9993 121.23C57.9739 114.303 61.0213 104.812 63.7095 95.0788C45.0019 91.0142 26.4373 86.3758 7.64761 82.7249Z" fill="black"/>
<path d="M31.0711 95.2528C31.0711 95.2528 36.3871 93.5356 5.72323 85.1798C-33.5046 74.5322 -41.0195 73.9901 -54.8312 111.168C-59.1291 122.704 -61.8412 129.622 -63.7066 134.328C-58.0204 137.78 -49.3892 143.835 -43.6142 147.132C-26.0951 120.295 -28.9776 114.152 -27.5665 109.243C-27.5665 109.243 -27.5665 109.243 -18.9037 114.847C-14.7051 113.629 -10.3652 112.724 -6.18296 111.589C0.369834 109.797 6.93969 108.065 13.5095 106.333C20.2359 104.546 26.9677 102.732 33.688 100.829L31.0711 95.2528Z" fill="black"/>
<path d="M3.02039 61.2792C-0.617916 69.5294 -1.36948 71.5365 -1.36948 71.5365C-1.36948 71.5365 -25.2212 69.2082 -34.5556 73.7204C-36.9529 74.6884 -41.0313 78.7904 -41.1967 80.5107C-41.2441 80.8973 -41.4173 81.7689 -40.4165 81.6154C-40.2739 82.9692 -39.7812 83.597 -39.3409 83.4526C-38.6582 85.0476 -36.7297 84.8118 -36.4444 83.8197C-36.0816 85.1013 -34.691 86.0931 -30.9663 81.6997C-30.7799 81.6495 -26.2844 81.6632 -25.7348 81.7085C-23.4422 82.8957 -25.7787 83.7055 -27.4171 84.7011C-28.0871 85.1136 -28.4616 86.2586 -27.8485 86.4286C-25.2033 87.1728 -20.0571 84.0593 -18.0297 82.8816L13.4959 86.6878L20.3937 64.6949C14.5589 63.7271 8.7524 62.7645 3.02039 61.2792Z" fill="#952C28"/>
<path d="M49.419 35.7272L39.4542 38.8625L25.7317 43.1873L19.4399 63.4359C13.7661 61.9642 8.11972 60.3547 2.39117 59.1586C3.67143 56.2295 5.31756 52.4839 7.46292 47.6901C14.4311 32.0952 19.237 32.3683 38.0512 34.4974C41.3793 34.8847 45.1387 35.2984 49.419 35.7272Z" fill="#697CCC"/>
<path d="M2.11718 72.5891L-0.601952 71.4799C-0.820943 71.3865 -0.969546 71.695 -0.750554 71.7885C0.154088 72.1672 1.05872 72.5459 1.96858 72.8977C2.18757 72.9911 2.33617 72.6826 2.11718 72.5891Z" fill="white"/>
<path d="M24.6688 42.0862C23.9712 45.1068 23.269 48.1563 22.5714 51.1769C22.5084 51.4029 22.8486 51.4692 22.8854 51.2381C23.583 48.2175 24.2853 45.168 24.9829 42.1474C25.0459 41.9214 24.7318 41.8602 24.6688 42.0862Z" fill="white"/>
<path d="M20.0261 64.4613L11.656 62.7916C11.1833 62.6973 10.7929 62.3312 10.7132 61.8542L7.42309 45.9513C7.242 45.1081 7.99492 44.3649 8.82914 44.5313L17.1992 46.201C17.6719 46.2953 18.0623 46.6614 18.1419 47.1384L21.4321 63.0413C21.6132 63.8845 20.8603 64.6278 20.0261 64.4613Z" fill="black"/>
<path d="M16.3079 46.74C15.4406 46.6055 14.5685 46.4985 13.7012 46.364C13.4699 46.3281 13.4129 46.6585 13.6442 46.6944C14.5115 46.8289 15.3836 46.9359 16.2509 47.0704C16.4822 47.1063 16.5392 46.7759 16.3079 46.74Z" fill="white"/>
<path d="M15.2222 48.7798C14.6209 48.6024 13.9045 48.863 13.6454 49.4451C13.64 49.4728 13.6345 49.5005 13.6291 49.5282C13.5958 49.5504 13.5903 49.5781 13.5849 49.6059C13.4541 50.271 13.9016 50.9362 14.5641 51.0969C15.1987 51.252 15.7754 50.8196 15.9564 50.1932C16.0987 49.6167 15.8181 48.9848 15.2222 48.7798ZM14.6797 50.8031C14.1788 50.7033 13.8431 50.2045 13.9412 49.7056C13.9467 49.6779 13.9467 49.6779 13.9521 49.6502L13.9854 49.628C14.3934 48.73 15.8683 49.0236 15.6612 50.0768C15.5183 50.5092 15.1528 50.8973 14.6797 50.8031Z" fill="white"/>
<path d="M19.045 57.1507C18.5397 54.1524 18.0397 51.1256 17.5077 48.1215C17.464 47.9057 17.1272 47.923 17.1709 48.1388L18.7082 57.168C18.7467 57.4122 19.0835 57.3949 19.045 57.1507Z" fill="white"/>
<path d="M15.2443 52.9425C15.4901 52.9914 15.7285 52.8325 15.7766 52.5876C15.8248 52.3426 15.6645 52.1042 15.4187 52.0553C15.1729 52.0063 14.9346 52.1652 14.8864 52.4101C14.8383 52.6551 14.9985 52.8935 15.2443 52.9425Z" fill="white"/>
<path d="M66.9467 69.3497C63.7187 68.0089 60.519 66.6734 57.3356 65.2561C55.3382 64.3724 53.3637 63.5213 51.2893 62.8777L48.2382 70.7065C48.2382 70.7065 29.6975 63.524 26.9828 62.7038C26.9266 60.1758 26.4179 56.9689 25.5 54.7885C24.617 52.7277 23.1038 51.6237 22.4003 51.322C20.9932 50.7187 20.9682 53.6558 22.4019 54.7166C22.5418 55.1954 21.4511 59.0641 19.0748 58.1659C18.5453 57.7272 18.0104 57.3157 17.4754 56.9042C16.9055 56.3731 13.3865 54.7231 11.1506 51.7864C10.6319 51.2931 10.0341 50.1627 9.30891 49.9701C8.36266 49.7078 7.59916 50.3001 7.70906 51.2258C7.73445 51.5417 9.73726 54.3216 9.94333 54.6149C9.91294 55.6557 9.65774 56.2019 9.90377 57.1815C9.74807 58.114 9.75014 58.9912 9.89917 59.8678C9.05657 63.6698 11.5352 66.5672 14.6629 68.7095C15.6166 69.8218 16.8318 71.0962 18.3084 72.5329C38.8273 92.5321 52.3844 98.6386 60.188 98.3765C65.6011 98.1754 71.6183 84.4254 73.9305 72.9223C73.9684 72.7314 74.0063 72.5405 74.0442 72.3496C71.6384 71.3044 69.3067 70.3297 66.9467 69.3497Z" fill="#952C28"/>
<path d="M50.5884 61.8957L58.4404 41.1961L54.2017 37.277L50.7175 34.0593C52.4057 34.2541 54.3153 34.4933 56.3025 34.7771C65.851 36.1182 77.2348 38.812 76.2548 48.0761C75.7378 52.9196 74.78 62.217 72.9968 71.1749C65.4413 68.3249 57.9681 65.2022 50.5884 61.8957Z" fill="#697CCC"/>
<path d="M51.1436 72.8222C50.4507 72.0582 49.7578 71.2941 49.0649 70.5301C48.924 70.3596 48.6958 70.6299 48.8367 70.8003C49.5296 71.5644 50.2225 72.3284 50.9153 73.0925C51.0617 73.2354 51.29 72.9651 51.1436 72.8222Z" fill="white"/>
<path d="M12.6307 58.8163C11.712 57.9881 10.8215 57.1652 9.90289 56.3369C9.72718 56.1898 9.50356 56.4314 9.67384 56.6058C10.5925 57.4341 11.4829 58.257 12.4016 59.0852C12.5491 59.2269 12.8064 58.9634 12.6307 58.8163Z" fill="#D24A43"/>
<path d="M11.3939 60.5812C10.5407 60.0425 9.90473 59.2885 9.53644 58.3576C9.46264 58.1428 9.11636 58.2757 9.19561 58.4629C9.609 59.4599 10.3181 60.2855 11.2498 60.8681C11.4575 60.9945 11.6016 60.7077 11.3939 60.5812Z" fill="#D24A43"/>
<path d="M10.6713 63.1671C10.2044 62.5887 9.73759 62.0102 9.26529 61.4594C9.1247 61.2886 8.82369 61.4876 8.96429 61.6584C9.43112 62.2369 9.89795 62.8153 10.3702 63.3662C10.5108 63.5369 10.8118 63.3379 10.6713 63.1671Z" fill="#D24A43"/>
<path d="M16.9532 72.7252C13.3845 70.4816 10.6386 67.167 9.14292 63.2659C9.06916 63.051 8.72845 63.1563 8.80221 63.3712C10.3375 67.366 13.1285 70.7467 16.7757 73.0342C16.9887 73.1331 17.1382 72.8186 16.9532 72.7252Z" fill="#D24A43"/>
<path d="M53.8934 48.0813C52.7425 52.3473 51.6131 56.6474 50.4622 60.9134C50.3986 61.1389 50.7122 61.2019 50.7758 60.9764C51.9267 56.7104 53.0561 52.4103 54.207 48.1442C54.2967 47.924 53.957 47.8558 53.8934 48.0813Z" fill="white"/>
<path d="M49.4908 34.3954C45.1354 33.9998 41.2811 33.6109 37.9226 33.2557C37.8602 34.7813 38.3951 36.2751 39.393 37.5173C39.5146 37.651 39.6076 37.7796 39.7292 37.9133C41.2398 39.5555 43.4387 40.3998 45.739 40.4241C48.6598 40.4488 51.1642 39.2805 53.141 37.4859C53.9328 36.7627 54.6548 35.943 55.2733 35.0488C53.1971 34.7855 51.2583 34.5749 49.4908 34.3954Z" fill="#952C28"/>
<path d="M53.0474 36.3044L39.9842 37.6574L39.089 34.1363L37.9239 29.6183L35.9317 21.7931L45.548 19.9005C45.7966 20.8643 53.0474 36.3044 53.0474 36.3044Z" fill="#952C28"/>
<path d="M38.6939 34.6204L38.7381 34.8062C40.5308 33.5172 41.7692 31.5693 42.4948 29.2935C43.4358 26.2526 43.0218 23.4684 42.5577 20.5262L35.7267 21.9418L37.6154 29.9836L38.6939 34.6204Z" fill="black"/>
<path d="M45.5279 12.2523C42.6839 8.32084 31.2134 10.2231 31.1929 15.0424C31.1789 18.6501 31.2337 28.6291 32.9814 30.4546C36.5035 34.1118 41.916 31.7128 44.0933 27.8616C46.3034 23.9892 48.3778 16.1563 45.5279 12.2523Z" fill="#952C28"/>
<path d="M46.2808 13.6066C46.6043 13.2009 46.7548 12.6488 46.7265 11.9767C46.6208 10.4558 45.3457 9.72254 44.1259 9.80566C43.5939 8.89152 42.3738 8.30831 41.2894 8.30816C40.7893 8.3167 40.294 8.43727 39.8711 8.62821C39.6198 8.4379 39.3288 8.29496 39.0261 8.20516C38.3308 8.03489 37.7221 8.27105 37.1906 8.68959L37.1848 8.71616C36.1413 8.53005 35.078 8.7008 34.3972 9.53292C34.3119 9.65425 34.2267 9.77559 34.1636 9.92925C32.3907 8.92733 30.0746 8.3971 29.2995 10.4592C29.1384 10.9259 29.1129 11.3093 29.2112 11.6626C28.8713 12.0094 28.598 12.4531 28.4697 13.0376C28.255 13.882 29.1925 14.6849 30.0769 14.3942C30.2685 14.3224 30.4601 14.2506 30.6458 14.2054C30.8119 14.5171 31.0457 14.7871 31.4033 15.027C32.8561 16.0188 34.3106 15.4008 35.0673 14.2233C36.368 14.5731 37.763 14.3594 38.909 13.6781C39.0951 14.2992 39.6246 14.8242 40.4659 14.9966C40.8866 15.0828 41.2967 15.0836 41.6402 14.9874C42.17 16.1788 43.1088 17.5094 44.7832 17.4917C45.5754 17.4875 45.7541 20.4114 46.4892 20.5343C46.9299 18.126 47.0119 15.6165 46.2808 13.6066Z" fill="black"/>
<path d="M36.0055 22.7928C35.6329 22.8838 35.2264 22.9955 34.8265 22.9427C34.3702 22.8786 33.8708 22.4741 34.1216 21.9992C34.2242 21.7987 33.9377 21.6305 33.8351 21.831C33.5901 22.2794 33.7393 22.807 34.2113 23.0678C34.7786 23.4307 35.4898 23.2697 36.0826 23.1124C36.3028 23.0461 36.2257 22.7265 36.0055 22.7928Z" fill="black"/>
<path d="M34.0099 19.6947C34.1727 21.072 33.1088 22.3298 31.6138 22.2377C30.1188 22.1456 29.1909 20.8024 29.4912 19.4391C29.5384 19.2253 29.2101 19.1279 29.163 19.3418C28.8155 20.9189 29.8693 22.4845 31.5988 22.5702C33.3283 22.656 34.5507 21.2078 34.3456 19.6258C34.3092 19.3943 33.9735 19.4632 34.0099 19.6947Z" fill="#BCD7FD"/>
<path d="M41.0392 18.4575C41.4109 19.8015 40.5531 21.1907 39.0721 21.3224C37.5912 21.454 36.4672 20.2294 36.5687 18.8464C36.5883 18.6259 36.2497 18.5813 36.236 18.775C36.1427 20.3845 37.4035 21.7789 39.118 21.6413C40.8326 21.5036 41.7991 19.8849 41.3915 18.3083C41.3161 18.1236 40.9974 18.2518 41.0392 18.4575Z" fill="#BCD7FD"/>
<path d="M36.3619 19.446C35.6315 19.5505 34.9011 19.6551 34.1707 19.7597C33.9555 19.8001 34.034 20.118 34.2492 20.0776C34.9796 19.973 35.71 19.8685 36.4404 19.7639C36.4067 19.6473 36.3956 19.5626 36.3619 19.446Z" fill="#BCD7FD"/>
<path d="M38.3308 18.5876C38.346 18.9128 38.3873 19.2443 38.4082 19.5417C38.4496 19.8732 38.9106 19.7803 38.8955 19.4552C38.8804 19.13 38.839 18.7985 38.8181 18.5011C38.7825 18.1418 38.2895 18.2561 38.3308 18.5876Z" fill="black"/>
<path d="M31.6271 19.073C31.6422 19.398 31.6836 19.7295 31.7045 20.0267C31.7459 20.3581 32.2071 20.2653 32.192 19.9402C32.1769 19.6152 32.1355 19.2838 32.1146 18.9865C32.0732 18.6551 31.5857 18.7416 31.6271 19.073Z" fill="black"/>
<path d="M32.705 16.9738C32.3205 16.9805 31.9361 16.9873 31.5574 16.9676C31.3821 16.9605 31.2175 17.176 31.2453 17.3192C31.2616 17.5152 31.4478 17.6071 31.6231 17.6141C32.0075 17.6074 32.392 17.6006 32.7707 17.6203C32.9459 17.6274 33.1106 17.412 33.0828 17.2687C33.0665 17.0727 32.8802 16.9808 32.705 16.9738Z" fill="black"/>
<path d="M37.9514 15.7684C37.6201 15.8111 37.255 15.8747 36.9237 15.9175C36.4688 15.9903 36.6199 16.6337 37.0749 16.5609C37.4061 16.5181 37.7713 16.4545 38.1025 16.4118C38.5236 16.3597 38.3725 15.7164 37.9514 15.7684Z" fill="black"/>
<path d="M40.4637 26.804C40.1466 27.4761 39.5336 27.9374 38.7961 28.0552C38.5884 28.0936 38.5985 28.4396 38.8063 28.4011C39.6583 28.2808 40.3704 27.7563 40.7655 26.9875C40.8672 26.7817 40.5595 26.6254 40.4637 26.804Z" fill="black"/>
<path d="M46.8304 16.7107C45.0198 17.2023 43.2093 17.6939 41.3987 18.1855C41.1787 18.2517 41.2554 18.5718 41.4754 18.5056C43.286 18.014 45.0965 17.5224 46.9071 17.0308C47.1552 16.9704 47.0504 16.6445 46.8304 16.7107Z" fill="#BCD7FD"/>
<path d="M50.2299 17.8145C49.4864 16.2661 46.9221 15.6477 45.3378 17.3207C45.5053 19.1671 45.6128 21.0283 45.7203 22.8896C46.7188 23.2627 48.689 23.0846 49.7133 22.0288C50.8696 20.8887 51.0308 19.4909 50.2299 17.8145Z" fill="#952C28"/>
<path d="M47.6472 18.9479C47.285 19.504 46.8966 20.0538 46.5287 20.6378C46.4099 20.8139 46.6746 20.9956 46.8196 20.8259C46.8515 20.8044 46.863 20.7486 46.8949 20.7271C46.9007 20.6992 46.9007 20.6992 46.9065 20.6713C47.2571 20.171 47.5817 19.6642 47.9381 19.1359C48.0307 18.9535 47.766 18.7718 47.6472 18.9479Z" fill="black"/>
</g>
<defs>
<clipPath id="clip0_209_2592">
<path d="M0 36C0 16.1178 16.1178 0 36 0C55.8823 0 72 16.1178 72 36C72 55.8823 55.8823 72 36 72C16.1178 72 0 55.8823 0 36Z" fill="white"/>
</clipPath>
</defs>
</svg>
