<svg width="72" height="72" viewBox="0 0 72 72" fill="none" xmlns="http://www.w3.org/2000/svg">
<g clip-path="url(#clip0_209_2578)">
<path d="M0 36C0 16.1178 16.1178 0 36 0C55.8823 0 72 16.1178 72 36C72 55.8823 55.8823 72 36 72C16.1178 72 0 55.8823 0 36Z" fill="#98C1FF"/>
<path d="M116.817 39.1586L114.653 84.3416C114.139 92.2762 106.837 98.1315 98.7943 97.0518L95.8254 96.4851L93.919 96.1208L82.8283 94.0066L80.922 93.6423L74.4934 92.4095C74.4934 92.4095 78.1459 102.086 81.1314 108.281C75.3299 109.455 69.2469 113.314 62.6928 116.645C62.5719 116.706 62.4585 116.765 62.3376 116.826C62.2242 116.885 62.1165 116.935 62.0032 116.995C61.8747 117.058 61.7462 117.121 61.6178 117.184C61.4043 117.291 61.1965 117.389 60.983 117.497C60.8261 117.575 60.6618 117.654 60.4955 117.726C60.2669 117.838 60.0365 117.941 59.8079 118.053C53.6849 120.9 47.1515 122.922 40.0507 121.666C24.0599 118.839 15.2749 124.288 15.2749 124.288L11.0102 126.742C0.14921 132.993 -13.8191 128.522 -18.7929 117.214L-26.6822 102.358L-26.8855 101.968L-28.0265 99.8127L-28.1226 99.6242L-34.9217 86.8168L-24.1552 79.3403L-21.8628 77.748L-21.5963 77.5647L-6.28557 96.49L-5.42778 82.8619C-4.62414 70.1269 4.67246 59.4216 17.3807 56.5899L54.9746 48.2175C63.2768 46.3663 71.968 48.4179 78.4927 53.7592L87.3105 60.9881L89.0133 62.3843L93.8465 66.3423L99.9267 38.0687L105.213 38.404L107.17 38.5279L116.817 39.1586Z" fill="#EDE3EB"/>
<path d="M7.1566 58.769L6.07116 65.5093L5.76253 67.4198L3.97518 78.511L3.66654 80.4214L1.87919 91.5126L1.57055 93.4231L-0.2168 104.514L-0.525436 106.425L-2.31279 117.516L-2.62143 119.426L-4.14962 128.918C-4.76001 128.766 -5.3567 128.577 -5.9521 128.364L-4.45906 119.091L-4.15043 117.181L-2.36307 106.089L-2.05444 104.179L-0.267086 93.0878L0.0415502 91.1773L1.8289 80.0861L2.13754 78.1757L3.92489 67.0845L4.23353 65.174L5.01554 60.3347C5.69414 59.7769 6.41327 59.2562 7.1566 58.769Z" fill="#C9CEEF"/>
<path d="M19.6115 54.6549L21.5787 54.1585L21.4094 55.2182L21.1008 57.1284L19.3136 68.218L19.0049 70.1282L17.2177 81.2178L16.9091 83.128L15.1219 94.2175L14.8133 96.1277L13.026 107.217L12.7174 109.128L10.9302 120.217L10.6216 122.127L9.65731 128.094C8.99342 128.414 8.31773 128.69 7.63024 128.92L8.78333 121.792L9.09195 119.882L10.8792 108.792L11.1878 106.882L12.975 95.7926L13.2836 93.8824L15.0709 82.7928L15.3795 80.8826L17.1667 69.793L17.4753 67.8828L19.2625 56.7933L19.5711 54.8831L19.6115 54.6549Z" fill="#C9CEEF"/>
<path d="M33.8923 51.7107L35.8668 51.2123L34.7827 57.927L34.4741 59.8371L32.6869 70.9264L32.3783 72.8365L30.5911 83.9257L30.2825 85.8359L28.4953 96.9251L28.1867 98.8352L26.3995 109.924L26.0909 111.835L24.4697 121.881C23.7677 122.027 23.1096 122.193 22.4985 122.363L24.2525 111.5L24.5611 109.589L26.3483 98.5001L26.6569 96.59L28.4441 85.5008L28.7527 83.5906L30.5399 72.5014L30.8485 70.5913L32.6357 59.502L32.9443 57.5919L33.8923 51.7107Z" fill="#C9CEEF"/>
<path d="M49.9991 48.26L49.7914 49.5556L48.004 60.6465L47.6954 62.5569L45.9081 73.6479L45.5994 75.5583L43.8121 86.6492L43.5035 88.5596L41.7162 99.6506L41.4075 101.561L39.6202 112.652L39.3116 114.562L38.1415 121.832C37.5056 121.759 36.8809 121.699 36.2764 121.657L37.4738 114.227L37.7825 112.317L39.5698 101.226L39.8784 99.3153L41.6657 88.2244L41.9744 86.3139L43.7617 75.223L44.0703 73.3126L45.8577 62.2217L46.1663 60.3112L47.9536 49.2203L48.0252 48.7583L49.9991 48.26Z" fill="#C9CEEF"/>
<path d="M61.8931 47.0601C62.5191 47.0958 63.1366 47.158 63.7529 47.2446L63.2508 50.3583L62.9422 52.2688L61.1548 63.3601L60.8462 65.2706L59.0588 76.3619L58.7502 78.2724L56.9628 89.3637L56.6542 91.2742L54.8668 102.365L54.5582 104.276L52.7708 115.367L52.4622 117.278L51.6626 122.227C51.0191 122.389 50.3625 122.53 49.7072 122.647L50.6266 116.95L50.9352 115.039L52.7226 103.948L53.0312 102.038L54.8186 90.9464L55.1272 89.0359L56.9146 77.9446L57.2232 76.0341L59.0106 64.9428L59.3192 63.0323L61.1066 51.941L61.4152 50.0305L61.8931 47.0601Z" fill="#C9CEEF"/>
<path d="M76.4697 52.6642L76.404 53.0603L76.0953 54.9709L74.3079 66.0629L73.9973 67.966L72.2098 79.058L71.9012 80.9686L70.1138 92.0607L69.8051 93.9713L68.0177 105.063L67.709 106.974L66.1964 116.35C65.5093 116.757 64.8131 117.159 64.1149 117.553L65.8645 106.641L66.1732 104.73L67.9606 93.6379L68.2693 91.7273L70.0567 80.6352L70.3653 78.7246L72.1528 67.6326L72.4614 65.722L74.2488 54.63L74.5575 52.7194L74.7574 51.4821C75.3469 51.8495 75.9135 52.2473 76.4697 52.6642Z" fill="#C9CEEF"/>
<path d="M80.0884 106.47C80.3435 106.992 80.5986 107.514 80.8551 108.013C80.4765 108.093 80.0999 108.18 79.7198 108.285L79.7128 108.318L79.6449 108.304L77.8094 107.979L66.7156 106.026L64.7972 105.691L53.7034 103.738L51.7925 103.401L40.6986 101.448L38.7877 101.111L27.6939 99.1586L25.783 98.8214L14.6892 96.8688L12.7783 96.5316L1.68448 94.579L-0.226436 94.2419L-6.26093 93.1818L-6.17206 91.2817L0.107737 92.3891L2.01865 92.7263L13.1125 94.6789L15.0234 95.016L26.1132 96.9541L28.0241 97.2912L39.1179 99.2439L41.0288 99.581L52.1226 101.534L54.0335 101.871L65.1273 103.823L67.0383 104.161L78.1321 106.113L80.043 106.45L80.0884 106.47Z" fill="#C9CEEF"/>
<path d="M74.397 91.821C74.397 91.821 75.07 93.4891 75.2366 93.8928L69.4032 92.8613L67.4927 92.5245L56.4013 90.5736L54.4908 90.2368L43.3994 88.2859L41.4889 87.9491L30.3975 85.9982L28.487 85.6614L17.3956 83.7105L15.4851 83.3737L4.39375 81.4228L2.48326 81.086L-5.02489 79.7595C-4.92447 79.1315 -4.79559 78.5198 -4.65921 77.9061L2.81297 79.2182L4.72347 79.5551L15.8149 81.5059L17.7253 81.8427L28.8167 83.7936L30.7272 84.1304L41.8186 86.0813L43.7291 86.4181L54.8205 88.369L56.731 88.7058L67.8224 90.6567L69.7329 90.9935L74.397 91.821Z" fill="#C9CEEF"/>
<path d="M114.452 86.0544C114.312 86.6844 114.132 87.2853 113.908 87.8737L111.163 87.3875L109.251 87.0501L98.1548 85.0954L96.2434 84.7579L85.147 82.8032L83.2356 82.4657L72.1392 80.511L70.2278 80.1736L59.1314 78.2189L57.22 77.8814L46.1235 75.9267L44.2122 75.5892L33.1157 73.6346L31.2044 73.2971L20.1079 71.3424L18.1966 71.0049L7.10011 69.0502L5.18874 68.7127L0.599952 67.9032C1.03448 67.3239 1.48251 66.7647 1.96102 66.2291L5.52342 66.8604L7.43479 67.1979L18.5312 69.1526L20.4426 69.4901L31.539 71.4448L33.4504 71.7822L44.5469 73.7369L46.4582 74.0744L57.5547 76.0291L59.466 76.3666L70.5625 78.3213L72.4738 78.6587L83.5703 80.6134L85.4817 80.9509L96.5781 82.9056L98.4895 83.2431L109.586 85.1978L111.497 85.5352L114.452 86.0544Z" fill="#C9CEEF"/>
<path d="M115.527 72.9764L115.471 74.8827L113.88 74.6044L111.968 74.2665L100.868 72.309L98.956 71.971L87.8562 70.0136L85.9442 69.6756L74.8424 67.7109L72.9304 67.3729L61.8306 65.4155L59.9187 65.0775L48.8188 63.1201L46.9069 62.7821L35.8071 60.8247L33.8951 60.4867L22.7953 58.5292L20.8833 58.1913L16.0987 57.3437C16.6475 57.1816 17.2024 57.0414 17.7592 56.9086L20.6938 56.2375L21.2147 56.3249L23.1266 56.6628L34.2265 58.6203L36.1384 58.9582L47.2382 60.9157L49.1502 61.2536L60.25 63.2111L62.162 63.549L73.2618 65.5065L75.1737 65.8444L86.2736 67.8019L88.1855 68.1399L99.2853 70.0973L101.197 70.4353L112.297 72.3927L114.209 72.7307L115.527 72.9764Z" fill="#C9CEEF"/>
<path d="M81.7554 55.3311L77.5524 54.5871L75.6406 54.2493L64.5416 52.2925L62.6298 51.9547L51.5308 49.9979L49.619 49.6601L48.5583 49.4746L49.6964 49.2104L51.7551 48.737L53.2775 48.3835L62.963 50.0955L64.8748 50.4333L75.9738 52.3901L77.8856 52.7279L78.6518 52.8627C78.7928 52.9678 78.9263 53.0748 79.0692 53.1872L81.7554 55.3311Z" fill="#C9CEEF"/>
<path d="M67.9363 72.6968L74.9359 94.5532" stroke="#1A1B16" stroke-width="1.56182" stroke-miterlimit="10" stroke-linecap="round" stroke-linejoin="round"/>
<path d="M34.4299 58.6035C34.4299 58.6035 36.0156 91.8676 47.4282 122.696" stroke="#1A1B16" stroke-width="1.56182" stroke-miterlimit="10" stroke-linecap="round" stroke-linejoin="round"/>
<path d="M24.9433 28.1912L25.6413 21.8196C25.9996 19.2813 27.9703 17.2085 30.4243 16.4163L43.6643 15.7006C46.4202 16.1351 49.9115 18.3971 49.8661 23.7506L49.5343 33.8055L36.158 35.5976L24.9433 28.1912Z" fill="#FACC73"/>
<path d="M31.7046 23.9648C32.7913 24.0615 37.8533 24.0648 38.946 24.0358C39.4811 24.0241 40.032 24.0706 40.5565 23.9606C41.081 23.8507 41.6088 23.5458 41.7802 23.0518C41.9607 22.5323 41.6786 21.9361 41.2392 21.5895C40.7998 21.2429 40.2269 21.0855 39.6698 20.9863C38.4611 20.7653 37.228 20.7212 36.0079 20.8137C34.9215 20.8955 29.3365 20.6523 28.3817 21.1899C26.0992 22.4608 30.8331 23.891 31.7046 23.9648Z" fill="#F9BD64"/>
<path d="M49.8697 25.5054L49.6317 33.143C49.2657 32.6922 48.8997 32.2413 48.5409 31.7885C48.095 31.2398 47.6282 30.6407 47.5497 29.9249C47.4847 29.3496 47.6713 28.7279 47.4328 28.2012C47.2002 27.697 46.6617 27.4469 46.2094 27.1406C45.481 26.6389 44.283 25.3786 45.0593 24.4312C45.7539 23.587 47.5463 24.4802 48.3771 24.7206C48.8042 24.8415 49.2445 24.9828 49.6017 25.2516C49.7013 25.336 49.7918 25.4149 49.8697 25.5054Z" fill="#F9BD64"/>
<path d="M49.7884 35.4207C49.3742 36.6822 48.4501 37.6193 47.3852 38.0262L46.7191 56.659L25.9393 56.503C25.9393 56.503 27.1831 48.5408 27.2183 45.8932C23.1473 43.8059 23.9444 32.8884 24.7394 26.7467C24.8261 26.0788 24.911 25.4673 24.9923 24.9363C24.9923 24.9363 32.8171 29.144 42.0821 23.1631C42.9688 23.4074 42.8886 23.4358 43.6055 23.6995C43.5412 24.3297 43.4678 25.2094 43.4171 26.2108C43.3194 28.2606 43.3345 30.8237 43.8058 32.8002C43.9373 33.3566 44.7136 33.4138 44.9199 32.875C45.1132 32.3793 45.3271 31.8703 45.6586 31.451C46.4669 30.4318 47.9857 30.3795 48.9126 31.2912C49.9105 32.2645 50.3048 33.87 49.7884 35.4207Z" fill="#F8934F"/>
<path d="M29.9681 46.7943L27.0199 47.0754L27.1159 45.8762C27.1159 45.8762 27.0994 45.8724 27.0645 45.8572C27.0683 45.808 27.0666 45.7682 27.0705 45.7189C23.0696 43.5908 23.9085 32.563 24.7219 26.3609C24.8106 25.6865 24.9339 25.0917 25.0148 24.548C25.0148 24.548 25.046 24.5802 25.5893 24.8271L25.0188 33.7105C24.8547 35.4742 24.912 40.2866 25.596 41.9054C26.7122 44.5477 28.6211 46.0616 29.9681 46.7943Z" fill="#F9AF79"/>
<path d="M47.3473 38.2837L46.8065 53.3618C45.0021 54.5234 43.1191 55.5615 41.0431 56.019C40.3884 56.162 39.6515 56.2303 39.1024 55.8441C38.5925 55.4877 38.3806 54.8003 38.4617 54.1737C38.5354 53.549 38.863 52.9872 39.2279 52.4796C39.7381 51.7915 40.3548 51.1798 41.0537 50.6748C41.639 50.2545 42.3008 49.8865 42.6674 49.2589C43.2164 48.3137 42.903 47.0941 43.2448 46.0503C43.7444 44.5277 45.5678 43.6324 45.78 42.0396C46.0033 40.3643 44.5148 38.2245 47.1961 38.2505C47.2484 38.269 47.2987 38.2801 47.3473 38.2837Z" fill="#F77C2D"/>
<path d="M45.5564 35.4609C45.5564 35.4609 46.806 36.1988 47.5684 35.2069C48.3308 34.215 47.6241 33.1665 47.6241 33.1665C47.2631 33.3576 46.9175 33.5761 46.6007 33.842C46.0972 34.2682 45.693 34.8254 45.5564 35.4609Z" fill="#F77C2D"/>
<path d="M47.6394 33.1783C47.6394 33.1783 48.3474 34.2241 47.5809 35.2118C46.8145 36.1995 45.5611 35.4626 45.5611 35.4626C45.699 34.8294 46.1129 34.2725 46.6188 33.8483C47.1247 33.4242 47.7206 33.1254 48.3131 32.8432" stroke="#BF3028" stroke-width="1.56182" stroke-miterlimit="10" stroke-linecap="round" stroke-linejoin="round"/>
<path d="M26.9664 45.8609C26.9664 45.8609 29.4656 47.4461 33.4992 47.2139C38.1043 46.953 40.3591 44.7736 40.3591 44.7736C40.3591 44.7736 37.1532 49.646 26.6063 49.365C26.8448 47.4151 26.9664 45.8609 26.9664 45.8609Z" fill="#BF3028"/>
<path d="M46.0237 38.4302C46.0237 38.4302 46.8354 38.59 47.597 38.2232" stroke="#BF3028" stroke-width="1.56182" stroke-miterlimit="10" stroke-linecap="round" stroke-linejoin="round"/>
<path d="M30.619 34.0996C30.7818 33.3474 33.475 34.0742 32.7185 35.1603C32.3639 35.6732 30.3956 35.1279 30.619 34.0996Z" fill="#F77C2D"/>
<path d="M34.8873 32.1927C34.9005 32.5391 35.0225 32.7915 35.2872 32.7816C35.5445 32.7737 35.7491 32.4781 35.7358 32.1317C35.7226 31.7854 35.5063 31.5034 35.2436 31.5208C34.9843 31.5213 34.872 31.8389 34.8873 32.1927Z" fill="#1A1B16"/>
<path d="M27.6673 31.4728C27.6786 31.8117 27.804 32.0473 28.054 32.0415C28.302 32.0282 28.4959 31.7515 28.4846 31.4125C28.4733 31.0736 28.2629 30.8139 28.0129 30.8197C27.7649 30.833 27.656 31.1338 27.6673 31.4728Z" fill="#1A1B16"/>
<path d="M38.3009 29.0046C37.1395 28.5177 35.8698 28.3574 34.6431 28.5496" stroke="#1A1B16" stroke-width="1.56182" stroke-miterlimit="10" stroke-linecap="round" stroke-linejoin="round"/>
<path d="M29.5197 28.1352C28.573 27.8732 27.5778 27.8129 26.6118 27.9751" stroke="#1A1B16" stroke-width="1.56182" stroke-miterlimit="10" stroke-linecap="round" stroke-linejoin="round"/>
<path d="M32.3376 35.2829L31.568 35.1287C30.9935 35.0162 30.6032 34.4409 30.6904 33.8361L31.2447 29.9326" stroke="#BF3028" stroke-width="1.56182" stroke-miterlimit="10" stroke-linecap="round" stroke-linejoin="round"/>
<path d="M31.2527 37.5471C32.1711 37.737 33.5158 37.5154 34.9309 36.248" stroke="#BF3028" stroke-width="1.56182" stroke-miterlimit="10" stroke-linecap="round" stroke-linejoin="round"/>
<path d="M33.975 39.2161C34.4243 39.0231 34.7114 38.6975 34.6163 38.4888C34.5211 38.28 34.0797 38.2672 33.6304 38.4602C33.1811 38.6531 32.894 38.9788 32.9892 39.1875C33.0843 39.3963 33.5257 39.409 33.975 39.2161Z" fill="#F77C2D"/>
<path d="M47.7071 47.5503L34.5208 55.5123L20.9409 48.858C18.8005 54.5759 18.9683 60.7917 21.4098 66.2957L34.5961 58.3336L48.1759 64.988C50.3239 59.2682 50.1561 53.0524 47.7071 47.5503Z" fill="#0064C8"/>
<path d="M25.7925 54.9131L32.3112 56.3333" stroke="#173F80" stroke-width="1.56182" stroke-miterlimit="10" stroke-linecap="round" stroke-linejoin="round"/>
<path d="M27.1523 57.7913L30.8818 57.2786" stroke="#173F80" stroke-width="1.56182" stroke-miterlimit="10" stroke-linecap="round" stroke-linejoin="round"/>
<path d="M35.763 55.9936L41.863 53.7859" stroke="#173F80" stroke-width="1.56182" stroke-miterlimit="10" stroke-linecap="round" stroke-linejoin="round"/>
<path d="M36.8882 57.1223L38.9896 57.4377" stroke="#173F80" stroke-width="1.56182" stroke-miterlimit="10" stroke-linecap="round" stroke-linejoin="round"/>
<path d="M20.9808 51.5431C21.4214 52.7934 22.0906 54.0125 22.0332 55.3447C21.9604 56.891 20.9111 58.2805 21.0065 59.8286C21.0996 61.3369 22.251 62.5029 22.8504 63.8706C23.0066 64.2229 23.122 64.5946 23.1945 64.9782L21.3881 66.1743C20.8676 64.9704 20.4521 63.7292 20.1365 62.4603C18.998 57.8832 19.1903 53.0174 20.7345 48.4381L20.9181 48.5325C20.927 49.5797 20.5553 50.3532 20.9808 51.5431Z" fill="#0F70D1"/>
<path d="M48.8787 51.3551C50.0559 55.8972 49.8903 60.7352 48.357 65.297L44.4274 63.3511C44.4543 62.4431 44.2624 61.5241 44.4161 60.6288C44.764 58.5778 46.7621 57.2381 47.415 55.2624C48.0079 53.4723 47.3944 51.5218 47.2753 49.6337C47.2387 49.1053 47.2755 48.4438 47.4104 47.8031L47.6014 47.6772C48.1272 48.8725 48.5543 50.1034 48.8787 51.3551Z" fill="#0F70D1"/>
<path d="M50.5894 23.4903L50.3351 23.4643L25.8419 21.0033C25.8507 20.9227 25.8594 20.8421 25.8703 20.7687C26.0232 19.4673 26.4324 18.254 27.0279 17.1631C28.3454 14.7832 30.6138 13.0263 33.2845 12.3128C34.4608 11.9986 35.7271 11.8873 37.0156 12.0207L41.3203 12.4524C45.625 12.884 49.0666 15.8638 50.2148 19.7068C50.5806 20.901 50.716 22.1802 50.5894 23.4903Z" fill="#0055A8"/>
<path d="M50.5873 23.6361L50.3319 23.6085C44.6544 21.3792 38.4551 20.7033 33.9561 20.5489C30.497 20.4296 27.5701 20.6029 25.7562 20.761C25.9049 19.4613 26.3112 18.2513 26.9051 17.1649C28.7465 17.0466 31.1731 16.9642 33.9367 17.0527C37.54 17.1737 40.9799 17.5563 44.1611 18.2021C46.2908 18.6355 48.3101 19.1837 50.2023 19.8433C50.5688 21.0483 50.7095 22.3276 50.5873 23.6361Z" fill="#173F80"/>
<path d="M42.9244 18.813C42.9475 19.0041 42.9684 19.2433 42.8203 19.3871C42.6367 19.5722 42.3206 19.5413 42.1986 19.8043C42.109 19.9871 42.2186 20.1227 42.3553 20.2429C42.4711 20.3451 42.6162 20.4393 42.7341 20.5488L40.7163 20.215C40.4106 20.1653 40.1143 20.0657 39.8471 19.9027C39.7417 19.837 39.6781 19.752 39.6937 19.6133C39.7561 19.0587 40.9925 19.4431 40.9996 18.8327C41.0047 18.5468 40.6749 18.2746 40.3066 18.0606C40.2596 18.0341 40.2867 17.9634 40.3368 17.9732C41.0828 18.13 41.809 18.2449 42.532 18.3212C42.6374 18.3315 42.7334 18.3918 42.7897 18.4789C42.8618 18.5933 42.9098 18.7064 42.9244 18.813Z" fill="#0064C8"/>
<path d="M54.8344 26.9007C54.7398 28.5029 49.8929 29.4196 49.8631 29.4272L49.7874 26.8244C47.8519 25.3014 43.1448 23.835 37.5512 23.1682C32.4207 22.5559 27.8802 22.7662 25.4682 23.5946L25.0518 26.5665C25.0253 26.5576 24.3807 26.2905 24.0801 26.1632C21.6471 25.0735 20.2287 23.8736 20.3474 22.7678C20.4854 21.3979 22.9251 20.4447 26.67 20.0529C29.7626 19.7258 33.742 19.7845 38.0535 20.2999C42.5552 20.8375 46.5998 21.7823 49.5979 22.8925C52.9433 24.1259 54.9118 25.5698 54.8344 26.9007Z" fill="#0F70D1"/>
<path d="M54.7228 27.3753C54.1323 28.467 50.9463 29.2682 49.8485 29.5128L49.7792 26.905C47.8427 25.3719 43.1272 23.8853 37.5209 23.1964C32.3787 22.5638 27.826 22.7575 25.4056 23.5784L24.9805 26.5542C24.9539 26.5452 24.3083 26.2753 24.0073 26.1466C22.5833 25.5064 21.5077 24.8258 20.8815 24.1501C21.3923 22.9763 23.7189 22.1633 27.1336 21.8234C30.235 21.5072 34.2245 21.5809 38.5458 22.1134C43.0577 22.6687 47.1103 23.6304 50.1133 24.7538C52.2929 25.5733 53.896 26.475 54.7228 27.3753Z" fill="#0055A8"/>
<path d="M49.7698 27.2465L49.8307 29.0787C49.8307 29.0787 50.2291 28.9971 50.4611 28.6172C50.9566 27.8324 49.7698 27.2465 49.7698 27.2465Z" fill="#1A1B16"/>
<path d="M25.3487 23.1936C25.3487 23.1936 24.6517 23.3893 24.2962 24.1926C23.9355 25.0054 25.066 25.3036 25.066 25.3036C25.1975 24.2274 25.3487 23.1936 25.3487 23.1936Z" fill="#1A1B16"/>
</g>
<defs>
<clipPath id="clip0_209_2578">
<path d="M0 36C0 16.1178 16.1178 0 36 0C55.8823 0 72 16.1178 72 36C72 55.8823 55.8823 72 36 72C16.1178 72 0 55.8823 0 36Z" fill="white"/>
</clipPath>
</defs>
</svg>
