<svg width="72" height="72" viewBox="0 0 72 72" fill="none" xmlns="http://www.w3.org/2000/svg">
<g clip-path="url(#clip0_209_2587)">
<path d="M0 36C0 16.1178 16.1178 0 36 0C55.8823 0 72 16.1178 72 36C72 55.8823 55.8823 72 36 72C16.1178 72 0 55.8823 0 36Z" fill="#68A74B"/>
<path d="M39.143 85.6721L36.0431 41.1389L24.3846 37.5486C12.5962 51.3416 7.89849 56.1001 5.11867 87.7582C4.82201 90.9684 4.63457 94.0453 4.49083 96.9811C16.0601 93.2047 27.5916 89.4106 39.143 85.6721Z" fill="#2252B2"/>
<path d="M24.18 57.9853C20.9548 62.6963 18.3222 69.1799 19.8223 74.9458C20.9996 79.4407 24.8526 83.0547 28.6505 85.3631C30.3476 86.3857 32.2279 87.31 34.1829 87.8282C35.8565 87.2812 37.4927 86.7163 39.1663 86.1693L36.4859 46.9967C31.7113 49.779 27.3245 53.3985 24.18 57.9853Z" fill="black"/>
<path d="M95.3274 132.859C96.4353 132.6 97.5251 132.379 98.6429 132.147C102.833 131.319 106.972 130.26 111.101 129.174C113.269 128.61 117.675 126.713 119.833 126.122C117.972 101.572 119.032 83.374 99.1097 83.6175C78.5936 83.88 38.4909 92.1603 38.4909 92.1603L38.2421 88.4875C26.5692 91.0963 14.8664 93.6223 3.30479 96.6275C1.65863 123.726 6.255 138.85 19.6103 134.944C34.0717 130.687 89.9922 110.598 89.9922 110.598C89.9922 110.598 89.656 116.244 95.3274 132.859Z" fill="#697CCC"/>
<path d="M41.1197 31.878C40.7808 32.1573 36.0542 46.7681 36.0542 46.7681L25.569 37.6139L33.3826 27.6356L41.1197 31.878Z" fill="#FFA79B"/>
<path d="M39.6322 36.7743C40.4938 34.1763 41.2 32.1107 41.3451 31.9941L37.7612 29.9508C37.7162 32.4074 38.3783 34.7629 39.6322 36.7743Z" fill="black"/>
<path d="M107.453 95.4361C105.716 95.5639 104.251 95.3102 102.689 94.8715C102.313 94.6935 98.4323 94.5939 98.047 94.3881C98.2789 92.9206 102.297 92.8761 103.681 92.8133C104.75 92.7397 106.481 91.3564 104.324 90.4734C102.468 89.7329 94.9258 88.3852 94.419 88.6321C92.3699 88.4961 90.2879 89.0636 88.4071 89.9353C74.1911 83.592 56.6865 78.9146 50.8805 75.4901C50.8805 75.4901 48.7089 69.5196 46.4738 63.6351C45.5719 61.259 44.457 58.4572 43.1749 55.1817C38.6565 43.8074 35.2744 37.7736 27.7851 37.727C27.7851 37.727 19.96 50.0946 23.4196 60.5959C26.8792 71.0973 30.0041 92.1576 39.8871 96.6793C49.8077 101.219 79.0491 103.363 86.0253 103.816C87.7233 104.551 91.0376 105.17 92.1347 105.621C95.3877 107.395 99.8025 107.678 103.354 106.136C104.009 105.867 104.325 105.344 104.417 104.807C104.449 104.544 104.669 104.37 104.928 104.307C105.308 104.232 105.688 104.157 106.058 104.054C107.002 103.805 107.322 103.029 107.186 102.292C107.133 101.966 107.322 101.614 107.637 101.531C107.637 101.531 107.637 101.531 107.664 101.521C109.145 101.109 109.074 99.4058 108.194 98.5939C108.249 98.5738 108.277 98.5637 108.332 98.5436C111.04 97.6231 109.618 95.2788 107.453 95.4361Z" fill="#FFA79B"/>
<path d="M32.221 69.5516C36.3093 67.7098 40.2819 65.6264 44.225 63.4591C44.9312 63.0748 45.6552 62.6523 46.3613 62.268C45.4634 59.8834 44.3534 57.0717 43.0769 53.7846C38.5783 42.37 35.2105 36.3145 27.7503 36.2663C27.7503 36.2663 19.953 48.6752 23.3971 59.2137C24.5098 62.6553 25.6164 67.2347 26.9118 71.9975C28.6474 71.1736 30.4204 70.3677 32.221 69.5516Z" fill="#2252B2"/>
<path d="M33.8587 14.4121C35.8395 11.489 42.2548 11.411 46.0085 13.3036C47.6415 14.133 48.8145 13.1416 48.8596 14.6707C48.9851 18.4415 49.2169 31.0993 47.4546 33.0604C43.9024 36.9927 38.2189 34.6618 35.8071 30.676C33.4329 26.7082 31.0446 18.5824 33.8587 14.4121Z" fill="#FFA79B"/>
<path d="M49.4067 11.6341C47.6997 10.6695 44.6865 11.4298 43.2782 12.2578C39.6888 11.5079 35.4644 12.0648 33.9223 14.2753C32.0039 17.0196 32.4205 21.5063 33.6271 25.3784C35.0327 24.8932 35.5471 23.6901 36.7978 22.5126C41.1866 21.1841 43.5604 17.5988 43.9037 15.8333C44.9851 16.6409 48.6175 16.1951 49.6116 14.9197C50.906 13.0744 49.9316 11.9501 49.4067 11.6341Z" fill="#D24A43"/>
<path d="M42.5156 21.5817C42.4393 21.8925 42.3452 22.2412 42.2688 22.552C42.1648 22.8727 42.6968 22.9648 42.8008 22.644C42.8772 22.3332 42.9713 21.9845 43.0476 21.6737C43.1417 21.3251 42.6097 21.233 42.5156 21.5817Z" fill="black"/>
<path d="M47.9177 21.2328C47.8414 21.5436 47.7473 21.8923 47.6709 22.2031C47.5669 22.5239 48.0989 22.6159 48.2029 22.2951C48.2793 21.9843 48.3734 21.6357 48.4497 21.3248C48.5438 20.9762 48.0118 20.8841 47.9177 21.2328Z" fill="black"/>
<path d="M47.0905 24.6045C46.8725 24.5248 46.7383 24.8521 46.9563 24.9319C47.4302 25.1093 47.2259 25.6794 46.8918 25.8895C46.5577 26.0997 46.1157 26.0982 45.7297 26.0771C45.5037 26.0625 45.4456 26.4257 45.6996 26.4305C46.3395 26.4564 47.1195 26.4335 47.4919 25.8047C47.7461 25.3731 47.5644 24.7819 47.0905 24.6045Z" fill="#952C28"/>
<path d="M43.4723 20.031C43.1049 20.0643 42.7094 20.1074 42.342 20.1408C41.8802 20.1756 41.9787 20.8872 42.4404 20.8524C42.8078 20.819 43.2033 20.7759 43.5707 20.7426C44.0507 20.6704 43.9522 19.9588 43.4723 20.031Z" fill="#D24A43"/>
<path d="M48.3865 19.2393C48.1608 19.2248 47.9351 19.2103 47.6714 19.1779C47.2199 19.1489 47.132 19.8662 47.5835 19.8952C47.8092 19.9097 48.0349 19.9242 48.2986 19.9566C48.7781 19.9758 48.866 19.2585 48.3865 19.2393Z" fill="#D24A43"/>
<path d="M44.7459 30.2265C44.2912 30.2641 43.8851 30.0008 43.7082 29.5923C43.6009 29.3791 43.2789 29.5263 43.3861 29.7395C43.6505 30.3055 44.197 30.6126 44.81 30.5812C45.0513 30.5574 44.9872 30.2028 44.7459 30.2265Z" fill="#952C28"/>
<path d="M34.8006 22.6835C34.7047 22.5922 34.573 22.576 34.4892 22.6055C34.4572 22.4294 34.2755 22.2746 34.024 22.3629C31.6332 23.3279 30.1131 25.4861 30.0082 27.9901C23.6519 24.8519 15.737 27.6955 13.2944 34.4563C12.9494 35.4207 12.6341 35.594 11.7142 36.0109C11.0915 36.2922 10.5188 36.712 9.99406 37.1775C8.95452 38.1361 8.22247 39.424 7.97148 40.8238C7.47951 43.6513 9.12517 46.3834 11.6026 47.6678C9.4536 49.3911 8.15324 52.159 9.43162 54.8329C10.9357 57.9583 14.3487 57.8209 17.1207 56.6907C20.2739 55.3954 23.6583 53.5191 25.5654 50.6005C27.2271 48.0491 27.4993 44.6118 25.6521 42.1065C32.6423 42.8983 32.5111 33.4504 32.6325 32.5645C36.8433 30.7102 34.9281 27.6667 35.1872 26.6388C35.8351 24.5061 36.3919 24.2167 34.8006 22.6835Z" fill="#D24A43"/>
<path d="M31.9266 24.4507C31.9137 26.3359 34.2386 28.2682 36.7261 27.5097C37.4865 25.6097 38.2946 23.7554 39.1305 21.8912C38.2883 21.0307 36.1837 20.1485 34.5962 20.6186C32.8139 21.1578 31.9174 22.4166 31.9266 24.4507Z" fill="#FFA79B"/>
<path d="M35.6302 23.3945C36.0916 23.9239 36.5531 24.4533 37.0243 25.0108C37.1749 25.1779 36.9134 25.4004 36.7355 25.2434C36.6984 25.2252 36.6788 25.1689 36.6417 25.1507C36.6319 25.1226 36.6319 25.1226 36.6221 25.0944C36.2076 24.6113 35.7657 24.1382 35.3414 23.627C35.2084 23.4218 35.4699 23.1993 35.6302 23.3945Z" fill="#952C28"/>
</g>
<defs>
<clipPath id="clip0_209_2587">
<path d="M0 36C0 16.1178 16.1178 0 36 0C55.8823 0 72 16.1178 72 36C72 55.8823 55.8823 72 36 72C16.1178 72 0 55.8823 0 36Z" fill="white"/>
</clipPath>
</defs>
</svg>
