<svg width="72" height="72" viewBox="0 0 72 72" fill="none" xmlns="http://www.w3.org/2000/svg">
<g clip-path="url(#clip0_209_2595)">
<path d="M0 36C0 16.1178 16.1178 0 36 0C55.8823 0 72 16.1178 72 36C72 55.8823 55.8823 72 36 72C16.1178 72 0 55.8823 0 36Z" fill="#FFA5A5"/>
<path d="M15.2989 51.9813C16.392 63.0247 27.3283 60.8667 32.6584 58.4045C32.6584 59.2271 33.0641 61.0357 34.6811 61.6668C37.5715 62.6134 38.4054 58.9736 38.4618 57.0354C38.9294 57.8805 40.2197 59.7567 41.6227 60.4779C47.1781 62.8275 50.3334 57.4298 51.218 54.4379C53.5112 55.3225 58.475 56.4043 59.9681 53.6491C61.4612 50.8939 60.0639 47.1583 59.1793 45.6314C63.2417 43.8228 61.3993 40.7408 59.9681 39.4223C60.8922 38.087 62.3064 34.9487 60.5879 33.1006C57.3369 30.0749 54.3056 30.7511 53.1956 31.4666C53.8154 30.3566 54.6831 27.3592 53.1956 24.2434C51.7082 21.1276 48.474 20.6486 47.0429 20.8008C47.7641 16.513 44.6314 15.9665 42.9805 16.2257C43.1327 15.003 42.6875 11.983 40.1577 11.2111C36.4954 9.89828 34.4952 12.0675 33.9487 13.0084C30.6075 10.9744 28.5678 13.8536 27.965 15.5495C27.0071 15.5495 25.4802 15.6059 23.9589 17.0765C22.1052 19.2908 22.7757 21.9896 23.3391 23.0602C18.7809 23.1503 19.0289 27.3873 19.7275 29.4946C14.4876 31.6638 16.4145 36.639 18.0372 38.8589C10.7069 41.4845 13.1579 48.7021 15.2989 51.9813Z" fill="black"/>
<path d="M23.1872 44.623L54.8917 44.0201C57.8272 43.8792 64.4814 45.2315 67.5916 51.7955C70.7017 58.3596 76.3192 75.6401 76.3192 75.6401L87.2499 61.7909C87.2499 61.7909 89.836 57.706 90.946 54.9789C92.0616 52.2519 93.4928 50.3193 94.676 51.4349C95.5155 52.2294 94.49 54.4324 94.2478 55.7058L97.4762 51.5871C98.4285 50.2912 99.9046 50.1503 100.327 51.1476C100.417 51.5871 100.367 51.7674 100.265 52.066C100.265 52.066 99.4088 53.6887 99.2285 53.976L101.386 51.4349C101.922 50.8208 103.268 50.2235 103.702 51.5871C103.736 51.7223 103.702 51.9026 103.629 52.066C103.629 52.066 103.128 53.114 102.874 53.4689L103.764 52.5787C104.852 51.8406 105.956 52.3871 104.981 54.2577C104.485 55.0127 104.04 55.6832 103.883 55.9199C103.883 55.9199 104.176 55.5874 104.981 54.8381C105.787 54.0887 107.511 54.3535 106.587 56.4044C106.587 56.4044 89.4473 80.9928 81.0915 92.8249C79.5139 94.6054 74.2007 98.6452 68.6058 92.8249C66.5718 91.1741 61.2135 77.8206 58.7851 74.3893V81.5224C58.7851 81.5224 31.6669 73.6681 22.3646 83.4719L22.4716 74.3893L3.43874 94.0645C0.987793 95.8675 -5.59314 98.3917 -12.3318 94.0645C-19.0649 89.7373 -39.2528 73.0765 -40.0754 72.4624C-40.8981 71.8482 -41.1347 69.9156 -38.9711 70.7382C-38.3175 71.0143 -37.1625 71.5609 -36.8357 71.7186C-36.8357 71.7186 -38.881 70.4002 -39.7317 69.7353C-40.5769 69.0705 -40.7516 68.3549 -40.4191 67.7351C-40.0867 67.1154 -38.9317 67.3126 -38.6556 67.4421L-35.7764 68.9578L-38.6556 66.7435C-38.9711 66.428 -39.4388 65.4701 -38.8133 64.9292C-38.1541 64.3601 -37.3315 64.6757 -36.6779 65.2335L-33.5058 67.3295C-33.5058 67.3295 -35.551 64.146 -35.6637 63.4756C-35.7764 62.8051 -34.9482 62.2529 -34.3002 62.7318C-33.6466 63.2107 -31.7929 65.8476 -30.9365 67.0308L-28.3672 68.1464C-28.3672 68.1464 -29.6744 66.4111 -30.3787 65.2335C-31.0154 64.1742 -30.1364 62.6191 -28.5813 63.5601C-28.3165 63.7235 -28.2714 63.8474 -28.0799 63.9939C-28.0799 63.9939 -22.8794 70.2593 -21.3806 72.344L-5.3734 81.4097L11.1015 56.1396C13.5862 52.6463 16.6682 46.6232 23.1872 44.623Z" fill="#6983FF"/>
<path d="M15.885 81.2011L4.52051 66.563L13.8623 83.2971L15.885 81.2011Z" fill="black"/>
<path d="M62.9431 82.3957L74.2682 69.4028L64.0587 84.7227L62.9431 82.3957Z" fill="black"/>
<path d="M22.3137 89.0948L22.7757 44.651C33.2895 44.4369 54.5761 44.0143 55.6184 44.0143C56.6214 43.9523 58.1539 44.2566 58.7962 44.4144V88.6328L57.8834 87.6581C57.3707 87.1961 56.103 86.272 55.1113 86.272C52.6942 86.0917 50.9701 87.7708 50.4123 88.6328C50.3221 87.8609 50.0404 86.0692 49.6235 85.0719C49.1051 83.8323 47.8543 81.8209 45.0484 82.2998C39.9324 83.0604 36.3827 89.2695 35.3404 91.6866C35.3009 90.5767 34.8389 88.8131 34.6135 88.4976C34.3938 87.8947 33.1486 85.7706 29.8694 85.0719C26.5958 84.3676 23.4744 87.7539 22.3137 89.0948Z" fill="#FF85D2"/>
<path d="M51.7308 67.7463C50.8856 68.2534 48.8572 69.8085 47.4768 71.9608" stroke="white" stroke-width="1.12687" stroke-linecap="round"/>
<path d="M32.5406 62.2754C31.6954 62.7825 29.6614 64.3376 28.2866 66.4899" stroke="white" stroke-width="1.12687" stroke-linecap="round"/>
<path d="M55.9004 59.0637C55.168 58.3988 53.0945 56.9001 50.6436 56.2014" stroke="white" stroke-width="1.12687" stroke-linecap="round"/>
<path d="M15.8115 81.2913C15.8115 81.2913 20.1387 76.8232 22.4657 74.4117L23.3278 44.6116C19.3725 44.9271 15.2312 49.6769 13.6536 52.0095L4.22729 66.3095L15.8115 81.2913Z" fill="white" stroke="black" stroke-width="1.12687"/>
<path d="M62.9491 82.435L58.7458 74.406V44.4255C62.7012 44.7411 65.9916 48.3358 67.5693 50.674L75.7391 67.7293L62.9491 82.435Z" fill="white" stroke="black" stroke-width="1.12687"/>
<path d="M43.1387 44.251L30.7036 44.4538L39.296 85.6692C41.0821 84.0578 43.1668 82.8069 44.0458 82.5196L43.1387 44.251Z" fill="white" stroke="black" stroke-width="0.751248"/>
<path d="M28.2077 30.7512L27.216 29.0045C29.6332 28.2495 29.0754 26.3282 28.4894 25.4605C31.8531 26.1761 33.0419 23.111 33.211 21.4939C34.3322 25.1337 37.0649 24.9478 38.1129 24.6322C37.093 28.1481 39.5834 29.5905 41.471 30.2722L41.8935 32.2217C43.6627 30.7568 46.0855 31.0216 46.6715 32.7739C47.4659 35.8897 44.9305 36.8081 42.1809 36.6898V39.5408V44.4539C42.1809 44.4539 41.1723 45.716 40.0398 46.2795C36.2254 48.398 32.625 45.8231 31.6953 44.4539V39.9183C30.5628 39.9183 28.202 40.0591 27.2047 38.0758C26.1962 36.0362 27.2442 32.4809 28.2077 30.7512Z" fill="#6983FF"/>
<path d="M31.6838 41.8846L35.2109 39.5576C35.2109 39.5576 34.1179 39.7435 33.4192 39.8168C32.7375 39.8844 31.6838 39.9182 31.6838 39.9182V41.8846Z" fill="black"/>
<path d="M31.9039 29.1057C31.5602 30.8862 32.9237 31.9342 32.9237 31.9342L31.2954 34.8133H33.2167" stroke="black" stroke-width="1.12687" stroke-linecap="round"/>
<path d="M35.2786 29.0834C35.842 28.9876 36.4167 28.9989 36.8111 29.1059" stroke="black" stroke-width="1.12687" stroke-linecap="round"/>
<path d="M29.2217 28.7396C29.7851 28.6439 30.3598 28.6551 30.7542 28.7622" stroke="black" stroke-width="1.12687" stroke-linecap="round"/>
<path d="M34.4055 36.5714C34.9126 36.3009 35.3577 35.946 35.6 35.6135" stroke="black" stroke-width="1.12687" stroke-linecap="round"/>
<path d="M43.144 34.0415L45.1893 32.3738" stroke="black" stroke-width="1.12687" stroke-linecap="round"/>
<path d="M44.6372 32.9766L45.7246 34.0415" stroke="black" stroke-width="1.12687" stroke-linecap="round"/>
<path d="M30.072 31.5344C30.349 31.5344 30.5735 31.3099 30.5735 31.033C30.5735 30.756 30.349 30.5315 30.072 30.5315C29.7951 30.5315 29.5706 30.756 29.5706 31.033C29.5706 31.3099 29.7951 31.5344 30.072 31.5344Z" fill="black"/>
<path d="M35.7856 31.5344C36.0626 31.5344 36.2871 31.3099 36.2871 31.033C36.2871 30.756 36.0626 30.5315 35.7856 30.5315C35.5087 30.5315 35.2842 30.756 35.2842 31.033C35.2842 31.3099 35.5087 31.5344 35.7856 31.5344Z" fill="black"/>
<path d="M43.8091 52.6182L47.1221 55.21L52.6945 44.4202" stroke="white" stroke-width="1.12687" stroke-linecap="round"/>
<path d="M32.2528 53.3561L28.9398 55.9479L23.8745 45.3215" stroke="white" stroke-width="1.12687" stroke-linecap="round"/>
</g>
<defs>
<clipPath id="clip0_209_2595">
<path d="M0 36C0 16.1178 16.1178 0 36 0C55.8823 0 72 16.1178 72 36C72 55.8823 55.8823 72 36 72C16.1178 72 0 55.8823 0 36Z" fill="white"/>
</clipPath>
</defs>
</svg>
