<svg width="513" height="553" viewBox="0 0 513 553" fill="none" xmlns="http://www.w3.org/2000/svg">
<path d="M311.111 286.046L247.333 283.65C231.033 294.766 219.681 313.171 211.909 331.459C202.627 353.287 109.032 476.622 111.36 478.522C112.239 479.916 113.156 481.258 114.111 482.548L108.936 488.39C115.031 497.233 129.579 507.493 139.568 509.665C140.885 507.248 142.361 504.922 143.987 502.702C146.377 503.302 148.8 503.76 151.243 504.076C165.579 486.434 203.113 439.559 236.529 395.193C229.86 430.291 221.876 467.159 213.574 511.091C215.305 511.929 217.068 512.698 218.863 513.396L215.856 526.608C227.102 529.825 239.024 529.825 250.27 526.608L252.427 518.458C254.827 518.328 257.238 518.107 259.657 517.794C282.804 447.796 300.641 356.201 311.111 286.046ZM194.317 377.711L219.978 339.26C227.828 349.393 238.378 357.105 250.416 361.51L223.928 397.234C214.09 394.943 200.461 385.329 194.317 377.711Z" fill="#FFD644"/>
<path d="M139.516 540.018V508.716C139.516 508.571 139.573 508.431 139.676 508.329C139.779 508.226 139.918 508.168 140.063 508.168C140.208 508.168 140.347 508.226 140.45 508.329C140.552 508.431 140.61 508.571 140.61 508.716V540.018C140.61 540.163 140.552 540.302 140.45 540.405C140.347 540.508 140.208 540.565 140.063 540.565C139.918 540.565 139.779 540.508 139.676 540.405C139.573 540.302 139.516 540.163 139.516 540.018Z" fill="#10162F"/>
<path d="M200.124 232.229L181.845 176.834C181.796 176.738 181.722 176.656 181.63 176.599C181.538 176.542 181.432 176.512 181.324 176.512C181.215 176.512 181.109 176.542 181.017 176.599C180.925 176.656 180.851 176.738 180.803 176.834L162.523 232.229C162.478 232.367 162.49 232.516 162.555 232.645C162.62 232.775 162.734 232.873 162.872 232.918C163.009 232.963 163.159 232.953 163.288 232.888C163.418 232.823 163.516 232.71 163.562 232.573L171.68 207.974H190.967L199.082 232.564C199.126 232.702 199.224 232.817 199.353 232.883C199.482 232.949 199.632 232.962 199.77 232.917C199.909 232.873 200.024 232.776 200.09 232.646C200.156 232.517 200.168 232.367 200.124 232.229ZM172.041 206.879L181.324 178.753L190.603 206.879H172.041Z" fill="#10162F"/>
<path d="M233.976 408.92C233.629 408.92 228.279 406.912 227.953 406.787C227.818 406.735 227.709 406.631 227.65 406.498C227.591 406.365 227.587 406.215 227.639 406.079C227.691 405.944 227.795 405.835 227.928 405.776C228.06 405.717 228.211 405.713 228.346 405.765C230.259 406.496 232.212 407.2 234.15 407.855C234.273 407.897 234.377 407.98 234.444 408.092C234.51 408.203 234.535 408.334 234.514 408.462C234.493 408.589 234.428 408.706 234.329 408.79C234.23 408.874 234.105 408.92 233.976 408.92Z" fill="#10162F"/>
<path d="M154.824 315.657L140.061 324.279C138.631 321.874 137.927 320.666 137.927 320.666C137.849 320.55 137.73 320.467 137.593 320.435C137.457 320.404 137.313 320.425 137.192 320.496C137.071 320.567 136.981 320.681 136.942 320.815C136.902 320.95 136.915 321.094 136.978 321.22C136.978 321.22 137.776 322.585 139.4 325.295C139.804 325.982 139.493 325.912 155.377 316.591C155.482 316.51 155.554 316.392 155.579 316.262C155.604 316.131 155.58 315.995 155.512 315.881C155.444 315.766 155.337 315.68 155.21 315.639C155.084 315.598 154.946 315.604 154.824 315.657Z" fill="#10162F"/>
<path d="M246.78 279.444C143.699 339.08 147.591 337.351 147.297 337.566C146.877 338.038 146.906 337.802 150.65 343.888C159.056 356.969 169.322 368.755 181.125 378.876C181.236 378.965 181.377 379.008 181.519 378.995C181.661 378.982 181.792 378.915 181.884 378.807C181.977 378.699 182.024 378.559 182.016 378.417C182.007 378.275 181.944 378.142 181.838 378.046C170.114 367.998 159.916 356.295 151.567 343.306C150.507 341.58 149.389 339.749 148.417 338.16L247.325 280.39C247.439 280.312 247.52 280.195 247.551 280.06C247.581 279.925 247.56 279.784 247.492 279.664C247.423 279.545 247.311 279.456 247.179 279.415C247.047 279.374 246.905 279.384 246.78 279.444Z" fill="#10162F"/>
<path d="M331.373 142.842C329.351 142.846 327.368 143.395 325.633 144.432C319.727 147.969 313.545 151.024 307.147 153.566L300.193 154.063C293.481 154.282 287.013 153.859 284.809 153.95C283.703 153.993 283.165 155.644 288.949 157.131L290.622 157.83C290.127 157.903 289.647 157.969 289.193 158.025C283.124 158.782 280.784 160.123 282.938 161.314C282.938 163.351 282.309 164.225 280.935 161.858C278.403 157.527 273.344 161.425 277.664 166.999C278.412 168.179 278.797 169.554 278.769 170.951C278.742 172.349 278.304 173.708 277.509 174.858L278.455 178.601C279.366 182.832 279.366 187.209 278.455 191.44C278.007 193.914 276.747 196.167 274.875 197.844C283.159 203.648 293.772 203.572 300.295 195.908C296.013 196.49 293.515 195.969 292.913 190.989L288.122 183.602C289.976 184.358 292.54 185.348 292.54 185.348C294.002 185.746 295.508 185.962 297.023 185.991C301.017 185.991 303.316 183.936 303.927 179.157C304.153 173.688 303.598 168.215 302.28 162.903C306.7 162.982 311.116 162.561 315.442 161.649C315.805 162.75 315.791 163.941 315.404 165.034C313.987 167.68 310.596 171.184 309.775 172.666C307.918 175.993 305.991 179.786 314.616 173.708C317.034 172.008 325.935 167.665 329.807 165.721C332.36 158.371 332.901 150.472 331.373 142.842Z" fill="#FFD644"/>
<path d="M368.779 278.618C373.073 278.273 377.17 276.669 380.556 274.007C381.371 273.25 382.022 272.333 382.469 271.314C382.916 270.295 383.149 269.195 383.153 268.082C383.157 266.969 382.933 265.867 382.495 264.845C382.056 263.822 381.412 262.9 380.603 262.137C376.172 257.89 366.526 256.897 360.443 257.119C360.328 257.133 360.222 257.184 360.138 257.263C360.055 257.342 359.998 257.445 359.977 257.558C359.951 257.849 359.916 313.13 360.073 313.375C360.159 313.493 360.289 313.573 360.434 313.596C362.541 313.844 364.661 313.963 366.782 313.954C379.927 313.954 392.339 309.687 392.339 296.533C392.339 285.01 380.186 280.224 368.779 278.618ZM379.84 262.926C380.542 263.588 381.1 264.387 381.481 265.273C381.861 266.16 382.055 267.116 382.051 268.081C382.046 269.045 381.844 269.999 381.455 270.882C381.067 271.766 380.501 272.56 379.793 273.215C375.701 277.145 366.628 278.102 361.054 277.989V258.196C363.636 258.158 374.993 258.274 379.846 262.926H379.84ZM386.663 307.297C378.987 314.036 363.921 312.86 361.048 312.566V279.092C369.309 279.182 381.423 281.339 387.361 287.242C388.605 288.444 389.591 289.888 390.256 291.485C390.922 293.082 391.254 294.798 391.233 296.527C391.317 298.549 390.951 300.563 390.162 302.426C389.373 304.288 388.18 305.952 386.669 307.297H386.663Z" fill="#10162F"/>
<path d="M407.207 433.115C405.035 433.114 402.913 432.471 401.107 431.265C399.3 430.06 397.892 428.346 397.058 426.341C396.225 424.336 396.003 422.129 396.423 419.999C396.842 417.868 397.882 415.909 399.413 414.37C400.944 412.83 402.897 411.778 405.025 411.346C407.153 410.915 409.361 411.123 411.371 411.945C413.381 412.767 415.102 414.166 416.318 415.965C417.534 417.764 418.19 419.883 418.203 422.054C418.213 423.504 417.936 424.941 417.388 426.284C416.84 427.626 416.031 428.846 415.009 429.875C413.986 430.903 412.771 431.719 411.432 432.275C410.093 432.831 408.657 433.116 407.207 433.115ZM397.31 422.182C397.321 423.809 397.732 425.408 398.508 426.839C399.284 428.269 400.401 429.485 401.759 430.381C403.117 431.277 404.676 431.823 406.296 431.973C407.916 432.123 409.548 431.871 411.048 431.239C412.547 430.608 413.868 429.616 414.893 428.352C415.918 427.089 416.615 425.592 416.924 423.994C417.232 422.397 417.142 420.748 416.661 419.193C416.18 417.639 415.323 416.227 414.166 415.083C412.774 413.707 411.006 412.775 409.084 412.404C407.162 412.033 405.174 412.241 403.37 413C401.566 413.759 400.028 415.036 398.95 416.669C397.872 418.303 397.302 420.219 397.313 422.176L397.31 422.182Z" fill="#10162F"/>
<path d="M423.353 448.574C423.342 446.766 423.777 444.983 424.62 443.384C425.463 441.784 426.688 440.417 428.185 439.404C429.682 438.39 431.407 437.762 433.205 437.574C435.003 437.387 436.82 437.645 438.494 438.327C440.169 439.01 441.649 440.094 442.804 441.485C443.959 442.876 444.754 444.53 445.117 446.302C445.48 448.073 445.4 449.906 444.885 451.639C444.37 453.373 443.436 454.952 442.165 456.238C440.633 457.776 438.681 458.826 436.554 459.258C434.427 459.69 432.219 459.483 430.209 458.664C428.199 457.845 426.476 456.451 425.256 454.655C424.036 452.86 423.374 450.744 423.353 448.574ZM424.447 448.574C424.458 450.201 424.87 451.8 425.646 453.229C426.422 454.659 427.539 455.875 428.897 456.771C430.255 457.666 431.813 458.212 433.433 458.362C435.053 458.512 436.685 458.26 438.184 457.628C439.684 456.997 441.004 456.006 442.029 454.742C443.054 453.479 443.752 451.983 444.06 450.385C444.369 448.788 444.279 447.139 443.799 445.585C443.318 444.031 442.462 442.619 441.306 441.474C439.911 440.105 438.143 439.179 436.223 438.812C434.303 438.445 432.318 438.653 430.516 439.411C428.715 440.169 427.177 441.443 426.098 443.072C425.018 444.701 424.443 446.613 424.447 448.568V448.574Z" fill="#10162F"/>
<path d="M396.591 458.791L444.184 410.638C444.286 410.534 444.425 410.476 444.57 410.475C444.716 410.474 444.855 410.53 444.959 410.632C445.062 410.734 445.121 410.873 445.122 411.018C445.123 411.163 445.066 411.303 444.965 411.406C406.237 450.588 398.864 458.121 397.4 459.48C396.678 460.15 396.169 459.215 396.591 458.791Z" fill="#10162F"/>
<path d="M151.89 312.656C145.657 316.787 139.055 320.333 132.169 323.248L120.317 302.762C116.629 303.184 109.023 303.74 106.636 301.813C103.219 299.071 117.374 295.992 121.158 294.667C126.144 292.921 133.136 290.138 137.912 287.999C140.994 297.017 145.735 305.38 151.89 312.656Z" fill="#FFD644"/>
<path d="M77.9247 52.4577C77.3426 51.794 75.5728 49.1976 68.5608 39.3331C68.5004 39.2158 68.4843 39.0806 68.5156 38.9524C68.5469 38.8243 68.6235 38.7117 68.7312 38.6355C68.839 38.5593 68.9706 38.5246 69.1019 38.5378C69.2332 38.551 69.3553 38.6112 69.4457 38.7072L78.2537 51.11L88.7033 32.8537C88.7755 32.7275 88.8948 32.6351 89.0351 32.5969C89.1754 32.5587 89.3251 32.5778 89.4513 32.65C89.5776 32.7221 89.6699 32.8415 89.7081 32.9818C89.7464 33.1221 89.7273 33.2718 89.6551 33.398C81.2896 48.0275 79.3336 51.5728 78.7194 52.4169C78.4691 52.7575 78.2071 52.7837 77.9247 52.4577Z" fill="#10162F"/>
<path d="M272.695 98.9366L277.352 95.5281C277.42 95.4771 277.475 95.4111 277.512 95.3354C277.55 95.2596 277.57 95.1761 277.57 95.0915C277.57 95.0069 277.55 94.9234 277.512 94.8476C277.475 94.7719 277.42 94.7059 277.352 94.6549L242.45 69.0955C242.158 68.883 246.667 68.9907 140.614 68.9907V0.547223C140.614 0.40209 140.556 0.262902 140.454 0.160278C140.351 0.0576544 140.212 0 140.067 0C139.922 0 139.782 0.0576544 139.68 0.160278C139.577 0.262902 139.519 0.40209 139.519 0.547223V17.8895C64.6315 17.8895 53.4979 17.8138 51.7543 17.907C51.3701 17.9273 51.4399 17.9565 51.3876 17.9943C25.2577 37.2519 18.5077 42.0837 16.802 43.3877C16.016 43.9903 16.0481 44.0426 16.8194 44.6626C18.5659 46.0569 25.3421 50.9732 51.0557 69.7388C51.5418 70.0939 51.3788 70.059 51.9843 70.0764C54.4147 70.1521 67.4782 70.0764 139.517 70.0764C139.517 184.024 139.485 183.369 139.517 183.666C130.311 200.06 124.459 218.121 122.3 236.799C120.14 255.476 121.717 274.396 126.939 292.458C126.98 292.598 127.074 292.716 127.202 292.786C127.329 292.856 127.479 292.873 127.619 292.832C127.759 292.792 127.876 292.697 127.947 292.57C128.017 292.442 128.033 292.292 127.993 292.153C119.319 261.986 120.948 229.789 132.622 200.652C144.297 171.515 165.35 147.1 192.454 131.269L241.064 215.617C241.137 215.743 241.256 215.835 241.396 215.872C241.537 215.91 241.686 215.891 241.812 215.818C241.938 215.745 242.03 215.626 242.067 215.486C242.105 215.345 242.086 215.196 242.013 215.07L193.112 130.245C193.039 130.119 192.918 130.028 192.778 129.991C192.637 129.953 192.487 129.974 192.361 130.047C170.893 142.472 153.053 160.302 140.614 181.762V121.186H205.419L255.071 207.327C255.143 207.453 255.263 207.545 255.403 207.583C255.543 207.62 255.693 207.601 255.819 207.528C255.945 207.456 256.036 207.336 256.074 207.196C256.112 207.055 256.092 206.906 256.02 206.78L206.251 120.43C227.078 108.521 250.339 101.503 274.277 99.9045C298.215 98.3061 322.202 102.17 344.427 111.203C366.653 120.236 386.534 134.203 402.569 152.049C418.603 169.894 430.372 191.15 436.986 214.212C443.599 237.273 444.884 261.536 440.744 285.167C436.604 308.798 427.146 331.178 413.087 350.617C399.027 370.057 380.732 386.046 359.586 397.377C338.439 408.707 314.994 415.083 291.021 416.023C290.876 416.025 290.738 416.086 290.637 416.19C290.537 416.295 290.482 416.435 290.484 416.58C290.487 416.725 290.547 416.863 290.652 416.964C290.756 417.065 290.897 417.12 291.042 417.117C371.841 415.566 444.214 346.677 444.214 257.855C444.191 235.909 439.639 214.204 430.845 194.097C422.051 173.99 409.203 155.914 393.105 140.998C377.007 126.083 358.005 114.649 337.286 107.411C316.568 100.174 294.579 97.289 272.695 98.9366ZM139.517 68.9791H51.9028L17.7538 43.9757L51.9028 18.9723H139.517V68.9791Z" fill="#10162F"/>
<path d="M392.362 86.394C388.736 84.7434 385.198 82.9071 381.761 80.8927L371.416 86.3329C371.325 86.3799 371.223 86.4006 371.121 86.3926C371.019 86.3847 370.921 86.3484 370.838 86.2879C370.756 86.2274 370.692 86.1451 370.653 86.0502C370.615 85.9553 370.604 85.8516 370.621 85.7508L372.598 74.2329L364.229 66.0828C364.156 66.0124 364.104 65.9229 364.079 65.8246C364.053 65.7262 364.056 65.6227 364.086 65.5257C364.116 65.4287 364.173 65.3421 364.25 65.2754C364.326 65.2088 364.42 65.1648 364.52 65.1484L376.085 63.466L381.26 52.9873C381.313 52.905 381.385 52.8372 381.471 52.7903C381.557 52.7434 381.653 52.7188 381.751 52.7188C381.848 52.7188 381.945 52.7434 382.03 52.7903C382.116 52.8372 382.188 52.905 382.241 52.9873L387.413 63.466L398.978 65.1484C399.078 65.1648 399.172 65.2088 399.249 65.2754C399.325 65.3421 399.382 65.4287 399.412 65.5257C399.442 65.6227 399.445 65.7262 399.42 65.8246C399.394 65.9229 399.342 66.0124 399.269 66.0828L390.901 74.2329L392.877 85.7508C392.891 85.8276 392.888 85.9065 392.869 85.9822C392.849 86.0578 392.814 86.1285 392.765 86.1894C392.717 86.2503 392.655 86.3001 392.586 86.3354C392.516 86.3707 392.44 86.3907 392.362 86.394ZM365.787 66.0682C374.228 74.2999 373.794 73.7323 373.724 74.1369L371.888 84.8455L381.493 79.7895C381.857 79.6003 381.182 79.3587 391.62 84.8455C389.631 73.2549 389.646 73.9418 389.94 73.6537L397.72 66.0682L386.968 64.5081C386.561 64.4469 386.968 65.0378 381.746 54.4631C376.527 65.0378 376.932 64.4469 376.527 64.5081L365.787 66.0682Z" fill="#10162F"/>
<path d="M80.9896 231.853H73.1306V223.994C73.1306 223.849 73.0729 223.71 72.9703 223.607C72.8677 223.505 72.7285 223.447 72.5834 223.447C72.4382 223.447 72.2991 223.505 72.1964 223.607C72.0938 223.71 72.0361 223.849 72.0361 223.994V231.853H64.1771C64.032 231.853 63.8928 231.911 63.7902 232.014C63.6875 232.116 63.6299 232.255 63.6299 232.401C63.6299 232.546 63.6875 232.685 63.7902 232.787C63.8928 232.89 64.032 232.948 64.1771 232.948H72.0361V240.807C72.0361 240.952 72.0938 241.091 72.1964 241.194C72.2991 241.296 72.4382 241.354 72.5834 241.354C72.7285 241.354 72.8677 241.296 72.9703 241.194C73.0729 241.091 73.1306 240.952 73.1306 240.807V232.948H80.9896C81.1348 232.948 81.274 232.89 81.3766 232.787C81.4792 232.685 81.5369 232.546 81.5369 232.401C81.5369 232.255 81.4792 232.116 81.3766 232.014C81.274 231.911 81.1348 231.853 80.9896 231.853Z" fill="#10162F"/>
<path d="M95.6072 308.534C93.6628 300.154 93.8375 300.55 93.5464 300.384C93.2553 300.218 93.7618 300.172 85.3089 302.131C85.1676 302.164 85.045 302.252 84.9682 302.375C84.8913 302.498 84.8662 302.647 84.8985 302.788L86.7148 310.612C86.7436 310.733 86.812 310.841 86.9091 310.918C87.0062 310.995 87.1264 311.037 87.2504 311.037C87.5415 311.037 89.3636 310.554 95.1968 309.204C95.2684 309.188 95.3362 309.158 95.396 309.116C95.4557 309.073 95.5063 309.019 95.5447 308.956C95.583 308.894 95.6083 308.824 95.619 308.752C95.6298 308.679 95.6258 308.605 95.6072 308.534Z" fill="#10162F"/>
<path d="M79.2111 303.569C79.1964 303.424 79.125 303.291 79.0127 303.199C78.9004 303.107 78.7561 303.063 78.6115 303.077C70.1703 303.909 70.4875 303.772 70.2489 304.063C70.0102 304.355 70.0684 303.964 70.9125 312.455C70.9255 312.591 70.9885 312.716 71.0891 312.808C71.1897 312.899 71.3208 312.95 71.4568 312.95L79.5051 312.161C79.6496 312.146 79.7825 312.075 79.8747 311.963C79.9668 311.85 80.0108 311.706 79.997 311.562L79.2111 303.569Z" fill="#10162F"/>
<path d="M63.8368 304.267H55.8031C55.5009 304.267 55.2559 304.512 55.2559 304.814V312.848C55.2559 313.15 55.5009 313.395 55.8031 313.395H63.8368C64.139 313.395 64.384 313.15 64.384 312.848V304.814C64.384 304.512 64.139 304.267 63.8368 304.267Z" fill="#10162F"/>
<path d="M120.791 302.489C120.718 302.363 120.599 302.271 120.458 302.233C120.318 302.196 120.169 302.215 120.043 302.288C119.917 302.36 119.825 302.48 119.787 302.62C119.75 302.76 119.769 302.91 119.842 303.036L129.447 319.723L119.283 325.856L108.365 307.37C108.886 307.079 114.678 303.877 115.013 303.691C115.139 303.626 115.235 303.515 115.281 303.38C115.326 303.246 115.318 303.099 115.258 302.971C115.197 302.843 115.09 302.743 114.957 302.693C114.824 302.642 114.678 302.645 114.547 302.701C114.48 302.727 113.674 303.184 113.604 303.219C112.757 303.219 111.584 303.184 110.571 303.074L110.367 302.716C110.293 302.595 110.175 302.509 110.038 302.474C109.901 302.439 109.756 302.458 109.633 302.527C109.51 302.597 109.418 302.712 109.378 302.847C109.337 302.983 109.351 303.128 109.416 303.254L110.399 305.001C107.139 306.805 107.16 306.724 107.078 307.038C106.997 307.352 106.161 306.008 118.631 326.898C118.68 326.98 118.749 327.047 118.832 327.094C118.914 327.141 119.008 327.166 119.103 327.166C119.394 327.166 119.58 326.971 122.203 325.382L130.152 339.112C98.8887 352.614 64.6508 357.751 30.8019 354.018C24.8568 335.177 21.7385 315.558 21.5486 295.803C48.4618 302.095 76.6016 300.697 102.759 291.768L107.139 299.537C107.174 299.6 107.221 299.655 107.277 299.699C107.334 299.744 107.398 299.776 107.467 299.795C107.536 299.815 107.609 299.82 107.68 299.811C107.751 299.802 107.819 299.779 107.882 299.744L107.981 299.691C108.103 299.62 108.193 299.504 108.231 299.368C108.27 299.231 108.254 299.086 108.187 298.961C110.713 297.858 113.319 296.949 115.982 296.242L116.049 296.359C116.122 296.484 116.241 296.576 116.382 296.614C116.522 296.652 116.671 296.632 116.797 296.559C116.923 296.487 117.015 296.367 117.053 296.227C117.09 296.087 117.071 295.937 116.998 295.811L105.731 276.204C105.695 276.142 105.647 276.087 105.59 276.044C105.533 276 105.468 275.968 105.398 275.949C105.329 275.93 105.256 275.925 105.185 275.935C105.114 275.944 105.045 275.968 104.982 276.004L66.4237 298.157C51.23 299.205 35.9649 297.993 21.1265 294.563C21.0462 294.544 20.9627 294.544 20.8823 294.562C20.802 294.581 20.7268 294.617 20.6624 294.669C20.598 294.72 20.5461 294.786 20.5106 294.86C20.475 294.934 20.4567 295.016 20.457 295.098C20.5731 315.319 23.7428 335.407 29.8588 354.681C29.8911 354.783 29.9524 354.873 30.0351 354.94C30.1179 355.007 30.2185 355.049 30.3245 355.06C33.34 355.386 36.4371 355.642 39.5225 355.834C62.7241 396.273 61.2891 394.076 61.7781 394.076C62.0692 394.076 58.9401 395.799 139.51 349.285V436.398C139.51 436.543 139.568 436.682 139.67 436.785C139.773 436.887 139.912 436.945 140.057 436.945C140.202 436.945 140.341 436.887 140.444 436.785C140.547 436.682 140.604 436.543 140.604 436.398V348.65C145.416 345.873 145.398 345.981 145.471 345.626C145.544 345.271 147.267 348.234 120.791 302.489Z" fill="#10162F"/>
<path d="M489.38 283.444C488.051 283.444 486.748 283.064 485.627 282.349C484.505 281.634 483.611 280.615 483.05 279.409C482.488 278.204 482.282 276.863 482.455 275.545C482.629 274.226 483.176 272.985 484.031 271.966C484.886 270.948 486.014 270.195 487.282 269.795C488.551 269.395 489.907 269.366 491.191 269.711C492.476 270.055 493.635 270.759 494.533 271.74C495.431 272.721 496.031 273.937 496.261 275.247C496.438 276.252 496.393 277.283 496.129 278.268C495.864 279.253 495.388 280.168 494.732 280.95C494.076 281.731 493.257 282.359 492.333 282.79C491.408 283.221 490.4 283.444 489.38 283.444ZM488.362 270.663C487.215 270.865 486.155 271.403 485.314 272.208C484.474 273.013 483.891 274.049 483.639 275.185C483.387 276.321 483.478 277.507 483.899 278.592C484.321 279.676 485.055 280.612 486.009 281.279C486.962 281.947 488.092 282.317 489.255 282.343C490.419 282.368 491.564 282.048 492.546 281.423C493.528 280.798 494.302 279.896 494.771 278.831C495.24 277.766 495.383 276.586 495.182 275.439C494.909 273.902 494.038 272.536 492.759 271.641C491.481 270.745 489.899 270.394 488.362 270.663Z" fill="#10162F"/>
<path d="M512.116 551.918H287.115C287.586 551.316 287.806 550.556 287.729 549.796C287.651 549.036 287.282 548.336 286.698 547.842C280.737 542.781 265.424 530.64 250.946 526.245L252.931 518.968C255.172 518.834 257.439 518.62 259.733 518.327C259.836 518.315 259.933 518.274 260.013 518.208C260.093 518.143 260.152 518.056 260.184 517.958C270.64 486.318 279.637 451.552 287.126 418.267C288.853 418.308 290.54 417.741 291.892 416.665C293.243 415.589 294.173 414.071 294.52 412.379L302.888 370.345C303.028 369.631 303.021 368.896 302.867 368.184C302.714 367.473 302.417 366.801 301.994 366.208C301.572 365.616 301.033 365.116 300.411 364.738C299.789 364.361 299.097 364.114 298.376 364.014C304.649 331.209 309.097 303.266 311.652 286.151C315.591 270.395 319.995 255.501 319.252 238.601C341.619 227.52 371.384 203.992 388.496 185.287C403.906 167.986 398.212 147.907 378.661 144.898L327.071 136.826C323.287 136.43 320.16 141.649 318.629 145.154C314.941 141.97 304.568 144.353 299.902 145.692C297.293 142.66 293.756 140.575 289.841 139.76C285.925 138.945 281.85 139.447 278.248 141.187C277.865 141.31 277.506 141.5 277.189 141.748C273.881 143.614 271.239 146.467 269.634 149.909C268.028 153.351 267.539 157.208 268.235 160.942C248.285 175.222 254.133 184.146 277.5 176.998C278.768 181.665 278.921 186.566 277.946 191.304C277.544 193.645 276.372 195.785 274.616 197.384C249.557 208.987 267.901 197.646 135.773 281.505C135.651 281.586 135.566 281.712 135.537 281.855C135.992 283.832 136.556 285.784 137.225 287.699C131.386 290.281 124.261 293.003 120.974 294.144C116.143 295.82 106.13 297.846 105.547 300.623C105.498 300.934 105.541 301.252 105.67 301.538C105.799 301.825 106.01 302.067 106.275 302.236C109.512 304.835 119.691 303.429 121.702 303.109C125.69 308.147 133.747 306.858 139.897 304.978C140.027 304.929 140.134 304.832 140.195 304.707C140.256 304.583 140.268 304.44 140.228 304.307C140.187 304.174 140.098 304.061 139.978 303.992C139.857 303.922 139.715 303.901 139.58 303.933C130.938 306.57 125.154 305.97 122.38 302.186C122.32 302.104 122.239 302.041 122.145 302.003C122.051 301.965 121.948 301.954 121.848 301.971C118.593 302.509 109.576 303.452 106.971 301.36C104.642 299.491 117.234 296.583 121.33 295.16C124.619 294.016 131.73 291.3 137.583 288.715C140.641 297.4 145.222 305.47 151.112 312.546C145.201 316.475 138.924 319.827 132.37 322.553L132.923 323.513C139.538 320.748 145.873 317.357 151.843 313.387C153.758 315.588 155.826 317.651 158.031 319.561C158.517 320.035 155.173 321.703 245.683 268.681L246.78 283.354C232.704 293.046 220.808 309.149 211.423 331.221C205.122 346.043 155.205 414.387 139.635 436.052C111.721 474.887 110.144 477.987 110.938 478.84C111.71 480.057 112.525 481.262 113.43 482.513L104.846 492.119C97.4905 498.395 100.346 509.182 101.918 513.53C104.989 522.03 107.847 536.729 111.145 543.974C112.877 547.656 115.997 550.503 119.822 551.891H0.515754C0.375632 551.901 0.244551 551.964 0.148869 552.067C0.0531876 552.17 0 552.305 0 552.446C0 552.586 0.0531876 552.722 0.148869 552.824C0.244551 552.927 0.375632 552.99 0.515754 553C598.359 553 70.6649 552.983 512.116 552.983C512.236 552.955 512.343 552.887 512.42 552.79C512.496 552.693 512.538 552.573 512.538 552.45C512.538 552.327 512.496 552.207 512.42 552.11C512.343 552.014 512.236 551.946 512.116 551.918ZM114.076 483.451C121.214 493.112 131.456 500.027 143.085 503.037C141.648 504.93 140.371 506.938 139.266 509.042C127.539 505.306 117.209 498.125 109.623 488.434L114.076 483.451ZM148.56 551.918C144.194 540.743 140.867 540.545 134.699 534.84C134.118 523.548 137.49 512.406 144.234 503.331C146.536 503.896 148.869 504.328 151.22 504.626C151.301 504.626 151.382 504.608 151.455 504.574C151.529 504.539 151.594 504.488 151.645 504.426C152.309 503.611 196.037 449.73 235.521 397.42C235.521 397.42 217.475 487.334 213.01 510.992C212.99 511.108 213.008 511.226 213.06 511.331C213.112 511.436 213.197 511.521 213.301 511.574C214.888 512.351 216.502 513.06 218.141 513.702L215.303 526.443C212.966 533.116 211.537 540.074 211.057 547.129C210.997 548.074 211.195 549.016 211.629 549.857C212.062 550.698 212.716 551.406 213.519 551.906L148.56 551.918ZM251.772 519.026L249.828 526.143C238.931 529.189 227.411 529.212 216.503 526.21L219.198 514.104C229.594 517.999 240.689 519.68 251.772 519.041V519.026ZM214.177 510.768C218.619 487.281 230.733 427.483 232.477 418.747L268.119 357.316L231.542 516.531C225.537 515.347 219.703 513.415 214.177 510.783V510.768ZM301.811 370.117L293.44 412.158C293.151 413.559 292.391 414.819 291.286 415.729C290.181 416.639 288.799 417.143 287.368 417.158C291.414 399.112 295.017 381.496 298.167 365.082C298.746 365.155 299.305 365.346 299.807 365.644C300.31 365.942 300.746 366.34 301.088 366.814C301.43 367.288 301.67 367.827 301.795 368.398C301.919 368.969 301.925 369.559 301.811 370.132V370.117ZM275.428 198.886C279.292 201.563 283.955 202.838 288.643 202.499L275.428 213.155V198.886ZM300.073 196.919L304.783 210.087L291.932 201.847C295.002 200.882 297.795 199.191 300.073 196.919ZM300.222 195.379C295.873 195.987 293.993 195.3 293.463 190.937C293.21 188.85 293.128 187.008 293.105 186.053C296.569 186.833 300.353 186.987 302.597 184.26C305.048 181.279 305.281 175.193 303.33 165.125C308.384 161.975 303.208 164.481 315.029 162.289C315.275 163.11 315.239 163.99 314.924 164.787C313.719 167.037 309.999 171.147 309.298 172.413C307.991 174.742 307.135 176.468 307.973 177.225C309.353 178.473 313.795 174.768 316.315 173.304C316.58 174.318 317.111 175.243 317.855 175.982C318.598 176.721 319.526 177.248 320.542 177.507C322.713 177.888 328.421 178.566 336.63 179.655C324.294 188.291 322.798 189.261 310.142 192.489C307.108 193.191 304.117 194.066 301.182 195.108C300.873 195.233 300.551 195.324 300.222 195.379ZM295.629 162.685C291.359 162.791 287.104 162.138 283.063 160.756C282.379 160.345 282.859 160.313 283.205 159.999C285.764 158.619 290.139 158.884 298.245 156.896C301.377 156.171 304.45 155.214 307.44 154.035C326.599 145.78 325.7 143.614 330.956 143.402C332.309 150.731 331.76 158.286 329.361 165.343C317.215 171.581 315.794 172.221 314.301 173.272C309.731 176.491 308.809 176.43 308.739 176.456C308.57 175.964 309.839 173.694 310.255 172.943C310.93 171.723 314.525 167.849 315.89 165.305C316.337 164.272 316.41 163.115 316.097 162.033C317.261 161.812 318.522 161.55 319.933 161.25C320.004 161.235 320.07 161.206 320.13 161.166C320.189 161.125 320.239 161.073 320.278 161.012C320.318 160.952 320.344 160.884 320.357 160.814C320.37 160.743 320.369 160.67 320.354 160.6C320.339 160.529 320.31 160.463 320.269 160.404C320.228 160.344 320.176 160.294 320.116 160.255C320.055 160.216 319.988 160.189 319.917 160.176C319.846 160.163 319.774 160.164 319.703 160.179C313.509 161.501 312.942 161.559 311.676 161.751C307.703 162.215 303.709 162.47 299.709 162.517C298.336 162.625 296.975 162.681 295.629 162.685ZM290.747 157.257C290.001 156.9 289.221 156.62 288.419 156.421C287.452 156.13 285.161 155.42 284.635 154.559C284.691 154.522 284.757 154.501 284.824 154.497C288.218 154.355 294.412 155.048 303.226 154.384C299.142 155.646 294.971 156.606 290.747 157.257ZM323.423 176.805C326.842 174.013 329.265 170.19 330.331 165.908C332.918 158.454 333.46 150.443 331.902 142.709C331.523 141.121 330.796 139.637 329.775 138.363L345.516 140.828C347.613 147.188 348.195 153.95 347.216 160.574C346.236 167.199 343.721 173.503 339.872 178.983C337.412 178.654 340.393 179.05 323.423 176.805ZM278.691 142.167C281.999 140.565 285.737 140.073 289.347 140.767C292.958 141.461 296.247 143.303 298.726 146.018C288.259 149.32 278.32 154.105 269.211 160.226C268.652 156.6 269.271 152.89 270.977 149.642C272.684 146.394 275.388 143.779 278.691 142.182V142.167ZM278.982 191.563C279.879 187.243 279.879 182.785 278.982 178.465C278.839 177.882 278.202 175.321 278.109 174.972C278.895 173.73 279.313 172.291 279.313 170.821C279.313 169.351 278.895 167.912 278.109 166.67C274.93 162.531 277.236 159.597 279.293 160.849C279.868 161.251 280.333 161.792 280.644 162.42C281.858 164.382 282.897 164.106 283.307 162.915C283.706 161.489 282.178 162.426 288.945 163.355C293.244 163.86 297.584 163.907 301.893 163.495C303.002 168.859 305.094 179.504 301.762 183.579C300.108 185.593 297.192 185.969 292.721 184.848C289.953 183.791 288.937 183.34 288.477 183.171C287.871 182.941 287.275 183.241 287.895 184.251C288.369 185.043 289.565 186.818 292.418 191.211C292.974 195.522 294.988 196.898 298.801 196.648C295.736 199.541 291.742 201.249 287.533 201.467C283.324 201.685 279.174 200.399 275.827 197.839C277.451 196.092 278.549 193.921 278.994 191.578L278.982 191.563ZM158.462 318.527C147.837 308.791 140.275 296.173 136.698 282.213L150.868 273.224C154.385 287.448 162.204 300.241 173.257 309.859L158.462 318.527ZM174.256 309.274C163.135 299.692 155.296 286.866 151.843 272.598C266.006 200.217 252.351 208.734 274.339 198.7V214.287C274.34 214.39 274.369 214.491 274.424 214.579C274.479 214.666 274.558 214.736 274.651 214.78C274.744 214.825 274.848 214.842 274.95 214.83C275.053 214.818 275.15 214.777 275.23 214.712L290.628 202.298L305.551 211.863C305.648 211.924 305.761 211.954 305.875 211.948C305.989 211.941 306.098 211.9 306.187 211.829C306.276 211.757 306.341 211.66 306.372 211.55C306.403 211.441 306.399 211.324 306.361 211.216L301.031 196.31C301.208 196.261 301.392 196.203 301.578 196.133C309.248 193.199 319.38 192.43 327.656 187.04L356.297 182.217C356.427 182.195 356.545 182.128 356.629 182.028C356.714 181.927 356.759 181.799 356.757 181.668C356.755 181.536 356.705 181.41 356.618 181.312C356.53 181.214 356.41 181.151 356.28 181.134L341.095 179.128C344.867 173.617 347.335 167.319 348.309 160.712C349.283 154.105 348.739 147.363 346.718 140.997L378.495 145.969C397.348 148.88 402.363 168.044 387.687 184.542C371.542 201.54 353.394 216.514 333.64 229.138C316.938 231.988 317.678 231.726 317.387 232.069C316.996 232.718 317.969 234.59 318.146 238.284C318.944 255.044 314.566 270.063 310.695 285.47L247.849 283.112L247.15 273.739L253.062 264.291C253.127 264.187 253.156 264.064 253.143 263.942C253.13 263.82 253.077 263.705 252.991 263.617C252.905 263.529 252.793 263.473 252.671 263.456C252.549 263.44 252.425 263.466 252.319 263.529L174.256 309.274ZM212.413 331.672C221.727 309.74 233.542 293.771 247.493 284.207L310.479 286.567C299.756 358.221 282.035 448.225 259.25 517.288C250.398 518.47 241.418 518.284 232.622 516.738L269.982 354.126C280.644 335.739 284.652 329.009 286.014 326.474C287.246 324.18 285.997 324.346 285.042 325.557C280.775 330.965 263.794 364.412 151.002 503.5C140.527 502.281 130.656 497.953 122.663 491.074L199.533 383.818C206.502 390.2 214.794 394.964 223.817 397.77H223.928C223.989 397.768 224.05 397.757 224.108 397.738C224.399 397.607 250.919 361.833 250.963 361.542C250.974 361.418 250.943 361.294 250.873 361.191C250.804 361.087 250.701 361.011 250.582 360.975C241.646 357.698 233.488 352.603 226.623 346.011L252.989 309.824C257.853 307.209 261.886 303.284 264.632 298.493C264.706 298.368 264.728 298.219 264.693 298.078C264.657 297.937 264.567 297.816 264.443 297.742C264.318 297.667 264.169 297.645 264.028 297.681C263.887 297.716 263.766 297.806 263.692 297.931C257.821 307.778 248.501 312.418 236.013 312.31C235.868 312.306 235.728 312.36 235.622 312.46C235.517 312.56 235.455 312.697 235.452 312.843C235.448 312.988 235.502 313.128 235.602 313.234C235.702 313.339 235.839 313.4 235.984 313.404C241.095 313.625 246.193 312.74 250.931 310.811L225.84 345.245C223.843 343.389 222.062 341.313 220.531 339.057C220.225 338.652 220.083 338.6 219.719 338.786C219.582 338.888 193.895 377.292 193.813 377.569C193.779 377.707 193.8 377.853 193.871 377.977C195.35 379.802 196.974 381.506 198.727 383.07L121.839 490.34C117.981 486.81 114.628 482.766 111.873 478.322C113.357 472.032 203.465 352.726 212.413 331.672ZM248.457 361.449L223.797 367.879L220.767 341.284C228.222 350.154 237.726 357.076 248.457 361.449ZM219.611 340.809C223.008 370.627 222.711 368.813 223.014 369.02C223.317 369.227 221.69 369.562 249.048 362.427L223.715 396.614C213.944 394.192 200.948 384.843 195.024 377.694L219.611 340.809Z" fill="#10162F"/>
<path d="M220.761 93.7205L230.896 83.6144C230.999 83.5113 231.057 83.3717 231.056 83.2262C231.056 83.0807 230.998 82.9413 230.895 82.8386C230.792 82.736 230.652 82.6784 230.507 82.6787C230.361 82.679 230.222 82.737 230.119 82.8401L219.984 92.9462L209.875 82.811C209.772 82.7083 209.633 82.6506 209.488 82.6506C209.343 82.6506 209.203 82.7083 209.101 82.811C208.998 82.9137 208.94 83.0529 208.94 83.1981C208.94 83.3433 208.998 83.4826 209.101 83.5853L219.21 93.7205L209.074 103.83C208.972 103.932 208.914 104.071 208.914 104.217C208.914 104.362 208.972 104.501 209.074 104.604C209.177 104.706 209.316 104.764 209.462 104.764C209.607 104.764 209.746 104.706 209.849 104.604L219.984 94.4948L230.093 104.633C230.196 104.736 230.335 104.793 230.48 104.793C230.625 104.793 230.765 104.736 230.867 104.633C230.97 104.53 231.028 104.391 231.028 104.246C231.028 104.101 230.97 103.961 230.867 103.859L220.761 93.7205Z" fill="white"/>
</svg>
