<svg width="535" height="472" viewBox="0 0 535 472" fill="none" xmlns="http://www.w3.org/2000/svg">
<path d="M256.196 406.776C235.531 406.778 215.153 401.935 196.698 392.635C178.243 383.336 162.226 369.839 149.931 353.228C137.637 336.617 129.409 317.355 125.907 296.988C122.405 276.622 123.727 255.718 129.767 235.954C135.806 216.191 146.395 198.119 160.684 183.189C174.973 168.259 192.563 156.888 212.042 149.987C231.521 143.086 252.347 140.848 272.848 143.453C293.349 146.059 312.953 153.434 330.087 164.987C330.158 165.02 330.221 165.067 330.272 165.126C330.323 165.185 330.36 165.254 330.381 165.329C330.402 165.404 330.407 165.482 330.395 165.559C330.382 165.636 330.353 165.709 330.31 165.773C330.266 165.838 330.209 165.892 330.142 165.932C330.075 165.972 330.001 165.997 329.923 166.005C329.846 166.013 329.768 166.004 329.694 165.979C329.62 165.954 329.553 165.912 329.497 165.858C312.498 154.393 293.047 147.073 272.706 144.486C252.365 141.899 231.701 144.118 212.373 150.964C193.045 157.811 175.592 169.093 161.414 183.907C147.236 198.72 136.73 216.652 130.738 236.261C124.745 255.871 123.435 276.612 126.911 296.82C130.386 317.028 138.552 336.139 150.752 352.62C162.952 369.1 178.847 382.49 197.159 391.715C215.471 400.94 235.692 405.742 256.196 405.737C285.944 405.57 314.763 395.364 337.986 376.772C361.208 358.18 377.472 332.291 384.143 303.301C384.283 302.599 385.323 302.88 385.182 303.554C378.579 332.839 362.215 359.009 338.776 377.766C315.337 396.523 286.217 406.753 256.196 406.776Z" fill="#10162F"/>
<path d="M386.102 23.9805L385.854 23.4614L385.292 22.2814L385.291 22.2794C384.69 21.0004 383.606 20.012 382.277 19.5304C380.948 19.0491 379.483 19.1135 378.202 19.7096C378.202 19.7098 378.201 19.71 378.201 19.7102L374.045 21.6756L373.595 21.8886L373.38 21.4391L368.604 11.4371L368.604 11.4364C367.521 9.16037 366.001 7.12014 364.129 5.43245C362.258 3.74476 360.072 2.44275 357.696 1.60092C355.321 0.7591 352.803 0.393998 350.286 0.526518C347.769 0.659038 345.304 1.28658 343.03 2.37321L343.029 2.3734C300.724 22.5456 298.945 23.3918 296.424 24.5909C293.998 25.7448 290.886 27.2255 250.315 46.5675L250.314 46.5675C248.042 47.6498 246.005 49.1691 244.319 51.0387C242.634 52.9082 241.333 55.0915 240.492 57.4637C239.65 59.836 239.284 62.3507 239.414 64.8645C239.432 65.2042 239.459 65.543 239.494 65.8806C239.463 65.5667 239.439 65.2518 239.424 64.9361C239.298 62.4255 239.67 59.9148 240.517 57.548C241.364 55.1813 242.669 53.005 244.359 51.144C246.049 49.2836 248.088 47.7749 250.362 46.7043C250.363 46.704 250.363 46.7036 250.364 46.7033L264.408 39.9343L264.86 39.7161L265.076 40.1698L296.15 105.463L296.365 105.916L295.912 106.13L281.697 112.873L386.102 23.9805ZM386.102 23.9805L386.146 23.9508L386.334 24.336L387.313 26.3514C387.314 26.3527 387.315 26.354 387.315 26.3553C387.91 27.6358 387.974 29.0997 387.493 30.4273C387.083 31.5598 386.305 32.5145 385.292 33.1444C386.239 32.5117 386.962 31.5853 387.342 30.499C387.793 29.2078 387.726 27.7916 387.153 26.5491L387.149 26.5409L385.156 22.4145C385.156 22.4138 385.156 22.4131 385.155 22.4125C384.859 21.7879 384.443 21.2279 383.93 20.7646C383.416 20.3009 382.816 19.9433 382.164 19.7124C381.512 19.4815 380.82 19.3819 380.129 19.4193C379.439 19.4566 378.763 19.63 378.139 19.9295C378.139 19.9297 378.139 19.9299 378.138 19.9302L373.983 21.8954L373.53 22.1099L373.745 22.5626L379.786 35.2336L380.002 35.6861L380.453 35.4693L384.509 33.5237H384.573L380.556 35.438L380.104 35.6534L380.32 36.105L383.663 43.1007C384.75 45.3746 385.377 47.8405 385.51 50.3571C385.642 52.8738 385.277 55.3919 384.436 57.7674C383.594 60.1428 382.292 62.3288 380.604 64.2005C378.916 66.0721 376.876 67.5925 374.6 68.6747L374.6 68.6748L358.937 76.1361L358.774 75.7946L327.673 10.5009L327.458 10.0495L327.006 10.2645L296.691 24.7056L296.24 24.9204L296.455 25.3717L300.758 34.4228L296.402 25.2791L296.187 24.8277L295.736 25.0427L265.421 39.4837L264.971 39.6984L265.184 40.1494L296.145 105.443L296.36 105.895L296.811 105.681L319.495 94.9248L281.885 112.841C280.102 113.69 278.201 114.257 276.251 114.525M386.102 23.9805L276.251 114.525M276.251 114.525C278.121 114.252 279.958 113.7 281.696 112.873L276.251 114.525ZM431.718 35.7796C430.884 33.9189 429.89 32.1266 428.738 30.4417C429.905 32.1375 430.915 33.9437 431.765 35.8217C435.08 43.1456 435.941 51.5223 434.173 58.6099C432.395 65.7338 428.703 72.3782 424.463 78.8037C422.583 81.6546 420.599 84.4546 418.632 87.2327C418.383 87.5846 418.134 87.9361 417.885 88.2874C415.677 91.4084 413.508 94.5054 411.562 97.6017C407.809 103.566 404.685 109.075 402.331 114.469C404.669 109.036 407.775 103.51 411.509 97.5721L411.51 97.5713C413.419 94.5218 415.558 91.4572 417.752 88.3468C418.016 87.9726 418.281 87.5976 418.547 87.2219C420.484 84.4791 422.449 81.699 424.311 78.8731C428.546 72.4493 432.285 65.7476 434.048 58.5978C435.818 51.4159 434.981 43.0559 431.718 35.7796ZM398.042 145.243C398.694 149.401 399.818 153.791 401.454 158.521L401.458 158.53L401.461 158.54C401.463 158.544 401.464 158.549 401.464 158.554C401.464 158.555 401.464 158.556 401.463 158.558C401.463 158.561 401.462 158.564 401.461 158.567L401.914 158.778L401.461 158.567C401.459 158.571 401.456 158.575 401.453 158.578C401.449 158.581 401.445 158.583 401.441 158.584C401.436 158.586 401.432 158.586 401.427 158.586C401.423 158.586 401.418 158.584 401.414 158.582L401.179 159.023L401.414 158.582C401.41 158.58 401.406 158.577 401.404 158.574C401.401 158.57 401.399 158.566 401.397 158.561L401.393 158.547L401.388 158.532C399.771 153.81 398.671 149.412 398.042 145.243ZM328.109 90.7906L333.792 88.1143L327.712 91.0103L327.7 90.9832L328.109 90.7906ZM386.089 22.7907L385.744 22.0665L414.907 18.9479C410.114 17.5424 405.072 17.1989 400.132 17.9413C395.359 18.6587 390.792 20.3734 386.729 22.9717L386.757 23.0315L386.306 23.2465L386.03 22.8292C386.05 22.8164 386.069 22.8035 386.089 22.7907Z" fill="#FFD644" stroke="#10162F"/>
<path d="M364.026 48.6445C363.654 48.6445 363.297 48.4965 363.033 48.2331C362.77 47.9696 362.622 47.6123 362.622 47.2398V36.6478L355.907 39.6259C355.694 39.7246 355.459 39.7682 355.225 39.7528C354.99 39.7374 354.763 39.6634 354.565 39.5376C354.366 39.4118 354.203 39.2382 354.089 39.0328C353.975 38.8273 353.914 38.5966 353.912 38.3616V25.6063C353.912 25.2337 354.06 24.8764 354.324 24.613C354.587 24.3495 354.944 24.2015 355.317 24.2015C355.689 24.2015 356.047 24.3495 356.31 24.613C356.574 24.8764 356.722 25.2337 356.722 25.6063V36.2264L363.436 33.2202C363.652 33.1205 363.889 33.0769 364.126 33.0937C364.363 33.1105 364.591 33.1869 364.79 33.316C364.99 33.4451 365.153 33.6225 365.265 33.8317C365.377 34.041 365.434 34.2752 365.431 34.5125V47.2678C365.424 47.6355 365.273 47.9857 365.01 48.2431C364.747 48.5005 364.394 48.6446 364.026 48.6445Z" fill="white"/>
<path d="M314.073 241.295L286.539 234.72L167.19 111.438C148.735 120.643 133.524 135.256 123.586 153.328L173.821 207.777L116.029 194.01C104.622 211.71 99.677 230.366 102.262 250.201L248.723 289.253L261.394 302.992C278.251 321.198 306.6 332.268 331.773 325.693C334.47 325.3 322.839 266.44 314.073 241.295Z" fill="#FFD644"/>
<path d="M272.294 283.241C271.817 282.736 271.03 283.438 271.48 283.944C273.937 286.683 276.585 289.246 279.403 291.614C279.512 291.682 279.643 291.707 279.77 291.687C279.897 291.666 280.013 291.6 280.095 291.5C280.177 291.401 280.22 291.275 280.217 291.146C280.214 291.017 280.164 290.894 280.077 290.799C277.299 288.476 274.698 285.95 272.294 283.241Z" fill="#10162F"/>
<path d="M305.532 304.425C302.045 303.426 298.644 302.148 295.361 300.604C295.239 300.568 295.108 300.576 294.991 300.628C294.874 300.68 294.78 300.773 294.726 300.888C294.671 301.004 294.66 301.135 294.694 301.258C294.728 301.382 294.806 301.488 294.912 301.559C298.237 303.133 301.685 304.429 305.223 305.437C305.292 305.469 305.367 305.485 305.444 305.486C305.52 305.486 305.595 305.471 305.665 305.44C305.735 305.408 305.797 305.363 305.847 305.306C305.898 305.248 305.936 305.181 305.958 305.108C305.98 305.035 305.986 304.958 305.977 304.883C305.967 304.807 305.941 304.734 305.9 304.67C305.86 304.605 305.806 304.55 305.743 304.508C305.679 304.465 305.607 304.437 305.532 304.425Z" fill="#10162F"/>
<path d="M187.363 251.465C196.662 253.881 197.814 254.274 198.095 254.274C198.219 254.268 198.337 254.218 198.429 254.134C198.52 254.05 198.579 253.936 198.596 253.813C198.612 253.69 198.586 253.564 198.52 253.459C198.454 253.353 198.353 253.274 198.236 253.235L187.615 250.425C187.547 250.409 187.476 250.406 187.407 250.416C187.337 250.427 187.271 250.452 187.211 250.488C187.151 250.525 187.099 250.573 187.057 250.629C187.016 250.686 186.986 250.75 186.969 250.819C186.953 250.887 186.95 250.958 186.96 251.027C186.971 251.097 186.996 251.163 187.032 251.223C187.069 251.283 187.117 251.335 187.173 251.377C187.23 251.418 187.294 251.448 187.363 251.465Z" fill="#10162F"/>
<path d="M159.267 243.149C159.129 243.111 158.982 243.13 158.858 243.201C158.734 243.273 158.644 243.39 158.607 243.528C158.569 243.666 158.588 243.813 158.659 243.937C158.731 244.06 158.848 244.151 158.986 244.188C168.285 246.604 169.437 246.998 169.718 246.998C169.86 246.998 169.996 246.941 170.096 246.841C170.196 246.741 170.252 246.605 170.252 246.464C170.252 246.322 170.196 246.186 170.096 246.086C169.996 245.986 169.86 245.93 169.718 245.93L159.267 243.149Z" fill="#10162F"/>
<path d="M130.891 235.872C130.823 235.856 130.752 235.853 130.682 235.864C130.613 235.874 130.546 235.899 130.486 235.935C130.426 235.972 130.374 236.02 130.333 236.076C130.291 236.133 130.261 236.197 130.245 236.266C130.228 236.334 130.225 236.405 130.236 236.474C130.247 236.544 130.271 236.61 130.307 236.67C130.344 236.73 130.392 236.782 130.449 236.824C130.505 236.865 130.57 236.895 130.638 236.912C139.909 239.3 141.089 239.721 141.37 239.721C141.488 239.694 141.592 239.628 141.667 239.533C141.742 239.439 141.783 239.322 141.783 239.202C141.783 239.081 141.742 238.964 141.667 238.87C141.592 238.776 141.488 238.709 141.37 238.682L130.891 235.872Z" fill="#10162F"/>
<path d="M447.554 338.139C444.061 338.144 440.631 337.209 437.623 335.432C434.615 333.655 432.141 331.101 430.46 328.039C428.779 324.977 427.953 321.518 428.068 318.027C428.183 314.536 429.236 311.139 431.115 308.195C432.995 305.25 435.632 302.865 438.75 301.29C441.868 299.715 445.353 299.008 448.838 299.243C452.323 299.478 455.681 300.647 458.56 302.626C461.438 304.606 463.731 307.323 465.198 310.493C466.57 313.458 467.174 316.72 466.954 319.979C466.734 323.239 465.698 326.39 463.94 329.144C462.183 331.897 459.761 334.165 456.897 335.737C454.034 337.309 450.821 338.135 447.554 338.139ZM447.554 300.267C444.192 300.273 440.895 301.201 438.022 302.949C435.15 304.696 432.811 307.198 431.26 310.182C429.709 313.165 429.006 316.517 429.225 319.872C429.445 323.227 430.58 326.459 432.507 329.214C434.434 331.97 437.079 334.145 440.155 335.503C443.231 336.862 446.62 337.351 449.955 336.919C453.29 336.486 456.442 335.149 459.07 333.051C461.698 330.953 463.701 328.175 464.861 325.019C465.893 322.23 466.233 319.233 465.852 316.284C465.47 313.335 464.379 310.523 462.672 308.089C460.964 305.655 458.691 303.671 456.048 302.309C453.405 300.946 450.471 300.246 447.498 300.267H447.554Z" fill="#10162F"/>
<path d="M447.048 318.894L441.625 307.207C441.583 307.143 441.554 307.071 441.542 306.995C441.53 306.919 441.534 306.841 441.555 306.767C441.575 306.693 441.611 306.625 441.661 306.566C441.711 306.507 441.772 306.46 441.842 306.427C441.911 306.394 441.987 306.377 442.064 306.376C442.141 306.376 442.217 306.391 442.287 306.423C442.357 306.454 442.419 306.5 442.47 306.558C442.521 306.616 442.558 306.684 442.58 306.757L447.75 317.995L458.763 312.91C458.886 312.874 459.017 312.882 459.134 312.934C459.251 312.986 459.345 313.079 459.399 313.194C459.454 313.31 459.465 313.441 459.431 313.564C459.396 313.688 459.319 313.794 459.213 313.865L447.722 319.175C447.595 319.223 447.454 319.22 447.329 319.168C447.204 319.116 447.103 319.018 447.048 318.894Z" fill="#10162F"/>
<path d="M487.505 98.7388C485.145 94.693 471.491 72.2448 467.502 74.6329C465.001 76.1782 469.131 86.4892 474.16 96.4911C470.283 96.0135 452.611 93.8502 451.937 97.6149C451.262 101.38 468.007 106.044 480.763 108.628C483.066 112.562 495.485 132.931 500.064 132.931C504.644 132.931 496.327 115.259 494.108 110.848C497.957 111.354 515.657 113.657 516.331 109.752C517.006 105.847 500.261 101.295 487.505 98.7388ZM468.035 75.5601C470.845 73.8743 483.965 94.8335 486.129 98.4578C482.701 97.7835 478.993 97.1654 475.424 96.6597C469.159 84.3539 466.912 76.3186 468.035 75.5601ZM492.197 109.443C488.798 108.937 485.145 108.319 481.353 107.589C479.442 104.33 477.588 100.958 475.902 97.6992C479.498 98.2049 483.179 98.8511 486.747 99.5535C488.714 102.897 490.568 106.24 492.197 109.443ZM452.864 97.6992C453.342 94.8897 471.407 97.0811 474.638 97.5307C476.305 100.79 478.075 104.049 479.948 107.308C462.753 103.824 452.667 99.5254 452.864 97.8116V97.6992ZM500.233 131.919C497.423 133.605 484.303 112.646 482.167 109.022C485.595 109.696 489.304 110.314 492.872 110.82C499.137 123.013 501.497 131.048 500.233 131.919ZM515.292 109.443C514.814 112.084 497.002 110.089 493.546 109.612C491.879 106.353 490.109 103.094 488.236 99.8345C505.515 103.487 515.601 107.842 515.292 109.443Z" fill="#10162F"/>
<path d="M27.9211 323.783L0.190985 299.902C-0.342828 299.424 0.359556 298.638 0.865273 299.087L27.8649 322.378L35.0293 273.324C35.0516 273.182 35.1293 273.055 35.2452 272.971C35.3611 272.887 35.5058 272.852 35.6474 272.874C35.7889 272.897 35.9158 272.974 36.0001 273.09C36.0844 273.206 36.1192 273.351 36.0969 273.492L28.7921 323.474C28.775 323.566 28.734 323.652 28.6732 323.723C28.6124 323.794 28.534 323.848 28.4457 323.88C28.3575 323.911 28.2626 323.919 28.1705 323.902C28.0784 323.885 27.9924 323.844 27.9211 323.783Z" fill="#10162F"/>
<path d="M181.181 29.5959C179.92 29.552 178.674 29.8835 177.601 30.5483C176.528 31.2132 175.676 32.1815 175.154 33.3306C174.631 34.4797 174.462 35.758 174.666 37.0036C174.871 38.2492 175.441 39.406 176.303 40.3277C177.166 41.2493 178.282 41.8942 179.512 42.1808C180.741 42.4674 182.028 42.3827 183.209 41.9376C184.39 41.4924 185.413 40.7067 186.147 39.68C186.881 38.6534 187.295 37.4319 187.334 36.1702C187.38 34.4853 186.76 32.8502 185.608 31.6196C184.456 30.3889 182.866 29.6618 181.181 29.5959ZM180.985 41.2555C179.927 41.2549 178.894 40.9388 178.018 40.3475C177.141 39.7563 176.461 38.9168 176.065 37.9366C175.668 36.9565 175.573 35.8803 175.792 34.8459C176.011 33.8116 176.534 32.8661 177.294 32.1306C178.053 31.3952 179.015 30.9032 180.056 30.7177C181.097 30.5323 182.169 30.6618 183.136 31.0897C184.103 31.5175 184.92 32.2243 185.483 33.1194C186.046 34.0145 186.328 35.0573 186.295 36.114C186.251 37.4929 185.672 38.8006 184.681 39.7603C183.69 40.7199 182.364 41.2562 180.985 41.2555Z" fill="#10162F"/>
<path d="M157.3 155.66C156.851 155.154 156.036 155.856 156.513 156.362C164.296 165.044 163.903 164.791 164.24 164.791C164.339 164.787 164.435 164.756 164.517 164.7C164.6 164.645 164.665 164.568 164.706 164.477C164.747 164.387 164.762 164.287 164.749 164.188C164.736 164.09 164.696 163.997 164.633 163.92L157.3 155.66Z" fill="#10162F"/>
<path d="M176.911 177.434C176.869 177.369 176.814 177.314 176.749 177.273C176.684 177.231 176.611 177.205 176.534 177.194C176.458 177.184 176.38 177.19 176.306 177.213C176.233 177.235 176.165 177.274 176.107 177.325C176.049 177.376 176.004 177.44 175.973 177.51C175.942 177.581 175.927 177.658 175.929 177.735C175.931 177.812 175.949 177.888 175.983 177.957C176.016 178.026 176.065 178.088 176.125 178.136C184.047 186.958 183.514 186.565 183.851 186.565C183.955 186.566 184.058 186.536 184.145 186.479C184.233 186.422 184.302 186.341 184.344 186.245C184.386 186.149 184.399 186.044 184.381 185.941C184.363 185.838 184.316 185.742 184.244 185.666L176.911 177.434Z" fill="#10162F"/>
<path d="M196.522 199.179C196.044 198.673 195.258 199.376 195.735 199.882C203.658 208.704 203.124 208.31 203.462 208.31C203.561 208.306 203.657 208.275 203.739 208.22C203.822 208.164 203.887 208.087 203.928 207.996C203.969 207.906 203.984 207.806 203.971 207.707C203.958 207.609 203.918 207.516 203.855 207.439L196.522 199.179Z" fill="#10162F"/>
<path d="M235.715 242.699C235.616 242.619 235.492 242.576 235.365 242.579C235.238 242.582 235.116 242.63 235.021 242.714C234.926 242.799 234.865 242.915 234.848 243.041C234.831 243.167 234.859 243.295 234.928 243.402C242.71 252.055 242.317 251.83 242.654 251.83C242.753 251.827 242.85 251.795 242.932 251.74C243.014 251.685 243.08 251.607 243.12 251.517C243.161 251.426 243.176 251.326 243.163 251.228C243.15 251.129 243.11 251.036 243.047 250.96L235.715 242.699Z" fill="#10162F"/>
<path d="M255.325 264.474C255.284 264.409 255.228 264.354 255.163 264.312C255.098 264.271 255.025 264.244 254.948 264.234C254.872 264.223 254.794 264.23 254.72 264.252C254.647 264.275 254.579 264.313 254.521 264.365C254.464 264.416 254.418 264.479 254.387 264.55C254.356 264.621 254.341 264.697 254.343 264.774C254.345 264.851 254.363 264.927 254.397 264.997C254.431 265.066 254.479 265.127 254.539 265.176C262.321 273.829 261.928 273.605 262.265 273.605C262.369 273.605 262.472 273.576 262.559 273.519C262.647 273.462 262.716 273.38 262.758 273.285C262.8 273.189 262.813 273.083 262.795 272.98C262.777 272.877 262.73 272.782 262.658 272.706L255.325 264.474Z" fill="#10162F"/>
<path d="M216.105 220.953C215.655 220.419 214.868 221.122 215.318 221.655C223.128 230.309 222.707 230.084 223.044 230.084C223.149 230.085 223.251 230.055 223.339 229.998C223.426 229.941 223.495 229.86 223.537 229.764C223.579 229.668 223.592 229.563 223.574 229.46C223.556 229.357 223.509 229.261 223.437 229.185L216.105 220.953Z" fill="#10162F"/>
<path d="M528.552 225.701C512.707 209.771 481.942 189.711 481.633 189.515C481.548 189.465 481.451 189.439 481.352 189.439C481.253 189.439 481.156 189.465 481.071 189.515C478.418 191.137 475.934 193.019 473.654 195.134C470.058 193.279 464.635 189.824 464.523 187.885C464.101 180.327 470.62 167.825 468.484 165.802C468.264 165.629 468 165.521 467.722 165.492C467.444 165.462 467.163 165.511 466.911 165.634C464.102 166.701 461.489 170.691 460.14 173.332C460.213 168.247 459.988 163.162 459.466 158.104C459.301 155.088 458.944 152.085 458.398 149.113C456.965 143.326 456.038 142.286 455.111 142.399C454.184 142.511 453.594 144.983 453.397 147.596C452.582 143.185 451.262 138.381 449.576 138.465C448.902 138.465 447.469 138.465 447.132 148.495C443.845 139.392 436.343 129.812 424.262 119.276C424.19 119.223 424.107 119.187 424.018 119.173C423.93 119.158 423.84 119.165 423.754 119.192C423.669 119.22 423.592 119.267 423.529 119.331C423.465 119.394 423.418 119.472 423.391 119.557C422.183 124.418 420.919 129.615 419.739 135.094C419.627 134.976 419.491 134.883 419.342 134.82C419.192 134.757 419.03 134.726 418.868 134.729C415.609 134.729 413.052 146.922 412.181 150.462C412.361 148.503 412.209 146.527 411.732 144.618C411.31 143.551 410.355 143.242 409.428 144.365C407.63 146.529 406.197 151.754 403.809 157.683C403.149 157.096 402.326 156.723 401.449 156.615C397.656 155.716 380.602 151.642 361.89 145.18C353.462 142.371 341.212 143.157 334.301 150.546C330.199 154.929 326.631 163.217 332.812 177.883C338.712 191.931 355.541 207.833 368.999 216.374C350.793 216.57 327.474 212.412 299.912 198.337C298.841 197.497 297.601 196.9 296.277 196.584C294.953 196.269 293.577 196.244 292.242 196.51C285.302 198.308 281.762 210.755 282.661 229.888C162.385 105.678 167.47 110.819 167.105 110.904C160.192 114.457 153.675 118.733 147.663 123.659L135.807 110.342C132.014 101.014 131.508 92.5855 129.148 83.7636C127.028 75.9113 123.923 68.3592 119.905 61.2873C118.191 58.4777 116.927 57.1573 115.831 57.3258C109.594 58.1406 108.386 90.2536 103.497 106.605C102.317 110.623 99.9572 120.063 100.322 123.631C101.028 127.009 102.446 130.199 104.481 132.987C106.026 135.515 127.182 158.273 172.078 206.906L116.365 193.729C116.084 193.729 115.859 193.448 115.55 193.897C111.831 199.625 108.724 205.727 106.279 212.103L91.4162 207.777C83.3528 201.764 78.5485 195.021 71.7495 188.7C65.8054 183.215 59.1985 178.496 52.0827 174.652C49.0765 173.135 47.3627 172.77 46.4636 173.472C41.4907 177.462 57.6175 205.22 62.3375 221.824C63.7863 227.435 65.9287 232.843 68.7152 237.923C71.0897 240.42 73.9609 242.391 77.1438 243.711C81.551 245.908 86.3024 247.334 91.1915 247.925L248.526 289.815C261.393 303.863 266.9 310.746 278.475 317.377C289.985 324.255 303.083 328.031 316.488 328.334C324.614 328.27 332.656 326.688 340.201 323.67C358.66 317.04 403.612 300.941 435.444 264.473C440.332 258.865 444.784 252.891 448.761 246.604C473.008 257.674 489.163 269.081 507.762 268.182C520.573 267.507 529.648 261.973 533.272 252.589C534.969 248.096 535.427 243.229 534.596 238.498C533.766 233.768 531.678 229.348 528.552 225.701ZM69.4737 237.136C66.7583 232.17 64.6725 226.885 63.2646 221.403C59.2751 207.355 46.576 184.036 46.4074 176.225C46.4074 175.326 46.576 174.118 47.475 174.118C48.7762 174.298 50.028 174.737 51.1555 175.411C51.9422 185.132 65.8494 210.586 70.2323 226.235C71.6675 231.571 73.547 236.778 75.8514 241.8C73.4319 240.693 71.2622 239.106 69.4737 237.136ZM437.664 165.015C437.298 157.121 438.169 156.418 438.169 156.418C438.169 156.418 439.04 156.643 440.81 161.532C440.979 162.037 442.496 166.28 442.496 166.28C442.496 166.785 442.777 170.972 442.918 172.461C442.899 172.539 442.899 172.621 442.916 172.699C442.934 172.778 442.969 172.851 443.019 172.914C443.069 172.977 443.133 173.028 443.205 173.063C443.277 173.098 443.357 173.116 443.437 173.116C443.518 173.116 443.597 173.098 443.67 173.063C443.742 173.028 443.806 172.977 443.856 172.914C443.906 172.851 443.941 172.778 443.958 172.699C443.976 172.621 443.975 172.539 443.957 172.461C443.508 166.842 443.479 162.459 442.524 155.182C441.569 147.905 442.524 145.517 443.114 145.405C443.676 145.405 445.278 147.343 446.907 153.637C447.329 155.266 448.79 163.133 449.492 169.37C449.474 169.449 449.473 169.53 449.491 169.609C449.508 169.687 449.543 169.761 449.593 169.824C449.643 169.887 449.707 169.938 449.779 169.973C449.852 170.008 449.931 170.026 450.012 170.026C450.092 170.026 450.172 170.008 450.244 169.973C450.316 169.938 450.38 169.887 450.43 169.824C450.48 169.761 450.515 169.687 450.533 169.609C450.55 169.53 450.55 169.449 450.531 169.37C450.166 166.055 449.548 162.122 449.014 158.947C448.957 156.587 448.637 154.24 448.059 151.951C448.059 140.404 449.492 139.786 449.52 139.758C450.279 139.758 452.33 144.871 453.06 153.524C453.678 159.649 454.324 164.116 454.465 167.769C454.465 167.903 454.518 168.032 454.613 168.126C454.708 168.221 454.836 168.275 454.97 168.275C455.043 168.275 455.115 168.26 455.181 168.231C455.248 168.203 455.308 168.161 455.358 168.108C455.408 168.056 455.447 167.994 455.472 167.926C455.497 167.857 455.508 167.785 455.504 167.713C455.308 162.459 454.268 157.233 454.212 152.513C454.013 149.547 454.346 146.568 455.195 143.719C455.42 143.916 456.122 144.927 457.274 149.591C458.286 153.721 460.084 174.877 458.23 181.648C458.196 181.786 458.219 181.931 458.292 182.052C458.366 182.174 458.485 182.261 458.623 182.294C458.761 182.328 458.906 182.305 459.027 182.231C459.149 182.157 459.236 182.039 459.269 181.901C459.657 180.051 459.883 178.171 459.943 176.282C460.309 175.439 463.427 168.218 467.192 166.87C467.375 166.813 467.571 166.813 467.754 166.87C468.99 168.078 463.062 181.226 463.427 188.278C463.596 191.088 470.507 194.993 472.811 196.201C466.566 202.4 461.686 209.836 458.482 218.031C442.721 206.091 436.259 202.073 436.961 189.571C437.439 182.491 438.029 172.433 437.664 165.015ZM427.353 191.481C430.527 190.003 433.493 188.114 436.175 185.862C435.444 190.444 435.859 195.135 437.383 199.517C435.051 201.905 432.635 204.124 430.19 206.231C421.396 210.024 418.306 207.889 415.44 205.304C420.919 201.82 425.92 197.213 427.353 191.481ZM424.15 194.628C421.677 196.314 417.323 195.724 411.507 192.942C413.354 192.397 415.022 191.369 416.339 189.964C417.351 188.84 418.418 187.548 419.514 186.143C421.58 187.519 424.083 188.079 426.538 187.717C426.788 188.977 426.699 190.281 426.279 191.495C425.86 192.71 425.125 193.791 424.15 194.628ZM436.989 156.531C436.441 159.305 436.318 162.147 436.624 164.959C436.905 170.803 436.624 178.557 436.287 183.867C420.75 190.02 412.996 187.885 416.62 158.834C423.294 157.258 430.132 156.484 436.989 156.531ZM414.682 144.674C416.339 138.241 418.109 135.824 418.812 135.824C418.952 135.824 419.177 136.077 419.374 136.639C418.166 142.258 416.339 151.951 415.412 160.099C413.693 160.166 411.995 160.508 410.383 161.11C411.76 156.559 412.912 151.586 414.682 144.674ZM401.421 163.274C399.257 168.275 397.094 172.77 396.167 174.512C396.104 174.638 396.093 174.785 396.138 174.919C396.183 175.054 396.279 175.165 396.406 175.228C396.532 175.291 396.679 175.302 396.813 175.257C396.948 175.212 397.059 175.116 397.122 174.989C405.551 158.132 407.461 149.113 409.849 145.405C410.496 144.422 410.608 144.365 410.861 145.405C411.144 148.63 411.144 151.873 410.861 155.098C410.243 157.402 409.653 159.593 409.091 161.419C408.377 161.765 407.683 162.149 407.012 162.571C406.45 162.964 407.012 163.864 407.602 163.47C409.898 161.959 412.555 161.086 415.3 160.942C413.867 174.118 414.906 181.732 418.615 185.244C417.519 186.649 416.452 188.054 415.468 189.037C411.647 193.279 404.034 193.083 398.414 191.847C393.358 190.751 388.485 188.934 383.945 186.452C385 177.269 388.611 168.566 394.369 161.335C396.566 162.446 398.964 163.105 401.421 163.274ZM333.711 177.49C327.755 163.442 331.154 155.463 335.031 151.305C341.549 144.309 353.546 143.466 361.497 146.22C377.455 151.839 392.177 155.491 398.583 157.064C388.244 161.194 378.748 188.587 384.17 198.533L349.585 181.002C349.458 180.938 349.311 180.928 349.177 180.973C349.043 181.018 348.932 181.114 348.868 181.241C348.805 181.367 348.795 181.514 348.839 181.648C348.884 181.783 348.98 181.894 349.107 181.957L385.996 200.64C390.295 203.45 395.633 197.831 398.611 193.251C402.364 194.027 406.237 194.027 409.99 193.251C414.12 195.358 420.441 197.943 424.431 195.583C422.099 199.236 416.536 204.012 407.714 208.142C396.124 213.317 383.601 216.08 370.909 216.261C357.339 208.17 339.751 191.762 333.711 177.49ZM367.734 217.47C384.073 217.834 400.213 213.828 414.485 205.866C417.913 208.985 420.947 210.53 427.634 208.339C392.037 236.715 346.41 236.069 321.939 233.034C319.129 226.235 311.712 209.631 303.34 201.287C328.738 213.592 350.456 217.47 367.734 217.47ZM108.611 111.887C106.727 118.097 105.346 124.448 104.481 130.88C102.96 128.648 101.9 126.136 101.362 123.49C101.704 117.838 102.751 112.25 104.481 106.858C108.667 92.8103 110.605 63.6192 114.904 58.9273C116.337 57.3539 117.32 58.9273 118.781 61.512C114.595 69.6316 112.656 95.9851 108.611 111.887ZM115.016 143.466C119.765 131.688 126.577 120.851 135.133 111.466L146.652 124.39C137.225 132.242 129.329 141.766 123.361 152.485L115.016 143.466ZM91.6972 246.857C89.4368 234.325 89.4368 221.489 91.6972 208.957L106.026 213.059C101.697 224.715 100.223 237.239 101.727 249.583L91.6972 246.857ZM102.711 249.667C101.826 243.009 101.826 236.264 102.711 229.607L112.769 232.192C112.84 232.227 112.919 232.246 112.999 232.247C113.078 232.249 113.158 232.232 113.23 232.198C113.303 232.165 113.367 232.116 113.418 232.054C113.469 231.993 113.505 231.921 113.525 231.843C113.544 231.766 113.546 231.685 113.53 231.607C113.514 231.528 113.48 231.455 113.432 231.391C113.384 231.327 113.322 231.275 113.251 231.239C113.18 231.202 113.101 231.182 113.022 231.18L102.851 228.567C104.85 216.43 109.378 204.848 116.14 194.572L173.146 208.17L219.672 258.714L215.879 257.73C215.741 257.693 215.594 257.712 215.47 257.783C215.346 257.854 215.256 257.972 215.219 258.11C215.181 258.247 215.2 258.394 215.271 258.518C215.343 258.642 215.46 258.732 215.598 258.77L220.964 260.146C231.05 271.047 240.041 280.768 246.896 288.242L102.711 249.667ZM331.491 325.047C310.532 330.497 291.512 323.445 278.841 316.197C272.513 312.558 266.773 307.983 261.815 302.627L124.147 153.243C127.779 146.675 132.143 140.539 137.156 134.953C144.797 143.382 144.236 142.932 144.573 142.932C144.672 142.929 144.768 142.897 144.85 142.842C144.933 142.787 144.998 142.709 145.039 142.619C145.08 142.528 145.095 142.428 145.082 142.33C145.069 142.231 145.029 142.138 144.966 142.062L137.942 134.167C146.277 125.159 156.129 117.685 167.049 112.084C314.409 264.305 307.835 257.646 308.172 257.646C308.277 257.647 308.379 257.617 308.467 257.56C308.554 257.503 308.623 257.422 308.665 257.326C308.707 257.23 308.72 257.124 308.702 257.022C308.684 256.919 308.637 256.823 308.565 256.747L288.168 235.675L313.735 241.772C320.278 262.692 325.458 284.015 329.244 305.605C327.454 305.971 325.643 306.225 323.821 306.363C323.68 306.363 323.544 306.42 323.444 306.52C323.344 306.62 323.287 306.756 323.287 306.897C323.287 307.039 323.344 307.174 323.444 307.275C323.544 307.375 323.68 307.431 323.821 307.431C325.71 307.293 327.587 307.03 329.44 306.644C331.098 316.731 332.053 324.035 331.491 325.187V325.047ZM532.205 251.999C526.586 266.58 508.492 269.165 493.461 265.344C478.992 261.664 458.398 248.768 440.642 241.8C440.564 241.759 440.478 241.737 440.39 241.735C440.302 241.734 440.214 241.753 440.135 241.791C440.056 241.829 439.987 241.886 439.933 241.955C439.88 242.025 439.843 242.107 439.827 242.193L437.018 260.371C405.27 298.89 358.35 315.663 339.555 322.434C337.448 323.164 335.565 323.951 332.475 324.822C333.486 315.382 318.427 245.93 310.729 232.304C331.182 236.209 394.846 243.879 437.72 200.444C440.839 206.456 448.677 211.907 458.033 218.987C456.702 222.547 455.668 226.212 454.942 229.944C454.907 230.195 454.933 230.45 455.016 230.69C455.099 230.929 455.237 231.145 455.42 231.321L492.759 250.819C492.82 250.87 492.892 250.906 492.97 250.925C493.047 250.945 493.128 250.946 493.206 250.93C493.284 250.914 493.358 250.881 493.421 250.833C493.485 250.785 493.537 250.723 493.574 250.652C493.61 250.581 493.63 250.503 493.633 250.423C493.635 250.343 493.619 250.264 493.587 250.191C493.555 250.118 493.506 250.053 493.446 250.002C493.385 249.95 493.314 249.912 493.236 249.892L455.954 230.393C459.157 213.536 468.793 198.168 481.24 190.498C484.358 192.549 512.735 211.317 527.681 226.348C530.667 229.841 532.661 234.072 533.457 238.598C534.252 243.124 533.82 247.781 532.205 252.083V251.999Z" fill="#10162F"/>
<path d="M110.7 331.59L163.87 341.947L214.016 386.607L160.874 376.25L110.7 331.59Z" fill="#FFD644" stroke="#10162F"/>
<path d="M188.856 358.849L208.612 345.822L267.283 352.968L218.342 385.104L188.856 358.849Z" fill="#FFC700" stroke="#10162F"/>
<path d="M308.341 447.093L296.485 458.163L285.443 446.306C285.346 446.202 285.212 446.141 285.07 446.135C284.927 446.13 284.789 446.181 284.685 446.278C284.58 446.375 284.519 446.51 284.513 446.652C284.508 446.794 284.56 446.933 284.656 447.037L295.726 458.893L283.87 469.935C283.765 470.031 283.704 470.166 283.699 470.308C283.693 470.45 283.745 470.589 283.842 470.693C283.939 470.798 284.073 470.859 284.215 470.864C284.357 470.87 284.496 470.818 284.6 470.721L296.457 459.652L307.498 471.508C307.546 471.56 307.604 471.601 307.668 471.631C307.732 471.66 307.801 471.677 307.871 471.679C307.942 471.682 308.012 471.67 308.078 471.646C308.144 471.621 308.205 471.584 308.257 471.536C308.308 471.488 308.35 471.43 308.379 471.366C308.409 471.302 308.425 471.233 308.428 471.163C308.43 471.092 308.419 471.022 308.394 470.956C308.37 470.89 308.333 470.829 308.285 470.777L297.215 458.921L309.071 447.88C309.123 447.832 309.165 447.774 309.194 447.71C309.223 447.646 309.24 447.577 309.242 447.506C309.245 447.436 309.234 447.366 309.209 447.299C309.185 447.233 309.147 447.173 309.099 447.121C309.051 447.07 308.994 447.028 308.93 446.998C308.866 446.969 308.796 446.953 308.726 446.95C308.656 446.947 308.585 446.959 308.519 446.983C308.453 447.008 308.392 447.045 308.341 447.093Z" fill="#10162F"/>
</svg>
