<svg width="124" height="124" viewBox="0 0 124 124" fill="none" xmlns="http://www.w3.org/2000/svg">
<circle cx="62" cy="62" r="61.5" fill="white" stroke="#10162F"/>
<path d="M52.7192 38.2859C55.6888 29.4189 68.3112 29.4189 71.2808 38.2859C72.7201 42.5836 76.7593 45.5081 81.2951 45.4986L81.9478 45.4972C91.085 45.478 94.7938 57.2497 87.2957 62.4715C83.5198 65.1012 81.9469 69.9282 83.4271 74.2827C86.3719 82.9459 76.5457 90.3724 69.0753 85.1218L68.2062 84.5109C64.4826 81.8938 59.5174 81.8938 55.7938 84.5109L54.9247 85.1218C47.4543 90.3724 37.6281 82.9459 40.5729 74.2827C42.0531 69.9282 40.4802 65.1012 36.7043 62.4715C29.2063 57.2497 32.915 45.478 42.0522 45.4972L42.7049 45.4986C47.2407 45.5081 51.2799 42.5836 52.7192 38.2859Z" fill="#FABD2E" stroke="#10162F"/>
<path d="M96.0905 67.6409C97.187 64.3989 101.813 64.3989 102.91 67.6409C103.524 69.4571 105.235 70.6958 107.156 70.6918L107.482 70.6911C110.79 70.6842 112.124 74.9526 109.401 76.8305C107.788 77.9431 107.117 80.0013 107.753 81.8524C108.832 84.998 105.275 87.6998 102.565 85.8136L102.128 85.5101C100.549 84.4106 98.4514 84.4106 96.8715 85.5101L96.4354 85.8136C93.7252 87.6998 90.1675 84.998 91.2474 81.8524C91.8829 80.0013 91.2124 77.9431 89.599 76.8305C86.8757 74.9526 88.2096 70.6842 91.5175 70.6911L91.8435 70.6918C93.7652 70.6958 95.4761 69.4571 96.0905 67.6409Z" fill="#FABD2E" stroke="#10162F"/>
<path d="M20.0905 67.6409C21.187 64.3989 25.813 64.3989 26.9095 67.6409C27.5239 69.4571 29.2348 70.6958 31.1565 70.6918L31.4825 70.6911C34.7904 70.6842 36.1243 74.9526 33.401 76.8305C31.7876 77.9431 31.1171 80.0013 31.7526 81.8524C32.8325 84.998 29.2748 87.6998 26.5646 85.8136L26.1285 85.5101C24.5486 84.4106 22.4514 84.4106 20.8715 85.5101L20.4354 85.8136C17.7252 87.6998 14.1675 84.998 15.2474 81.8524C15.8829 80.0013 15.2124 77.9431 13.599 76.8305C10.8757 74.9526 12.2096 70.6842 15.5175 70.6911L15.8435 70.6918C17.7652 70.6958 19.4761 69.4571 20.0905 67.6409Z" fill="#FABD2E" stroke="#10162F"/>
<path d="M52 64.5L59.2727 72C62.695 62.1693 65.5451 57.8554 72 52" stroke="#10162F" stroke-width="1.5" stroke-linecap="round" stroke-linejoin="round"/>
</svg>
