<svg width="24" height="24" viewBox="0 0 24 24" fill="none" xmlns="http://www.w3.org/2000/svg">
<path d="M14.1856 12.2625C14.1532 12.2304 14.1274 12.1922 14.1099 12.1501C14.0923 12.108 14.0832 12.0629 14.0832 12.0173C14.0832 11.9716 14.0923 11.9265 14.1099 11.8844C14.1274 11.8423 14.1532 11.8041 14.1856 11.772L20.5771 5.3805C20.7103 5.25303 20.8168 5.10023 20.8901 4.93107C20.9635 4.76191 21.0024 4.57979 21.0044 4.39541C21.0064 4.21103 20.9716 4.0281 20.902 3.85736C20.8324 3.68662 20.7294 3.5315 20.599 3.40112C20.4686 3.27073 20.3135 3.16771 20.1427 3.09808C19.972 3.02846 19.7891 2.99365 19.6047 2.99569C19.4203 2.99773 19.2382 3.03658 19.069 3.10996C18.8999 3.18334 18.7471 3.28977 18.6196 3.423L12.2281 9.813C12.196 9.84543 12.1578 9.87117 12.1157 9.88874C12.0736 9.90631 12.0285 9.91536 11.9828 9.91536C11.9372 9.91536 11.8921 9.90631 11.85 9.88874C11.8079 9.87117 11.7697 9.84543 11.7376 9.813L5.34759 3.423C5.08801 3.16322 4.73586 3.0172 4.36862 3.01706C4.00138 3.01692 3.64912 3.16267 3.38934 3.42225C3.12956 3.68183 2.98354 4.03398 2.9834 4.40122C2.98326 4.76846 3.12901 5.12072 3.38859 5.3805L9.78009 11.772C9.81252 11.8041 9.83826 11.8423 9.85583 11.8844C9.8734 11.9265 9.88244 11.9716 9.88244 12.0173C9.88244 12.0629 9.8734 12.108 9.85583 12.1501C9.83826 12.1922 9.81252 12.2304 9.78009 12.2625L3.39009 18.6525C3.13971 18.9138 3.00159 19.2627 3.00531 19.6246C3.00904 19.9865 3.1543 20.3325 3.41 20.5886C3.6657 20.8447 4.01151 20.9905 4.37338 20.9948C4.73525 20.9991 5.08441 20.8615 5.34609 20.6115L11.7376 14.22C11.7697 14.1876 11.8079 14.1618 11.85 14.1443C11.8921 14.1267 11.9372 14.1176 11.9828 14.1176C12.0285 14.1176 12.0736 14.1267 12.1157 14.1443C12.1578 14.1618 12.196 14.1876 12.2281 14.22L18.6196 20.61C18.882 20.8546 19.229 20.9878 19.5877 20.9816C19.9463 20.9754 20.2886 20.8302 20.5423 20.5767C20.796 20.3231 20.9415 19.981 20.948 19.6224C20.9544 19.2637 20.8215 18.9166 20.5771 18.654L14.1871 12.2625H14.1856Z" fill="black"/>
</svg>
