<svg width="124" height="124" viewBox="0 0 124 124" fill="none" xmlns="http://www.w3.org/2000/svg">
<circle cx="62" cy="62" r="61.5" fill="white" stroke="black"/>
<rect x="19.5" y="46.5" width="85" height="31.7042" rx="6.5" stroke="black"/>
<path d="M69.044 57.418H59.918C59.918 59.704 59.918 61.81 59.918 64.078H64.688C65.984 64.078 67.406 64.492 67.388 65.914C67.388 67.408 65.93 67.948 64.778 67.948C63.59 67.948 62.006 67.588 62.006 66.202H59.648C59.666 69.154 62.042 70.144 64.814 70.144C67.352 70.144 69.746 68.776 69.746 65.914C69.764 62.962 67.37 61.864 64.688 61.864H62.24V59.65H69.044V57.418ZM76.1163 64.438C77.7003 64.438 79.0503 64.996 79.0683 66.238C79.0863 67.228 78.0423 68.128 76.1163 68.128C74.1903 68.128 73.1463 67.21 73.1643 66.238C73.1823 64.996 74.6403 64.438 76.1163 64.438ZM70.6803 66.202C70.6263 69.154 73.3623 70.27 76.0983 70.288C78.9063 70.306 81.6063 69.136 81.5523 66.202C81.5343 65.23 80.9403 63.916 79.6443 63.394C80.7783 62.926 81.2643 61.882 81.2643 61.018C81.2643 58.498 78.8163 57.184 76.0983 57.184C73.3623 57.184 71.0223 58.48 71.0223 61.018C71.0223 61.99 71.5263 62.926 72.6063 63.502C71.3103 64.024 70.6983 65.23 70.6803 66.202ZM73.4523 60.946C73.4163 60.082 74.3163 59.164 76.0983 59.164C77.7003 59.164 78.8163 59.884 78.7803 60.946C78.7443 62.044 77.5743 62.71 76.1163 62.71C74.7303 62.71 73.4883 62.044 73.4523 60.946ZM88.0271 64.51C90.2951 64.51 90.7091 65.446 90.7091 66.202C90.7091 67.552 89.1071 68.056 87.9011 68.056C86.8751 68.056 85.1291 67.606 85.1291 66.31H82.7351C82.7531 69.172 85.4891 70.18 87.8831 70.18C90.3131 70.18 93.2111 69.262 93.2111 66.184C93.2111 65.122 92.3651 63.934 91.1591 63.538C92.2571 63.196 92.9051 62.044 92.9051 61.054C92.8871 58.372 90.3311 57.22 87.9551 57.22C85.6331 57.22 82.9331 58.21 82.9331 60.928H85.3091C85.3091 59.776 86.8211 59.38 87.9371 59.38C89.9531 59.38 90.5291 60.334 90.5291 61.054C90.5111 62.224 89.1611 62.566 87.8831 62.566H86.0651V64.51H88.0271Z" fill="black"/>
<path d="M36.5794 56.3183C37.4068 53.8443 40.9305 53.8443 41.7579 56.3183C42.2564 57.8087 43.6567 58.8236 45.2316 58.8202L45.4293 58.8198C47.9664 58.8145 48.9972 62.0825 46.9161 63.5337C45.6043 64.4485 45.0586 66.1249 45.572 67.6373C46.3922 70.0533 43.6511 72.1093 41.5797 70.6514L41.3166 70.4662C40.0282 69.5594 38.3092 69.5594 37.0208 70.4662L36.7577 70.6514C34.6862 72.1093 31.9452 70.0533 32.7653 67.6373C33.2787 66.1249 32.733 64.4485 31.4213 63.5337C29.3402 62.0825 30.371 58.8145 32.9081 58.8198L33.1058 58.8202C34.6807 58.8236 36.081 57.8087 36.5794 56.3183Z" fill="#FABD2E" stroke="black"/>
</svg>
