<svg width="24" height="24" viewBox="0 0 24 24" fill="none" xmlns="http://www.w3.org/2000/svg">
<path d="M16 15C16.7956 15 17.5587 14.6839 18.1213 14.1213C18.6839 13.5587 19 12.7956 19 12V6C19 5.20435 18.6839 4.44129 18.1213 3.87868C17.5587 3.31607 16.7956 3 16 3H6C5.20435 3 4.44129 3.31607 3.87868 3.87868C3.31607 4.44129 3 5.20435 3 6V12C3 12.7956 3.31607 13.5587 3.87868 14.1213C4.44129 14.6839 5.20435 15 6 15H7V17C6.99651 17.1769 7.04003 17.3516 7.12612 17.5062C7.2122 17.6608 7.33777 17.7898 7.49 17.88C7.64202 17.9678 7.81446 18.014 7.99 18.014C8.16554 18.014 8.33798 17.9678 8.49 17.88L13.27 15H16ZM9 15.22V14C9.00209 13.8667 8.97751 13.7344 8.92771 13.6107C8.87791 13.4871 8.80389 13.3746 8.71 13.28C8.51966 13.0965 8.26438 12.9958 8 13H6C5.73478 13 5.48043 12.8946 5.29289 12.7071C5.10536 12.5196 5 12.2652 5 12V6C5 5.73478 5.10536 5.48043 5.29289 5.29289C5.48043 5.10536 5.73478 5 6 5H16C16.2652 5 16.5196 5.10536 16.7071 5.29289C16.8946 5.48043 17 5.73478 17 6V12C17 12.2652 16.8946 12.5196 16.7071 12.7071C16.5196 12.8946 16.2652 13 16 13H13C12.8205 13.0001 12.6444 13.0484 12.49 13.14L9 15.22ZM24 12V16C24 16.7956 23.6839 17.5587 23.1213 18.1213C22.5587 18.6839 21.7956 19 21 19H20V21C20 21.1857 19.9483 21.3678 19.8507 21.5257C19.753 21.6837 19.6133 21.8114 19.4472 21.8944C19.2811 21.9775 19.0952 22.0126 18.9102 21.996C18.7252 21.9793 18.5486 21.9114 18.4 21.8L14.67 19H13C12.7348 19 12.4804 18.8946 12.2929 18.7071C12.1054 18.5196 12 18.2652 12 18C12 17.7348 12.1054 17.4804 12.2929 17.2929C12.4804 17.1054 12.7348 17 13 17H15C15.123 17.0039 15.2445 17.0276 15.36 17.07L15.46 17.13L15.6 17.2L18 19V18C18 17.7348 18.1054 17.4804 18.2929 17.2929C18.4804 17.1054 18.7348 17 19 17H21C21.2652 17 21.5196 16.8946 21.7071 16.7071C21.8946 16.5196 22 16.2652 22 16V12C22 11.7348 21.8946 11.4804 21.7071 11.2929C21.5196 11.1054 21.2652 11 21 11C20.7348 11 20.4804 10.8946 20.2929 10.7071C20.1054 10.5196 20 10.2652 20 10C20 9.73478 20.1054 9.48043 20.2929 9.29289C20.4804 9.10536 20.7348 9 21 9C21.7956 9 22.5587 9.31607 23.1213 9.87868C23.6839 10.4413 24 11.2044 24 12Z" fill="#369FFF"/>
</svg>
