<svg width="124" height="126" viewBox="0 0 124 126" fill="none" xmlns="http://www.w3.org/2000/svg">
<circle cx="62" cy="62" r="61.5" fill="white" stroke="black"/>
<path d="M13 60.5V60.5C38.3496 30.4463 84.6504 30.4463 110 60.5V60.5" stroke="black"/>
<path d="M13 61V61C37.2001 93.4331 85.7999 93.4331 110 61V61" stroke="black"/>
<path d="M108.5 61.5C108.5 67.299 59.4036 84 52.5 84C45.5964 84 14 66.299 14 60.5C14 54.701 69.5964 40.5 76.5 40.5C83.4036 40.5 108.5 55.701 108.5 61.5Z" fill="white"/>
<path d="M36 44V44C42.9365 39.9011 51.3823 39.2529 58.8631 42.2452L64.5 44.5L59 38.5L75.1067 40.1107C78.5457 40.4546 79.9593 44.704 77.4115 47.0394L60 63H36V44Z" fill="white"/>
<circle cx="62" cy="62" r="16.5" fill="#574400" stroke="black"/>
<circle cx="62" cy="62" r="8" fill="black"/>
</svg>
