<svg width="590" height="583" viewBox="0 0 590 583" fill="none" xmlns="http://www.w3.org/2000/svg">
<path d="M232.472 480.331C232.472 480.331 229.109 482.033 227.579 482.815C220.27 487.9 205.428 473.357 199.344 466.706C199.26 466.614 199.149 466.549 199.026 466.519C198.903 466.489 198.773 466.495 198.654 466.536C198.535 466.578 198.431 466.653 198.356 466.753C198.281 466.852 198.239 466.971 198.234 467.093C198.424 471.697 199.768 476.186 202.149 480.175C209.377 493.259 209.653 524.015 216.611 528.185C217.034 528.445 217.51 528.611 218.006 528.673C218.503 528.735 219.007 528.691 219.483 528.543C221.232 528.045 223.614 524.386 228.009 501.027C229.368 494.271 231.156 487.603 233.364 481.06C233.4 480.945 233.4 480.822 233.365 480.707C233.33 480.592 233.26 480.489 233.166 480.412C233.071 480.334 232.955 480.285 232.832 480.271C232.708 480.257 232.583 480.277 232.472 480.331Z" fill="#10162F"/>
<path d="M409.839 316.657C408.075 316.308 406.257 316.327 404.5 316.713C402.743 317.099 401.084 317.842 399.627 318.898C398.169 319.954 396.944 321.299 396.028 322.849C395.111 324.4 394.524 326.123 394.301 327.911C394.292 328.07 394.343 328.227 394.445 328.35C394.547 328.473 394.692 328.553 394.85 328.573C395.008 328.593 395.168 328.553 395.297 328.46C395.427 328.367 395.516 328.228 395.548 328.071C395.898 325.36 397.167 322.851 399.143 320.965C401.12 319.079 403.683 317.931 406.403 317.713C409.124 317.494 411.837 318.219 414.088 319.766C416.339 321.312 417.991 323.586 418.767 326.208C418.821 326.36 418.931 326.486 419.075 326.56C419.218 326.633 419.385 326.648 419.54 326.603C419.694 326.557 419.826 326.453 419.907 326.313C419.987 326.173 420.011 326.008 419.974 325.85C419.31 323.523 418.009 321.428 416.217 319.803C414.426 318.178 412.217 317.088 409.839 316.657Z" fill="#10162F"/>
<path d="M446.624 295.507C444.11 294.613 441.386 294.535 438.827 295.283C436.267 296.031 433.996 297.569 432.324 299.687C430.651 301.805 429.66 304.399 429.484 307.115C429.309 309.831 429.958 312.536 431.343 314.86C431.946 315.868 432.679 316.786 433.524 317.591C433.583 317.648 433.653 317.692 433.728 317.721C433.804 317.75 433.885 317.763 433.965 317.761C434.046 317.758 434.126 317.739 434.199 317.705C434.273 317.67 434.339 317.622 434.394 317.561C434.449 317.501 434.492 317.43 434.521 317.353C434.549 317.275 434.562 317.193 434.56 317.11C434.557 317.028 434.538 316.947 434.505 316.871C434.471 316.796 434.424 316.728 434.365 316.672C432.421 314.796 431.165 312.295 430.807 309.587C430.448 306.879 431.008 304.127 432.394 301.79C433.78 299.453 435.908 297.672 438.422 296.745C440.937 295.818 443.686 295.8 446.212 296.694C446.366 296.75 446.536 296.741 446.683 296.669C446.831 296.597 446.944 296.468 446.999 296.311C447.053 296.154 447.045 295.98 446.974 295.83C446.904 295.679 446.778 295.563 446.624 295.507Z" fill="#10162F"/>
<path d="M471.604 277.599C466.992 270.048 457.734 268.031 455.092 269.558C452.041 271.317 437.242 280.714 358.06 329.158C357.929 329.249 357.838 329.386 357.805 329.542C357.772 329.698 357.799 329.86 357.881 329.997C357.963 330.133 358.093 330.233 358.246 330.276C358.399 330.319 358.562 330.302 358.702 330.228L365.344 326.173C363.585 329.601 363.047 333.532 363.82 337.311C364.593 341.09 366.63 344.488 369.592 346.94C372.554 349.392 376.261 350.749 380.097 350.785C383.933 350.821 387.666 349.535 390.673 347.139C391.873 350.516 394.112 353.42 397.065 355.43C400.019 357.439 403.532 358.45 407.095 358.314C410.658 358.178 414.085 356.904 416.879 354.676C419.673 352.448 421.688 349.382 422.63 345.923C425.291 347.735 428.412 348.741 431.624 348.822C434.836 348.904 438.004 348.057 440.752 346.384C443.501 344.71 445.714 342.279 447.13 339.378C448.547 336.478 449.106 333.23 448.743 330.019C452.227 330.682 455.829 330.22 459.036 328.699C462.242 327.177 464.888 324.675 466.594 321.55C468.301 318.425 468.981 314.837 468.537 311.3C468.093 307.762 466.548 304.457 464.122 301.856C466.305 300.877 468.255 299.44 469.842 297.642C471.428 295.845 472.615 293.727 473.324 291.431C474.032 289.135 474.245 286.714 473.948 284.329C473.652 281.943 472.853 279.649 471.604 277.599ZM472 291.472C471.263 293.65 470.057 295.637 468.467 297.29C466.877 298.944 464.944 300.224 462.804 301.038C460.677 301.836 458.424 302.242 456.153 302.234C455.988 302.233 455.83 302.294 455.708 302.405C455.586 302.516 455.509 302.669 455.494 302.834C455.488 302.917 455.499 303 455.526 303.079C455.553 303.157 455.595 303.23 455.65 303.292C455.706 303.353 455.773 303.403 455.848 303.439C455.923 303.474 456.004 303.493 456.087 303.496C458.393 303.52 460.685 303.134 462.857 302.356C464.527 304.024 465.798 306.052 466.575 308.286C467.352 310.52 467.613 312.902 467.341 315.253C467.068 317.604 466.268 319.861 465.001 321.856C463.734 323.85 462.034 325.529 460.027 326.766C458.294 327.864 456.357 328.595 454.333 328.914C452.31 329.233 450.243 329.133 448.259 328.621C446.276 328.079 444.402 327.197 442.717 326.014C442.586 325.935 442.43 325.909 442.28 325.939C442.13 325.969 441.996 326.053 441.904 326.176C441.812 326.299 441.768 326.452 441.781 326.605C441.793 326.759 441.862 326.902 441.973 327.008C443.637 328.176 445.475 329.071 447.419 329.658C447.872 332.703 447.421 335.814 446.122 338.601C444.823 341.389 442.734 343.728 440.117 345.326C437.501 346.923 434.473 347.708 431.415 347.58C428.356 347.453 425.403 346.42 422.927 344.611C423.315 342.423 423.357 340.186 423.052 337.985C423.027 337.821 422.939 337.674 422.806 337.576C422.674 337.479 422.508 337.438 422.345 337.463C422.183 337.488 422.037 337.577 421.94 337.71C421.842 337.843 421.802 338.01 421.826 338.173C422.375 340.936 422.179 343.796 421.257 346.457C420.335 349.118 418.722 351.481 416.586 353.303C414.449 355.125 411.866 356.338 409.105 356.817C406.344 357.296 403.506 357.022 400.886 356.026C398.711 355.195 396.751 353.88 395.154 352.179C393.556 350.479 392.362 348.436 391.661 346.205C392.941 344.869 394.048 343.376 394.956 341.762C395.035 341.616 395.053 341.445 395.006 341.287C394.959 341.128 394.852 340.994 394.707 340.915C394.563 340.836 394.393 340.818 394.235 340.865C394.077 340.912 393.944 341.02 393.865 341.165C392.432 344.061 390.114 346.418 387.252 347.892C384.39 349.367 381.133 349.881 377.959 349.359C375.352 348.969 372.886 347.919 370.793 346.307C368.7 344.695 367.049 342.574 365.995 340.144C364.941 337.714 364.518 335.055 364.767 332.415C365.016 329.776 365.927 327.244 367.417 325.056C367.703 324.632 453.23 272.298 455.201 271.072C460.413 267.855 476.793 277.348 472 291.479V291.472Z" fill="#10162F"/>
<path d="M449.82 241.233C448.569 239.197 446.898 237.451 444.918 236.111C442.938 234.771 440.694 233.868 438.337 233.462C435.98 233.057 433.564 233.158 431.249 233.76C428.934 234.361 426.774 235.449 424.914 236.95C424.073 234.599 422.718 232.465 420.948 230.704C419.177 228.942 417.035 227.598 414.678 226.768C412.322 225.938 409.809 225.643 407.324 225.906C404.839 226.169 402.444 226.983 400.314 228.287C396.746 230.489 394.119 233.932 392.938 237.952C390.258 236.168 387.122 235.192 383.902 235.139C380.682 235.086 377.515 235.959 374.777 237.653C372.04 239.347 369.847 241.792 368.462 244.696C367.076 247.599 366.554 250.84 366.96 254.031C363.464 253.313 359.831 253.727 356.586 255.212C353.342 256.696 350.655 259.175 348.917 262.289C347.178 265.402 346.478 268.988 346.917 272.525C347.357 276.063 348.914 279.369 351.361 281.963C347.875 283.561 345.041 286.302 343.33 289.731C341.619 293.16 341.134 297.071 341.955 300.814C342.777 304.557 344.855 307.906 347.846 310.305C350.836 312.705 354.558 314.01 358.394 314.004L351.879 317.958C351.738 318.045 351.638 318.185 351.6 318.346C351.563 318.508 351.591 318.677 351.678 318.818C351.766 318.959 351.905 319.059 352.067 319.097C352.228 319.134 352.398 319.106 352.539 319.019C396.336 292.428 449.929 259.379 450.259 258.826C451.763 256.121 452.515 253.063 452.438 249.97C452.361 246.877 451.457 243.86 449.82 241.233ZM449.161 258.216C448.969 258.546 401.478 287.123 361.092 312.366C360.874 312.51 360.627 312.604 360.37 312.643C356.675 313.127 352.929 312.27 349.813 310.228C346.697 308.187 344.419 305.095 343.391 301.517C342.364 297.939 342.656 294.111 344.215 290.73C345.774 287.349 348.496 284.639 351.886 283.093C353.884 282.339 355.99 281.911 358.123 281.825C358.28 281.813 358.427 281.743 358.535 281.628C358.642 281.513 358.701 281.361 358.701 281.204C358.701 281.046 358.642 280.895 358.535 280.78C358.427 280.664 358.28 280.594 358.123 280.583C356.273 280.66 354.439 280.972 352.668 281.512C350.993 279.855 349.717 277.839 348.936 275.617C348.156 273.395 347.891 271.024 348.163 268.685C348.434 266.346 349.234 264.099 350.503 262.114C351.771 260.129 353.475 258.458 355.485 257.227C358.245 255.579 361.438 254.795 364.649 254.979C367.86 255.162 370.943 256.303 373.497 258.256C373.631 258.352 373.798 258.391 373.961 258.364C374.123 258.338 374.269 258.248 374.365 258.114C374.461 257.98 374.5 257.814 374.474 257.651C374.447 257.489 374.357 257.343 374.223 257.247C372.408 255.981 370.404 255.009 368.286 254.367C367.805 251.342 368.23 248.242 369.508 245.457C370.786 242.672 372.859 240.326 375.468 238.715C378.076 237.104 381.103 236.299 384.168 236.401C387.233 236.503 390.199 237.508 392.694 239.289C392.33 241.288 392.29 243.331 392.576 245.342C392.612 245.497 392.705 245.632 392.837 245.72C392.97 245.807 393.13 245.842 393.287 245.815C393.443 245.789 393.584 245.704 393.68 245.577C393.776 245.451 393.82 245.292 393.803 245.135C393.162 241.266 394.011 237.298 396.178 234.029C398.346 230.76 401.671 228.431 405.487 227.51C409.303 226.589 413.326 227.145 416.748 229.065C420.171 230.985 422.739 234.128 423.937 237.863C422.268 239.453 420.885 241.319 419.851 243.379C419.58 243.975 420.408 245.026 421.256 243.402C422.214 241.551 423.506 239.892 425.065 238.508C426.761 236.969 428.776 235.823 430.966 235.151C433.157 234.479 435.468 234.298 437.736 234.621C440.005 234.945 442.174 235.764 444.089 237.021C446.003 238.278 447.617 239.941 448.814 241.892C450.301 244.343 451.116 247.142 451.177 250.008C451.238 252.873 450.543 255.704 449.161 258.216Z" fill="#10162F"/>
<path d="M383.525 266.523C383.405 266.421 383.251 266.37 383.096 266.379C382.94 266.389 382.794 266.459 382.687 266.575C382.579 266.691 382.519 266.844 382.517 267.004C382.515 267.165 382.572 267.319 382.677 267.438C384.615 269.328 385.863 271.846 386.21 274.569C386.558 277.292 385.984 280.055 384.585 282.395C383.187 284.734 381.048 286.509 378.528 287.421C376.008 288.333 373.259 288.327 370.743 287.404C370.593 287.361 370.433 287.378 370.294 287.452C370.156 287.525 370.049 287.65 369.997 287.801C369.944 287.952 369.949 288.118 370.011 288.265C370.073 288.412 370.186 288.53 370.329 288.594C373.111 289.615 376.149 289.622 378.935 288.614C381.722 287.606 384.086 285.645 385.633 283.058C387.179 280.471 387.814 277.417 387.43 274.406C387.046 271.396 385.668 268.612 383.525 266.523Z" fill="#10162F"/>
<path d="M421.465 256.025C421.091 258.764 419.803 261.289 417.816 263.181C415.829 265.073 413.263 266.217 410.546 266.421C407.829 266.626 405.125 265.879 402.885 264.305C400.645 262.732 399.004 260.427 398.235 257.774C398.189 257.611 398.081 257.474 397.935 257.393C397.789 257.311 397.617 257.292 397.457 257.339C397.297 257.386 397.162 257.496 397.082 257.644C397.001 257.792 396.982 257.967 397.029 258.129C397.875 261.063 399.688 263.613 402.164 265.353C404.64 267.094 407.629 267.92 410.633 267.694C413.637 267.467 416.473 266.202 418.668 264.109C420.863 262.016 422.285 259.222 422.695 256.194C422.695 256.041 422.639 255.893 422.54 255.777C422.44 255.662 422.303 255.587 422.153 255.567C422.003 255.546 421.851 255.581 421.725 255.665C421.598 255.75 421.506 255.877 421.465 256.025Z" fill="#10162F"/>
<path d="M511.268 228.356C470.335 157.698 374.732 147.98 323.196 210.912C309.809 231.303 294.752 250.537 278.181 268.413C278.125 268.473 278.082 268.542 278.053 268.618C278.024 268.695 278.011 268.776 278.013 268.857C278.015 268.939 278.034 269.019 278.067 269.093C278.1 269.167 278.148 269.234 278.207 269.29C278.266 269.346 278.336 269.39 278.411 269.419C278.487 269.448 278.568 269.461 278.649 269.459C278.73 269.456 278.81 269.438 278.884 269.404C278.958 269.371 279.025 269.323 279.08 269.264C295.703 251.371 310.801 232.108 324.214 211.677C324.241 211.638 324.263 211.594 324.279 211.549C375.018 149.827 469.487 158.71 510.194 228.966C550.8 299.056 514.023 389.839 437.597 407.183C412.082 410.397 386.815 415.355 361.972 422.022C361.821 422.071 361.696 422.178 361.621 422.318C361.546 422.458 361.528 422.622 361.57 422.776C361.612 422.929 361.712 423.06 361.848 423.142C361.984 423.224 362.146 423.25 362.3 423.215C386.892 416.265 412.002 411.321 437.387 408.433C437.473 408.451 437.563 408.451 437.65 408.433C515.159 391.029 552.267 299.132 511.268 228.356Z" fill="#10162F"/>
<path d="M377.694 137.922C357.206 152.12 319.789 174.998 275.812 181.968C272.442 182.506 268.285 181.727 265.723 184.015C257.631 191.243 255.965 216.462 235.983 217.01C233.2 224.017 230.695 230.812 227.982 236.603C228.934 235.283 232.182 234.622 236.924 234.583C245.137 234.761 253.306 235.813 261.295 237.719C274.586 240.691 285.617 244.907 289.959 248.368C291.403 249.517 292.11 250.59 291.899 251.504C296.423 241.781 294.655 231.901 291.681 221.62C327.541 214.702 377.225 189.381 401.061 168.549C399.167 156.63 388.613 144.073 377.694 137.922Z" fill="#FFD644"/>
<path d="M314.447 438.357C314.416 438.283 314.37 438.216 314.312 438.159C314.255 438.103 314.187 438.058 314.112 438.027C314.037 437.997 313.957 437.981 313.877 437.982C313.796 437.982 313.716 437.999 313.641 438.03C285.812 449.329 258.522 463.178 230.735 477.62C232.967 473.475 232.885 466.059 230.406 456.09C226.799 442.847 221.581 430.092 214.868 418.11L313.556 358.434C313.697 358.347 313.797 358.208 313.835 358.048C313.873 357.887 313.845 357.718 313.758 357.578C313.671 357.438 313.531 357.338 313.37 357.3C313.209 357.262 313.039 357.29 312.898 357.376L214.289 417.004C212.406 413.576 210.548 410.39 208.632 407.267L311.603 344.919C311.744 344.832 311.845 344.693 311.882 344.532C311.92 344.372 311.893 344.203 311.806 344.062C311.718 343.922 311.579 343.822 311.418 343.784C311.256 343.747 311.087 343.774 310.946 343.861L207.984 406.216C200.986 394.581 192.597 383.835 183.002 374.212C175.254 366.793 168.623 362.995 163.85 363.158C190.477 343.593 211.959 328.335 232.296 312.083C232.416 311.978 232.491 311.83 232.505 311.671C232.518 311.512 232.47 311.355 232.369 311.23C232.269 311.106 232.124 311.026 231.965 311.005C231.807 310.985 231.646 311.026 231.517 311.12C203.829 333.263 161.937 362.576 160.448 364.16C151.011 369.995 158.246 399.766 177.039 432.209C193.915 461.348 213.582 481.372 224.509 481.372C225.972 481.406 227.407 480.97 228.602 480.128C310.732 437.375 315.269 440.351 314.447 438.357Z" fill="#10162F"/>
<path d="M560.419 447.77C560.433 447.651 560.413 447.531 560.36 447.423C560.307 447.316 560.224 447.226 560.122 447.165C560.019 447.104 559.901 447.074 559.782 447.079C559.662 447.084 559.547 447.124 559.45 447.194C549.494 454.197 536.002 446.118 527.742 460.192C520.424 462.21 513.229 464.651 506.191 467.503C506.052 467.51 505.919 467.565 505.815 467.658C504.908 468.042 503.983 468.441 503.032 468.864C482.078 478.178 454.247 493.795 456.498 498.91C456.672 499.22 456.916 499.486 457.21 499.686C457.505 499.886 457.841 500.014 458.193 500.061C465.26 501.797 491.271 492.807 509.942 484.514C517.908 480.913 525.595 476.719 532.938 471.966C547.216 474.603 558.447 462.2 560.419 447.77ZM509.434 483.366C483.122 495.066 458.966 501.409 457.626 498.411C456.287 495.414 477.225 481.697 503.535 470.001C504.343 469.64 505.14 469.294 505.92 468.964L511.801 482.302C511.035 482.646 510.248 483.004 509.434 483.366ZM512.924 481.758L507.074 468.469C513.854 465.746 520.778 463.403 527.815 461.449L532.047 471.057C525.876 474.979 519.492 478.552 512.924 481.758Z" fill="#10162F"/>
<path d="M579.602 185.722L587.418 168.282H573.396C573.294 168.275 573.195 168.243 573.107 168.191C573.019 168.138 572.944 168.066 572.889 167.98C572.835 167.893 572.801 167.795 572.79 167.694C572.78 167.592 572.794 167.489 572.831 167.394L581.048 149.105C581.115 148.955 581.239 148.838 581.393 148.78C581.546 148.721 581.717 148.726 581.867 148.793C582.017 148.86 582.134 148.984 582.192 149.137C582.251 149.29 582.246 149.46 582.179 149.61L574.366 167.049H588.388C588.493 167.053 588.595 167.082 588.686 167.135C588.777 167.187 588.853 167.262 588.907 167.351C589.177 167.767 589.601 166.534 580.749 186.227C580.682 186.379 580.557 186.498 580.402 186.558C580.247 186.618 580.074 186.614 579.922 186.547C579.77 186.48 579.651 186.355 579.591 186.201C579.531 186.046 579.535 185.874 579.602 185.722Z" fill="#10162F"/>
<path d="M289.593 553.271L273.874 553.751L273.412 537.417C273.398 537.257 273.325 537.108 273.209 537.002C273.093 536.896 272.942 536.839 272.787 536.844C272.633 536.848 272.485 536.914 272.375 537.027C272.265 537.141 272.201 537.293 272.195 537.454L272.657 553.788L256.935 554.267C256.781 554.281 256.638 554.355 256.535 554.474C256.432 554.593 256.376 554.749 256.378 554.909C256.38 555.069 256.441 555.223 256.548 555.338C256.655 555.454 256.8 555.523 256.954 555.532L272.692 555.052L273.154 571.386C273.158 571.551 273.224 571.707 273.337 571.821C273.451 571.936 273.603 572 273.761 572C273.925 571.997 274.081 571.927 274.195 571.805C274.31 571.684 274.373 571.52 274.371 571.349L273.91 555.015L289.631 554.536C289.786 554.52 289.928 554.444 290.03 554.323C290.133 554.202 290.187 554.045 290.182 553.885C290.177 553.724 290.113 553.571 290.004 553.457C289.895 553.343 289.747 553.277 289.593 553.271Z" fill="#10162F"/>
<path d="M320.712 20.2311H310.135C307.69 20.2417 305.34 19.2885 303.597 17.579C301.853 15.8695 300.857 13.5422 300.826 11.1038V0.634094C300.826 -0.0568675 299.579 -0.352994 299.582 0.634094V11.1137C299.607 13.5614 298.658 15.9191 296.943 17.6705C295.229 19.4219 292.888 20.4243 290.434 20.4581H279.943C279.786 20.4695 279.639 20.5398 279.532 20.6549C279.425 20.7699 279.365 20.9212 279.365 21.0783C279.365 21.2354 279.425 21.3867 279.532 21.5018C279.639 21.6168 279.786 21.6871 279.943 21.6985H290.5C292.944 21.6923 295.291 22.6475 297.033 24.357C298.775 26.0664 299.77 28.3921 299.803 30.8291V41.2988C299.803 41.4629 299.868 41.6202 299.985 41.7362C300.101 41.8522 300.259 41.9174 300.423 41.9174C300.588 41.9174 300.746 41.8522 300.862 41.7362C300.978 41.6202 301.044 41.4629 301.044 41.2988V30.8192C301.019 28.3701 301.969 26.0111 303.684 24.2589C305.4 22.5068 307.743 21.5045 310.198 21.4715H320.695C320.853 21.4624 321.001 21.3941 321.11 21.2804C321.219 21.1668 321.28 21.0162 321.283 20.8589C321.285 20.7017 321.227 20.5496 321.121 20.4331C321.015 20.3166 320.869 20.2444 320.712 20.2311ZM300.377 27.2723C299.838 25.8287 298.988 24.5206 297.887 23.4405C296.785 22.3603 295.46 21.5343 294.004 21.0207C295.451 20.483 296.762 19.6351 297.846 18.5367C298.929 17.4383 299.757 16.1163 300.272 14.6639C300.811 16.1075 301.661 17.4156 302.762 18.4957C303.863 19.5759 305.189 20.4019 306.645 20.9155C305.198 21.4532 303.886 22.3011 302.803 23.3995C301.72 24.4979 300.892 25.8199 300.377 27.2723Z" fill="#10162F"/>
<path d="M55.1922 581.758L74.2534 572.03C74.3997 571.965 74.5688 571.952 74.726 571.993C74.8833 572.033 75.0168 572.125 75.0994 572.249C75.182 572.373 75.2073 572.52 75.1703 572.66C75.1332 572.8 75.0366 572.922 74.9001 573.002C59.4061 580.9 56.4822 582.447 55.7947 582.742C55.6477 582.797 55.4826 582.802 55.3319 582.755C55.1812 582.709 55.0558 582.615 54.9803 582.491C54.9048 582.368 54.8847 582.224 54.9239 582.089C54.9631 581.953 55.0588 581.835 55.1922 581.758Z" fill="#10162F"/>
<path d="M180.049 478.926C171.233 452.545 157.279 428.183 138.995 407.253C128.496 395.764 120.431 387.933 112.346 391.759C107.448 394.453 106.233 398.266 107.057 403.892C105.66 402.133 103.712 400.898 101.529 400.385C99.3456 399.873 97.0536 400.113 95.0231 401.067C92.9925 402.021 91.342 403.633 90.3381 405.643C89.3342 407.654 89.0355 409.944 89.4902 412.146C87.89 410.836 85.9231 410.057 83.8618 409.917C81.8005 409.777 79.7467 410.283 77.9849 411.365C76.2231 412.446 74.8404 414.051 74.0283 415.955C73.2161 417.86 73.0147 419.97 73.4519 421.994C71.9418 420.761 70.1003 420.004 68.1608 419.821C66.2213 419.637 64.2712 420.035 62.5577 420.964C31.0409 438.482 55.0622 425.425 16.1882 447.555C16.0454 447.637 15.9409 447.772 15.8976 447.931C15.8544 448.09 15.876 448.26 15.9576 448.403C16.0393 448.546 16.1744 448.651 16.3331 448.694C16.4918 448.738 16.6612 448.716 16.804 448.634L41.9153 434.332C36.9359 444.194 44.5862 471.108 61.2601 500.234L1.12138 535.818C0.979886 535.902 0.877494 536.039 0.836732 536.198C0.795969 536.358 0.820175 536.527 0.904025 536.669C0.987875 536.811 1.1245 536.914 1.28384 536.955C1.44319 536.995 1.6122 536.971 1.75369 536.887L61.8694 501.323C78.6651 530.311 98.1219 550.45 109.118 551.004L86.7502 564.065C86.6181 564.153 86.5246 564.289 86.4888 564.444C86.4529 564.599 86.4774 564.761 86.5573 564.899C86.6372 565.036 86.7664 565.138 86.9186 565.183C87.0707 565.228 87.2343 565.213 87.3759 565.142L132.201 539.023C133.666 537.859 134.778 536.307 135.411 534.543C136.044 532.779 136.173 530.873 135.784 529.039C137.387 530.324 139.346 531.081 141.394 531.207C143.442 531.333 145.479 530.823 147.227 529.745C148.975 528.667 150.348 527.075 151.159 525.185C151.971 523.296 152.18 521.201 151.76 519.188C153.017 520.192 154.494 520.883 156.069 521.205C157.645 521.526 159.274 521.47 160.823 521.04C162.103 520.66 163.295 520.027 164.327 519.179C165.36 518.33 166.214 517.284 166.837 516.1C167.461 514.917 167.842 513.62 167.959 512.287C168.076 510.953 167.926 509.61 167.518 508.336C169.263 509.631 171.342 510.398 173.509 510.546C175.676 510.693 177.839 510.215 179.743 509.168C187.782 504.073 184.709 494.07 180.049 478.926ZM179.091 508.114C176.923 509.224 174.439 509.542 172.063 509.014C169.687 508.486 167.569 507.146 166.072 505.222C165.977 505.096 165.838 505.011 165.683 504.985C165.528 504.958 165.368 504.992 165.237 505.079C165.105 505.166 165.012 505.3 164.976 505.454C164.94 505.607 164.963 505.769 165.042 505.906C165.888 507.112 166.441 508.5 166.656 509.96C166.87 511.419 166.74 512.908 166.276 514.308C165.825 515.627 165.064 516.818 164.058 517.781C163.051 518.744 161.829 519.451 160.493 519.841C158.697 520.348 156.786 520.269 155.037 519.616C153.288 518.963 151.791 517.77 150.762 516.21C150.162 515.239 149.086 516.091 149.494 516.768C150.711 518.738 151.097 521.112 150.567 523.367C150.038 525.623 148.637 527.575 146.672 528.795C144.706 530.015 142.338 530.402 140.088 529.871C137.838 529.341 135.891 527.936 134.674 525.966C134.065 525.348 133.136 526.029 133.531 526.689C134.615 528.508 135.003 530.66 134.621 532.745C134.24 534.829 133.117 536.704 131.46 538.02L115.823 547.096C124.844 529.205 92.5727 463.286 62.9496 437.898C59.1722 434.732 53.5571 430.684 48.6633 430.42L63.1538 422.07C65.1188 421.025 67.4085 420.775 69.5522 421.37C71.696 421.965 73.531 423.36 74.6803 425.269C74.7812 425.41 74.9316 425.506 75.1009 425.539C75.2703 425.572 75.4458 425.539 75.5918 425.447C75.7378 425.355 75.8433 425.211 75.8869 425.043C75.9304 424.876 75.9088 424.698 75.8263 424.546C74.6117 422.597 74.2126 420.247 74.7155 418.004C75.2184 415.762 76.5827 413.809 78.5126 412.568C80.4425 411.328 82.7824 410.9 85.0248 411.378C87.2672 411.856 89.2314 413.201 90.4913 415.121C90.9261 415.781 92.2829 415.411 91.8087 414.612C91.1017 413.463 90.6739 412.164 90.5594 410.82C90.445 409.475 90.6473 408.122 91.15 406.87C91.7673 405.292 92.8305 403.928 94.2093 402.946C95.5881 401.965 97.2227 401.408 98.9126 401.344C100.603 401.28 102.274 401.711 103.723 402.585C105.172 403.46 106.335 404.739 107.07 406.266C107.142 406.391 107.508 407.032 107.728 407.395C108.272 408.293 109.026 407.692 108.944 407.088C107.462 400.564 107.238 395.988 112.896 392.875C120.194 389.438 128.272 397.368 138.076 408.095C156.24 428.886 170.103 453.088 178.86 479.295C183.514 494.407 186.313 503.532 179.091 508.114Z" fill="#10162F"/>
<path d="M132.765 275.046C133.292 264.852 130.349 254.78 124.413 246.462C118.477 238.144 109.897 232.067 100.063 229.218C90.2286 226.369 79.7171 226.913 70.2323 230.763C60.7475 234.614 52.8454 241.544 47.8069 250.43C37.9868 249.236 21.7954 248.187 20.1339 253.907C18.2937 260.244 35.9248 268.877 41.9618 271.721C41.7419 281.719 44.8477 291.509 50.7949 299.563C56.7421 307.618 65.1964 313.485 74.8394 316.249C84.4824 319.012 94.772 318.518 104.104 314.843C113.435 311.168 121.285 304.518 126.427 295.931C160.183 299.992 163.374 289.637 132.765 275.046ZM88.2655 228.681C95.9304 228.848 103.421 230.996 110.002 234.916C116.583 238.836 122.029 244.392 125.808 251.041C129.586 257.69 131.566 265.204 131.554 272.845C131.542 280.487 129.538 287.994 125.739 294.631C97.2786 290.534 69.5174 282.562 43.2328 270.939C43.6949 259.422 48.6702 248.545 57.0902 240.644C65.5102 232.742 76.7033 228.447 88.2655 228.681ZM21.3354 254.254C22.3283 250.839 32.1881 249.836 47.1516 251.615C44.084 257.419 42.3253 263.822 41.9982 270.375C37.1263 268.049 19.8327 259.433 21.3354 254.254ZM55.5253 303.234C47.4825 294.94 43.0535 283.815 43.203 272.282C69.2982 283.764 96.8382 291.657 125.067 295.746C121.532 301.481 116.727 306.332 111.019 309.929C105.311 313.526 98.8529 315.771 92.1393 316.494C85.4256 317.217 78.635 316.398 72.2882 314.1C65.9415 311.801 60.2072 308.084 55.5253 303.234ZM152.501 292.081C151.509 295.439 142.132 296.518 127.092 294.793C130.269 289.13 132.177 282.849 132.686 276.382C146.09 282.838 153.484 288.673 152.495 292.074L152.501 292.081Z" fill="#1E102F"/>
<path d="M435.699 112.525C426.579 117.098 417.232 121.207 407.695 124.837C408.841 122.936 410.251 119.949 408.834 118.522C406.611 116.278 383.38 136.452 380.189 139.245C379.293 138.638 378.358 138.089 377.392 137.6C375.529 137.413 332.861 172.396 275.373 181.478C274.671 181.583 273.965 181.649 273.256 181.676C269.623 180.798 270.406 179.291 269.293 176.248C273.682 175.534 280.413 173.982 281.817 171.031C285.503 163.288 275.588 142.65 271.624 133.301C266.541 121.311 238.055 126.906 214.817 138.127C195.357 147.525 179.583 160.867 184.313 171.13C186.74 176.393 194.551 178.449 205.824 176.962C194.923 181.265 185.132 187.952 177.172 196.528C145.244 233.041 208.879 237.896 246.282 193.548C240.983 202.586 236.547 212.099 233.032 221.962C227.922 235.018 226.885 236.521 226.789 236.939C226.215 239.514 230.753 242.054 233.111 243.255C231.49 246.762 229.061 249.839 226.023 252.238C201.616 271.557 200.4 298.909 218.47 319.886L219.461 319.129C201.85 298.735 202.887 272.139 226.803 253.212C228.608 251.786 230.214 250.127 231.578 248.278C249.104 248.039 266.365 252.553 281.513 261.337C280.363 263.179 279.065 265.208 277.592 267.478C273.121 265.327 268.537 263.224 263.843 261.169C263.695 261.116 263.531 261.121 263.387 261.184C263.242 261.246 263.126 261.36 263.062 261.504C262.999 261.648 262.992 261.81 263.044 261.958C263.096 262.107 263.202 262.23 263.341 262.304C292.415 274.617 319.552 291.046 343.912 311.083C349.747 315.997 354.464 322.092 357.749 328.963C361.033 335.834 362.811 343.323 362.962 350.932C363.418 372.418 362.784 396.293 360.914 426.339C345.617 429.818 329.653 429.031 314.775 424.066C315.198 404.658 314.445 385.787 313.721 366.201C320.575 346.695 320.327 347.55 320.327 347.218C320.322 347.117 320.291 347.019 320.237 346.933C320.184 346.847 320.109 346.777 320.02 346.728C319.874 346.652 312.833 344.047 312.681 343.988C311.548 343.497 265.346 323.458 238.854 315.149C230.928 312.665 224.322 303.024 222.42 291.159C222.388 291.002 222.296 290.863 222.164 290.772C222.032 290.681 221.87 290.644 221.711 290.669C221.552 290.694 221.409 290.779 221.311 290.906C221.214 291.034 221.17 291.194 221.188 291.353C223.17 303.672 230.105 313.721 238.481 316.333C263.85 324.29 307.393 343.05 311.835 344.974C312.301 370.106 314.147 396.451 313.51 424.435C313.505 424.477 313.505 424.52 313.51 424.563C312.955 448.773 311.568 449.421 312.631 449.833C314.547 450.566 316.416 451.211 318.21 451.75C318.395 461.76 315.214 467.096 317.946 473.605C319.573 477.307 321.916 480.654 324.842 483.454C336.857 495.517 346.64 530.957 355.227 525.411C356.727 524.424 357.899 520.227 355.227 496.392C354.105 481.721 354.27 466.981 355.719 452.339C357.162 451.918 358.629 451.434 360.089 450.892C360.201 450.851 360.298 450.778 360.37 450.683C360.441 450.588 360.484 450.474 360.492 450.356C363.623 408.517 364.762 377.843 364.191 350.902C364.035 343.119 362.217 335.457 358.857 328.428C355.497 321.399 350.673 315.163 344.704 310.136C324.544 293.441 302.383 279.301 278.729 268.037C281.486 263.781 284.723 258.692 287.203 254.245C290.136 253.807 291.794 252.912 292.138 251.587C296.431 242.376 295.259 233.1 292.118 222.087C329.475 214.709 378.482 188.863 401.053 169.202C401.132 169.133 401.192 169.044 401.228 168.945C401.264 168.847 401.274 168.74 401.258 168.636C401.029 167.205 400.698 165.791 400.267 164.406C403.782 160.69 407.753 157.431 412.087 154.706C413.689 155.575 415.485 156.027 417.309 156.021C423.353 156.021 429.07 151.136 429.453 147.354C429.53 146.461 429.306 145.568 428.816 144.817C429.523 144.404 430.133 143.842 430.602 143.171C431.071 142.501 431.389 141.737 431.534 140.933C431.598 140.217 431.478 139.496 431.185 138.839C430.893 138.182 430.438 137.61 429.863 137.176C430.354 136.519 430.631 135.728 430.657 134.909C430.683 134.091 430.456 133.284 430.008 132.597C428.842 131.241 427.394 130.153 425.764 129.408C424.134 128.664 422.362 128.28 420.569 128.285C432.406 122.12 437.466 115.265 437.568 113.304C437.611 112.452 436.884 111.841 435.699 112.525ZM359.289 449.849C344.427 455.131 328.13 454.767 313.52 448.826C314.18 440.898 314.55 433.076 314.739 425.346C329.611 430.244 345.54 431.028 360.825 427.612C360.383 434.671 359.871 442.066 359.289 449.849ZM408.032 119.495C408.847 120.676 406.552 124.518 405.72 125.591C399.791 127.52 394.119 130.16 388.829 133.452C396.68 126.952 406.215 119.679 408.032 119.495ZM248.908 191.847C256.035 181.383 259.589 167.061 261.313 154.584C261.328 154.479 261.316 154.372 261.277 154.274C261.238 154.175 261.174 154.088 261.092 154.021C252.772 147.219 257.238 141.324 261.716 145.867C264.665 148.86 268.741 147.683 265.31 138.11C267.3 137.244 269.214 136.216 271.033 135.035C279.544 154.863 282.504 164.541 281.14 169.284C279.785 173.972 268.097 168.255 263.724 165.995C263.612 165.938 263.485 165.916 263.36 165.932C263.235 165.948 263.118 166.001 263.024 166.085C262.93 166.168 262.863 166.278 262.833 166.4C262.803 166.522 262.811 166.651 262.856 166.768C264.022 170.127 265.725 173.276 267.899 176.094C268.949 178.511 268.586 180.472 270.432 181.827C268.456 181.818 266.534 182.471 264.976 183.682C256.792 190.962 255.299 215.031 236.602 216.347C239.814 207.766 243.939 199.552 248.908 191.847ZM282.173 260.297C267.085 251.523 249.905 246.952 232.434 247.064C234.698 243.399 236.281 239.359 237.107 235.136C251.478 235.136 279.541 241.574 288.832 248.439C286.82 252.504 284.598 256.462 282.173 260.297ZM280.829 222.501C280.671 222.518 280.524 222.593 280.42 222.714C280.316 222.834 280.262 222.989 280.269 223.148C280.276 223.306 280.344 223.456 280.459 223.567C280.573 223.677 280.726 223.74 280.885 223.741H280.941C283.977 223.465 287.322 222.988 290.893 222.324C293.799 232.488 294.998 241.103 291.679 249.505C287.98 243.833 267.783 238.534 261.102 237.044C252.799 235.035 244.291 233.986 235.747 233.916C233.503 233.88 231.268 234.198 229.125 234.86C231.436 229.699 233.6 223.912 236.097 217.623C256.062 216.732 258.004 191.551 265.821 184.61C268.173 182.508 272.232 183.261 275.584 182.719C308.523 177.515 342.759 162.791 377.346 138.969C387.706 144.913 397.938 156.554 399.986 168.508C373.802 191.156 316.918 219.232 280.829 222.501ZM417.95 128.209C416.362 128.25 414.783 128.453 413.237 128.814C413.085 128.861 412.957 128.963 412.879 129.1C412.8 129.237 412.777 129.398 412.813 129.552C412.85 129.705 412.943 129.839 413.075 129.926C413.207 130.014 413.368 130.048 413.524 130.021C422.006 128.028 431.841 131.785 428.879 136.413C426.662 135.157 424.218 134.35 421.688 134.037C419.157 133.723 416.589 133.91 414.132 134.587C414.052 134.606 413.977 134.64 413.911 134.687C413.844 134.735 413.788 134.795 413.745 134.864C413.702 134.933 413.673 135.01 413.66 135.091C413.646 135.171 413.649 135.253 413.668 135.332C413.686 135.412 413.721 135.486 413.768 135.553C413.816 135.619 413.876 135.675 413.946 135.718C414.015 135.761 414.092 135.789 414.173 135.803C414.254 135.816 414.336 135.813 414.416 135.794C419.178 134.676 425.741 135.012 429.146 138.196C429.532 138.489 429.84 138.872 430.044 139.311C430.247 139.75 430.339 140.233 430.312 140.715C430.176 141.367 429.905 141.982 429.514 142.522C429.124 143.061 428.624 143.513 428.046 143.847C424.79 140.541 418.376 140.419 413.765 141.347C413.61 141.387 413.476 141.484 413.391 141.619C413.306 141.754 413.276 141.917 413.308 142.073C413.34 142.229 413.431 142.367 413.562 142.459C413.693 142.55 413.854 142.588 414.013 142.564C420.509 141.248 424.948 142.706 426.937 144.502C427.352 144.821 427.685 145.235 427.908 145.709C428.131 146.183 428.237 146.703 428.218 147.225C427.806 148.6 427.095 149.867 426.137 150.938C425.179 152.009 423.996 152.857 422.673 153.423C421.259 154.206 419.686 154.659 418.071 154.75C416.456 154.84 414.842 154.566 413.349 153.946C415.915 152.383 418.66 151.135 421.527 150.229C421.684 150.214 421.83 150.141 421.935 150.024C422.041 149.906 422.097 149.754 422.094 149.596C422.091 149.439 422.028 149.289 421.917 149.176C421.807 149.063 421.658 148.996 421.5 148.988C413.16 151.721 405.684 156.582 399.818 163.087C396.08 153.738 389.632 145.709 381.296 140.025C388.231 134.761 395.911 130.548 404.085 127.525C415.041 123.49 425.769 118.865 436.221 113.67C435.477 115.574 430.474 122.179 417.946 128.209H417.95Z" fill="#10162F"/>
</svg>
