<svg width="656" height="815" viewBox="0 0 656 815" fill="none" xmlns="http://www.w3.org/2000/svg">
<path d="M398.87 564.684C395.243 576.087 382.863 624.599 378.498 639.588L279.227 615.796L297.618 533.115C297.66 532.929 297.625 532.734 297.52 532.572C297.416 532.411 297.25 532.297 297.061 532.255C296.871 532.214 296.672 532.247 296.509 532.35C296.345 532.452 296.229 532.614 296.188 532.8L277.803 615.455L271.659 613.983C271.566 613.961 271.469 613.957 271.374 613.971C271.279 613.986 271.188 614.018 271.106 614.067C271.024 614.116 270.952 614.181 270.896 614.257C270.839 614.333 270.799 614.42 270.776 614.512C270.754 614.604 270.75 614.699 270.765 614.792C270.78 614.886 270.814 614.975 270.864 615.056C270.914 615.137 270.98 615.207 271.058 615.263C271.136 615.319 271.224 615.359 271.317 615.381C386.176 642.703 379.112 641.667 379.658 640.755C380.311 639.147 397.992 572.215 400.257 565.117C400.293 564.944 400.261 564.763 400.169 564.611C400.077 564.458 399.931 564.344 399.759 564.29C399.587 564.236 399.401 564.247 399.237 564.319C399.073 564.392 398.942 564.522 398.87 564.684Z" fill="#10162F"/>
<path d="M354.285 748.168C354.579 745.295 354.022 742.399 352.682 739.833C351.342 737.267 349.278 735.143 346.742 733.72C350.288 733.437 353.615 731.912 356.128 729.418C358.641 726.924 360.176 723.623 360.459 720.106C360.742 716.589 359.754 713.085 357.672 710.22C355.59 707.354 352.55 705.315 349.094 704.466C348.746 704.042 356.762 706.161 176.612 662.748C173.074 661.605 169.236 661.809 165.846 663.318C162.455 664.828 159.755 667.535 158.27 670.914C156.784 674.292 156.621 678.1 157.811 681.596C159.001 685.092 161.46 688.026 164.708 689.827C161.497 690.068 158.452 691.33 156.024 693.424C153.595 695.517 151.913 698.332 151.226 701.452C150.539 704.571 150.885 707.828 152.211 710.741C153.537 713.654 155.773 716.068 158.588 717.624C154.994 717.914 151.628 719.482 149.111 722.039C146.594 724.597 145.095 727.971 144.89 731.542C144.686 735.113 145.789 738.639 147.997 741.471C150.204 744.303 153.368 746.25 156.906 746.954L330.516 788.993C332.539 789.407 334.626 789.394 336.642 788.955C338.658 788.517 340.558 787.662 342.219 786.448C344.251 784.983 345.878 783.033 346.949 780.779C348.021 778.525 348.502 776.038 348.35 773.549C348.197 771.059 347.415 768.647 346.076 766.534C344.737 764.421 342.883 762.675 340.686 761.458C344.16 761.157 347.417 759.665 349.898 757.24C352.379 754.815 353.93 751.607 354.285 748.168Z" fill="#10162F"/>
<path d="M509.878 372.523C509.628 372.492 509.387 372.431 509.176 372.346C508.965 372.261 508.79 372.155 508.666 372.036C508.542 371.918 508.472 371.79 508.463 371.664C508.454 371.538 508.505 371.417 508.613 371.312C508.705 371.23 508.834 371.162 508.992 371.111C509.15 371.061 509.332 371.03 509.527 371.02C509.723 371.01 509.926 371.022 510.125 371.055C510.323 371.088 510.512 371.14 510.679 371.209C510.968 371.313 511.194 371.459 511.319 371.622C511.445 371.785 511.462 371.956 511.37 372.108C511.277 372.26 511.08 372.383 510.809 372.459C510.538 372.534 510.21 372.557 509.878 372.523Z" fill="#10162F"/>
<path d="M243.779 607.823L179.998 592.665C181.47 581.994 190.727 535.434 191.759 526.747C191.771 526.652 191.764 526.557 191.738 526.465C191.713 526.374 191.67 526.288 191.611 526.213C191.553 526.139 191.48 526.077 191.398 526.031C191.315 525.984 191.225 525.955 191.131 525.945C190.943 525.927 190.755 525.983 190.607 526.101C190.458 526.219 190.361 526.39 190.333 526.578C189.214 535.971 178.158 591.264 178.497 593.389C178.517 593.481 178.555 593.567 178.609 593.644C178.906 594.041 243.915 609.348 243.541 609.259C243.73 609.291 243.924 609.246 244.08 609.133C244.236 609.021 244.341 608.851 244.373 608.66C244.404 608.47 244.36 608.275 244.248 608.118C244.137 607.96 243.968 607.855 243.779 607.823Z" fill="#10162F"/>
<path d="M389.381 98.1019C291.639 74.3564 193.922 132.474 173.008 230.766C168.941 249.878 168.034 269.531 170.324 288.933C170.549 290.904 184.671 350.817 190.589 385.308C190.629 385.491 190.737 385.651 190.892 385.756C191.046 385.86 191.235 385.901 191.418 385.87C191.602 385.838 191.766 385.737 191.878 385.587C191.99 385.437 192.039 385.25 192.017 385.064C187.415 358.234 171.972 288.922 171.736 288.504C157.434 165.434 268.591 70.2602 389.036 99.5005C509.574 128.781 570.98 266.396 508.574 370.337C508.52 370.376 508.473 370.422 508.432 370.474C470.841 420.406 448.144 450.569 431.693 480.5C431.605 480.669 431.586 480.866 431.64 481.049C431.695 481.231 431.818 481.385 431.985 481.477C432.151 481.569 432.347 481.592 432.53 481.541C432.713 481.489 432.868 481.368 432.963 481.202C449.33 451.407 471.96 421.331 509.418 371.565C509.519 371.508 509.604 371.425 509.663 371.325C572.817 266.549 510.963 127.637 389.381 98.1019Z" fill="#10162F"/>
<path d="M339.986 238.641L297.512 228.428C291.301 226.792 284.796 226.585 278.498 227.823C272.2 229.061 266.277 231.711 261.185 235.569C256.094 239.427 251.97 244.39 249.13 250.076C246.29 255.762 244.811 262.019 244.806 268.365C244.807 268.557 244.884 268.74 245.02 268.876C245.157 269.011 245.343 269.087 245.536 269.088C245.73 269.088 245.915 269.012 246.052 268.877C246.189 268.743 246.266 268.559 246.266 268.368C246.272 262.24 247.702 256.199 250.445 250.71C253.189 245.221 257.172 240.43 262.09 236.707C267.007 232.983 272.727 230.427 278.808 229.234C284.89 228.041 291.171 228.244 297.167 229.827L339.744 240.058C339.924 240.069 340.102 240.014 340.243 239.903C340.384 239.792 340.479 239.634 340.509 239.458C340.539 239.282 340.502 239.102 340.406 238.951C340.309 238.8 340.159 238.69 339.986 238.641Z" fill="#10162F"/>
<path d="M534.773 373.312C473.855 354.181 431.508 344.99 376.162 339.593L369.258 356.682C358.565 346.984 386.142 302.257 399.385 284.783C432.446 290.345 512.854 306.045 544.404 322.394C546.459 339.952 543.098 357.719 534.773 373.312Z" fill="#FFD644"/>
<path d="M382.652 282.007C369.535 297.729 358.604 315.129 350.152 333.741L300.709 327.601C300.383 312.37 305.436 287.019 308.331 273.276L326.758 275.608C329.085 275.966 331.465 275.754 333.689 274.991C335.884 274.182 337.866 272.893 339.488 271.219L339.527 271.181L358.976 273.164C358.583 276.789 360.561 279.083 366.446 279.783C371.134 280.349 376.592 281.098 382.652 282.007Z" fill="#FFD644"/>
<path d="M284.293 331.172C243.183 326.463 202.041 321.351 155.6 324.394C149.901 307.775 150.444 289.622 157.125 273.36C202.533 269.164 248.21 268.876 293.657 272.5C288.707 291.719 285.571 311.364 284.293 331.172Z" fill="#FFD644"/>
<path d="M134.004 542.997L94.5689 463.951L115.914 471.214C116.096 471.268 116.292 471.251 116.46 471.166C116.629 471.08 116.757 470.934 116.818 470.757C116.879 470.581 116.868 470.387 116.788 470.218C116.707 470.048 116.564 469.916 116.387 469.849L93.3644 462.013C93.2735 461.982 93.1772 461.968 93.081 461.974C92.9849 461.979 92.8908 462.003 92.8042 462.044C92.7177 462.086 92.6404 462.144 92.5768 462.215C92.5132 462.286 92.4646 462.369 92.4338 462.459L84.5548 485.141C84.4946 485.321 84.5088 485.518 84.5945 485.688C84.6802 485.858 84.8303 485.989 85.0125 486.051C85.1946 486.113 85.3941 486.102 85.5677 486.021C85.7413 485.939 85.875 485.793 85.94 485.614L93.2482 464.573L132.686 543.631C132.772 543.804 132.924 543.936 133.108 543.999C133.292 544.061 133.494 544.049 133.669 543.965C133.844 543.881 133.977 543.732 134.04 543.55C134.103 543.369 134.09 543.17 134.004 542.997Z" fill="#10162F"/>
<path d="M425.452 729.776C423.691 729.597 422.023 728.899 420.658 727.771C419.294 726.644 418.294 725.137 417.786 723.441C417.278 721.745 417.285 719.937 417.804 718.245C418.324 716.553 419.334 715.052 420.706 713.934C422.078 712.816 423.752 712.13 425.514 711.962C427.276 711.795 429.048 712.154 430.607 712.994C432.165 713.834 433.439 715.117 434.268 716.681C435.097 718.245 435.444 720.02 435.264 721.781C435.023 724.142 433.854 726.311 432.014 727.811C430.174 729.31 427.813 730.017 425.452 729.776ZM427.111 713.506C425.653 713.357 424.183 713.643 422.887 714.329C421.591 715.015 420.528 716.07 419.832 717.361C419.136 718.651 418.838 720.119 418.976 721.579C419.114 723.038 419.682 724.424 420.608 725.561C421.534 726.698 422.776 727.535 424.178 727.965C425.579 728.396 427.077 728.402 428.481 727.981C429.886 727.561 431.134 726.733 432.068 725.603C433.003 724.473 433.581 723.091 433.729 721.632C433.929 719.676 433.344 717.721 432.103 716.196C430.863 714.671 429.068 713.701 427.112 713.498L427.111 713.506Z" fill="#10162F"/>
<path d="M191.364 136.107C190.971 136.067 192.429 137.061 165.939 116.965C165.781 116.844 165.676 116.664 165.647 116.463C165.618 116.261 165.667 116.056 165.785 115.891C165.902 115.727 166.077 115.617 166.272 115.586C166.467 115.554 166.665 115.604 166.823 115.724L191.868 134.705C192.002 134.802 192.102 134.943 192.15 135.105C192.199 135.268 192.194 135.443 192.137 135.603C192.079 135.763 191.972 135.899 191.832 135.99C191.692 136.082 191.528 136.123 191.364 136.107Z" fill="#10162F"/>
<path d="M317.327 53.9925L309.973 24.6935C309.926 24.5066 309.965 24.3132 310.083 24.1559C310.2 23.9985 310.386 23.8901 310.598 23.8544C310.811 23.8188 311.034 23.8589 311.217 23.9658C311.401 24.0728 311.53 24.2379 311.577 24.4248L318.931 53.7238C318.978 53.9107 318.938 54.1041 318.821 54.2614C318.703 54.4188 318.518 54.5272 318.305 54.5629C318.092 54.5985 317.87 54.5584 317.686 54.4515C317.503 54.3445 317.374 54.1794 317.327 53.9925Z" fill="#10162F"/>
<path d="M474.374 80.9983C474.246 80.9844 474.123 80.9378 474.018 80.8631C473.913 80.7884 473.83 80.688 473.776 80.5719C473.721 80.4557 473.698 80.3277 473.709 80.2003C473.72 80.0729 473.763 79.9504 473.836 79.8448L491.405 54.6424C491.517 54.4815 491.689 54.3713 491.883 54.3361C492.077 54.3009 492.277 54.3435 492.44 54.4546C492.603 54.5657 492.714 54.7362 492.75 54.9285C492.786 55.1208 492.744 55.3193 492.632 55.4802C473.859 82.3829 475.055 81.0677 474.374 80.9983Z" fill="#10162F"/>
<path d="M576.415 197.877C576.247 197.858 576.091 197.778 575.971 197.651C575.852 197.523 575.777 197.356 575.757 197.176C575.737 196.995 575.775 196.812 575.863 196.656C575.952 196.499 576.086 196.379 576.245 196.313L605.966 184.465C606.152 184.401 606.352 184.415 606.526 184.505C606.699 184.596 606.833 184.755 606.898 184.951C606.963 185.146 606.955 185.362 606.875 185.553C606.796 185.745 606.651 185.897 606.471 185.978C575.986 198.106 576.812 197.918 576.415 197.877Z" fill="#10162F"/>
<path d="M86.9804 189.943L58.8266 185.038C58.7321 185.022 58.6417 184.994 58.5607 184.955C58.4797 184.916 58.4097 184.868 58.3546 184.813C58.2994 184.758 58.2603 184.697 58.2394 184.634C58.2186 184.571 58.2164 184.506 58.2329 184.445C58.2495 184.383 58.2845 184.326 58.336 184.275C58.3875 184.225 58.4544 184.182 58.5329 184.15C58.6115 184.118 58.7001 184.098 58.7938 184.089C58.8874 184.081 58.9843 184.085 59.0788 184.101L87.1737 189.008C87.3417 189.05 87.4866 189.129 87.582 189.232C87.6774 189.334 87.717 189.453 87.6936 189.566C87.6702 189.679 87.5853 189.78 87.4544 189.849C87.3235 189.918 87.1553 189.952 86.9804 189.943Z" fill="#10162F"/>
<path d="M601.904 365.709C603.938 366.407 610.053 368.421 611.099 366.557C611.646 365.588 612.663 363.779 593.797 352.134C588.346 348.834 582.723 345.824 576.952 343.119C577.152 341.084 578.035 339.175 579.456 337.702C582.647 334.557 583.825 332.23 582.95 330.785C580.258 326.358 565.007 337.694 553.414 332.993C553.321 332.984 548.361 331.052 545.398 329.939C545.285 327.789 545.088 325.622 544.808 323.467C544.793 323.35 544.749 323.239 544.682 323.142C544.614 323.046 544.524 322.967 544.42 322.913C534.151 317.981 523.484 313.921 512.533 310.778C519.191 308.781 525.376 305.462 530.715 301.019C536.055 296.577 540.439 291.103 543.605 284.927C551.604 270.272 552.727 259.073 546.94 251.649C531.956 232.43 475.998 244.675 465.458 247.188C484.898 211.244 442.575 217.739 404.382 232.025C408.85 224.393 407.273 220.064 405.035 217.736C398.017 210.44 375.185 213.838 362.275 221.252C359.501 222.833 356.837 224.597 354.298 226.532C339.23 238.069 332.363 247.167 333.889 253.568C335.032 258.359 340.557 260.582 345.322 261.602C342.037 270.228 336.079 277.532 326.891 276.167C270.101 268.618 212.637 267.549 155.611 272.98C155.479 272.993 155.354 273.04 155.247 273.118C155.14 273.195 155.056 273.3 155.003 273.42C154.042 275.649 153.206 277.93 152.499 280.251C144.113 281.083 126.54 274.46 122.684 272.068C119.452 270.075 117.262 269.61 116.187 270.692C114.984 271.883 115.557 274.423 117.886 278.268C118.95 280.031 119.311 282.129 118.899 284.145C112.677 285.365 106.525 286.91 100.466 288.775C79.3018 295.464 79.8552 297.464 80.1594 298.539C80.7302 300.6 87.1416 300.136 89.2843 299.953C84.8237 301.578 62.8745 310.638 64.5688 314.89C65.8655 318.139 79.4652 314.036 82.9291 312.995C81.38 313.904 79.7701 314.913 78.0931 316.043C72.5849 319.747 72.504 321.344 72.9214 322.228C73.9392 324.346 79.5754 322.794 81.8352 322.113C84.3325 321.362 86.6689 320.658 88.8537 319.985C86.3037 321.75 79.9245 326.223 81.3478 328.959C82.6074 331.386 88.5014 329.793 91.0827 328.946C104.665 324.515 136.557 317.046 151.873 318.62C152.347 320.562 152.892 322.516 153.508 324.483C153.556 324.636 153.654 324.77 153.786 324.861C153.918 324.953 154.077 324.998 154.238 324.99C199.04 322.122 238.37 326.741 282.054 331.742C281.011 346.491 281.78 361.313 284.342 375.878C281.838 380.783 279.848 385.933 278.402 391.245C250.619 386.882 222.523 384.813 194.401 385.058C187.08 385.093 179.88 386.922 173.435 390.385C166.99 393.847 161.497 398.838 157.438 404.917C153.38 410.996 150.882 417.977 150.162 425.247C149.443 432.517 150.524 439.853 153.312 446.61C171.781 491.781 192.837 535.856 216.374 578.617C216.432 578.719 216.513 578.806 216.611 578.87C216.709 578.935 216.821 578.974 216.938 578.987C221.786 579.004 226.627 578.639 231.417 577.896C234.472 587.415 236.269 597.289 236.765 607.271C238.45 630.863 242.676 654.206 249.369 676.898C249.413 677.031 249.495 677.149 249.605 677.237C249.715 677.325 249.848 677.379 249.988 677.393C250.128 677.408 250.269 677.381 250.395 677.317C250.52 677.253 250.624 677.155 250.694 677.033C270.532 642.435 276.119 611.499 283.585 590.673C283.629 590.55 283.643 590.418 283.624 590.288C280.175 581.808 276.074 573.606 271.36 565.755L267.92 560.009C271.606 556.37 274.895 552.351 277.733 548.021C277.809 547.906 277.851 547.772 277.854 547.634C277.857 547.497 277.821 547.361 277.75 547.243C260.937 517.584 246.123 486.84 233.407 455.216C245.713 461.253 258.571 466.098 271.804 469.682C276.279 503.765 292.678 535.18 318.106 558.38C325.124 564.901 333.608 569.646 342.844 572.215C352.081 574.784 361.8 575.102 371.183 573.143C416.494 563.61 459.884 546.582 499.56 522.765C499.672 522.697 499.763 522.6 499.825 522.484C499.886 522.368 499.915 522.238 499.908 522.107C499.711 517.76 499.239 513.43 498.497 509.142C508.833 505.431 519.698 503.393 530.68 503.106C554.32 501.673 577.736 497.704 600.522 491.268C600.569 491.253 600.615 491.232 600.657 491.208L600.766 491.133C600.804 491.101 600.839 491.065 600.871 491.027L600.935 490.932L600.996 490.794L601.011 490.651L601.018 490.582C601.02 490.454 600.988 490.328 600.925 490.216C600.863 490.104 600.772 490.011 600.661 489.946C566.46 469.947 535.826 463.982 514.968 456.412C514.113 456.099 514.257 456.106 513.496 456.371C502.445 460.869 491.803 466.309 481.688 472.63C478.7 469.078 475.453 465.752 471.974 462.678C471.864 462.582 471.728 462.52 471.583 462.502C471.438 462.483 471.291 462.507 471.161 462.572C438.456 478.895 400.194 498.598 364.332 504.224C356.405 496.886 348.79 481.211 344.622 468.553C350.216 466.356 355.273 462.988 359.452 458.677C363.632 454.365 366.837 449.21 368.853 443.559C377.683 417.812 360.592 385.128 358.676 381.597L374.898 341.566C429.892 346.992 471.521 356.291 534.167 375.435C534.302 375.475 534.446 375.474 534.581 375.434C534.716 375.394 534.836 375.316 534.928 375.209C535.295 374.748 537.41 370.008 537.915 368.891C553.813 372.07 579.969 385.125 593.096 393.383C595.426 394.847 600.724 397.803 602.54 395.764C604.583 393.463 599.472 387.566 597.445 385.24C601.393 388.123 605.779 390.356 610.436 391.851C610.779 391.927 611.135 391.915 611.473 391.818C611.81 391.72 612.118 391.54 612.367 391.292C612.986 390.541 613.299 388.968 608.855 384.035C607.505 382.533 606.188 381.164 604.907 379.904C607.911 381.694 620.205 389.053 622.256 386.208C624.918 382.498 605.906 368.427 601.904 365.709ZM335.31 253.229C333.057 243.77 355.121 226.775 362.996 222.522C369.232 219.153 373.867 218.799 376.377 221.486C379.801 225.128 378.383 232.899 375.513 237.609C374.084 240.903 376.682 241.468 380.273 240.935C387.884 239.817 386.426 251.165 373.31 250.291C371.774 250.681 370.397 251.535 369.367 252.737C365.017 260.05 359.566 268.447 358.674 273.592L341.181 271.808C342.138 270.682 343.001 269.48 343.761 268.214C347.693 266.472 351.53 264.523 355.254 262.374C355.336 262.269 355.388 262.144 355.403 262.012C355.419 261.88 355.399 261.746 355.344 261.625C355.289 261.504 355.202 261.4 355.093 261.325C354.983 261.249 354.855 261.205 354.722 261.197C351.946 261.08 349.179 260.798 346.437 260.352C341.93 259.487 336.344 257.558 335.31 253.229ZM339.916 273.144L358.511 275.04C358.411 278.926 361.109 281.149 366.736 281.824C371.102 282.351 376.166 283.043 381.804 283.879C369.007 299.508 358.288 316.722 349.914 335.095L301.18 329.037C301.008 311.582 307.706 280.136 308.757 275.311C314.934 275.995 320.903 276.764 326.678 277.61C329.084 277.989 331.547 277.782 333.855 277.004C336.164 276.227 338.248 274.902 339.931 273.145L339.916 273.144ZM90.7318 308.921C71.8357 315.455 66.3453 315.005 65.9193 314.357C65.8126 313.719 68.6277 310.504 82.4377 304.3C91.5381 300.343 101.034 297.361 110.766 295.404C108.239 298.046 105.995 300.943 104.07 304.048C99.5302 305.404 95.076 307.031 90.7318 308.921ZM81.4114 320.718C76.0503 322.329 74.3954 321.825 74.2463 321.604C74.2463 321.604 74.1153 320.476 78.9146 317.253C86.2674 312.212 94.3915 308.394 102.971 305.95C101.558 308.474 100.394 311.129 99.4952 313.878C97.3471 314.995 95.5463 315.922 93.8816 316.855C90.4271 317.995 86.1847 319.28 81.4114 320.718ZM90.6314 327.552C85.6997 329.165 82.9923 328.951 82.6434 328.277C82.6137 328.223 82.0062 326.868 87.6745 322.626C91.2041 320.021 94.965 317.743 98.9105 315.821C98.521 317.196 98.2471 318.602 98.0915 320.023C98.0762 320.213 98.1361 320.401 98.2584 320.548C98.3807 320.694 98.5556 320.787 98.7456 320.806C98.9405 320.821 99.1335 320.759 99.2834 320.634C99.4333 320.509 99.5282 320.33 99.548 320.136C100.736 306.54 113.473 294.886 113.679 294.517C113.766 294.403 113.817 294.267 113.827 294.125C113.836 293.982 113.804 293.84 113.734 293.716C113.663 293.592 113.558 293.491 113.43 293.426C113.303 293.361 113.159 293.335 113.017 293.351C112.62 293.412 102.832 295.666 97.3902 297.27C90.6703 298.805 82.3318 299.061 81.5668 298.215C81.6536 297.862 82.9841 295.804 100.89 290.131C106.783 288.318 112.766 286.811 118.815 285.617C118.804 286.739 118.928 287.858 119.186 288.95C121.042 296.931 125.992 301.998 134.28 301.317C134.463 301.29 134.63 301.194 134.745 301.05C134.861 300.905 134.917 300.721 134.902 300.537C134.887 300.353 134.802 300.181 134.665 300.056C134.527 299.932 134.348 299.864 134.162 299.867C125.303 300.592 121.9 294.152 120.609 288.62C119.489 283.831 121.753 281.806 119.118 277.478C116.814 273.694 116.853 272.05 117.196 271.711C117.539 271.372 118.844 271.4 121.915 273.291C125.926 275.772 143.047 282.272 152.063 281.734C148.915 293.285 148.725 305.441 151.51 317.087C135.485 315.648 103.095 323.482 90.6198 327.551L90.6314 327.552ZM154.734 323.494C149.318 307.479 149.834 290.06 156.188 274.398C201.081 270.359 246.236 270.098 291.176 273.619C286.475 292.197 283.456 311.161 282.156 330.28C238.829 325.308 199.515 320.686 154.722 323.492L154.734 323.494ZM363.59 505.535C370.506 512.945 372.709 515.352 373.503 516.138C374.081 516.711 374.186 516.597 374.831 516.207C376.608 515.099 383.332 510.537 410.194 492.543C430.212 484.658 450.885 474.323 471.371 464.109C479.709 471.26 486.432 480.094 491.094 490.03C495.756 499.965 498.251 510.773 498.415 521.741C458.989 545.352 415.892 562.239 370.896 571.708C361.743 573.621 352.261 573.312 343.251 570.806C334.24 568.301 325.963 563.672 319.117 557.31C297.46 537.581 282.348 511.73 275.8 483.211C296.841 481.661 317.62 477.607 337.694 471.135C339.602 470.577 341.476 469.913 343.309 469.144C347.572 482.085 355.423 498.134 363.59 505.535ZM367.474 443.103C365.451 448.718 362.222 453.824 358.013 458.063C353.804 462.301 348.716 465.57 343.107 467.639L334.544 470.592C314.678 476.182 292.601 473.716 272.645 468.4C258.799 464.698 245.371 459.586 232.572 453.143C229.354 445.386 226.907 438.065 226.879 437.988C226.818 437.805 226.686 437.653 226.512 437.567C226.339 437.481 226.138 437.467 225.954 437.528C225.77 437.589 225.618 437.721 225.532 437.894C225.446 438.067 225.432 438.267 225.493 438.451C230.715 455.471 256.807 514.887 276.248 547.573C262.564 568.08 242.64 577.381 217.454 577.52C194.028 534.929 173.063 491.037 154.661 446.058C151.965 439.522 150.918 432.427 151.615 425.395C152.311 418.363 154.727 411.61 158.653 405.73C162.578 399.849 167.891 395.022 174.125 391.673C180.359 388.323 187.323 386.553 194.405 386.519C222.703 386.198 250.978 388.3 278.919 392.802C288.273 394.303 297.54 396.306 306.68 398.8C308.016 398.984 307.855 397.611 307.137 397.417C298.148 394.986 289.042 393.005 279.854 391.483C281.242 386.297 283.194 381.279 285.675 376.516C285.745 376.434 285.796 376.336 285.823 376.231C285.85 376.125 285.852 376.015 285.831 375.909C277.429 333.3 291.024 279.821 292.634 273.752C297.613 274.171 302.497 274.641 307.288 275.161C306.113 280.558 299.37 312.412 299.722 329.71L299.714 329.784C299.729 329.896 299.771 330.003 299.835 330.096C299.899 330.19 299.985 330.266 300.085 330.32C300.417 330.471 350.199 336.624 350.418 336.623C352.131 336.283 359.938 312.192 383.491 284.149C387.628 284.777 391.993 285.471 396.534 286.227C386.723 299.431 355.579 346.581 366.611 358.159L357.194 381.392L357.159 381.501C357.128 381.641 357.137 381.786 357.187 381.921L357.235 382.027C357.447 382.356 376.566 416.591 367.49 443.096L367.474 443.103ZM374.499 340.076C373.617 340.076 374.032 339.837 367.232 356.625C359.572 346.283 383.496 305.884 398.146 286.504C433.341 292.431 512.132 308.084 543.391 324.039C545.317 341.213 542.051 358.566 534.014 373.869C471.521 354.304 429.73 345.448 374.516 340.07L374.499 340.076ZM601.431 394.805C600.929 395.37 598.249 394.921 593.861 392.159C580.392 383.691 554.682 370.901 538.479 367.534C543.322 356.159 545.697 343.889 545.446 331.53C556.428 335.677 558.069 337.925 576.719 331.93C580.154 330.827 581.457 331.178 581.681 331.544C581.906 331.91 581.57 333.558 578.426 336.666C574.884 340.158 576.514 343.196 573.366 347.997C569.854 353.331 563.653 359.006 553.974 355.759C553.883 355.729 553.787 355.716 553.691 355.723C553.595 355.73 553.502 355.755 553.416 355.797C553.33 355.84 553.253 355.899 553.19 355.971C553.127 356.043 553.079 356.127 553.048 356.218C553.018 356.309 553.005 356.405 553.012 356.5C553.019 356.596 553.044 356.689 553.087 356.775C553.13 356.861 553.189 356.937 553.261 357C553.334 357.063 553.418 357.111 553.509 357.142C562.21 360.063 569.545 356.44 574.584 348.8C575.461 347.496 576.133 346.067 576.578 344.562C582.212 347.212 587.704 350.154 593.03 353.377C608.994 363.229 609.807 365.556 609.863 365.804C608.854 366.554 600.828 364.274 594.687 361.139C590.126 358.457 580.856 353.69 580.469 353.533C580.341 353.489 580.203 353.481 580.071 353.51C579.938 353.539 579.816 353.605 579.719 353.699C579.622 353.794 579.553 353.913 579.52 354.045C579.487 354.176 579.492 354.314 579.533 354.443L579.554 354.504L579.596 354.59C585.183 362.888 587.799 372.825 587.02 382.789C586.994 382.977 587.042 383.168 587.154 383.32C587.266 383.473 587.434 383.577 587.621 383.608C587.808 383.64 588.001 383.598 588.157 383.491C588.314 383.383 588.422 383.219 588.459 383.034C588.66 381.614 588.741 380.179 588.701 378.746C592.065 381.569 595.161 384.695 597.951 388.085C602.418 393.589 601.491 394.753 601.448 394.799L601.431 394.805ZM607.736 385.015C611.593 389.305 611.207 390.372 611.207 390.372C611.006 390.55 609.278 390.642 604.468 387.771C591.218 379.871 594.369 381.86 588.594 376.736C588.393 373.852 587.912 370.993 587.157 368.202C594.877 372.671 601.83 378.345 607.752 385.009L607.736 385.015ZM621.038 385.359C620.46 385.904 615.024 384.995 598.29 374.078C594.536 371.189 590.612 368.526 586.539 366.105C585.426 362.625 583.955 359.27 582.149 356.093C592.364 361.323 594.432 362.718 594.06 362.501C608.979 371.222 621.821 383.577 621.043 385.352L621.038 385.359Z" fill="#10162F"/>
<path d="M345.475 345.902C298.162 340.5 300.726 340.487 300.331 340.839C299.937 341.191 300.195 339.457 299.818 371.083C299.81 371.576 298.668 370.436 316.034 385.614C316.146 385.708 316.283 385.766 316.428 385.781C316.572 385.796 316.718 385.767 316.847 385.697C337.771 374.389 336.637 375.062 336.767 374.659C346.565 344.943 346.274 346.662 346.001 346.227C345.944 346.135 345.866 346.059 345.775 346.003C345.684 345.946 345.581 345.912 345.475 345.902ZM335.491 373.929L316.606 384.159L301.264 370.752L301.521 342.231L344.416 347.273L335.491 373.929Z" fill="#10162F"/>
<path d="M166.88 280.562C166.836 281.362 167.245 282.166 168.019 282.804C168.794 283.443 169.873 283.866 171.029 283.984C172.185 284.102 173.328 283.905 174.215 283.436C175.103 282.967 175.665 282.262 175.784 281.47C175.828 280.67 175.419 279.866 174.645 279.227C173.87 278.589 172.791 278.166 171.635 278.048C170.478 277.93 169.336 278.126 168.448 278.595C167.561 279.065 166.999 279.77 166.88 280.562Z" fill="#10162F"/>
<path d="M214.838 310.194C214.738 311.178 215.033 312.161 215.657 312.928C216.282 313.695 217.186 314.182 218.17 314.282C219.154 314.383 220.138 314.088 220.904 313.463C221.671 312.838 222.158 311.935 222.258 310.951C222.359 309.967 222.064 308.983 221.439 308.216C220.815 307.45 219.911 306.963 218.927 306.862C217.943 306.762 216.959 307.057 216.193 307.681C215.426 308.306 214.939 309.21 214.838 310.194Z" fill="#10162F"/>
<path d="M274.638 282.556C274.517 283.736 274.715 284.901 275.186 285.792C275.657 286.684 276.364 287.23 277.152 287.31C277.939 287.391 278.742 286.998 279.383 286.22C280.025 285.442 280.453 284.342 280.574 283.161C280.694 281.98 280.497 280.816 280.026 279.924C279.554 279.033 278.847 278.487 278.06 278.406C277.273 278.326 276.47 278.718 275.828 279.496C275.186 280.274 274.758 281.375 274.638 282.556Z" fill="#10162F"/>
<path d="M409.305 300.039C409.205 301.023 409.499 302.007 410.124 302.773C410.749 303.54 411.653 304.027 412.637 304.128C413.621 304.228 414.604 303.933 415.371 303.308C416.138 302.684 416.625 301.78 416.725 300.796C416.826 299.812 416.531 298.828 415.906 298.062C415.281 297.295 414.378 296.808 413.394 296.707C412.41 296.607 411.426 296.902 410.659 297.527C409.893 298.151 409.406 299.055 409.305 300.039Z" fill="#10162F"/>
<path d="M332.301 319.925C332.351 319.126 332.023 318.33 331.387 317.706C330.751 317.081 329.857 316.677 328.894 316.579C327.93 316.481 326.973 316.696 326.224 317.179C325.475 317.662 324.993 318.376 324.881 319.168C324.831 319.968 325.159 320.764 325.794 321.388C326.43 322.012 327.325 322.417 328.288 322.515C329.252 322.613 330.209 322.398 330.958 321.915C331.707 321.431 332.188 320.718 332.301 319.925Z" fill="#10162F"/>
<path d="M459.021 341.846C458.977 342.646 459.385 343.45 460.16 344.089C460.934 344.727 462.013 345.15 463.17 345.268C464.326 345.386 465.469 345.19 466.356 344.721C467.243 344.252 467.806 343.546 467.925 342.754C467.968 341.955 467.56 341.15 466.785 340.512C466.011 339.873 464.932 339.45 463.775 339.332C462.619 339.214 461.476 339.411 460.589 339.88C459.702 340.349 459.139 341.054 459.021 341.846Z" fill="#10162F"/>
<path d="M523.314 328.911C523.234 329.698 523.548 330.493 524.187 331.121C524.826 331.748 525.738 332.157 526.722 332.258C527.706 332.358 528.681 332.141 529.434 331.656C530.186 331.17 530.654 330.455 530.734 329.668C530.815 328.881 530.501 328.086 529.862 327.458C529.223 326.831 528.311 326.422 527.327 326.322C526.343 326.221 525.368 326.438 524.615 326.923C523.863 327.409 523.395 328.124 523.314 328.911Z" fill="#10162F"/>
</svg>
