<svg width="530" height="681" viewBox="0 0 530 681" fill="none" xmlns="http://www.w3.org/2000/svg">
<path d="M347.038 56.0049C347.038 64.8442 340.09 72.0098 331.519 72.0098C322.948 72.0098 316 64.8442 316 56.0049C316 47.1656 322.948 40 331.519 40C340.09 40 347.038 47.1656 347.038 56.0049ZM320.697 56.0049C320.697 62.1687 325.542 67.1655 331.519 67.1655C337.496 67.1655 342.341 62.1687 342.341 56.0049C342.341 49.8411 337.496 44.8443 331.519 44.8443C325.542 44.8443 320.697 49.8411 320.697 56.0049Z" fill="#10162F"/>
<path d="M338.846 68.0163C337.948 67.0238 337.999 65.4683 338.962 64.5418C339.924 63.6153 341.432 63.6688 342.331 64.6612L350.532 73.7216C351.43 74.7141 351.379 76.2696 350.416 77.1961C349.454 78.1226 347.946 78.0691 347.047 77.0767L338.846 68.0163Z" fill="#10162F"/>
<path d="M356.423 64.7096C354.022 64.7096 352.292 64.2142 351.236 63.2234C350.179 62.2185 349.65 60.612 349.65 58.404V52.8839L349.671 50.7396L349.65 49.4657H354.262V57.3424C354.262 57.9935 354.31 58.5738 354.406 59.0834C354.502 59.5788 354.708 59.968 355.023 60.2511C355.339 60.5342 355.819 60.6757 356.464 60.6757C357.123 60.6757 357.61 60.5483 357.926 60.2935C358.242 60.0388 358.448 59.6637 358.544 59.1683C358.64 58.6729 358.688 58.0643 358.688 57.3424V49.4657H363.196V58.404C363.196 59.8477 362.97 61.0366 362.517 61.9708C362.064 62.8908 361.343 63.5772 360.355 64.0302C359.367 64.4831 358.057 64.7096 356.423 64.7096ZM365.869 64.4973L365.457 63.2234L365.869 61.1003V49.4657H376.47L377.5 50.1027L376.141 53.7119L374.288 53.4996H370.439V55.1981H375.524V58.7012H372.683L370.439 58.4889V60.4634H376.141L378.591 63.1385L377.376 64.4973H365.869ZM385.286 64.7096C384.531 64.7096 383.784 64.6388 383.043 64.4973C382.315 64.3699 381.67 64.2 381.107 63.9877C380.545 63.7754 380.14 63.5631 379.893 63.3508V58.9135C380.414 59.2108 380.998 59.4797 381.643 59.7203C382.288 59.9609 382.94 60.152 383.598 60.2935C384.271 60.4209 384.909 60.4846 385.513 60.4846C386.35 60.4846 386.769 60.2864 386.769 59.8901C386.769 59.692 386.679 59.5292 386.501 59.4018C386.336 59.2603 386.041 59.1117 385.616 58.956C385.19 58.8003 384.587 58.6021 383.804 58.3615C382.898 58.0643 382.123 57.7529 381.478 57.4273C380.847 57.1018 380.359 56.6843 380.016 56.1747C379.687 55.6652 379.522 54.9858 379.522 54.1365C379.522 52.6645 380.092 51.4827 381.231 50.591C382.37 49.6993 384.037 49.2534 386.233 49.2534C386.672 49.2534 387.139 49.2746 387.633 49.3171C388.141 49.3454 388.546 49.3879 388.848 49.4445L391.38 51.2067L390.351 54.4338L385.081 53.0538C384.531 53.0538 384.257 53.2448 384.257 53.627C384.257 53.9242 384.429 54.1719 384.772 54.3701C385.128 54.5541 385.767 54.8088 386.686 55.1344C387.908 55.559 388.875 55.9978 389.589 56.4507C390.316 56.8895 390.838 57.392 391.154 57.9581C391.469 58.5243 391.627 59.1966 391.627 59.9751C391.627 61.3905 391.098 62.5369 390.042 63.4145C388.985 64.2779 387.4 64.7096 385.286 64.7096ZM397.017 64.4973V53.5208L392.899 53.7332V49.4657H405.766V53.7332L401.546 53.5208V61.1003L401.772 63.2234L401.546 64.4973H397.017ZM410.707 64.4973V53.5208L406.59 53.7332V49.4657H419.456V53.7332L415.236 53.5208V61.1003L415.462 63.2234L415.236 64.4973H410.707ZM425.283 64.4973V58.3403L420.178 50.7396V49.4657H425.345L427.403 53.8393H427.815L429.853 49.4657H435V50.7396L429.75 58.4677L429.874 60.612V64.4973H425.283Z" fill="#10162F"/>
<path d="M475.372 629.357H437.381V616.838C437.381 616.659 437.31 616.488 437.184 616.362C437.057 616.235 436.886 616.164 436.707 616.164H417.93V536.06C425.445 534.549 432.321 530.785 437.643 525.268C444.726 525.486 451.737 523.788 457.935 520.353C464.134 516.919 469.29 511.874 472.86 505.752L472.907 505.598C472.94 505.428 472.908 505.251 472.817 505.104C472.43 504.62 473.939 504.795 447.829 504.795C448.131 502.859 448.283 500.902 448.284 498.943C448.285 498.763 448.214 498.59 448.088 498.461C447.962 498.333 447.79 498.26 447.61 498.258H373.222C373.043 498.258 372.871 498.329 372.744 498.455C372.617 498.581 372.546 498.753 372.545 498.932C372.544 500.895 372.696 502.856 373 504.795C348.191 504.795 349.083 504.752 348.71 504.795C348.559 504.827 348.423 504.91 348.328 505.032C348.232 505.153 348.182 505.304 348.187 505.459V505.541C348.193 505.581 348.203 505.621 348.216 505.659L348.241 505.731C351.786 511.811 356.897 516.829 363.041 520.262C369.186 523.694 376.139 525.416 383.175 525.246C388.495 530.766 395.372 534.532 402.888 536.042V616.146H383.996C383.817 616.146 383.646 616.217 383.519 616.344C383.393 616.47 383.322 616.641 383.322 616.82V629.336H337.911V611.928C337.911 611.75 337.841 611.579 337.715 611.453C337.59 611.326 337.419 611.255 337.241 611.254H199.099C198.921 611.255 198.751 611.326 198.625 611.453C198.5 611.579 198.429 611.75 198.429 611.928V645.443H144.026C142.972 638.712 142.671 636.285 142.456 635.346C142.32 634.751 142.223 634.758 141.987 634.629C131.686 631.013 130.27 627.734 130.159 616.652C130.494 612.51 131.848 608.516 134.102 605.025C136.191 601.889 138.424 598.853 140.682 594.774C150.775 594.584 170.125 582.19 170.122 553.833C170.122 553.654 170.051 553.483 169.924 553.357C169.798 553.23 169.627 553.159 169.448 553.159H150.388C150.485 550.751 150.528 548.5 150.528 545.952C150.495 545.643 150.782 545.45 149.75 545.324C147.388 545.034 138.116 545.099 102.35 544.998C102.171 544.998 102 545.069 101.874 545.196C101.747 545.322 101.676 545.493 101.676 545.672C101.676 548.152 101.73 550.69 101.827 553.17H82.7702C82.5914 553.17 82.4201 553.241 82.2937 553.367C82.1673 553.494 82.0963 553.665 82.0963 553.844C82.0963 582.061 101.497 594.466 111.751 594.771C113.855 598.57 115.898 601.473 117.726 604.38C120.19 608.033 121.688 612.252 122.081 616.641C121.83 627.175 120.858 630.898 110.289 634.615C110.166 634.651 110.056 634.722 109.971 634.818C109.887 634.915 109.832 635.033 109.812 635.16L108.217 645.425H60.9717C60.793 645.425 60.6216 645.496 60.4952 645.622C60.3688 645.748 60.2979 645.92 60.2979 646.099V680.291C60.2979 680.47 60.3688 680.641 60.4952 680.767C60.6216 680.894 60.793 680.965 60.9717 680.965C61.1504 680.965 61.3218 680.894 61.4481 680.767C61.5745 680.641 61.6455 680.47 61.6455 680.291V646.772H198.433C198.433 678.771 198.332 680.183 198.483 680.549C198.542 680.694 198.65 680.813 198.788 680.887C198.925 680.961 199.085 680.985 199.238 680.955C199.391 680.924 199.529 680.841 199.628 680.72C199.727 680.599 199.781 680.447 199.78 680.291V612.602H336.564C336.564 681.151 336.463 680.205 336.614 680.567L336.678 680.682C336.758 680.8 336.874 680.89 337.008 680.939C337.142 680.988 337.289 680.993 337.426 680.953C337.563 680.913 337.684 680.83 337.771 680.717C337.859 680.604 337.908 680.466 337.911 680.323V630.719H474.717V680.323C474.717 680.502 474.787 680.673 474.914 680.8C475.04 680.926 475.212 680.997 475.39 680.997C475.569 680.997 475.74 680.926 475.867 680.8C475.993 680.673 476.064 680.502 476.064 680.323V630.031C476.064 629.941 476.046 629.852 476.011 629.769C475.976 629.686 475.925 629.611 475.86 629.548C475.796 629.485 475.72 629.436 475.636 629.403C475.552 629.371 475.462 629.355 475.372 629.357ZM447.603 506.147H471.107C467.673 511.582 462.921 516.061 457.291 519.166C451.661 522.271 445.337 523.902 438.908 523.906C443.328 518.861 446.329 512.732 447.603 506.147ZM350.011 506.147H373.233C374.509 512.727 377.507 518.851 381.921 523.895C375.542 523.839 369.28 522.186 363.705 519.085C358.131 515.985 353.423 511.536 350.011 506.147ZM410.418 510.921C411.8 510.92 413.152 511.329 414.302 512.097C415.452 512.865 416.348 513.956 416.878 515.233C417.407 516.511 417.546 517.916 417.276 519.272C417.007 520.628 416.341 521.874 415.363 522.852C414.386 523.829 413.14 524.495 411.784 524.765C410.428 525.034 409.022 524.895 407.745 524.366C406.468 523.837 405.376 522.94 404.609 521.79C403.841 520.64 403.432 519.289 403.432 517.906C403.433 516.054 404.17 514.278 405.479 512.968C406.789 511.658 408.565 510.922 410.418 510.921ZM150.327 554.525H168.76C168.47 580.778 151.144 592.645 141.417 593.409C145.582 585.427 149.438 573.936 150.327 554.525ZM83.4511 554.525H101.884C102.82 573.987 106.816 585.405 111.002 593.384C101.124 592.531 83.7486 580.656 83.4511 554.536V554.525ZM117.586 581.341L120.593 571.413L112.328 565.141L122.701 564.929L126.105 555.131L129.51 564.929L139.904 565.141L131.636 571.413L134.639 581.341L126.12 575.413L117.586 581.341ZM109.622 645.152L111.056 635.941H141.162L142.596 645.152H109.622ZM384.691 617.501H436.037V629.329H384.691V617.501Z" fill="#10162F"/>
<path d="M528.703 679.635C195.848 679.635 6.0594 679.449 1.15994 679.75C-0.381227 679.843 -0.413485 680.786 1.22445 680.879C4.53616 681.069 423.937 680.979 528.703 680.979C528.882 680.979 529.053 680.908 529.179 680.782C529.305 680.656 529.376 680.485 529.376 680.307C529.376 680.129 529.305 679.958 529.179 679.832C529.053 679.706 528.882 679.635 528.703 679.635Z" fill="#10162F"/>
<path d="M457.243 0.673811C457.243 0.495106 457.172 0.32372 457.046 0.197356C456.92 0.0709916 456.748 0 456.57 0C456.391 0 456.219 0.0709916 456.093 0.197356C455.967 0.32372 455.896 0.495106 455.896 0.673811V13.1967C401.643 -5.85283 346.864 33.0454 293.074 13.5156C292.647 13.3651 292.267 13.5622 292.231 14.1679C292.077 16.5944 292.171 29.4255 292.171 96.7241C292.17 96.8627 292.213 96.998 292.292 97.1115C292.372 97.2251 292.485 97.3113 292.615 97.3585C346.982 117.103 401.973 77.9398 455.896 97.2008V126.949C455.896 127.128 455.967 127.299 456.093 127.425C456.219 127.552 456.391 127.623 456.57 127.623C456.748 127.623 456.92 127.552 457.046 127.425C457.172 127.299 457.243 127.128 457.243 126.949C457.243 116.476 457.247 99.6523 457.243 0.673811ZM293.518 96.251V15.107C347.86 34.1816 402.03 -4.60557 455.878 14.6231V95.7671C401.765 76.7678 347.19 115.422 293.518 96.251Z" fill="#10162F"/>
<path d="M455.896 220.236V165.897C455.896 165.718 455.967 165.547 456.094 165.421C456.22 165.294 456.392 165.223 456.57 165.223C456.749 165.223 456.92 165.294 457.047 165.421C457.173 165.547 457.244 165.718 457.244 165.897V220.236C457.244 220.414 457.173 220.586 457.047 220.712C456.92 220.839 456.749 220.91 456.57 220.91C456.392 220.91 456.22 220.839 456.094 220.712C455.967 220.586 455.896 220.414 455.896 220.236Z" fill="#10162F"/>
<path d="M300.834 304.164L285.935 536.436C268.77 543.493 249.566 543.77 232.205 537.21L243.492 385.244L277.322 353.037L211.84 394.72C204.641 399.301 196.042 401.158 187.594 399.957C179.146 398.757 171.405 394.577 165.767 388.172L113.901 329.292C123.116 313.842 137.67 302.302 154.814 296.853L193.472 342.557C193.472 342.557 225.184 300.129 247.592 288.753C259.591 301.161 289.189 311.114 300.834 304.164Z" fill="#FFD644"/>
<path d="M288.569 259.89L288.464 260.44L289.023 260.482C291.781 260.687 294.355 261.947 296.208 264C298.061 266.054 299.051 268.743 298.973 271.508C298.894 274.273 297.753 276.901 295.787 278.846C293.82 280.791 291.179 281.903 288.414 281.952C285.648 282 282.97 280.98 280.937 279.105C278.904 277.229 277.672 274.642 277.497 271.882C277.323 269.121 278.219 266.4 279.999 264.283C281.78 262.166 284.307 260.817 287.057 260.516L287.897 260.424L287.412 259.732L255.689 214.41C255.671 214.374 255.665 214.332 255.674 214.292C255.683 214.249 255.709 214.21 255.746 214.184C255.782 214.159 255.828 214.148 255.872 214.154C255.912 214.16 255.949 214.179 255.977 214.209L287.475 259.216L288.154 260.187L288.376 259.023L297.11 213.065C297.11 213.065 297.11 213.064 297.11 213.064C297.119 213.019 297.145 212.979 297.184 212.953C297.222 212.927 297.269 212.917 297.315 212.926C297.361 212.935 297.401 212.961 297.427 212.999C297.453 213.038 297.463 213.085 297.454 213.131L297.454 213.132L288.569 259.89Z" fill="#FFD644" stroke="black"/>
<path d="M395.745 338.647C393.249 338.648 390.81 337.909 388.735 336.523C386.659 335.137 385.042 333.167 384.086 330.862C383.131 328.557 382.881 326.02 383.367 323.572C383.853 321.125 385.055 318.876 386.819 317.112C388.583 315.347 390.831 314.145 393.278 313.658C395.726 313.171 398.263 313.42 400.568 314.375C402.874 315.33 404.844 316.947 406.231 319.022C407.617 321.097 408.357 323.536 408.357 326.031C408.353 329.375 407.023 332.582 404.659 334.947C402.295 337.312 399.089 338.643 395.745 338.647ZM395.745 314.766C393.516 314.766 391.336 315.426 389.483 316.664C387.629 317.902 386.184 319.662 385.331 321.721C384.478 323.78 384.254 326.046 384.689 328.232C385.124 330.419 386.197 332.427 387.773 334.003C389.349 335.579 391.357 336.652 393.544 337.087C395.73 337.522 397.996 337.298 400.055 336.445C402.114 335.592 403.874 334.147 405.112 332.293C406.35 330.439 407.01 328.26 407.009 326.031C407.006 323.045 405.818 320.182 403.706 318.07C401.594 315.958 398.731 314.77 395.745 314.766Z" fill="#10162F"/>
<path d="M193.888 97.5666H182.34V86.0079C182.34 85.8301 182.269 85.6596 182.144 85.534C182.018 85.4083 181.847 85.3376 181.67 85.3376C181.492 85.3376 181.321 85.4083 181.196 85.534C181.07 85.6596 180.999 85.8301 180.999 86.0079V97.5594H169.441C169.263 97.5594 169.093 97.63 168.967 97.7557C168.841 97.8814 168.771 98.0519 168.771 98.2297C168.771 98.4074 168.841 98.5779 168.967 98.7036C169.093 98.8293 169.263 98.8999 169.441 98.8999H180.992V110.459C180.992 110.636 181.063 110.807 181.189 110.933C181.314 111.058 181.485 111.129 181.663 111.129C181.84 111.129 182.011 111.058 182.136 110.933C182.262 110.807 182.333 110.636 182.333 110.459V98.907H193.891C194.069 98.9066 194.24 98.8355 194.365 98.7095C194.49 98.5835 194.56 98.4128 194.56 98.235C194.559 98.0573 194.488 97.887 194.362 97.7616C194.236 97.6363 194.066 97.5661 193.888 97.5666Z" fill="#10162F"/>
<path d="M124.718 482.384L132.739 464.531H118.432C118.319 464.523 118.209 464.489 118.112 464.43C118.015 464.372 117.934 464.291 117.874 464.195C117.814 464.099 117.778 463.99 117.768 463.877C117.759 463.764 117.776 463.651 117.819 463.546L126.263 444.783C126.337 444.622 126.472 444.496 126.638 444.434C126.805 444.371 126.989 444.377 127.151 444.45C127.313 444.522 127.44 444.656 127.504 444.822C127.568 444.988 127.563 445.172 127.492 445.335L119.475 463.187C135.019 463.187 134.03 463.04 134.345 463.546C134.66 464.051 135.108 462.585 125.947 482.954C125.872 483.117 125.735 483.243 125.566 483.305C125.397 483.367 125.211 483.359 125.048 483.283C124.885 483.208 124.758 483.071 124.697 482.902C124.635 482.733 124.642 482.547 124.718 482.384Z" fill="#10162F"/>
<path d="M33.6538 266.13C50.8501 279.514 69.8062 290.468 89.9886 298.685C96.1679 300.38 101.825 303.594 106.443 308.036L118.493 321.612C116.532 324.121 113.658 328.278 113.282 329.028C113.221 329.189 112.999 329.085 113.432 329.676C114.834 331.579 123.03 340.654 165.258 388.62C170.982 395.181 178.874 399.463 187.494 400.687C196.114 401.911 204.886 399.994 212.21 395.287L243.56 375.331C230.984 544.561 231.414 537.181 231.647 537.583C234.892 538.912 238.251 539.946 241.682 540.672C242.221 547.611 241.616 554.592 239.89 561.335C239.442 562.732 239.069 564.001 238.747 565.134C236.059 574.56 237.231 576.209 240.069 579.015C245.671 585.12 248.933 593.011 249.277 601.29C249.565 604.345 250.977 607.183 253.24 609.255C255.503 611.327 258.456 612.484 261.524 612.501H308.164C308.207 612.501 308.257 612.594 308.3 612.587L308.422 612.548L308.543 612.487C308.635 612.423 308.709 612.338 308.761 612.24C308.813 612.141 308.84 612.032 308.841 611.921C307.775 609.115 306.217 606.522 304.239 604.265C301.451 601.001 298.019 598.348 294.158 596.472C290.298 594.596 286.091 593.537 281.802 593.362C277.822 575.815 276.785 557.728 278.734 539.841C281.333 539.076 283.872 538.124 286.333 536.991C286.806 536.633 285.939 547.167 301.519 304.287C308.389 281.707 317.034 273.843 318.235 257.593C329.217 252.048 344.65 243.816 353.477 235.791C354.309 234.877 352.854 226.831 352.642 225.877C378.673 211.132 403.805 194.855 427.908 177.133C440.876 167.628 450.094 167.245 461.19 166.18C461.577 166.18 461.957 166.206 462.334 166.206C463.445 166.131 464.5 165.687 465.331 164.944C466.161 164.201 466.719 163.202 466.917 162.105C467.114 161.009 466.939 159.878 466.42 158.892C465.9 157.906 465.066 157.122 464.05 156.665C465.2 156.64 466.307 156.229 467.196 155.499C468.084 154.77 468.702 153.763 468.95 152.64C469.198 151.518 469.062 150.344 468.563 149.308C468.065 148.272 467.233 147.433 466.201 146.927C467.167 146.49 467.981 145.777 468.541 144.877C469.101 143.978 469.382 142.932 469.347 141.873C469.313 140.814 468.965 139.788 468.347 138.927C467.73 138.066 466.87 137.407 465.878 137.035C466.9 136.434 467.695 135.512 468.139 134.412C468.583 133.313 468.651 132.098 468.332 130.956C468.014 129.813 467.327 128.809 466.378 128.098C465.429 127.387 464.272 127.009 463.086 127.024C463.086 127.024 458.71 127.024 457.298 127.049C456.732 123.322 454.603 122.748 448.596 122.322C440.101 121.827 380.856 168.252 330.528 194.427C329.453 195.144 307.483 208.003 297.031 212.523C292.949 214.283 291.397 214.716 289.644 214.075C288.529 213.621 287.566 212.859 286.868 211.878C286.169 210.896 285.765 209.736 285.702 208.534C285.843 207.427 286.126 206.343 286.544 205.308C300.182 206.939 299.992 186.907 295.221 174.356C291.996 165.822 285.254 155.066 276.351 153.21C274.35 152.848 272.297 152.885 270.31 153.319C268.323 153.753 266.442 154.576 264.774 155.74C266.12 152.661 266.499 149.246 265.862 145.946C265.225 142.647 263.603 139.618 261.208 137.26C259.925 135.571 258.298 134.172 256.436 133.155C254.574 132.138 252.517 131.526 250.402 131.36C248.287 131.193 246.16 131.476 244.162 132.189C242.163 132.902 240.338 134.03 238.806 135.498C237.274 136.966 236.07 138.742 235.272 140.708C234.475 142.674 234.102 144.787 234.178 146.908C234.254 149.028 234.778 151.109 235.715 153.012C236.652 154.916 237.981 156.601 239.614 157.955C241.769 160.339 244.568 162.048 247.673 162.875C250.778 163.702 254.057 163.611 257.112 162.614C255.313 164.578 253.964 166.91 253.155 169.447C252.347 171.984 252.1 174.667 252.431 177.309C254.194 189.137 268.333 197.979 271.204 199.667C271.125 206 270.129 212.068 263.95 213.881C262.697 214.248 261.382 214.352 260.086 214.189C247.196 212.541 234.523 209.501 222.288 205.122C192.935 194.982 156.624 178.8 131.145 167.13C127.83 165.611 124.267 161.356 124.862 158.245C125.891 152.905 128.994 143.267 125.081 142.5C119.747 141.45 117.299 154.457 113.009 157.381C112.178 157.948 108.676 155.912 106.558 153.926C106.558 153.926 95.3648 143.396 94.7089 142.755C90.8524 138.991 87.9851 137.579 86.6303 138.78C85.3293 139.938 86.2719 142.88 89.1715 146.665C91.3977 149.515 93.3682 152.555 95.0602 155.751C89.684 151.919 81.8312 146.317 81.1144 145.773C78.5625 143.83 74.0358 140.837 72.38 142.629C70.7994 144.339 73.7885 148.213 75.7132 150.371C79.5948 154.722 84.4261 159.525 87.2397 162.267C84.4486 161.136 81.7207 159.856 79.0679 158.432C75.448 156.5 70.8854 154.582 69.7062 156.421C68.3765 158.5 73.0789 162.399 75.1612 163.983C80.5374 168.076 83.7631 170.474 85.7057 171.868C82.6356 171.241 79.6202 170.371 76.6881 169.266C68.5593 166.184 67.7744 167.772 67.5163 168.295C65.7243 171.922 81.2327 178.976 94.3075 186.595C94.8344 186.9 153.413 219.469 201.207 237.443C200.68 244.002 202.239 248.683 205.321 249.715C207.049 250.306 220.708 255.45 239.485 261.019C242.973 269.823 245.434 278.999 246.822 288.366C226.134 299.215 197.601 336.024 193.444 341.479C152.735 293.348 155.373 296.169 154.746 296.183C153.746 296.391 150.184 297.717 148.947 298.215C118.751 262.543 120.324 264.259 119.966 264.12L119.876 264.094C94.906 259.553 49.8682 257.26 33.7828 264.998C33.6795 265.046 33.5904 265.121 33.5239 265.213C33.4574 265.306 33.4157 265.415 33.4027 265.528C33.3898 265.641 33.4061 265.756 33.45 265.862C33.494 265.967 33.5641 266.06 33.6538 266.13ZM141.223 303.437L181.978 351.589C189.559 360.847 195.773 360.6 202.64 351.589C224.385 323.125 241.546 304.803 255.087 295.595C256.19 296.312 257.595 297.151 258.671 297.746C239.184 311.243 216.278 340.611 204.246 357.08C202.973 358.824 201.323 360.258 199.419 361.275C197.515 362.293 195.406 362.869 193.249 362.959C191.092 363.049 188.942 362.652 186.96 361.797C184.977 360.941 183.213 359.65 181.799 358.019L136.818 306.168C138.257 305.2 139.725 304.29 141.223 303.437ZM232.915 536.744L244.144 385.556L260.753 369.743L248.506 540.536C243.195 539.798 237.972 538.527 232.915 536.744ZM307.124 611.154H261.513C261.456 611.154 261.405 611.046 261.355 611.053C258.659 611.017 256.071 609.987 254.087 608.161C252.103 606.335 250.862 603.842 250.603 601.158C250.138 593.541 247.47 586.224 242.922 580.097C239.413 575.882 237.055 576.614 239.718 566.646C241.607 568.539 246.424 572.23 247.718 573.775C252.101 579.693 254.66 586.762 255.083 594.115C255.351 596.856 256.531 599.428 258.435 601.419C260.338 603.41 262.854 604.705 265.581 605.096C267.595 605.39 262.613 605.304 303.397 605.304C304.898 607.077 306.152 609.044 307.124 611.154ZM285.286 535.984C274.108 540.701 261.87 542.334 249.847 540.712L262.205 368.363C274.796 356.374 277.616 353.79 277.874 353.428C277.949 353.327 277.995 353.207 278.005 353.081C278.015 352.955 277.99 352.829 277.932 352.717C277.874 352.605 277.786 352.512 277.677 352.447C277.569 352.383 277.445 352.35 277.319 352.353C276.96 352.353 279.799 350.654 211.479 394.14C204.426 398.671 195.979 400.514 187.68 399.335C179.38 398.156 171.781 394.033 166.269 387.717L114.744 329.228C120.216 320.508 127.334 312.938 135.7 306.939L180.781 358.908C182.328 360.693 184.257 362.105 186.425 363.041C188.593 363.977 190.944 364.411 193.304 364.313C195.663 364.214 197.97 363.585 200.052 362.472C202.135 361.359 203.94 359.79 205.332 357.883C217.432 341.321 240.56 311.673 260 298.477C269.397 303.635 279.845 306.584 290.551 307.1C293.816 307.194 297.063 306.583 300.071 305.308L285.286 535.984ZM462.384 164.858C459.348 164.858 455.789 164.22 450.13 163.589C444.47 162.958 444.503 156.285 449.857 156.582C454.287 156.765 457.266 157.03 461.538 157.378C466.885 157.808 466.67 164.844 462.384 164.858ZM464.394 155.31C461.215 155.41 457.807 154.873 451.696 154.364C445.893 153.887 445.603 147.074 451.176 147.074C454.843 147.074 460.696 147.41 463.362 147.547C468.957 147.841 468.832 155.17 464.394 155.31ZM457.398 128.397C458.757 128.379 463.058 128.372 463.058 128.372C468.333 128.372 468.434 135.687 464.247 136.07C461.898 136.228 459.54 136.228 457.19 136.07C457.392 133.518 457.461 130.957 457.398 128.397ZM457.104 137.619C458.051 137.658 462.244 137.909 463.523 137.941C469.229 138.095 469.258 145.579 464.731 145.826C461.627 146.002 457.624 145.522 451.807 145.192C451.016 145.236 450.233 145.016 449.58 144.567C448.927 144.118 448.441 143.466 448.198 142.712C448.033 142.087 448.018 141.433 448.154 140.801C448.29 140.17 448.572 139.579 448.979 139.077C451.682 145.095 456.757 144.095 456.961 140.26L457.104 137.619ZM448.474 123.666C457.076 124.268 456.477 124.139 455.613 140.199C455.47 142.873 451.825 143.024 449.854 137.647C449.227 135.806 448.823 133.897 448.649 131.959C448.628 131.784 448.539 131.625 448.401 131.514C448.263 131.404 448.088 131.353 447.912 131.371C447.737 131.388 447.576 131.474 447.463 131.61C447.35 131.745 447.295 131.92 447.309 132.096C448.295 141.773 443.89 147.798 437.836 149.722C437.666 149.777 437.524 149.897 437.442 150.056C437.36 150.216 437.344 150.401 437.399 150.572C437.454 150.742 437.574 150.884 437.733 150.966C437.892 151.048 438.078 151.064 438.248 151.009C440.157 150.417 441.922 149.432 443.428 148.118C444.934 146.804 446.148 145.19 446.994 143.378C447.188 143.944 447.495 144.465 447.895 144.909C448.295 145.354 448.781 145.713 449.323 145.966C448.306 146.251 447.411 146.864 446.777 147.71C446.143 148.555 445.806 149.586 445.818 150.642C445.829 151.699 446.189 152.722 446.84 153.554C447.492 154.385 448.4 154.979 449.424 155.242C442.75 155.382 442.797 164.141 449.983 164.94C451.585 165.12 452.993 165.299 454.259 165.456C444.379 166.34 434.955 170.017 427.088 176.058C403.133 193.667 378.163 209.85 352.305 224.522C349.498 212.545 342.325 202.045 332.188 195.075C381.702 169.105 441.073 123.031 448.474 123.666ZM272.52 199.29C272.464 193.71 271.946 188.144 270.971 182.649C270.952 182.528 270.899 182.414 270.82 182.32C270.74 182.225 270.636 182.155 270.52 182.115C264.029 179.943 266.703 172.521 270.907 175.435C273.057 177.004 275.147 177.603 275.505 174.965C277.555 162.808 286.412 159.553 292.2 170.764L293.931 174.847C297.124 183.829 298.16 196.212 293.791 201.473C289.562 206.57 281.899 202.548 279.95 201.964C279.43 201.878 278.663 202.262 279.623 203.473C280.311 204.344 281.774 205.856 284.318 208.763C284.416 209.95 284.78 211.1 285.384 212.126C285.987 213.153 286.813 214.031 287.802 214.695C280.748 216.942 273.157 216.858 266.154 214.455C271.645 211.706 272.466 205.312 272.52 199.29ZM76.6845 149.471C73.4409 145.833 73.0287 143.88 73.3369 143.547C73.5627 143.3 75.4014 143.142 80.265 146.844C81.0857 147.468 98.3288 159.776 98.698 160.034C97.5018 161.518 96.438 163.105 95.5189 164.775C93.7579 164.492 92.0276 164.043 90.3506 163.435C89.3614 162.485 82.0965 155.536 76.6845 149.471ZM75.9677 162.915C71.4947 159.518 70.6309 157.478 70.8352 157.156C70.9857 156.919 72.8065 156.629 78.4263 159.629C83.5469 162.602 89.096 164.766 94.8774 166.044C93.8407 168.216 93.0359 170.492 92.476 172.833C90.8309 172.729 90.046 172.596 88.9206 172.449C87.6984 171.818 78.9066 165.141 75.9748 162.915H75.9677ZM94.9634 185.441C84.4978 179.348 80.1503 177.399 74.2114 173.707C69.4876 170.761 68.6704 169.159 68.6919 168.926C68.6919 168.926 69.7672 168.105 76.1899 170.542C81.3239 172.466 86.6953 173.684 92.157 174.162C92.0137 174.826 91.8811 175.498 91.7592 176.176C91.7273 176.352 91.7667 176.534 91.8685 176.68C91.9703 176.827 92.1263 176.928 92.3022 176.96C92.478 176.991 92.6593 176.952 92.8062 176.85C92.9531 176.748 93.0535 176.592 93.0853 176.417C94.1055 168.944 97.7244 162.069 103.307 156.998C103.435 156.873 103.509 156.703 103.512 156.524C103.514 156.345 103.446 156.173 103.322 156.045C103.197 155.916 103.027 155.843 102.848 155.84C102.669 155.837 102.496 155.906 102.368 156.03C101.336 157.027 100.408 158.009 99.5689 158.987L97.2536 157.324C95.4171 153.21 93.0494 149.354 90.2109 145.855C87.2647 142.016 87.1895 140.077 87.4941 139.805C87.7414 139.59 89.5155 139.622 93.734 143.748C94.3971 144.4 105.601 154.937 105.601 154.937C105.658 154.991 111.386 160.134 113.737 158.521C118.077 155.554 121.002 143.11 124.787 143.848C126.969 144.267 124.256 154.12 123.504 158.016C122.787 161.772 126.729 166.618 130.561 168.388C139.205 172.331 162.964 183.083 188.648 193.595C199.78 198.158 211.751 202.555 222.22 206.555C224.26 207.333 225.446 210.344 225.511 214.68C225.108 224.259 221.981 233.523 216.497 241.386C180 229.755 118.525 199.05 94.9849 185.441H94.9634ZM243.6 268.385C245.886 265.184 246.94 263.815 247.381 263.127C247.822 262.439 247.632 262.051 247.198 261.869C234.489 258.285 221.676 254.17 209.138 249.665C219.93 246.081 231.17 217.286 225.245 207.537C236.503 211.323 248.104 213.998 259.882 215.523C261.293 215.698 262.725 215.597 264.097 215.225C273.96 218.379 283.161 218.451 289.433 215.433C291.619 216.15 293.637 215.433 297.54 213.763C308.933 208.354 320.039 202.361 330.815 195.81C342.825 202.846 352.201 219.917 352.32 234.999C343.764 242.683 329.073 250.579 318.31 256.034C318.446 252.418 318.28 248.798 317.812 245.21C317.801 245.122 317.773 245.037 317.729 244.96C317.686 244.882 317.627 244.815 317.557 244.76C317.487 244.705 317.407 244.665 317.322 244.641C317.237 244.618 317.147 244.611 317.059 244.622C316.971 244.633 316.886 244.661 316.809 244.705C316.732 244.748 316.664 244.807 316.609 244.877C316.555 244.946 316.515 245.026 316.491 245.112C316.467 245.197 316.461 245.287 316.471 245.375C319.547 270.463 308.612 276.413 300.264 303.709C287.673 310.903 258.595 299.05 248.198 288.423C247.113 281.649 245.577 274.954 243.6 268.385ZM154.588 297.631C194.372 344.672 192.824 343.016 193.268 343.199L193.386 343.224H193.454C193.56 343.227 193.665 343.205 193.76 343.159C193.855 343.114 193.939 343.046 194.003 342.963C194.322 342.547 225.468 301.072 247.445 289.559C249.417 291.504 251.57 293.255 253.875 294.789C240.284 304.175 223.159 322.505 201.569 350.769C195.117 359.188 189.913 359.138 183.01 350.704L142.424 302.77C146.305 300.672 150.379 298.951 154.588 297.631ZM119.385 265.374L124.253 271.126C96.0673 266.646 57.7461 265.481 42.8685 271.345C40.2198 269.467 37.7002 267.596 35.3634 265.761C51.4166 258.987 94.5476 260.894 119.385 265.374Z" fill="#10162F"/>
<path d="M112.952 181.621C106.501 177.718 104.469 171.288 106.881 162.507C106.904 162.421 106.911 162.332 106.9 162.244C106.889 162.156 106.861 162.071 106.817 161.994C106.773 161.917 106.715 161.85 106.645 161.795C106.575 161.741 106.495 161.701 106.409 161.677C106.324 161.654 106.235 161.647 106.147 161.658C106.059 161.669 105.974 161.697 105.897 161.741C105.82 161.785 105.752 161.843 105.698 161.913C105.643 161.983 105.603 162.063 105.58 162.148C102.988 171.582 105.221 178.521 112.253 182.775C112.406 182.868 112.59 182.896 112.764 182.853C112.937 182.81 113.087 182.7 113.18 182.547C113.272 182.394 113.3 182.211 113.258 182.037C113.215 181.863 113.105 181.713 112.952 181.621Z" fill="#10162F"/>
</svg>
