<svg width="452" height="430" viewBox="0 0 452 430" fill="none" xmlns="http://www.w3.org/2000/svg">
<path d="M228.6 343.203C221.268 339.613 212.81 339.08 205.085 341.722C195.143 345.109 184.597 335.474 188.682 324.94L206.421 279.309C206.443 279.254 206.453 279.196 206.452 279.137C206.451 279.078 206.438 279.021 206.415 278.967C206.391 278.913 206.357 278.865 206.314 278.824C206.272 278.784 206.222 278.752 206.167 278.731L67.4693 224.805C65.8036 224.156 64.0264 223.842 62.2392 223.88C60.452 223.919 58.6899 224.309 57.0536 225.029C55.4173 225.748 53.939 226.784 52.703 228.075C51.4671 229.367 50.4978 230.889 49.8506 232.555L0.919678 358.411C-0.383431 361.776 -0.298829 365.52 1.15493 368.823C2.60869 372.126 5.31294 374.717 8.67464 376.029C151.554 431.569 147.308 429.996 147.546 429.996C147.636 429.996 147.724 429.969 147.799 429.918C147.873 429.867 147.93 429.795 147.962 429.71L164.506 387.155C165.447 384.895 167.006 382.946 169.005 381.531C171.003 380.116 173.36 379.293 175.804 379.156C178.249 379.019 180.683 379.573 182.827 380.756C184.971 381.939 186.738 383.702 187.926 385.843C190.263 390.102 193.572 393.751 197.583 396.492C201.594 399.233 206.196 400.99 211.013 401.619C215.831 402.249 220.729 401.734 225.31 400.117C229.891 398.499 234.027 395.824 237.38 392.309C240.734 388.794 243.212 384.537 244.613 379.885C246.014 375.233 246.298 370.316 245.443 365.534C244.587 360.751 242.617 356.237 239.69 352.359C236.764 348.481 232.964 345.347 228.6 343.212V343.203ZM243.72 379.862C241.977 385.496 238.613 390.492 234.048 394.226C229.483 397.959 223.919 400.266 218.051 400.857C212.183 401.448 206.271 400.298 201.053 397.549C195.835 394.801 191.542 390.577 188.71 385.403C187.451 383.098 185.564 381.198 183.268 379.923C180.973 378.647 178.362 378.05 175.74 378.199C173.118 378.349 170.592 379.239 168.456 380.767C166.32 382.294 164.661 384.397 163.672 386.83L147.292 428.952L8.99559 375.195C5.85652 373.969 3.33152 371.548 1.97375 368.463C0.61598 365.379 0.536153 361.882 1.75176 358.739L50.6827 232.881C51.2871 231.324 52.1924 229.902 53.3468 228.695C54.5012 227.488 55.8822 226.521 57.4107 225.848C58.9392 225.176 60.5853 224.811 62.2549 224.774C63.9246 224.738 65.5849 225.031 67.1412 225.637L205.435 279.416L187.859 324.628C186.943 327.092 186.746 329.764 187.29 332.335C187.834 334.906 189.097 337.27 190.933 339.151C192.768 341.032 195.1 342.353 197.657 342.96C200.214 343.567 202.891 343.435 205.375 342.58C210.616 340.796 216.247 340.497 221.648 341.714C227.048 342.932 232.006 345.619 235.974 349.478C239.943 353.338 242.766 358.219 244.133 363.584C245.5 368.948 245.357 374.586 243.72 379.874V379.862Z" fill="#10162F"/>
<path d="M347.535 129.623C347.462 129.622 347.39 129.605 347.326 129.571C347.262 129.537 347.207 129.488 347.166 129.428C347.125 129.368 347.099 129.299 347.09 129.227C347.081 129.155 347.09 129.082 347.116 129.014L347.273 128.608C347.316 128.497 347.401 128.408 347.51 128.36C347.563 128.336 347.621 128.323 347.68 128.322C347.739 128.321 347.797 128.331 347.852 128.352C347.907 128.373 347.957 128.405 347.999 128.446C348.042 128.486 348.076 128.535 348.1 128.589C348.123 128.642 348.136 128.7 348.138 128.759C348.139 128.818 348.129 128.876 348.107 128.931C347.96 129.316 347.903 129.623 347.535 129.623Z" fill="#0063D2"/>
<path d="M422.585 171.942L392.868 160.44C390.609 159.499 388.66 157.94 387.245 155.941C385.831 153.943 385.008 151.587 384.871 149.143C384.734 146.699 385.289 144.265 386.471 142.122C387.653 139.978 389.416 138.211 391.556 137.023C396.717 134.196 400.963 129.954 403.795 124.796C406.628 119.639 407.929 113.78 407.546 107.908C407.164 102.036 405.112 96.3956 401.634 91.6494C398.156 86.9033 393.395 83.2488 387.911 81.1155C382.427 78.9822 376.448 78.4588 370.677 79.6068C364.905 80.7548 359.582 83.5265 355.332 87.596C351.082 91.6656 348.082 96.8639 346.684 102.58C345.287 108.296 345.551 114.292 347.444 119.863C348.408 122.786 348.341 125.951 347.254 128.831C347.194 128.879 347.148 128.942 347.121 129.014C345.895 132.154 343.474 134.68 340.388 136.038C337.302 137.396 333.803 137.474 330.66 136.255L285.228 118.594C285.182 118.542 285.124 118.501 285.06 118.475C284.995 118.449 284.925 118.439 284.856 118.445C284.786 118.452 284.719 118.474 284.66 118.511C284.601 118.548 284.551 118.598 284.515 118.658C284.325 118.896 284.247 119.528 272.598 149.295C272.562 149.404 272.569 149.522 272.618 149.626C272.667 149.729 272.753 149.81 272.86 149.852C272.967 149.893 273.085 149.892 273.191 149.849C273.297 149.805 273.383 149.723 273.43 149.618L285.133 119.516L330.334 137.09C333.699 138.393 337.443 138.308 340.745 136.855C344.047 135.402 346.639 132.698 347.951 129.337C347.977 129.265 347.985 129.187 347.974 129.111C348.034 129.064 348.08 129.001 348.107 128.93C349.265 125.929 349.328 122.616 348.286 119.573C346.444 114.161 346.187 108.336 347.543 102.782C348.899 97.2282 351.813 92.1772 355.941 88.2228C360.07 84.2685 365.242 81.5751 370.849 80.4595C376.456 79.3439 382.265 79.8524 387.592 81.9252C392.92 83.998 397.545 87.549 400.924 92.1605C404.303 96.7721 406.295 102.253 406.665 107.957C407.036 113.662 405.77 119.354 403.016 124.364C400.263 129.374 396.136 133.494 391.121 136.239C388.831 137.509 386.946 139.399 385.682 141.693C384.418 143.986 383.827 146.59 383.976 149.204C384.125 151.819 385.008 154.338 386.524 156.473C388.04 158.608 390.128 160.272 392.547 161.275L422.265 172.774C423.822 173.378 425.244 174.284 426.451 175.438C427.658 176.593 428.626 177.974 429.298 179.503C429.971 181.032 430.336 182.678 430.372 184.348C430.408 186.018 430.115 187.678 429.508 189.235L380.58 315.092C379.975 316.649 379.069 318.071 377.914 319.278C376.76 320.484 375.378 321.451 373.85 322.123C372.321 322.796 370.675 323.16 369.005 323.196C367.335 323.232 365.675 322.938 364.119 322.331L227.007 269.029L244.585 223.816C245.356 221.793 245.639 219.616 245.411 217.463C245.183 215.31 244.451 213.241 243.274 211.424C242.097 209.607 240.508 208.093 238.636 207.004C236.764 205.916 234.662 205.285 232.501 205.161C232.442 205.156 232.383 205.162 232.326 205.181C232.27 205.199 232.218 205.228 232.173 205.266C232.128 205.305 232.091 205.352 232.064 205.405C232.038 205.457 232.022 205.515 232.017 205.574C232.013 205.633 232.021 205.692 232.04 205.748C232.058 205.804 232.088 205.856 232.127 205.901C232.166 205.945 232.214 205.981 232.267 206.007C232.32 206.033 232.378 206.049 232.437 206.052C234.459 206.166 236.426 206.754 238.178 207.771C239.929 208.787 241.417 210.202 242.519 211.901C243.621 213.601 244.307 215.536 244.521 217.55C244.735 219.564 244.471 221.6 243.751 223.493L226.011 269.121C225.969 269.232 225.972 269.355 226.02 269.464C226.068 269.573 226.157 269.658 226.267 269.701L363.793 323.159C365.459 323.808 367.236 324.122 369.024 324.084C370.811 324.045 372.573 323.654 374.209 322.934C375.846 322.214 377.324 321.178 378.559 319.886C379.795 318.594 380.763 317.071 381.41 315.404L430.338 189.551C430.986 187.886 431.299 186.109 431.26 184.323C431.221 182.536 430.83 180.775 430.11 179.14C429.39 177.505 428.355 176.027 427.064 174.792C425.773 173.557 424.251 172.589 422.585 171.942Z" fill="#10162F"/>
<path d="M181.79 149.283C186.029 144.998 191.43 142.046 197.326 140.791C203.223 139.536 209.358 140.033 214.975 142.22C215.082 142.266 215.168 142.351 215.213 142.458C215.258 142.566 215.26 142.686 215.217 142.795C215.175 142.903 215.092 142.991 214.986 143.039C214.88 143.087 214.759 143.092 214.65 143.052C209.195 140.929 203.238 140.447 197.513 141.667C191.787 142.886 186.544 145.752 182.427 149.913C182.385 149.955 182.336 149.988 182.282 150.011C182.228 150.034 182.17 150.046 182.111 150.046C181.992 150.047 181.878 150 181.793 149.917C181.709 149.833 181.661 149.72 181.66 149.601C181.659 149.482 181.706 149.368 181.79 149.283Z" fill="#10162F"/>
<path d="M271.675 112.301C271.559 112.039 277.804 114.678 132.709 58.1326C131.043 57.4842 129.266 57.1704 127.479 57.2093C125.691 57.2481 123.929 57.6388 122.293 58.359C120.657 59.0793 119.179 60.1149 117.944 61.4067C116.708 62.6985 115.739 64.2211 115.093 65.8876L103.512 95.3669C102.582 97.6375 101.027 99.5981 99.0279 101.022C97.0291 102.445 94.668 103.274 92.2179 103.411C89.7677 103.548 87.3288 102.989 85.1835 101.797C83.0381 100.606 81.274 98.8316 80.0953 96.6792C77.2678 91.519 73.026 87.2732 67.8685 84.4408C62.711 81.6085 56.8521 80.3073 50.9805 80.6902C45.1089 81.0731 39.4687 83.1242 34.7227 86.6024C29.9767 90.0806 26.3222 94.8413 24.1888 100.325C22.0555 105.809 21.5319 111.787 22.6795 117.559C23.8272 123.33 26.5985 128.653 30.6676 132.903C34.7367 137.154 39.9346 140.154 45.6503 141.552C51.3659 142.949 57.3618 142.686 62.9331 140.794C65.2568 140 67.7577 139.881 70.1463 140.45C72.5349 141.019 74.7135 142.253 76.4299 144.009C78.1463 145.765 79.3302 147.971 79.8447 150.372C80.3592 152.773 80.1831 155.27 79.3369 157.575L66.1616 191.748C65.5139 193.414 65.201 195.191 65.2409 196.979C65.2807 198.766 65.6725 200.528 66.3939 202.164C67.1153 203.799 68.152 205.277 69.4449 206.511C70.7377 207.746 72.2613 208.714 73.9284 209.359L172.782 247.796C172.892 247.839 173.015 247.836 173.124 247.789C173.233 247.741 173.318 247.651 173.361 247.541C173.403 247.43 173.401 247.307 173.353 247.198C173.305 247.09 173.216 247.005 173.105 246.962L74.2399 208.527C72.6833 207.923 71.2611 207.017 70.0545 205.863C68.8479 204.709 67.8805 203.328 67.2076 201.8C66.5347 200.272 66.1694 198.626 66.1327 196.957C66.096 195.288 66.3886 193.627 66.9937 192.071L80.1643 157.903C84.522 146.689 73.3151 136.317 62.6455 139.952C57.2337 141.793 51.409 142.05 45.8561 140.693C40.3032 139.337 35.253 136.423 31.2993 132.295C27.3456 128.167 24.6528 122.995 23.5374 117.389C22.4221 111.783 22.9306 105.975 25.0031 100.648C27.0757 95.3203 30.6262 90.6956 35.2371 87.3171C39.848 83.9387 45.3277 81.9469 51.0318 81.5761C56.7359 81.2052 62.4274 82.4707 67.4369 85.2236C72.4465 87.9766 76.5659 92.1027 79.3108 97.1166C81.008 100.153 83.7667 102.455 87.0574 103.582C90.3481 104.709 93.9391 104.58 97.141 103.222C98.7798 102.506 100.26 101.472 101.497 100.18C102.733 98.888 103.701 97.3636 104.344 95.695L115.92 66.2157C116.524 64.6589 117.43 63.2364 118.584 62.0297C119.738 60.823 121.119 59.8556 122.648 59.1828C124.176 58.5101 125.822 58.1452 127.492 58.109C129.162 58.0728 130.822 58.366 132.378 58.9718L270.682 112.741L256.13 150.027C256.087 150.138 256.09 150.261 256.138 150.37C256.185 150.478 256.275 150.563 256.385 150.606C256.496 150.649 256.619 150.646 256.728 150.598C256.836 150.55 256.921 150.461 256.964 150.351C272.764 109.909 271.792 112.567 271.675 112.301Z" fill="#10162F"/>
<path d="M354.355 268.123L273.308 280.193C273.308 280.193 267.001 252.468 265.953 247.675C260.235 221.603 237.605 212.697 231.324 210.707C231.26 210.971 231.205 211.237 231.153 211.492C221.149 221.821 200.247 230.109 190.557 224.33C144.869 284.001 116.671 323.007 56.2714 380.173C46.9997 388.781 74.0374 418.363 83.3519 409.89C153.682 346.372 175.786 325.339 220.847 270.232L244.128 310.205C246.71 314.635 250.592 318.165 255.247 320.315C259.902 322.466 265.106 323.133 270.153 322.227L361.237 305.84C369.449 304.423 362.607 266.618 354.355 268.123Z" fill="#FFD644"/>
<path d="M389.22 144.407C387.81 144.849 374.468 148.475 373.605 148.808C376.137 146.095 379.025 143.737 382.19 141.799C388.528 137.758 387.534 134.536 379.504 138.155C378.626 138.559 369.695 142.389 367.046 143.53C365.415 144.224 361.214 145.432 360.344 144.205C357.805 140.672 359.334 129.955 355.506 129.356C353.027 128.969 352.632 136.3 351.84 141.271C351.365 144.143 347.174 146.675 343.879 146.901C343.791 146.901 345.044 146.796 332.672 148.042C330.057 155.574 331.302 168.763 335.655 175.161L344.043 174.478C361.778 172.674 366.911 171.328 380.916 169.248C396.181 166.975 395.273 163.942 385.808 164.075C382.27 164.12 378.736 163.784 375.269 163.074C375.947 163.074 381.577 161.365 388.333 159.27C396.361 156.779 396.839 153.524 387.099 154.908C383.622 155.435 380.107 155.669 376.591 155.607C377.102 155.388 385.435 151.879 391.704 148.508C398.755 144.719 397.569 141.813 389.22 144.407Z" fill="#FDFFF4"/>
<path d="M235.007 149.813C217.16 154.247 200.381 154.737 185.097 149.813C193.655 150.239 198.45 148.71 201.199 147.172C202.431 145.614 203.232 143.759 203.521 141.794C203.81 139.828 203.576 137.821 202.844 135.975C191.568 137.753 192.119 121.335 195.769 111.043L197.361 107.37C202.432 97.7943 210.408 100.669 212.196 111.238C212.36 112.427 213.047 112.348 213.171 112.268C213.885 112.065 214.554 111.726 215.139 111.269C219.34 108.357 222.229 115.72 215.969 117.816C215.17 122.381 214.706 126.999 214.581 131.631C214.431 142.092 217.391 145.061 220.374 146.682C225.011 148.639 229.976 149.702 235.007 149.813Z" fill="#FDFFF4"/>
<path d="M284.936 22.1563C286.746 19.4141 287.556 16.1316 287.229 12.862C286.901 9.59244 285.457 6.53572 283.138 4.20698C280.82 1.87825 277.77 0.419899 274.502 0.0777002C271.234 -0.264499 267.948 0.53038 265.197 2.32837C262.447 4.12637 260.4 6.81755 259.403 9.94836C258.405 13.0792 258.517 16.4582 259.72 19.516C260.924 22.5737 263.144 25.1233 266.007 26.7349C268.871 28.3465 272.203 28.9218 275.441 28.3636L277.198 36.9364C276.776 37.1076 276.43 37.4243 276.221 37.8291C276.013 38.234 275.957 38.7 276.064 39.1426L279.913 57.9237C280.03 58.4324 280.342 58.875 280.781 59.157C281.22 59.4389 281.753 59.5378 282.264 59.4326C282.775 59.3274 283.225 59.0263 283.517 58.5937C283.81 58.1612 283.921 57.6315 283.828 57.1178L279.982 38.3366C279.906 37.8892 279.672 37.4837 279.323 37.1933C278.975 36.903 278.533 36.7469 278.08 36.7533L276.32 28.1829C279.858 27.3518 282.942 25.1946 284.936 22.1563ZM259.895 16.976C259.453 14.8191 259.551 12.5865 260.178 10.476C260.805 8.36556 261.943 6.4423 263.491 4.87658C265.038 3.31087 266.949 2.15102 269.052 1.49976C271.155 0.848505 273.386 0.725931 275.548 1.1429C277.71 1.55987 279.736 2.50351 281.446 3.89025C283.156 5.27699 284.497 7.06403 285.352 9.09312C286.206 11.1222 286.547 13.3307 286.345 15.523C286.142 17.7154 285.402 19.8239 284.189 21.6618C282.726 23.8644 280.644 25.5851 278.205 26.6073C275.766 27.6296 273.079 27.9078 270.482 27.407C267.886 26.9061 265.495 25.6486 263.611 23.7926C261.727 21.9366 260.435 19.5649 259.895 16.976Z" fill="#10162F"/>
<path d="M451.369 257.724L446.107 256.186C445.513 256.013 444.959 255.724 444.477 255.336C443.994 254.948 443.593 254.469 443.296 253.926C442.999 253.383 442.812 252.787 442.746 252.172C442.68 251.556 442.735 250.934 442.91 250.34L444.448 245.081C444.473 244.97 444.454 244.853 444.397 244.755C444.339 244.657 444.245 244.584 444.136 244.552C444.026 244.52 443.909 244.531 443.807 244.583C443.705 244.634 443.627 244.722 443.587 244.829L442.049 250.088C441.876 250.682 441.588 251.237 441.201 251.72C440.813 252.202 440.334 252.604 439.792 252.901C439.249 253.199 438.653 253.386 438.037 253.453C437.422 253.52 436.8 253.465 436.206 253.291L430.945 251.752C430.835 251.732 430.721 251.753 430.626 251.813C430.531 251.872 430.462 251.965 430.432 252.072C430.402 252.18 430.414 252.295 430.465 252.395C430.516 252.495 430.602 252.572 430.707 252.611L435.966 254.149C436.56 254.322 437.113 254.611 437.596 254.998C438.078 255.386 438.479 255.865 438.776 256.407C439.074 256.95 439.261 257.546 439.328 258.161C439.394 258.776 439.339 259.398 439.166 259.992L437.627 265.253C437.594 265.367 437.607 265.49 437.664 265.594C437.721 265.698 437.817 265.775 437.931 265.809C438.044 265.842 438.167 265.829 438.271 265.772C438.375 265.715 438.452 265.619 438.486 265.505L440.026 260.242C440.377 259.043 441.19 258.033 442.286 257.434C443.382 256.834 444.671 256.694 445.87 257.044C450.047 258.269 451.017 258.602 451.254 258.602C451.362 258.6 451.465 258.56 451.545 258.488C451.625 258.417 451.677 258.319 451.691 258.212C451.705 258.106 451.68 257.998 451.621 257.908C451.562 257.819 451.472 257.753 451.369 257.724ZM440.195 258.01C440.022 256.573 439.303 255.257 438.186 254.337C439.623 254.164 440.938 253.444 441.857 252.325C442.031 253.762 442.751 255.078 443.868 255.998C442.431 256.177 441.118 256.9 440.2 258.019L440.195 258.01Z" fill="#10162F"/>
<path d="M151.082 70.9995L151.082 71.0003C151.242 71.7346 151.254 72.493 151.12 73.2323C150.986 73.9715 150.707 74.677 150.3 75.3083C149.892 75.9396 149.365 76.4844 148.746 76.9114C148.128 77.3383 147.432 77.6392 146.697 77.7966L146.697 77.7967C131.621 81.0439 120.435 83.4572 112.124 85.25C103.292 87.1555 97.7077 88.3601 94.1551 89.1203C90.7042 89.8587 89.1782 90.1759 88.4535 90.3089C88.0865 90.3763 87.9509 90.3913 87.8844 90.3941C87.858 90.3952 87.8411 90.3944 87.8083 90.3923L87.7982 90.3916C87.761 90.3892 87.7074 90.3856 87.6353 90.3856C86.328 90.3823 85.061 89.9323 84.0445 89.1103C83.0279 88.2882 82.3229 87.1434 82.0461 85.8657L68.4543 22.681L87.9632 18.4829C89.0444 18.27 90.1638 18.3674 91.1919 18.764C92.2214 19.161 93.1173 19.8416 93.7757 20.727C94.4342 21.6123 94.8282 22.6661 94.9123 23.7663C94.9963 24.8664 94.7669 25.9679 94.2505 26.943L94.2505 26.9431C93.0566 29.1995 92.5317 31.7498 92.7375 34.2942C92.9433 36.8387 93.8713 39.2715 95.4124 41.3066C96.9534 43.3417 99.0435 44.8946 101.437 45.7826C103.83 46.6707 106.427 46.8569 108.923 46.3196C111.418 45.7822 113.709 44.5435 115.524 42.7491C117.34 40.9548 118.606 38.6793 119.173 36.1903C119.739 33.7013 119.584 31.1021 118.724 28.6985C117.865 26.2948 116.337 24.1866 114.32 22.6215L114.319 22.6212C113.446 21.9454 112.783 21.0358 112.406 19.9981C112.028 18.9603 111.953 17.8369 112.189 16.7583C112.425 15.6796 112.962 14.6899 113.737 13.9039C114.512 13.119 115.493 12.5694 116.567 12.319C116.568 12.3187 116.569 12.3184 116.57 12.3181L137.49 7.81369L151.082 70.9995Z" fill="#FFD644" stroke="black"/>
<path d="M131.72 100.614C130.096 94.9679 128.465 88.0569 127.838 85.0756C127.027 81.2219 125.644 68.5054 123.444 71.4129C121.833 73.5526 121.305 80.2092 120.951 83.8394L105.034 87.2628C106.31 94.0361 108.281 100.66 110.916 107.028C117.501 103.888 124.51 101.727 131.72 100.614Z" fill="#FDFFF4"/>
<path d="M323.991 407.594L302.466 399.247L310.813 377.722C310.835 377.667 310.845 377.609 310.844 377.55C310.842 377.491 310.829 377.434 310.806 377.38C310.782 377.326 310.748 377.277 310.705 377.237C310.663 377.196 310.613 377.164 310.558 377.143C310.503 377.122 310.445 377.112 310.386 377.113C310.327 377.115 310.269 377.127 310.215 377.151C310.162 377.175 310.113 377.209 310.073 377.251C310.032 377.294 310 377.344 309.979 377.399L301.632 398.921L280.11 390.574C279.999 390.531 279.876 390.534 279.767 390.581C279.658 390.629 279.573 390.718 279.53 390.829C279.486 390.939 279.489 391.062 279.537 391.171C279.584 391.28 279.673 391.365 279.784 391.409L301.309 399.758L292.959 421.28C292.938 421.335 292.928 421.393 292.929 421.452C292.931 421.511 292.944 421.569 292.967 421.623C292.991 421.676 293.025 421.725 293.068 421.765C293.11 421.806 293.16 421.838 293.215 421.859C293.27 421.88 293.328 421.891 293.387 421.889C293.446 421.888 293.504 421.875 293.557 421.851C293.611 421.827 293.66 421.793 293.7 421.751C293.741 421.708 293.773 421.658 293.794 421.604L302.143 400.081C323.884 408.511 323.592 408.459 323.829 408.459C323.933 408.457 324.033 408.42 324.112 408.353C324.191 408.286 324.244 408.194 324.263 408.092C324.282 407.991 324.266 407.885 324.216 407.795C324.166 407.704 324.087 407.633 323.991 407.594Z" fill="#10162F"/>
<path d="M5.00649 225.725C7.31967 219.152 16.4178 217.973 18.7191 211.328C19.0793 210.407 19.2431 209.421 19.2001 208.432C19.1571 207.444 18.9082 206.476 18.4694 205.59C18.0306 204.703 17.4116 203.918 16.6519 203.285C15.8922 202.652 15.0086 202.184 14.0578 201.912C13.1069 201.64 12.1097 201.569 11.1299 201.705C10.1502 201.84 9.20958 202.179 8.36828 202.699C7.52697 203.219 6.80354 203.909 6.24429 204.725C5.68505 205.54 5.30232 206.464 5.12061 207.436C5.09885 207.553 5.03166 207.656 4.93379 207.723C4.83593 207.79 4.71542 207.816 4.59878 207.794C4.48213 207.772 4.3789 207.705 4.3118 207.607C4.2447 207.509 4.21923 207.389 4.24098 207.272C4.44555 206.178 4.87603 205.14 5.50491 204.222C6.1338 203.304 6.94725 202.528 7.89327 201.942C8.83929 201.357 9.89706 200.975 10.999 200.822C12.1009 200.668 13.2227 200.746 14.2927 201.051C15.3627 201.356 16.3573 201.88 17.213 202.591C18.0688 203.302 18.7667 204.184 19.2623 205.18C19.7579 206.176 20.0402 207.265 20.0911 208.376C20.1421 209.487 19.9607 210.597 19.5583 211.635C18.7168 214.076 17.5043 215.797 12.9017 218.928C8.14699 222.169 6.68967 223.628 5.84808 226.022C5.80412 226.128 5.72146 226.212 5.61706 226.259C5.51266 226.305 5.39445 226.31 5.28673 226.272C5.179 226.234 5.08993 226.156 5.03781 226.054C4.9857 225.953 4.97449 225.835 5.00649 225.725Z" fill="#10162F"/>
<path d="M354.115 163.828C360.772 162.511 364.459 157.756 365.115 149.699C365.125 149.581 365.087 149.464 365.011 149.373C364.934 149.283 364.824 149.227 364.706 149.217C364.588 149.207 364.471 149.245 364.38 149.321C364.29 149.398 364.233 149.508 364.223 149.626C363.605 157.233 360.146 161.719 353.941 162.951C353.825 162.974 353.723 163.042 353.657 163.141C353.591 163.239 353.567 163.36 353.59 163.476C353.613 163.593 353.681 163.695 353.779 163.761C353.878 163.827 353.999 163.851 354.115 163.828Z" fill="#000001"/>
<path d="M383.162 273.855C380.401 271.812 377.266 270.331 373.933 269.497C369.595 268.501 364.83 270.244 359.705 271.582C357.993 268.703 356.139 267.355 354.292 267.681L273.654 279.689L266.391 247.58C264.467 238.861 260.254 230.811 254.185 224.262C248.116 217.712 240.41 212.899 231.862 210.317C232.359 207.985 235.407 193.307 236.457 188.921C271.336 190.133 306.219 186.662 340.175 178.601C341.161 178.556 342.913 177.902 344.342 174.899C361.768 173.143 367.165 171.742 380.982 169.688C383.497 169.315 393.418 167.874 393.135 165.373C392.997 164.149 390.52 163.559 385.803 163.626C383.007 163.659 380.212 163.455 377.449 163.015C379.275 162.513 382.539 161.536 388.464 159.701C392.743 158.379 395.101 156.798 394.804 155.472C394.426 153.784 390.373 153.995 387.037 154.466C384.291 154.874 381.523 155.112 378.747 155.179C381.707 153.893 387.375 151.359 391.916 148.917C395.463 147.015 397.196 145.201 396.67 143.958C396.124 142.653 393.359 142.667 389.084 143.994C388.354 144.231 380.369 146.435 375.058 147.905C377.315 145.758 379.784 143.847 382.428 142.199C385.663 140.142 387.273 138.117 386.626 136.919C385.951 135.671 383.298 135.982 379.316 137.775C378.667 138.072 366.868 143.143 366.868 143.143C364.785 144.029 361.279 144.766 360.703 143.97C358.176 140.451 359.926 129.62 355.573 128.938C355.36 128.903 355.142 128.913 354.933 128.966C354.724 129.02 354.528 129.116 354.358 129.249C352.456 130.676 352.133 136.619 351.396 141.222C350.966 143.877 346.915 146.269 343.876 146.478C343.795 146.478 343.529 146.504 342.464 146.626C341.297 144.655 339.212 142.299 337.022 142.639C318.976 144.98 236.619 155.16 220.584 146.314C217.645 144.714 214.942 141.864 215.021 131.99C217.075 131.363 227.83 127.74 230.1 120.104C231.337 115.962 229.815 111.402 225.583 106.553C227.354 107.46 229.318 107.927 231.308 107.912C243.82 107.912 251.385 92.1173 242.75 83.844C239.999 81.4918 236.429 80.3253 232.82 80.5997C229.21 80.8742 225.857 82.5673 223.494 85.3085C221.383 87.3856 219.97 90.0671 219.449 92.9823C218.929 95.8975 219.327 98.9024 220.588 101.582C210.87 93.4058 203.06 96.0447 197.459 106.26C193.655 113.193 191.399 124.944 194.247 131.717C194.82 133.382 195.978 134.782 197.506 135.657C199.034 136.532 200.828 136.821 202.554 136.472C202.923 137.373 203.172 138.318 203.293 139.284C203.362 140.513 202.076 146.179 200.975 146.79C189.16 153.401 163.836 146.145 150.97 141.873L138.291 101.396C137.73 99.5774 133.938 99.9031 132.046 100.119C130.62 95.127 128.594 87.1605 127.607 81.2218C126.573 75.0097 125.786 70.9135 124.322 70.5522C121.336 69.8081 120.394 83.7299 120.235 86.8134C118.42 88.3827 117.296 90.6029 117.104 92.9945C116.565 97.7492 118.887 101.748 119.598 101.748C119.683 101.748 119.766 101.724 119.838 101.679C119.91 101.633 119.967 101.568 120.003 101.491C120.039 101.415 120.053 101.329 120.042 101.245C120.031 101.161 119.997 101.081 119.943 101.016C118.34 98.7063 117.645 95.8864 117.993 93.0967C118.077 91.9963 118.381 90.924 118.888 89.9437C119.395 88.9635 120.094 88.0953 120.944 87.3911C120.995 87.3516 121.037 87.3014 121.067 87.2439C121.097 87.1864 121.114 87.123 121.117 87.0582C121.117 86.9346 121.735 74.4154 123.801 71.6838C123.958 71.4746 124.082 71.4128 124.108 71.4199C125.111 71.6577 126.202 78.2192 126.723 81.3692C127.693 87.1842 129.64 94.9202 131.145 100.234C124.224 101.353 117.493 103.434 111.147 106.415C108.613 100.211 106.712 93.7674 105.472 87.1819L104.597 87.3578C105.855 94.0219 107.782 100.542 110.35 106.819C108.717 107.689 105.61 109.465 106.166 111.231C127.087 177.824 126.74 175.294 126.968 175.532L127.049 175.589C142.36 183.425 159.16 187.921 176.339 188.781C177.653 197.477 182.135 209.098 190.03 224.282C135.978 294.826 119.869 319.384 55.9726 379.835C53.8877 381.737 53.3718 384.75 54.4701 388.57C48.3437 393.379 37.22 401.981 29.7455 406.968C12.6737 418.365 10.6838 421.425 10.8574 422.821C11.8963 431.334 40.2963 418.304 54.7412 419.492C58.1567 419.854 61.6099 419.544 64.9068 418.582C68.7272 417.379 71.7488 414.043 74.8037 410.912C77.8943 412.101 81.206 412.451 83.6475 410.23C140.443 358.95 173.854 329.564 220.769 270.988L243.739 310.435C246.375 314.938 250.327 318.525 255.064 320.713C259.8 322.901 265.093 323.586 270.23 322.674L361.312 306.287C363.63 305.892 364.578 302.971 364.952 301.057C371.846 300.089 388.157 297.895 398.373 297.305C418.861 296.131 422.127 294.5 422.686 293.209C426.095 285.33 394.987 282.18 383.162 273.855ZM265.516 247.77C268.131 259.776 266.564 252.173 272.871 280.29C272.894 280.389 272.949 280.477 273.028 280.541C273.107 280.604 273.205 280.639 273.307 280.64L337.947 271.019C341.601 270.403 344.925 285.231 345.616 289.296L268.954 299.264C267.002 299.513 265.025 299.079 263.358 298.034C261.691 296.99 260.437 295.4 259.81 293.535C255.804 281.553 248.903 259.867 247.664 249.242C245.639 231.887 226.03 221.367 221.806 219.287C225.338 217.216 228.587 214.697 231.474 211.794C231.603 211.663 231.605 211.509 231.674 211.185C240.058 213.724 247.614 218.452 253.563 224.883C259.511 231.314 263.637 239.214 265.516 247.77ZM387.163 155.35C392.46 154.597 393.86 155.35 393.932 155.664C394.024 156.076 392.707 157.447 388.2 158.845C385.25 159.758 376.375 162.504 375.307 162.62C373.881 162.323 372.818 162.028 372.31 161.876C372.563 159.814 372.586 157.729 372.378 155.662C377.296 156.271 382.276 156.166 387.163 155.35ZM389.353 144.835C393.684 143.487 395.639 143.785 395.85 144.291C396.045 144.766 395.035 146.209 391.492 148.116C385.511 151.33 377.552 154.713 376.515 155.153C375.089 155.137 373.667 154.995 372.267 154.728C372.02 153.095 371.622 151.489 371.078 149.93C372.155 149.633 388.373 145.137 389.353 144.835ZM343.91 147.348C347.371 147.11 351.781 144.436 352.28 141.341C352.815 138.012 353.424 129.499 355.437 129.799C358.728 130.314 357.451 140.944 359.981 144.467C361.307 146.312 367.163 143.968 367.224 143.941C367.224 143.941 379.033 138.866 379.687 138.564C383.688 136.762 385.582 136.843 385.841 137.318C386.053 137.715 385.383 139.239 381.95 141.421C378.794 143.34 375.91 145.673 373.375 148.359L370.759 149.072C370.372 148.045 369.911 146.982 369.371 145.874C369.319 145.768 369.227 145.686 369.115 145.648C369.003 145.609 368.88 145.617 368.773 145.669C368.667 145.721 368.585 145.813 368.547 145.925C368.508 146.037 368.516 146.16 368.568 146.267C371.497 151.843 372.367 158.273 371.026 164.427C371.012 164.541 371.043 164.656 371.111 164.747C371.179 164.839 371.28 164.901 371.393 164.921C371.506 164.94 371.622 164.916 371.717 164.852C371.813 164.789 371.88 164.691 371.905 164.579C372.012 163.968 372.105 163.367 372.186 162.77C376.621 163.992 381.206 164.579 385.806 164.513C391.036 164.441 392.225 165.243 392.237 165.464C392.249 165.685 391.309 166.75 386.476 167.775C384.498 168.188 382.601 168.533 380.842 168.794C364.001 171.298 359.966 172.722 335.874 174.688C331.875 168.569 330.499 156.023 332.995 148.451C347.426 146.996 343.106 147.384 343.91 147.348ZM201.415 147.562C203.005 146.673 204.123 140.851 204.189 139.422C206.961 136.277 207.91 135.24 208.264 134.817C208.714 134.282 208.49 133.792 207.912 133.947C207.496 134.059 206.769 134.408 205.411 134.86C201.995 135.989 198.624 136.227 196.335 133.469C192.673 129.062 193.527 118.701 196.18 111.222L197.756 107.58C202.604 98.4268 210.031 101.123 211.752 111.3C211.928 112.582 212.765 112.926 213.316 112.693C214.88 112.337 215.679 111.008 217.096 111.046C219.614 111.117 220.489 115.831 215.827 117.393L215.772 117.415C215.709 117.447 215.654 117.494 215.613 117.551C215.572 117.609 215.545 117.675 215.534 117.745C214.733 122.332 214.267 126.972 214.139 131.627C213.989 142.268 217.101 145.415 220.163 147.08C223.989 148.783 228.092 149.776 232.273 150.011C215.869 153.758 201.453 153.865 188.42 150.337C192.914 150.494 197.378 149.542 201.415 147.562ZM177.166 188.282C176.286 182.364 177.054 176.318 179.384 170.808C179.408 170.738 179.414 170.663 179.402 170.59C179.39 170.517 179.359 170.448 179.314 170.39C179.268 170.332 179.209 170.286 179.141 170.256C179.073 170.227 178.999 170.214 178.925 170.221C178.469 170.304 179.084 169.191 171.529 187.538C156.222 186.165 141.321 181.868 127.634 174.88L107.019 110.96C106.92 110.635 107.134 110.247 107.512 109.843C110.966 106.182 125.163 101.905 131.682 101.059C131.92 101.08 137.019 100.312 137.438 101.662C150.585 144.146 150.076 142.363 150.38 142.596C151.12 143.024 170.623 149.547 185.014 150.256C201.436 155.529 218.442 154.38 235.045 150.256C260.98 152.317 308.627 147.137 334.607 143.82C328.148 150.063 330.565 174.25 338.114 178.14C308.434 184.97 278.074 188.406 247.619 188.382C239.672 176.792 239.912 177.056 239.712 176.889L239.686 176.868C239.616 176.822 239.534 176.796 239.45 176.794C239.366 176.791 239.283 176.812 239.21 176.854L239.179 176.873C237.278 178.361 231.318 208.549 230.733 211.264C221.461 220.773 200.911 229.807 190.888 223.992C182.891 208.63 178.402 196.942 177.168 188.282H177.166ZM83.0532 409.564C74.1214 417.681 47.7374 388.537 56.5741 380.492C59.7075 377.525 62.7561 374.607 65.7198 371.738C64.4788 380.416 83.6238 402.052 91.9826 401.489C89.0806 404.121 86.1041 406.813 83.0532 409.564ZM99.1765 394.986C97.3887 396.605 95.6104 398.274 93.7347 399.91C91.3027 402.05 85.9821 399.102 80.7543 394.371C126.367 351.616 169.77 306.565 210.796 259.391L215.734 275.821C174.254 326.164 151.543 347.629 99.1765 394.986ZM344.711 308.362L270.061 321.792C265.105 322.671 259.998 322.01 255.429 319.899C250.859 317.788 247.046 314.328 244.502 309.984L208.155 247.559C208.099 247.465 208.011 247.395 207.908 247.362C207.804 247.328 207.692 247.334 207.592 247.378C207.492 247.421 207.412 247.499 207.366 247.598C207.32 247.697 207.311 247.809 207.342 247.913L210.487 258.374C169.359 305.698 125.838 350.888 80.0934 393.767C78.562 392.33 77.1037 390.818 75.7238 389.236C69.3477 381.93 64.3956 372.97 67.4268 370.093C88.5106 350.18 108.41 329.05 127.023 306.81C145.259 285.193 162.174 262.115 190.676 224.905C198.824 229.384 212.639 224.567 220.869 219.844C223.306 220.987 244.685 231.493 246.768 249.347C248.016 260.045 254.939 281.805 258.954 293.82C259.646 295.882 261.032 297.64 262.874 298.795C264.717 299.95 266.903 300.43 269.061 300.153L345.762 290.18C346.475 294.149 346.808 298.177 346.755 302.21C346.632 305.904 345.899 308.146 344.711 308.362ZM361.155 305.403L346.444 308.051C350.01 302.243 345.098 275.12 339.709 270.755L354.417 268.565C362.032 267.17 368.722 304.14 361.162 305.403H361.155Z" fill="#10162F"/>
<path d="M205.703 166.122C206.185 166.08 206.643 165.896 207.021 165.594C207.398 165.292 207.677 164.884 207.822 164.423C207.968 163.962 207.973 163.468 207.838 163.004C207.703 162.54 207.433 162.126 207.063 161.815C206.692 161.504 206.238 161.31 205.758 161.258C205.277 161.205 204.792 161.296 204.363 161.52C203.934 161.743 203.581 162.089 203.349 162.513C203.116 162.937 203.015 163.42 203.057 163.902C203.085 164.221 203.175 164.532 203.323 164.817C203.471 165.102 203.674 165.355 203.92 165.561C204.165 165.767 204.449 165.923 204.755 166.019C205.062 166.116 205.384 166.15 205.703 166.122Z" fill="#000001"/>
<path d="M201.724 182.593C202.205 182.55 202.662 182.367 203.039 182.064C203.415 181.762 203.693 181.355 203.839 180.894C203.984 180.434 203.989 179.941 203.854 179.477C203.719 179.014 203.449 178.601 203.079 178.29C202.71 177.98 202.256 177.786 201.776 177.734C201.296 177.681 200.811 177.772 200.383 177.995C199.955 178.217 199.602 178.562 199.37 178.985C199.137 179.409 199.036 179.891 199.078 180.372C199.105 180.692 199.195 181.003 199.343 181.288C199.491 181.573 199.694 181.825 199.94 182.032C200.186 182.238 200.47 182.394 200.776 182.49C201.082 182.586 201.404 182.621 201.724 182.593Z" fill="#000001"/>
<path d="M201.724 200.962C202.205 200.921 202.664 200.737 203.041 200.434C203.418 200.132 203.697 199.724 203.843 199.263C203.988 198.802 203.994 198.308 203.859 197.844C203.724 197.38 203.454 196.966 203.083 196.656C202.713 196.345 202.259 196.151 201.778 196.098C201.298 196.046 200.812 196.137 200.383 196.36C199.954 196.584 199.602 196.929 199.369 197.353C199.137 197.777 199.035 198.26 199.078 198.742C199.105 199.062 199.196 199.373 199.344 199.658C199.492 199.942 199.694 200.195 199.94 200.401C200.186 200.608 200.47 200.763 200.776 200.86C201.082 200.956 201.404 200.991 201.724 200.962Z" fill="#000001"/>
</svg>
