<svg width="769" height="758" viewBox="0 0 769 758" fill="none" xmlns="http://www.w3.org/2000/svg">
<path d="M364.788 321.847C324.947 283.8 303.476 253.338 288.879 227.912C297.16 218.789 307.692 211.962 319.431 208.11C329.584 222.73 341.339 236.184 354.483 248.228C354.483 248.228 348.207 277.045 371.093 277.994L374.636 299.587C371.825 307.202 368.535 314.637 364.788 321.847Z" fill="#FFD644"/>
<path d="M378.71 177.178C376.93 177.589 375.068 177.455 373.365 176.794C371.662 176.133 370.197 174.975 369.161 173.47C368.125 171.966 367.565 170.185 367.554 168.358C367.543 166.532 368.082 164.744 369.1 163.227C370.118 161.711 371.569 160.536 373.264 159.854C374.959 159.173 376.819 159.017 378.604 159.407C380.389 159.796 382.015 160.714 383.271 162.04C384.528 163.366 385.356 165.039 385.65 166.842C386.021 169.124 385.51 171.461 384.222 173.381C382.933 175.3 380.962 176.657 378.71 177.178ZM374.933 160.692C373.451 161.029 372.1 161.791 371.045 162.885C369.99 163.978 369.277 165.356 368.994 166.849C368.711 168.342 368.87 169.886 369.452 171.29C370.033 172.694 371.012 173.897 372.267 174.753C373.523 175.609 375.001 176.08 376.52 176.108C378.04 176.136 379.534 175.72 380.821 174.911C382.107 174.101 383.129 172.934 383.761 171.553C384.394 170.171 384.61 168.635 384.382 167.132C384.215 166.071 383.833 165.055 383.258 164.147C382.682 163.24 381.927 162.46 381.037 161.857C380.148 161.254 379.145 160.84 378.089 160.64C377.033 160.441 375.947 160.461 374.899 160.699L374.933 160.692Z" fill="#10162F"/>
<path d="M323.96 482.785C322.18 483.195 320.318 483.062 318.615 482.401C316.912 481.74 315.447 480.582 314.411 479.077C313.375 477.573 312.815 475.792 312.804 473.965C312.793 472.139 313.332 470.351 314.35 468.834C315.368 467.318 316.819 466.142 318.514 465.461C320.209 464.78 322.069 464.624 323.854 465.014C325.639 465.403 327.265 466.321 328.521 467.647C329.778 468.973 330.606 470.646 330.9 472.449C331.271 474.731 330.76 477.068 329.472 478.988C328.183 480.907 326.212 482.264 323.96 482.785ZM320.183 466.299C318.701 466.636 317.35 467.398 316.295 468.492C315.24 469.585 314.527 470.963 314.244 472.456C313.961 473.949 314.12 475.493 314.702 476.897C315.283 478.301 316.262 479.504 317.517 480.36C318.773 481.216 320.251 481.687 321.77 481.715C323.29 481.743 324.784 481.327 326.071 480.518C327.357 479.708 328.379 478.541 329.011 477.16C329.644 475.778 329.86 474.242 329.632 472.739C329.465 471.678 329.083 470.662 328.508 469.754C327.932 468.847 327.177 468.067 326.287 467.464C325.398 466.861 324.395 466.446 323.339 466.247C322.283 466.048 321.197 466.068 320.149 466.306L320.183 466.299Z" fill="#10162F"/>
<path d="M708.96 436.785C707.18 437.195 705.318 437.062 703.615 436.401C701.912 435.74 700.447 434.582 699.411 433.077C698.375 431.573 697.815 429.792 697.804 427.965C697.793 426.139 698.332 424.351 699.35 422.834C700.368 421.318 701.819 420.142 703.514 419.461C705.209 418.78 707.069 418.624 708.854 419.014C710.639 419.403 712.265 420.321 713.521 421.647C714.778 422.973 715.606 424.646 715.9 426.449C716.271 428.731 715.76 431.068 714.472 432.988C713.183 434.907 711.212 436.264 708.96 436.785ZM705.183 420.299C703.701 420.636 702.35 421.398 701.295 422.492C700.24 423.585 699.527 424.963 699.244 426.456C698.961 427.949 699.12 429.493 699.702 430.897C700.283 432.301 701.262 433.504 702.517 434.36C703.773 435.216 705.251 435.687 706.77 435.715C708.29 435.743 709.784 435.327 711.071 434.518C712.357 433.708 713.379 432.541 714.011 431.16C714.644 429.778 714.86 428.242 714.632 426.739C714.465 425.678 714.083 424.662 713.508 423.754C712.932 422.847 712.177 422.067 711.287 421.464C710.398 420.861 709.395 420.446 708.339 420.247C707.283 420.048 706.197 420.068 705.149 420.306L705.183 420.299Z" fill="#10162F"/>
<path d="M434.366 349.277C390.524 345.546 371.37 306.992 371.37 306.992C368.075 315.667 343.045 363.862 333.425 384.972L246.499 368.074L236.953 409.071L335.839 433.732C342.613 435.17 349.689 434.218 355.85 431.041C362.011 427.863 366.87 422.658 369.59 416.323L382.892 385.347C393.358 395.381 401.593 403.722 425.201 407.715C445.173 392.808 453.731 377.073 457.604 358.485C449.378 356.759 441.518 353.645 434.366 349.277Z" fill="#FFD644"/>
<path d="M591.151 434.157L595.928 420.441L582.139 413.531L577.305 420.716L591.151 434.157Z" fill="#10162F"/>
<path d="M697.662 468.338L634.103 438.998L629.372 463.897C627.954 471.476 624.113 478.408 618.421 483.662L676.778 510.639L697.662 468.338Z" fill="#10162F"/>
<path d="M578.621 406.088C578.454 406.126 578.275 406.081 578.123 405.962C577.971 405.843 577.86 405.66 577.812 405.454C577.765 405.247 577.786 405.034 577.871 404.861C577.955 404.688 578.097 404.569 578.264 404.531C587.376 403.265 596.097 400.1 604.052 395.174C604.196 395.11 604.358 395.113 604.51 395.183C604.662 395.253 604.793 395.384 604.879 395.554C604.965 395.724 604.999 395.919 604.976 396.105C604.954 396.291 604.875 396.454 604.755 396.565C596.688 401.554 587.852 404.773 578.621 406.088Z" fill="#10162F"/>
<path d="M572.859 241.955C572.529 236.865 571.036 231.919 568.495 227.494C565.953 223.069 562.431 219.282 558.194 216.422C553.958 213.562 549.12 211.704 544.05 210.989C538.979 210.274 533.81 210.722 528.935 212.298C524.06 213.875 519.608 216.537 515.919 220.084C512.23 223.631 509.401 227.968 507.647 232.765C505.893 237.562 505.26 242.692 505.798 247.765C506.336 252.838 508.029 257.719 510.749 262.037C496.534 274.509 487.02 291.44 483.785 310.018C480.551 328.597 483.791 347.706 492.967 364.174C493.062 364.296 493.199 364.38 493.351 364.41C493.504 364.44 493.662 364.414 493.797 364.337C493.932 364.259 494.034 364.136 494.085 363.989C494.136 363.843 494.132 363.683 494.074 363.54C485.066 347.354 481.878 328.58 485.037 310.322C488.197 292.064 497.514 275.414 511.45 263.123C515.549 269.106 521.485 273.603 528.371 275.939C535.257 278.276 542.722 278.327 549.649 276.085C556.576 273.843 562.591 269.429 566.796 263.503C571 257.577 573.167 250.457 572.973 243.211C591.394 244.998 608.646 252.974 621.893 265.828C635.14 278.681 643.596 295.648 645.872 313.942C645.91 314.108 646.012 314.251 646.157 314.342C646.302 314.432 646.476 314.461 646.643 314.423C646.81 314.385 646.954 314.282 647.045 314.138C647.136 313.994 647.166 313.82 647.128 313.654C644.77 295.068 636.133 277.845 622.636 264.815C609.14 251.786 591.586 243.724 572.859 241.955ZM536.544 212.186C540.805 211.816 545.095 212.29 549.168 213.581C553.24 214.872 557.013 216.955 560.27 219.708C563.527 222.462 566.203 225.832 568.143 229.624C570.082 233.416 571.248 237.554 571.572 241.8C549.864 240.198 528.375 247.148 511.729 261.154C508.844 256.473 507.209 251.132 506.979 245.639C506.749 240.147 507.932 234.684 510.415 229.769C512.898 224.854 516.6 220.65 521.169 217.555C525.738 214.461 531.022 212.579 536.521 212.087L536.544 212.186Z" fill="#10162F"/>
<path d="M195.74 381.932C171.374 387.543 145.934 386.38 122.159 378.57C98.3842 370.76 77.1745 356.598 60.8132 337.609C44.452 318.619 33.5587 295.521 29.3061 270.801C25.0535 246.081 27.6026 220.676 36.679 197.319C45.7554 173.963 61.0154 153.54 80.8162 138.249C100.617 122.958 124.209 113.379 149.052 110.541C173.895 107.704 199.049 111.717 221.806 122.147C244.562 132.578 264.06 149.031 278.199 169.736C278.272 169.876 278.291 170.036 278.253 170.189C278.216 170.341 278.124 170.474 277.996 170.563C277.867 170.652 277.711 170.692 277.555 170.673C277.4 170.655 277.256 170.58 277.152 170.464C264.539 151.942 247.585 136.806 227.782 126.387C207.979 115.968 185.933 110.584 163.583 110.71C141.233 110.837 119.264 116.468 99.6085 127.11C79.9526 137.752 63.2119 153.078 50.8588 171.741C38.5056 190.403 30.9185 211.83 28.7647 234.137C26.611 256.444 29.9565 278.948 38.507 299.669C47.0576 320.39 60.5513 338.693 77.8013 352.97C95.0513 367.246 115.529 377.058 137.434 381.542C163.502 386.755 190.505 384.315 215.204 374.514C215.352 374.481 215.508 374.501 215.643 374.572C215.777 374.643 215.883 374.76 215.94 374.901C215.998 375.042 216.003 375.199 215.956 375.344C215.909 375.489 215.811 375.613 215.682 375.692C209.211 378.299 202.542 380.386 195.74 381.932Z" fill="#10162F"/>
<path d="M186.07 141.441C163.979 137.142 141.072 139.826 120.555 149.117C100.039 158.407 82.9407 173.84 71.6555 193.253C60.3703 212.667 55.4631 235.088 57.6211 257.379C59.7791 279.669 68.8943 300.712 83.6901 317.56C98.4858 334.408 118.221 346.218 140.133 351.336C162.044 356.454 185.035 354.624 205.884 346.101C226.734 337.579 244.398 322.791 256.404 303.809C268.41 284.828 274.157 262.602 272.838 240.245C271.445 216.515 262.168 193.938 246.465 176.055C230.761 158.173 209.518 145.998 186.07 141.441ZM271.538 240.335C272.831 262.426 267.145 284.383 255.275 303.134C243.405 321.884 225.945 336.488 205.342 344.901C184.738 353.313 162.022 355.113 140.375 350.048C118.727 344.984 99.2315 333.308 84.6183 316.656C70.0052 300.004 61.0061 279.21 58.8812 257.186C56.7562 235.161 61.6118 213.009 72.7681 193.831C83.9243 174.653 100.823 159.41 121.097 150.236C141.371 141.062 164.005 138.417 185.831 142.67C208.998 147.185 229.983 159.225 245.494 176.9C261.005 194.575 270.166 216.887 271.538 240.335Z" fill="#10162F"/>
<path d="M351.092 307.514L297.793 282.71C300.905 271.202 302.512 259.339 302.576 247.418C302.56 247.257 302.485 247.109 302.365 247.001C302.245 246.894 302.089 246.836 301.928 246.837C301.766 246.839 301.612 246.902 301.495 247.012C301.377 247.122 301.305 247.273 301.293 247.433C301.242 272.29 294.386 296.657 281.469 317.891C268.553 339.126 250.069 356.417 228.023 367.889C227.947 367.927 227.88 367.979 227.824 368.043C227.769 368.107 227.726 368.182 227.7 368.262C227.673 368.343 227.662 368.428 227.668 368.512C227.674 368.597 227.697 368.679 227.735 368.755C227.773 368.831 227.825 368.899 227.889 368.954C227.953 369.01 228.028 369.052 228.108 369.079C228.189 369.106 228.273 369.116 228.358 369.11C228.443 369.104 228.525 369.082 228.601 369.044C248.506 358.803 265.549 343.768 278.193 325.294L347.129 357.926L364.984 321.239L351.092 307.514Z" fill="#10162F"/>
<path d="M472.846 509.311L465.582 492.351L536.521 461.355L543.792 478.348L472.846 509.311Z" fill="#FFD644"/>
<path d="M195.033 494.048L162.473 478.501C162.38 478.48 162.292 478.438 162.216 478.379C162.141 478.32 162.08 478.244 162.037 478.158C161.995 478.071 161.973 477.977 161.973 477.88C161.972 477.784 161.994 477.69 162.035 477.603C162.076 477.516 162.137 477.44 162.212 477.38C162.287 477.32 162.374 477.277 162.468 477.256C162.561 477.234 162.659 477.234 162.752 477.256C162.846 477.277 162.933 477.319 163.008 477.379L194.94 492.589L212.974 443.682C213.033 443.523 213.154 443.393 213.309 443.322C213.464 443.251 213.64 443.244 213.8 443.304C213.96 443.363 214.089 443.483 214.16 443.638C214.231 443.793 214.238 443.97 214.179 444.13L195.902 493.78C195.863 493.855 195.809 493.922 195.744 493.976C195.679 494.03 195.604 494.071 195.523 494.096C195.443 494.121 195.358 494.13 195.273 494.121C195.189 494.113 195.108 494.088 195.033 494.048Z" fill="#10162F"/>
<path d="M535.215 480.34L520.428 469.573L570.644 398.813L585.432 409.581L535.215 480.34Z" fill="#FFD644"/>
<path d="M411.236 441.567C411.166 441.412 411.039 441.287 410.878 441.217C410.718 441.147 410.535 441.136 410.365 441.186L397.474 445.847L392.902 433.51C392.865 433.346 392.761 433.205 392.614 433.117C392.467 433.029 392.289 433.002 392.118 433.041C391.948 433.08 391.799 433.182 391.705 433.325C391.611 433.469 391.579 433.641 391.617 433.804L396.229 446.166L383.331 450.794C383.16 450.833 383.012 450.936 382.918 451.079C382.824 451.222 382.792 451.395 382.829 451.558C382.867 451.722 382.97 451.863 383.117 451.951C383.264 452.039 383.443 452.066 383.613 452.027L396.775 447.305L401.346 459.642C401.384 459.805 401.488 459.946 401.635 460.034C401.782 460.122 401.96 460.15 402.13 460.111C402.301 460.072 402.45 459.969 402.544 459.826C402.638 459.683 402.67 459.511 402.632 459.347L398.019 446.985L410.918 442.357C411.057 442.279 411.164 442.158 411.222 442.014C411.279 441.87 411.284 441.712 411.236 441.567Z" fill="#10162F"/>
<path d="M166.259 279.674C164.844 279.339 163.376 279.288 161.94 279.524C160.504 279.759 159.127 280.277 157.889 281.046C156.651 281.816 155.576 282.823 154.725 284.01C153.874 285.196 153.263 286.539 152.929 287.962C149.508 302.318 171.106 307.201 174.451 293.041C174.791 291.621 174.849 290.148 174.621 288.707C174.393 287.266 173.883 285.885 173.122 284.643C172.361 283.401 171.363 282.323 170.185 281.47C169.008 280.617 167.673 280.007 166.259 279.674Z" fill="#10162F"/>
<path d="M192.719 214.745C192.685 210.63 191.841 206.561 190.236 202.773C188.63 198.985 186.296 195.55 183.364 192.666C180.433 189.782 176.963 187.504 173.152 185.963C169.341 184.422 165.264 183.648 161.153 183.685C157.042 183.722 152.979 184.569 149.194 186.178C145.41 187.787 141.978 190.127 139.096 193.063C136.214 196 133.937 199.475 132.396 203.292C130.855 207.108 130.08 211.191 130.114 215.307C130.127 215.478 130.201 215.639 130.323 215.76C130.445 215.88 130.606 215.953 130.777 215.965L145.899 216.202C145.993 216.207 146.088 216.19 146.175 216.154C146.262 216.118 146.341 216.064 146.405 215.994C146.469 215.924 146.517 215.841 146.546 215.751C146.574 215.661 146.583 215.566 146.57 215.472C146.365 213.077 146.742 210.669 147.667 208.451C148.592 206.233 150.039 204.271 151.884 202.733C153.729 201.195 155.918 200.127 158.264 199.618C160.61 199.109 163.044 199.176 165.358 199.812C167.672 200.448 169.798 201.635 171.555 203.271C173.312 204.908 174.648 206.945 175.448 209.21C176.249 211.476 176.49 213.901 176.153 216.281C175.815 218.66 174.908 220.923 173.509 222.876C171.068 226.057 168.238 228.918 165.085 231.392C160.963 234.68 158.117 239.306 157.038 244.47C155.502 252.046 154.85 259.774 155.095 267.499C155.092 267.677 155.159 267.85 155.282 267.979C155.405 268.108 155.573 268.184 155.751 268.191L171.36 268.424C171.466 268.426 171.572 268.403 171.668 268.356C171.764 268.31 171.848 268.242 171.912 268.157C171.977 268.072 172.021 267.973 172.041 267.869C172.061 267.764 172.055 267.656 172.026 267.553C171.946 266.424 172.497 255.518 172.639 254.157C172.793 251.733 173.286 249.342 174.106 247.055C175.921 242.633 180.168 239.721 183.504 236.342C189.283 230.629 192.593 222.874 192.719 214.745Z" fill="#10162F"/>
<path d="M693.545 289.818C674.231 296.466 638.504 316.667 623.661 329.791C623.603 329.832 623.556 329.886 623.522 329.947C623.488 330.009 623.469 330.078 623.465 330.148C623.003 333.136 622.766 335.587 622.572 337.923C622.011 345.448 620.349 352.849 617.637 359.89L590.509 432.781L577.765 421.115L585.692 410.236C585.737 410.167 585.768 410.09 585.782 410.009C585.797 409.928 585.795 409.845 585.776 409.765C585.758 409.685 585.724 409.609 585.675 409.543C585.627 409.476 585.566 409.42 585.495 409.378L570.724 398.871C570.577 398.788 570.404 398.762 570.239 398.8C570.074 398.838 569.93 398.936 569.834 399.075L567.359 402.524C523.463 365.387 486.039 361.355 465.881 359.167C460.592 358.899 455.37 357.861 450.381 356.085C457.423 354.661 463.611 350.497 467.583 344.511C471.555 338.524 472.987 331.205 471.562 324.163C470.138 317.121 465.974 310.934 459.987 306.962C454.001 302.99 446.681 301.558 439.639 302.983C438.936 297.924 436.569 293.243 432.91 289.679C429.251 286.116 424.509 283.872 419.433 283.303C419.542 281.487 419.255 279.669 418.594 277.974C406.965 248.134 396.531 230.938 383.921 222.888C372.586 215.553 353.377 224.329 351.431 245.091C339.736 233.896 329.267 221.486 320.203 208.072C320.119 207.958 320.002 207.873 319.867 207.829C319.732 207.785 319.587 207.785 319.452 207.828C318 208.16 316.665 208.848 315.357 209.356C310.72 202.153 301.293 193.444 291.896 164.099C289.755 157.332 287.784 154.033 286.185 154.33C283.446 154.957 284.025 164.305 284.249 167.101C281.375 163.576 278.042 160.45 274.34 157.807C274.025 157.57 273.639 157.445 273.244 157.454C272.849 157.463 272.468 157.604 272.163 157.855C271.124 158.926 271.929 161.381 274.645 165.655C278.852 172.193 282.776 179.316 283.942 181.375C289.85 192.002 288.454 190.76 291.786 199.546C291.96 200.305 291.802 200.827 291.469 201.042C289.92 202.161 283.597 198.818 279.794 196.772C277.503 195.56 271.094 191.993 269.563 194.254C268.953 195.227 269.031 197.085 275.573 203.052C281.981 209.34 287.423 216.543 291.721 224.425L288.898 227.26C288.807 227.361 288.748 227.486 288.729 227.621C288.711 227.755 288.733 227.892 288.793 228.013C300.351 248.146 320.485 279.789 363.894 321.621C360.684 328.226 337.795 374.447 333.489 384.15L247.069 367.104C246.99 367.088 246.908 367.087 246.829 367.102C246.75 367.117 246.674 367.148 246.607 367.192C246.539 367.237 246.482 367.294 246.437 367.361C246.392 367.428 246.361 367.503 246.345 367.583L245.201 372.29C234.12 369.839 223.199 366.717 212.497 362.94C204.855 359.898 202.916 359.926 202.207 360.922C201.497 361.918 202.963 364.221 205.529 366.932C207.53 369.148 217.374 375.435 216.934 378.21C216.795 378.971 215.765 379.173 215.465 379.38C208.649 379.602 201.868 380.447 195.206 381.903C190.26 382.839 185.397 384.174 180.666 385.894C171.077 389.515 171.523 391.462 171.652 392.023C172.052 393.771 175.647 394.302 182.707 393.588C185.216 393.325 187.921 393.157 190.715 393.072L183.166 396.503C178.543 398.605 176.345 400.532 176.766 402.068C176.89 402.426 177.141 402.727 177.472 402.913C177.802 403.1 178.19 403.159 178.561 403.08C182.809 402.524 189.655 401.025 194.474 400.233C192.485 401.557 187.558 404.908 188.582 407.105C188.769 407.432 189.065 407.682 189.419 407.81C189.773 407.939 190.161 407.938 190.514 407.808C202.394 404.183 207.272 400.01 226.636 398.734C227.912 398.997 230.337 399.726 238.175 402.41L236.889 408.921C236.851 409.082 236.878 409.252 236.962 409.394C237.046 409.537 237.182 409.641 237.342 409.686L335.409 434.516C339.973 435.708 344.755 435.803 349.363 434.792C354.056 433.722 358.428 431.555 362.121 428.469C365.815 425.384 368.725 421.467 370.613 417.04L383.439 386.771C396.098 398.977 404.441 405.227 425.376 408.834L469.402 490.497L465.045 492.398C464.891 492.467 464.771 492.593 464.709 492.75C464.648 492.907 464.65 493.082 464.716 493.237C472.31 511.222 472.053 510.1 472.271 510.294C472.488 510.487 471.902 510.656 483.688 505.559L492.953 522.502C496.068 528.261 500.308 533.336 505.42 537.426C510.533 541.515 516.415 544.537 522.718 546.312L642.382 574.46C643.502 575.106 653.869 574.12 685.377 602.809C695.557 612.076 705.164 620.814 716.13 625.629C716.243 625.676 716.368 625.69 716.489 625.669C716.61 625.648 716.722 625.593 716.812 625.51C716.903 625.427 716.968 625.32 717 625.202C717.031 625.083 717.029 624.958 716.991 624.841C711.268 605.316 693.962 568.129 681.889 552.421C681.796 552.307 681.668 552.226 681.524 552.192C678.59 551.51 676.183 551.158 673.841 550.792C666.314 549.655 658.976 547.505 652.026 544.399L544.766 500.665L535.375 483.473L544.345 479.578C544.499 479.509 544.62 479.382 544.681 479.225C544.743 479.068 544.74 478.893 544.674 478.738L541.631 471.066L542.948 469.237L574.905 488.516C580.015 491.608 585.799 493.414 591.761 493.779C597.722 494.145 603.683 493.059 609.133 490.616C614.583 488.172 619.359 484.443 623.051 479.749C626.744 475.055 629.243 469.535 630.334 463.663C630.258 463.333 648.429 366.657 648.999 364.443C656.588 335.27 685.327 315.489 694.262 290.522C694.272 290.426 694.26 290.329 694.227 290.239C694.194 290.148 694.142 290.066 694.073 289.998C694.004 289.93 693.921 289.879 693.829 289.848C693.738 289.817 693.641 289.807 693.545 289.818ZM287.622 185.463C286.302 182.883 279.875 171.507 275.724 165.061C274.426 163.032 271.722 157.747 273.702 158.961C277.599 161.813 281.117 165.15 284.172 168.89C285.009 174.475 286.161 180.008 287.622 185.463ZM566.721 403.226L551.932 423.561C525.373 397.196 491.795 379.021 455.198 371.199C456.626 367.306 457.73 363.301 458.498 359.226C477.614 362.174 517.095 361.394 566.508 403.206L566.721 403.226ZM367.965 227.065C370.278 237.161 381.369 249.796 389.888 243.781C394.669 240.394 396.377 249.518 387.754 252.049L386.104 252.427C385.953 252.459 385.819 252.545 385.726 252.668C385.633 252.792 385.588 252.944 385.598 253.098C389.278 289.17 402.054 328.263 432.143 348.179C392.823 343.296 374.048 309.398 372.401 306.303L374.921 299.717C375.175 299.312 374.989 300.014 372.549 284.668L379.856 276.847C380.395 276.168 379.851 275.46 379.28 275.695C371.103 278.054 364.809 277.412 360.537 273.772C357.169 270.58 355.102 266.254 354.734 261.628C353.005 247.717 358.097 232.347 367.965 227.065ZM276.345 202.181C269.852 196.271 270.549 195.07 270.549 195.07C270.549 195.07 272.82 194.827 275.87 196.316C279.789 198.266 290.116 204.686 292.498 201.744C293.092 203.275 293.749 204.93 294.525 206.801C294.606 206.934 294.732 207.033 294.881 207.08C295.029 207.127 295.19 207.119 295.332 207.056C295.475 206.994 295.59 206.882 295.656 206.741C295.723 206.601 295.736 206.44 295.693 206.291C292.548 199.406 290.195 192.186 288.679 184.77C286.86 178.222 285.684 171.514 285.166 164.738C284.774 155.903 286.181 155.372 286.181 155.372C286.181 155.372 288.246 156.809 290.612 164.255C299.857 193.391 309.456 202.547 314.07 209.651C306.095 212.958 298.813 217.737 292.605 223.737C288.282 215.786 282.803 208.521 276.345 202.181ZM290.183 227.868C298.12 219.159 308.139 212.61 319.301 208.835C328.538 222.453 339.232 235.024 351.193 246.326C351.066 251.774 351.864 257.204 353.553 262.385C355.151 272.089 360.632 278.126 370.349 278.401C370.224 278.915 373.439 297.8 373.729 299.365C371.166 306.578 368.139 313.617 364.665 320.438C321.729 279.156 301.612 247.892 290.183 227.868ZM190.26 406.547C190.205 406.59 190.14 406.621 190.072 406.637C190.004 406.652 189.932 406.653 189.864 406.637C189.864 406.637 189.546 405.252 194.807 401.685L197.519 399.883C204.911 398.967 212.343 398.423 219.789 398.253C204.809 400.019 202.023 403.018 190.26 406.547ZM200.567 398.177C196.17 398.593 191.803 399.269 187.486 400.202C184.385 400.913 181.139 401.448 178.644 401.776C178.413 401.829 178.281 401.859 178.236 401.661C178.19 401.463 178.124 400.263 183.908 397.618C185.134 397.06 191.2 394.281 194.27 393.126C203.288 393.003 212.272 394.247 220.918 396.814C214.113 396.856 207.317 397.311 200.567 398.177ZM208.081 392.775C199.595 391.717 191.02 391.597 182.508 392.418C174.905 393.187 172.92 392.253 172.829 391.857C172.738 391.461 172.728 390.352 181.002 387.206C185.671 385.515 190.47 384.206 195.351 383.294C204.585 381.284 214.011 380.289 223.461 380.326C224.286 380.137 224.268 378.996 223.446 379.045L217.866 379.247C220.47 375.455 208.908 368.797 206.482 366.089C205.646 365.169 203.09 362.351 203.251 361.69C203.416 361.652 204.543 361.116 212.046 364.154C222.792 367.974 233.766 371.12 244.904 373.573L238.621 401.023C228.704 397.381 218.484 394.621 208.081 392.775ZM391.605 392.401L399.521 349.645C399.713 348.663 398.64 348.527 398.332 349.153C396.283 353.547 369.581 416.477 369.581 416.477C366.869 422.833 361.989 428.019 355.81 431.114C349.632 434.208 342.556 435.009 335.842 433.375L238.275 408.604L247.46 368.508L332.972 385.38C331.503 388.668 330.418 391.209 329.878 392.791C329.844 392.945 329.868 393.106 329.945 393.243C330.022 393.381 330.147 393.485 330.296 393.537C330.444 393.588 330.607 393.583 330.752 393.523C330.898 393.463 331.016 393.351 331.085 393.209C334.888 381.92 366.097 321.533 371.787 307.867C375.539 314.543 395.376 346.253 434.518 349.753C441.563 354.027 449.243 357.155 457.27 359.021C453.583 378.098 443.211 393.913 425.561 407.368C408.177 404.405 399.349 399.066 391.583 392.302L391.605 392.401ZM426.694 408.22C439.194 399.163 448.918 386.797 454.77 372.513C491.263 380.241 524.744 398.354 551.179 424.671L522.2 464.926L459.959 421.539C459.817 421.443 459.643 421.406 459.474 421.439C459.306 421.471 459.157 421.568 459.06 421.71C458.964 421.852 458.928 422.026 458.96 422.195C458.992 422.363 459.09 422.512 459.232 422.609L521.465 465.963L519.304 468.958L470.669 489.963L426.694 408.22ZM543.986 501.052C544.069 501.415 536.247 498.345 651.575 545.162C669.188 552.309 670.756 550.665 681.155 553.006C692.833 568.353 709.441 603.859 715.499 623.481C705.223 618.647 696.059 610.329 686.363 601.507C653.636 571.742 644.309 573.775 642.798 572.941L523.101 544.8C516.999 543.037 511.309 540.079 506.361 536.097C501.412 532.116 497.305 527.191 494.276 521.608L485.338 505.181L534.38 483.528L543.986 501.052ZM543.459 478.287L473.108 508.643L466.394 493.131L520.122 469.952L534.55 480.329C534.622 480.374 534.702 480.405 534.786 480.419C534.87 480.434 534.955 480.431 535.038 480.412C535.121 480.393 535.199 480.358 535.268 480.309C535.338 480.259 535.396 480.197 535.441 480.124L541.081 472.304L543.459 478.287ZM534.611 478.926L520.854 469.055L570.522 399.959L584.279 409.83L534.611 478.926ZM647.91 364.241C647.349 366.488 629.317 463.166 629.261 463.527C628.226 469.22 625.82 474.576 622.252 479.132C618.684 483.688 614.06 487.307 608.78 489.675C603.499 492.044 597.722 493.092 591.946 492.728C586.171 492.364 580.571 490.599 575.63 487.586L543.721 468.365L577.033 422.012L596.144 439.79C596.757 440.344 597.525 439.3 596.912 438.746L591.533 433.762L618.748 360.643C621.562 353.426 623.263 345.823 623.792 338.095C624.001 335.825 624.188 333.455 624.621 330.647C639.071 317.926 673.443 298.938 692.591 291.565C683.256 315.547 655.37 335.41 647.778 364.271L647.91 364.241Z" fill="#10162F"/>
</svg>
