<svg width="554" height="469" viewBox="0 0 554 469" fill="none" xmlns="http://www.w3.org/2000/svg">
<path d="M131.666 249.226C148.091 240.67 165.325 230.917 181.574 221.017C181.582 221.016 181.589 221.016 181.597 221.018C181.608 221.021 181.619 221.029 181.626 221.041C181.634 221.053 181.637 221.069 181.635 221.084C181.633 221.093 181.63 221.101 181.625 221.108C165.362 230.998 148.117 240.769 131.712 249.315C131.705 249.315 131.699 249.314 131.692 249.312C131.681 249.308 131.671 249.299 131.665 249.287C131.658 249.274 131.655 249.259 131.659 249.245C131.66 249.238 131.663 249.231 131.666 249.226Z" fill="#10162F" stroke="#10162F"/>
<path d="M249.971 246.173L250.426 246.382C261.47 222.365 263.724 195.175 256.788 169.64L256.586 168.897L255.989 169.384C247.08 176.649 236.92 184.356 225.569 192.386L225.537 192.409L225.509 192.436C225.503 192.442 225.497 192.446 225.49 192.448C225.483 192.45 225.476 192.451 225.47 192.45C225.463 192.449 225.456 192.447 225.45 192.443C225.443 192.44 225.437 192.434 225.433 192.427C225.428 192.42 225.425 192.412 225.423 192.403C225.422 192.394 225.422 192.385 225.425 192.376C225.426 192.372 225.427 192.369 225.429 192.365C225.431 192.361 225.434 192.357 225.437 192.354C225.442 192.348 225.448 192.343 225.455 192.34L225.498 192.321L225.536 192.294C236.991 184.193 247.286 176.384 256.303 168.985L256.557 168.776L256.466 168.46C249.006 142.636 232.584 120.386 210.203 105.782C187.822 91.1787 160.98 85.1983 134.589 88.9363C108.197 92.6744 84.0225 105.881 66.4877 126.137C48.953 146.393 39.2306 172.346 39.0985 199.244L39.0985 199.245C38.9907 228.401 50.298 256.419 70.5597 277.2L70.7923 277.438L71.1021 277.315C78.9921 274.184 87.3462 270.662 96.1642 266.749L96.213 266.728L96.2561 266.696C96.2624 266.691 96.2693 266.689 96.2763 266.687C96.2832 266.686 96.2904 266.686 96.2972 266.688C96.3041 266.69 96.3109 266.694 96.3169 266.699C96.3229 266.704 96.3281 266.711 96.3316 266.719C96.3352 266.727 96.337 266.736 96.3368 266.746C96.3365 266.755 96.3342 266.764 96.3301 266.772C96.3261 266.78 96.3207 266.786 96.3145 266.791C96.3082 266.796 96.3014 266.799 96.2944 266.8L96.2406 266.811L96.1905 266.834C87.5376 270.762 79.2971 274.306 71.5828 277.234L70.8693 277.504L71.4025 278.05C82.5794 289.497 96.0838 298.36 110.984 304.026C125.884 309.693 141.825 312.029 157.706 310.872L157.746 310.869L157.785 310.86C157.792 310.858 157.799 310.858 157.806 310.86C157.813 310.861 157.82 310.865 157.826 310.869C157.833 310.874 157.838 310.881 157.842 310.889C157.846 310.897 157.848 310.906 157.848 310.916C157.848 310.925 157.846 310.934 157.842 310.942C157.838 310.95 157.833 310.957 157.826 310.962C157.82 310.967 157.813 310.97 157.806 310.972C157.799 310.973 157.792 310.973 157.785 310.972L157.71 310.954L157.633 310.96C141.652 312.138 125.609 309.781 110.623 304.052C95.6374 298.324 82.0706 289.362 70.8702 277.793L70.6397 277.555L70.3306 277.675C50.1548 285.477 34.269 289.886 22.825 291.275C17.1013 291.97 12.5185 291.906 9.0774 291.152C5.63607 290.397 3.39829 288.968 2.25166 286.983C1.10465 284.997 0.980975 282.336 2.03133 278.966C3.08146 275.596 5.28802 271.58 8.70202 266.956C15.528 257.71 27.1096 246.13 43.6345 232.569L43.893 232.357L43.7956 232.037C36.4135 207.791 37.4048 181.733 46.607 158.129C55.8091 134.526 72.6766 114.777 94.4466 102.115C116.217 89.4526 141.6 84.6271 166.44 88.4279C191.28 92.2286 214.108 104.431 231.183 123.037L231.413 123.287L231.73 123.166C251.288 115.73 266.689 111.588 277.774 110.375C278.574 110.288 279.351 110.216 280.105 110.158C279.193 110.231 278.249 110.326 277.273 110.444C266.366 111.759 251.269 115.913 232.159 123.17L231.474 123.43L231.966 123.973C243.37 136.561 251.779 151.611 256.551 167.976L256.764 168.705L257.35 168.221C268.427 159.068 277.225 150.868 283.793 143.719C277.139 151.008 268.203 159.347 256.917 168.623L256.666 168.829L256.753 169.142C263.839 194.834 261.635 222.233 250.534 246.434L250.533 246.436C250.526 246.452 250.513 246.463 250.499 246.468C250.493 246.47 250.488 246.471 250.482 246.472C250.473 246.472 250.465 246.47 250.457 246.467C250.443 246.46 250.431 246.448 250.425 246.431C250.419 246.414 250.42 246.395 250.427 246.379L249.971 246.173ZM249.971 246.173C249.91 246.309 249.904 246.464 249.956 246.604C250.008 246.745 250.113 246.858 250.247 246.921C250.382 246.983 250.536 246.988 250.675 246.936C250.814 246.884 250.927 246.778 250.988 246.642C262.138 222.335 264.352 194.814 257.235 169.009M249.971 246.173C260.89 222.429 263.179 195.569 256.447 170.301C256.505 170.253 256.563 170.206 256.621 170.159L256.305 169.771L255.823 169.903C255.842 169.974 255.861 170.046 255.881 170.117C247.064 177.289 237.037 184.886 225.857 192.795C225.8 192.851 225.73 192.894 225.654 192.92C225.578 192.947 225.497 192.956 225.417 192.947C225.337 192.939 225.26 192.913 225.191 192.871C225.122 192.829 225.063 192.773 225.017 192.706C224.972 192.638 224.942 192.562 224.929 192.482C224.917 192.402 224.921 192.32 224.943 192.242C224.965 192.163 225.004 192.091 225.056 192.029C225.109 191.968 225.174 191.919 225.247 191.885C236.694 183.791 246.979 175.989 255.985 168.598C248.559 142.889 232.209 120.739 209.93 106.201C187.65 91.6634 160.93 85.7104 134.659 89.4314C108.388 93.1524 84.322 106.299 66.8658 126.464C49.4095 146.63 39.73 172.467 39.5985 199.247L257.235 169.009M257.235 169.009C322.11 115.689 309.85 92.9303 231.552 122.699L257.235 169.009ZM297.535 114.972C296.307 112.778 293.936 111.329 290.58 110.585C290.748 110.621 290.913 110.658 291.075 110.697C294.397 111.495 296.551 112.945 297.645 114.937C298.472 116.441 298.729 118.321 298.355 120.588C298.672 118.426 298.413 116.54 297.535 114.972ZM2.35422 286.865L2.35493 286.866C3.68993 289.187 6.36665 290.596 10.0671 291.233C13.7756 291.872 18.6048 291.753 24.3977 290.932C35.9885 289.289 51.557 284.817 69.9918 277.787L70.7005 277.517L70.1728 276.972C58.2212 264.631 49.3053 249.631 44.143 233.177L43.9212 232.47L43.3486 232.94C28.1258 245.445 16.6752 256.699 9.62575 265.893C6.10248 270.488 3.66059 274.591 2.40477 278.097C1.15186 281.595 1.05078 284.584 2.35422 286.865Z" fill="#10162F" stroke="#10162F"/>
<path d="M447.009 183.574L447.85 189.432C447.851 189.433 447.851 189.433 447.851 189.434C448.035 190.761 448.528 192.026 449.29 193.125C449.995 194.142 450.912 194.991 451.975 195.612C452.024 201.884 450.441 205.162 448.369 206.771C446.259 208.41 443.487 208.439 440.958 207.88L440.438 207.765L440.356 208.291C440.003 210.564 439.979 212.876 440.287 215.154C438.731 215.424 437.135 215.367 435.599 214.986C433.912 214.568 432.34 213.768 431.002 212.648L430.995 212.642L430.988 212.636C429.425 211.426 427.908 210.157 426.439 208.834C426.766 208.837 427.089 208.774 427.392 208.625C427.826 208.412 428.176 208.046 428.439 207.551C428.954 206.582 429.171 205.052 429.047 202.876C428.923 200.683 428.447 197.765 427.506 193.965L427.462 193.789L427.316 193.681C422.708 190.318 422.017 186.621 422.821 184.508C423.228 183.441 424.001 182.773 424.872 182.621C425.734 182.472 426.829 182.806 427.925 184.035C428.721 184.935 429.356 185.5 429.879 185.809C430.405 186.12 430.906 186.221 431.352 186.016C431.759 185.828 431.973 185.442 432.096 185.185C432.141 185.092 432.185 184.99 432.222 184.905C432.237 184.869 432.251 184.837 432.263 184.809C432.314 184.695 432.344 184.641 432.361 184.617L432.487 184.447L432.453 184.239C431.359 177.509 434.091 172.028 437.697 170.103C439.482 169.15 441.496 169.052 443.446 170.094C445.365 171.119 447.275 173.28 448.813 176.953C448.099 177.824 447.567 178.832 447.249 179.917C446.902 181.102 446.82 182.35 447.009 183.571C447.009 183.572 447.009 183.573 447.009 183.574Z" fill="#E6E7E8" stroke="#10162F"/>
<path d="M540.321 108.877L539.38 108.543C540.483 104.673 541.12 100.979 541.397 97.8718C541.675 94.7534 541.587 92.2595 541.261 90.7759C541.18 90.4078 541.088 90.1165 540.991 89.8997C540.89 89.6764 540.801 89.5678 540.745 89.5236C540.731 89.5122 540.722 89.5072 540.717 89.5053C540.716 89.5055 540.715 89.5058 540.713 89.5062C540.684 89.5137 540.587 89.5554 540.431 89.731C540.119 90.0822 539.731 90.7845 539.297 91.9493C538.868 93.1004 538.409 94.6589 537.937 96.6814L536.955 96.4978C537.439 93.0618 537.654 90.0921 537.657 87.7692C537.661 85.42 537.445 83.8028 537.116 83.0212C537.002 82.7498 536.914 82.6699 536.884 82.6482C536.868 82.655 536.84 82.6699 536.799 82.7017C536.709 82.7719 536.59 82.9001 536.447 83.113C535.86 83.9825 535.131 85.8617 534.332 89.0065L534.331 89.0081C533.574 91.948 532.814 94.5758 531.964 96.9144L530.994 96.7179C531.09 94.8605 531.09 92.9993 530.995 91.1419C530.814 88.4584 530.523 86.5217 530.171 85.2677C529.994 84.6369 529.81 84.2113 529.639 83.954C529.554 83.827 529.484 83.759 529.436 83.7253C529.414 83.7093 529.398 83.7027 529.391 83.6999C529.383 83.6974 529.38 83.6973 529.378 83.6973C529.377 83.6973 529.264 83.7029 529.051 83.9711C528.849 84.2245 528.623 84.633 528.386 85.2168C527.915 86.3788 527.444 88.1297 527.018 90.439C526.241 94.8167 525.208 99.1441 523.925 103.399L523.513 104.765L522.982 103.44C522.695 102.724 522.356 102.031 521.968 101.365L521.963 101.356L521.963 101.356C520.514 98.737 519.311 96.8108 518.364 95.5769C517.889 94.9574 517.495 94.535 517.181 94.2866C516.897 94.0615 516.765 94.0456 516.737 94.0442C516.716 94.0617 516.646 94.1378 516.58 94.4039C516.493 94.7543 516.453 95.2953 516.481 96.055C516.538 97.5655 516.856 99.8048 517.458 102.804L540.321 108.877ZM540.321 108.877C540.656 108.095 541.138 107.23 541.635 106.531C541.884 106.182 542.129 105.884 542.354 105.661C542.589 105.429 542.764 105.318 542.868 105.283C542.87 105.282 542.873 105.281 542.875 105.28C542.917 105.348 542.987 105.528 543.015 105.92C543.077 106.786 542.916 108.337 542.365 110.861L542.364 110.864C541.115 116.75 537.859 124.032 534.894 129.871C533.415 132.785 532.014 135.327 530.983 137.141C530.468 138.048 530.045 138.773 529.752 139.271C529.73 139.307 529.709 139.343 529.689 139.377M540.321 108.877L529.689 139.377M529.689 139.377C525.386 133.34 519.515 128.618 512.721 125.731C512.737 125.699 512.754 125.666 512.771 125.631C512.961 125.251 513.228 124.7 513.542 124.007C514.169 122.621 514.984 120.668 515.735 118.395C517.232 113.865 518.5 107.993 517.458 102.804L529.689 139.377Z" fill="#FEFEFE" stroke="#10162F"/>
<path d="M348.079 104.574L348.083 104.582L348.087 104.589L348.087 104.589C348.087 104.589 348.088 104.59 348.089 104.591L348.093 104.599L348.108 104.627C348.12 104.649 348.135 104.679 348.154 104.717C348.193 104.791 348.244 104.891 348.305 105.014C348.429 105.26 348.594 105.592 348.787 105.983C349.172 106.764 349.666 107.776 350.15 108.786C350.635 109.796 351.107 110.801 351.451 111.571C351.623 111.956 351.76 112.277 351.85 112.507C351.879 112.582 351.902 112.644 351.919 112.692C349.768 117.121 344.368 121.939 338.187 125.609C332.044 129.256 325.276 131.683 320.387 131.508C317.754 127.381 314.921 121.032 312.506 114.865C310.052 108.597 308.046 102.557 307.136 99.3067C305.221 92.4013 303.845 87.9488 302.712 84.2854L302.629 84.0168C301.482 80.3037 300.585 77.383 299.616 73.4539C298.96 70.7631 298.658 68.5726 298.64 66.9821C298.63 66.1853 298.693 65.5587 298.807 65.1029C298.926 64.6307 299.08 64.4217 299.186 64.3474C299.244 64.306 299.347 64.2605 299.595 64.3866C299.863 64.523 300.222 64.8302 300.659 65.38C301.527 66.4714 302.59 68.3705 303.782 71.2148L303.782 71.2148L303.785 71.22C305.458 75.0869 307.411 78.8239 309.629 82.4006L310.533 81.9946C309.669 79.0851 307.784 71.1562 306.275 63.0994C305.785 60.4382 305.617 58.2934 305.697 56.7564C305.736 55.9863 305.837 55.3899 305.979 54.9647C306.126 54.5246 306.29 54.3475 306.393 54.2905C306.453 54.2567 306.571 54.2201 306.827 54.3745C307.097 54.537 307.445 54.8743 307.856 55.4509C308.673 56.5968 309.641 58.5455 310.688 61.4255C313.541 69.3021 316.249 75.4457 317.939 79.0639L318.887 78.7802L318.392 78.8523C318.887 78.7802 318.887 78.7802 318.887 78.7801L318.887 78.7797L318.887 78.778L318.886 78.7712L318.882 78.7443L318.866 78.6385L318.806 78.2281C318.754 77.8697 318.677 77.3464 318.58 76.6868C318.385 75.3675 318.108 73.5028 317.779 71.3209C317.122 66.9575 316.257 61.3241 315.428 56.2473L315.428 56.2468C314.997 53.6187 314.908 51.5119 315.061 50.016C315.137 49.2666 315.272 48.6922 315.441 48.2886C315.614 47.8741 315.793 47.7089 315.912 47.6559C315.999 47.6173 316.146 47.5972 316.412 47.7697C316.688 47.9494 317.032 48.3055 317.422 48.8985C318.199 50.0786 319.074 52.0619 319.947 54.9754C320.124 55.5694 321.332 59.414 322.73 63.8626C324.118 68.276 325.692 73.284 326.631 76.3025L327.608 76.154V76.1519V76.1496V76.1472V76.1446V76.1419V76.1391V76.1361V76.133V76.1297V76.1263V76.1228V76.1191V76.1152V76.1113V76.1071V76.1029V76.0985V76.094V76.0893V76.0845V76.0795V76.0744V76.0692V76.0638V76.0583V76.0527V76.0469V76.041V76.0349V76.0287V76.0223V76.0159V76.0092V76.0025V75.9956V75.9885V75.9814V75.9741V75.9666V75.959V75.9513V75.9434V75.9354V75.9273V75.919V75.9106V75.9021V75.8934V75.8846V75.8756V75.8666V75.8573V75.848V75.8385V75.8288V75.8191V75.8092V75.7991V75.789V75.7787V75.7682V75.7576V75.7469V75.7361V75.7251V75.714V75.7027V75.6914V75.6798V75.6682V75.6564V75.6445V75.6325V75.6203V75.608V75.5955V75.5829V75.5702V75.5574V75.5444V75.5313V75.518V75.5047V75.4912V75.4775V75.4637V75.4498V75.4358V75.4216V75.4074V75.3929V75.3784V75.3637V75.3489V75.3339V75.3188V75.3036V75.2883V75.2728V75.2572V75.2415V75.2256V75.2096V75.1935V75.1773V75.1609V75.1444V75.1278V75.111V75.0941V75.0771V75.0599V75.0427V75.0253V75.0077V74.9901V74.9723V74.9544V74.9363V74.9182V74.8999V74.8814V74.8629V74.8442V74.8254V74.8065V74.7874V74.7682V74.7489V74.7295V74.7099V74.6902V74.6704V74.6505V74.6304V74.6102V74.5899V74.5695V74.5489V74.5282V74.5074V74.4865V74.4654V74.4442V74.4229V74.4015V74.3799V74.3582V74.3364V74.3145V74.2924V74.2703V74.248V74.2255V74.203V74.1803V74.1575V74.1346V74.1116V74.0884V74.0651V74.0417V74.0182V73.9945V73.9708V73.9469V73.9229V73.8987V73.8745V73.8501V73.8256V73.801V73.7763V73.7514V73.7264V73.7013V73.6761V73.6508V73.6253V73.5997V73.574V73.5482V73.5223V73.4962V73.47V73.4437V73.4173V73.3908V73.3641V73.3374V73.3105V73.2835V73.2563V73.2291V73.2017V73.1743V73.1467V73.119V73.0911V73.0632V73.0351V73.0069V72.9786V72.9502V72.9217V72.893V72.8643V72.8354V72.8064V72.7773V72.748V72.7187V72.6892V72.6597V72.63V72.6002V72.5702V72.5402V72.51V72.4798V72.4494V72.4189V72.3883V72.3576V72.3267V72.2958V72.2647V72.2335V72.2022V72.1708V72.1393V72.1077V72.0759V72.044V72.0121V71.98V71.9478V71.9155V71.8831V71.8505V71.8179V71.7851V71.7522V71.7193V71.6862V71.653V71.6196V71.5862V71.5527V71.519V71.4853V71.4514V71.4174V71.3833V71.3491V71.3148V71.2804V71.2458V71.2112V71.1764V71.1416V71.1066V71.0715V71.0363V71.001V70.9656V70.9301V70.8945V70.8587V70.8229V70.7869V70.7509V70.7147V70.6784V70.642V70.6055V70.5689V70.5322V70.4954V70.4585V70.4215V70.3843V70.3471V70.3097V70.2723V70.2347V70.1971V70.1593V70.1214V70.0834V70.0453V70.0071V69.9688V69.9304V69.8919V69.8533V69.8145V69.7757V69.7368V69.6977V69.6586V69.6194V69.58V69.5405V69.501V69.4613V69.4215V69.3817V69.3417V69.3016V69.2614V69.2211V69.1808V69.1403V69.0997V69.059V69.0182V68.9773V68.9363V68.8952V68.854V68.8126V68.7712V68.7297V68.6881V68.6464V68.6046V68.5627V68.5206V68.4785V68.4363V68.394V68.3515V68.309V68.2664V68.2237V68.1808V68.1379V68.0949V68.0518V68.0086V67.9652V67.9218V67.8783V67.8347V67.791V67.7471V67.7032V67.6592V67.6151V67.5709V67.5266V67.4822V67.4377V67.3931V67.3484V67.3036V67.2587V67.2137V67.1686V67.1234V67.0781V67.0327V66.9873V66.9417V66.896V66.8502V66.8044V66.7584V66.7124V66.6662V66.62V66.5736V66.5272V66.4807V66.434V66.3873V66.3405V66.2936V66.2466V66.1995V66.1523V66.105V66.0576V66.0101V65.9626V65.9149V65.8671V65.8193V65.7713V65.7233V65.6752V65.627V65.5786V65.5302V65.4817V65.4331V65.3844V65.3357V65.2868V65.2378V65.1888V65.1396V65.0904V65.0411V64.9916V64.9421V64.8925V64.8428V64.793V64.7432V64.6932V64.6431V64.593V64.5428V64.4924V64.442V64.3915V64.3409V64.2902V64.2394V64.1886V64.1376V64.0866V64.0354V63.9842V63.9329V63.8815V63.83V63.7784V63.7268V63.675V63.6232V63.5713V63.5192V63.4671V63.415V63.3627V63.3103V63.2579V63.2053V63.1527V63.1V63.0472V62.9943V62.9413V62.8883V62.8351V62.7819V62.7286V62.6752V62.6217V62.5681V62.5145V62.4607V62.4069V62.353V62.299V62.2449V62.1907V62.1365V62.0821V62.0277V61.9732V61.9186V61.864V61.8092V61.7544V61.6994V61.6444V61.5894V61.5342V61.4789V61.4236V61.3682V61.3127V61.2571V61.2014V61.1457V61.0898V61.0339V60.9779V60.9219V60.8657V60.8095V60.7531V60.6967V60.6403V60.5837V60.527V60.4703V60.4135V60.3566V60.2997V60.2426V60.1855V60.1283V60.071V60.0136V59.9562V59.8987V59.8411V59.7834V59.7256V59.6678V59.6099V59.5519V59.4938V59.4356V59.3774V59.3191V59.2607C327.608 56.5893 327.866 54.4832 328.266 53.0184C328.466 52.2846 328.696 51.7325 328.934 51.3547C329.177 50.9676 329.388 50.8242 329.525 50.7867C329.628 50.7585 329.784 50.7647 330.022 50.9746C330.272 51.1942 330.56 51.5992 330.858 52.2475C331.45 53.5382 332.012 55.6451 332.423 58.6826L332.425 58.6966L332.428 58.7106C332.647 59.8399 334.131 69.575 334.955 74.9781C335.106 75.9681 335.235 76.8126 335.33 77.4321L335.33 77.4334C335.495 78.4902 335.975 80.5636 336.665 82.3536C337.009 83.2455 337.417 84.0996 337.883 84.7245C338.327 85.3207 338.945 85.8649 339.719 85.7717L339.72 85.7715C341.213 85.5871 342.967 84.6423 344.749 83.4705C346.039 82.6225 347.394 81.6203 348.728 80.6342C349.251 80.2473 349.77 79.8629 350.282 79.4913C352.116 78.1578 353.835 76.9919 355.283 76.3727C356.763 75.7398 357.714 75.7755 358.29 76.4025C358.617 76.7659 358.696 77.484 358.328 78.6812C357.973 79.8367 357.256 81.2568 356.308 82.8117C354.417 85.9148 351.676 89.4486 349.326 92.2884C347.924 93.9753 347.055 96.048 346.833 98.2379C346.61 100.428 347.044 102.635 348.079 104.574Z" fill="#FEFEFE" stroke="#10162F"/>
<path d="M520.305 42.7204L520.305 42.721C520.578 47.1508 519.543 51.5623 517.332 55.3978C515.122 59.2332 511.834 62.3199 507.887 64.2683C503.939 66.2167 499.508 66.9396 495.154 66.3457C490.8 65.7519 486.718 63.868 483.424 60.9315C480.129 57.9949 477.771 54.1376 476.647 49.8469C475.524 45.5562 475.686 41.0254 477.113 36.8278C478.54 32.6303 481.168 28.955 484.664 26.2662C488.159 23.5775 492.366 21.9959 496.751 21.7207L496.719 21.2217L496.751 21.7207C499.664 21.5342 502.584 21.9296 505.345 22.8842C508.106 23.8389 510.654 25.3342 512.842 27.2846C515.03 29.2351 516.816 31.6024 518.096 34.2512C519.377 36.8999 520.128 39.778 520.305 42.7204ZM492.637 51.7508L492.638 51.7479C492.934 50.7436 492.93 49.6733 492.624 48.6716C492.319 47.6699 491.727 46.7812 490.921 46.1179C490.115 45.4546 489.132 45.0467 488.096 44.9462C487.06 44.8457 486.018 45.0572 485.101 45.5537C484.185 46.0502 483.435 46.8092 482.946 47.7343C482.457 48.6593 482.251 49.7093 482.353 50.752C482.455 51.7948 482.86 52.7842 483.519 53.5955C484.177 54.4069 485.06 55.0038 486.055 55.3103L486.202 54.8325L486.058 55.3112C487.399 55.7151 488.845 55.5667 490.077 54.8989C491.31 54.2312 492.23 53.099 492.637 51.7508ZM504.564 57.7745L504.635 57.796H504.699C505.473 58.0019 506.298 57.8994 507 57.5083C507.724 57.1052 508.258 56.4291 508.487 55.6299C508.716 54.8309 508.621 53.9728 508.223 53.2439C507.825 52.5158 507.156 51.9753 506.363 51.743C505.569 51.5027 504.713 51.5905 503.983 51.9866C503.253 52.383 502.71 53.0551 502.472 53.8539C502.234 54.6525 502.32 55.5139 502.712 56.2488C503.104 56.984 503.769 57.5334 504.564 57.7745ZM497.386 39.5185C498.3 40.6674 499.532 41.5184 500.925 41.9641C501.864 42.2645 502.853 42.373 503.835 42.2834C504.816 42.1937 505.77 41.9076 506.64 41.442C507.51 40.9764 508.279 40.3407 508.903 39.5722C509.527 38.8036 509.992 37.9176 510.273 36.966C510.689 35.5541 510.683 34.0497 510.255 32.6415C509.827 31.2331 508.996 29.9831 507.866 29.0486C506.736 28.1141 505.358 27.537 503.903 27.3905C502.448 27.2439 500.983 27.5344 499.692 28.2252C498.401 28.916 497.341 29.9761 496.646 31.2716C495.951 32.5671 495.65 34.0407 495.781 35.5075C495.913 36.9743 496.471 38.3698 497.386 39.5185Z" fill="#10162F" stroke="#10162F"/>
<path d="M200.525 153.172C190.23 154.513 180.365 158.174 171.661 163.884C171.333 162.921 170.777 161.566 170.056 159.921C169.148 157.85 167.964 155.289 166.609 152.413C165.212 149.445 163.625 146.131 161.968 142.667C160.417 139.427 158.804 136.056 157.225 132.717C153.951 125.798 150.81 118.994 148.618 113.678C147.522 111.019 146.669 108.745 146.155 107.021C145.897 106.158 145.73 105.448 145.657 104.904C145.621 104.633 145.61 104.415 145.619 104.249C145.629 104.076 145.659 103.991 145.675 103.96L145.676 103.96L145.679 103.952C145.886 103.55 146.134 103.297 146.406 103.145C146.678 102.992 147.013 102.921 147.429 102.945C148.281 102.994 149.396 103.442 150.755 104.267C153.459 105.908 156.876 108.877 160.652 112.323C161.645 113.229 162.662 114.168 163.695 115.121C166.573 117.777 169.578 120.551 172.546 123.072C176.575 126.496 180.579 129.495 184.162 131.131C194.593 135.896 196.68 142.202 198.647 148.147C199.217 149.868 199.776 151.558 200.525 153.172Z" fill="#FEFEFE" stroke="#10162F"/>
<path d="M73.5022 253.094C73.3692 248.21 83.9416 249.099 95.8305 250.098C104.715 250.845 114.335 251.654 120.771 250.161C132.285 247.491 138.051 251.258 143.338 254.712C144.811 255.675 146.247 256.613 147.76 257.381L73.5022 253.094ZM73.5022 253.094L73.5023 253.094L73.5022 253.094ZM143.072 255.136C144.5 256.069 145.919 256.996 147.414 257.765C140.842 265.122 135.871 273.788 132.822 283.202C132.665 283.107 132.483 283.003 132.28 282.892C131.723 282.586 130.981 282.212 130.086 281.778C128.295 280.911 125.867 279.798 123.025 278.515C121.248 277.712 119.309 276.843 117.26 275.924C112.748 273.901 107.703 271.639 102.688 269.328C95.3956 265.967 88.1833 262.509 82.7883 259.54C80.0887 258.055 77.8598 256.7 76.3068 255.549C75.529 254.972 74.9375 254.458 74.5431 254.015C74.1316 253.554 74.0063 253.248 74.0021 253.081L74.002 253.081C73.9783 252.211 74.3527 251.575 75.1197 251.082C75.9195 250.568 77.1375 250.221 78.7352 250.022C81.9224 249.627 86.3782 249.849 91.3676 250.235C92.8015 250.345 94.2782 250.47 95.7779 250.596C99.4731 250.906 103.307 251.229 106.982 251.391C112.144 251.62 117.052 251.537 120.884 250.648C128.304 248.928 133.26 249.922 137.243 251.745C139.249 252.663 141.017 253.795 142.752 254.927C142.859 254.997 142.965 255.066 143.072 255.136Z" fill="#FEFEFE" stroke="#10162F"/>
<path d="M323.642 110.905L323.155 110.792L323.654 110.766C323.382 105.582 324.188 100.399 326.02 95.5486C327.852 90.6991 330.669 86.2906 334.289 82.6066C334.3 82.5961 334.313 82.5911 334.326 82.5911C334.339 82.5911 334.352 82.5962 334.363 82.6069C334.373 82.6179 334.38 82.6336 334.38 82.651C334.38 82.6684 334.373 82.6842 334.363 82.6951L334.361 82.6963C330.742 86.3753 327.927 90.7783 326.096 95.6216C324.265 100.465 323.459 105.641 323.73 110.818L323.733 110.862L323.743 110.905C323.745 110.914 323.745 110.923 323.743 110.932C323.741 110.941 323.737 110.95 323.732 110.956C323.726 110.963 323.72 110.968 323.713 110.971C323.706 110.975 323.699 110.976 323.692 110.976C323.685 110.976 323.678 110.975 323.671 110.971C323.665 110.968 323.658 110.963 323.653 110.956C323.648 110.95 323.644 110.941 323.642 110.932C323.64 110.923 323.64 110.914 323.642 110.905Z" fill="#10162F" stroke="#10162F"/>
<path d="M164.73 376.416L164.733 376.415C164.745 376.413 164.757 376.415 164.768 376.423C164.779 376.43 164.787 376.441 164.791 376.455C164.792 376.47 164.789 376.484 164.781 376.496C164.773 376.507 164.762 376.515 164.751 376.518L157.119 377.865L157.118 377.865C155.224 378.204 153.541 379.286 152.436 380.872C151.895 381.65 151.515 382.518 151.305 383.425L151.245 383.329C151.461 382.424 151.846 381.568 152.38 380.808C152.966 379.976 153.717 379.277 154.586 378.757L155.683 378.1L154.432 377.839C153.449 377.633 152.517 377.228 151.693 376.647C150.87 376.066 150.172 375.322 149.642 374.459L148.986 373.391L148.727 374.617C148.517 375.613 148.109 376.556 147.528 377.388C146.947 378.22 146.206 378.924 145.349 379.458L144.298 380.114L145.509 380.372C146.496 380.581 147.431 380.989 148.259 381.57C149.012 382.098 149.664 382.76 150.181 383.524L150.135 383.752C149.626 382.931 148.956 382.212 148.155 381.644C146.582 380.528 144.634 380.087 142.739 380.416L142.736 380.417L135.143 381.787C135.136 381.785 135.13 381.782 135.124 381.777C135.114 381.77 135.106 381.757 135.104 381.742C135.101 381.728 135.104 381.713 135.111 381.7C135.115 381.694 135.119 381.688 135.125 381.684L142.707 380.316C142.707 380.316 142.708 380.316 142.709 380.316C143.648 380.152 144.546 379.803 145.351 379.288C146.156 378.773 146.852 378.103 147.4 377.316C147.948 376.529 148.336 375.641 148.543 374.703C148.749 373.765 148.77 372.795 148.605 371.848L148.604 371.847L147.239 364.134L147.238 364.131C147.235 364.113 147.239 364.094 147.249 364.079C147.259 364.064 147.274 364.055 147.288 364.053C147.303 364.05 147.318 364.053 147.332 364.062C147.345 364.071 147.355 364.086 147.358 364.104L148.694 371.815L148.695 371.816C149.029 373.724 150.099 375.422 151.672 376.537C153.245 377.653 155.192 378.095 157.088 377.765L157.089 377.765L164.73 376.416ZM150.756 383.99H151.198C151.083 384.76 151.088 385.55 151.222 386.331L151.222 386.334L152.588 394.047L152.588 394.05C152.592 394.069 152.587 394.088 152.577 394.103C152.567 394.117 152.553 394.126 152.538 394.129C152.524 394.131 152.508 394.128 152.495 394.119C152.482 394.11 152.472 394.095 152.468 394.077C152.468 394.077 152.468 394.076 152.468 394.076L151.132 386.367L151.132 386.366C150.984 385.522 150.692 384.719 150.277 383.99H150.698H150.756Z" fill="#10162F" stroke="#10162F"/>
<path d="M264.523 43.1543L264.523 43.1543L264.528 43.1535L269.903 42.1856L269.814 41.6936L269.963 42.1711C269.985 42.1641 270.009 42.1663 270.03 42.1776C270.052 42.189 270.069 42.2093 270.077 42.2353C270.085 42.2614 270.082 42.2896 270.07 42.3132C270.06 42.3309 270.047 42.3445 270.031 42.3531L264.674 43.3125C264.674 43.3126 264.673 43.3127 264.673 43.3128C264.013 43.4268 263.382 43.6718 262.816 44.0334C262.251 44.3953 261.762 44.8667 261.379 45.4201C260.995 45.9735 260.724 46.598 260.582 47.2572C260.44 47.9157 260.428 48.596 260.548 49.2589C260.548 49.2598 260.548 49.2606 260.548 49.2615L261.47 54.6681C261.468 54.6777 261.464 54.6866 261.458 54.6939C261.45 54.7046 261.439 54.711 261.428 54.7131C261.416 54.7152 261.405 54.7133 261.394 54.7071C261.388 54.7035 261.383 54.6985 261.378 54.6922L260.43 49.297C260.326 48.6112 260.085 47.9537 259.721 47.3642C259.71 47.3466 259.699 47.329 259.688 47.3115L260.134 47.9402L260.418 46.9322C260.747 45.7624 261.459 44.7411 262.437 44.0346L263.271 43.4322L262.282 43.1486C261.126 42.8172 260.115 42.0992 259.415 41.1111L258.809 40.2568L258.525 41.2648C258.196 42.4346 257.484 43.456 256.506 44.1625L255.672 44.7649L256.661 45.0484C257.465 45.2791 258.2 45.6972 258.808 46.2632C258.651 46.1201 258.485 45.9866 258.31 45.8638C257.744 45.4652 257.102 45.187 256.425 45.0464C255.751 44.9062 255.055 44.9056 254.38 45.0446L248.982 46.0113L248.945 46.018L248.909 46.0302C248.902 46.0325 248.896 46.0333 248.889 46.0325C248.882 46.0318 248.875 46.0295 248.869 46.0257C248.862 46.0218 248.857 46.0164 248.852 46.0094C248.847 46.0025 248.844 45.9943 248.843 45.9854C248.841 45.9766 248.842 45.9675 248.844 45.9589C248.846 45.9503 248.851 45.9428 248.856 45.9366C248.861 45.9304 248.867 45.9258 248.874 45.9228C248.88 45.9197 248.887 45.9183 248.894 45.9183L248.94 45.9185L248.985 45.9104L254.359 44.9427C254.359 44.9427 254.359 44.9426 254.359 44.9426C255.696 44.7043 256.884 43.9404 257.662 42.8203C258.44 41.7001 258.745 40.3149 258.511 38.9685L258.511 38.967L257.561 33.5868C257.562 33.5775 257.566 33.5689 257.572 33.5618C257.58 33.5511 257.591 33.5447 257.603 33.5426C257.614 33.5405 257.625 33.5424 257.636 33.5486C257.642 33.5522 257.648 33.5572 257.652 33.5635L258.601 38.9646L258.602 38.9671C258.845 40.3084 259.601 41.5005 260.709 42.2846C261.817 43.069 263.188 43.3817 264.523 43.1543Z" fill="#10162F" stroke="#10162F"/>
<path d="M540.102 209.329L553.399 206.966C553.414 206.97 553.428 206.978 553.44 206.99C553.458 207.009 553.47 207.035 553.47 207.063C553.47 207.092 553.458 207.118 553.44 207.137C553.422 207.155 553.398 207.165 553.374 207.165H553.33L553.286 207.172L539.951 209.548C536.627 210.137 533.67 212.034 531.732 214.82C530.575 216.483 529.837 218.382 529.553 220.356L529.533 220.317C529.532 220.315 529.532 220.314 529.531 220.313C529.808 218.283 530.554 216.348 531.711 214.662C532.921 212.898 534.544 211.464 536.434 210.484L537.896 209.726L536.259 209.543C534.14 209.306 532.114 208.537 530.365 207.304C528.617 206.071 527.202 204.415 526.251 202.487L525.506 200.975L525.306 202.649C525.306 202.652 525.305 202.655 525.305 202.659C525.435 201.465 525.399 200.249 525.191 199.045L525.191 199.044L522.838 185.582L522.832 185.546L522.82 185.512C522.817 185.503 522.817 185.494 522.817 185.486C522.818 185.477 522.821 185.468 522.825 185.461C522.83 185.454 522.835 185.448 522.841 185.444C522.847 185.44 522.854 185.437 522.86 185.436C522.867 185.434 522.874 185.435 522.88 185.436C522.887 185.438 522.894 185.441 522.899 185.446C522.905 185.45 522.91 185.456 522.914 185.464C522.918 185.472 522.921 185.48 522.921 185.489L522.923 185.519L522.928 185.549L525.281 199.04L525.282 199.044C525.583 200.701 526.206 202.283 527.114 203.697C528.023 205.112 529.199 206.332 530.575 207.288C531.952 208.244 533.502 208.916 535.137 209.267C536.771 209.617 538.457 209.638 540.099 209.33C540.1 209.33 540.101 209.329 540.102 209.329ZM529.473 221.04C529.372 222.155 529.416 223.287 529.61 224.409L529.61 224.409L531.955 237.856C531.954 237.865 531.95 237.874 531.944 237.881C531.936 237.892 531.925 237.898 531.913 237.9C531.902 237.902 531.89 237.9 531.88 237.894C531.874 237.891 531.868 237.886 531.864 237.879L529.52 224.443L529.52 224.442C528.93 221.095 527.05 218.119 524.289 216.168C521.529 214.216 518.113 213.449 514.792 214.035L514.791 214.035C511.11 214.691 508.387 215.181 506.392 215.54C505.577 215.686 504.883 215.811 504.295 215.916C503.282 216.098 502.585 216.221 502.122 216.299C501.891 216.338 501.721 216.365 501.601 216.382C501.564 216.387 501.535 216.391 501.511 216.394C501.505 216.385 501.501 216.373 501.501 216.361C501.501 216.346 501.506 216.333 501.514 216.323C501.52 216.315 501.528 216.31 501.536 216.307L514.85 213.935L514.851 213.935C515.679 213.786 516.484 213.557 517.256 213.253L516.771 213.499L518.458 213.676C520.607 213.901 522.665 214.668 524.444 215.906C526.14 217.087 527.531 218.661 528.5 220.495L528.438 221.04H528.999H529.086H529.473Z" fill="#10162F" stroke="#10162F"/>
<path d="M303.175 466.869C302.499 467.391 302.147 467.655 301.969 467.783C301.965 467.783 301.962 467.783 301.958 467.78C301.954 467.778 301.95 467.773 301.947 467.766C301.945 467.76 301.945 467.752 301.947 467.745C301.949 467.738 301.953 467.733 301.958 467.731L301.977 467.718L301.994 467.705L449.845 351.651L449.284 350.826L329.703 420.833C329.703 420.833 329.703 420.833 329.703 420.833C329.7 420.834 329.698 420.835 329.696 420.836C329.692 420.838 329.688 420.839 329.684 420.839C329.678 420.84 329.672 420.84 329.666 420.838C329.659 420.836 329.653 420.833 329.648 420.829C329.642 420.825 329.637 420.819 329.633 420.812C329.629 420.805 329.627 420.798 329.626 420.789C329.624 420.781 329.625 420.773 329.627 420.765C329.629 420.757 329.633 420.75 329.637 420.744C329.642 420.738 329.648 420.733 329.653 420.73L329.655 420.729L449.266 350.721L448.822 349.828L353.868 389.196C353.862 389.195 353.855 389.194 353.85 389.191C353.839 389.185 353.829 389.175 353.824 389.162C353.818 389.148 353.818 389.132 353.823 389.118C353.826 389.109 353.831 389.102 353.837 389.096L456.224 346.65C456.229 346.649 456.237 346.649 456.249 346.652C456.263 346.656 456.271 346.664 456.274 346.667C456.274 346.668 456.274 346.67 456.273 346.672C456.273 346.68 456.267 346.722 456.213 346.794C417.967 376.812 389.183 399.407 367.523 416.41C343.246 435.467 327.917 447.5 318.242 455.087C309.086 462.268 304.995 465.466 303.175 466.869Z" fill="#10162F" stroke="#10162F"/>
<path d="M456.249 333.805L455.937 333.804L455.905 333.868C453.385 333.929 450.936 334.743 448.871 336.209C446.721 337.735 445.09 339.895 444.203 342.391C443.315 344.887 443.213 347.599 443.91 350.156C444.607 352.713 446.069 354.991 448.098 356.678C450.128 358.366 452.624 359.379 455.247 359.58C457.869 359.781 460.489 359.16 462.747 357.801C465.006 356.442 466.793 354.413 467.864 351.991C468.936 349.569 469.24 346.873 468.736 344.271C468.177 341.339 466.627 338.693 464.351 336.784C462.074 334.875 459.21 333.822 456.249 333.805ZM456.218 359.761C453.782 359.757 451.397 359.055 449.34 357.736C447.284 356.417 445.64 354.535 444.6 352.308C443.561 350.081 443.17 347.602 443.472 345.159C443.775 342.716 444.758 340.411 446.307 338.511C447.857 336.611 449.908 335.195 452.223 334.428C454.537 333.66 457.02 333.572 459.382 334.173C461.744 334.774 463.889 336.041 465.567 337.826C467.245 339.61 468.387 341.84 468.859 344.256C469.227 346.141 469.176 348.085 468.711 349.948C468.246 351.811 467.377 353.546 466.167 355.029C464.958 356.512 463.438 357.705 461.718 358.523C459.998 359.341 458.119 359.764 456.218 359.761Z" fill="#10162F" stroke="#10162F"/>
<path d="M432.71 224.322C432.71 224.821 432.514 225.299 432.166 225.65C431.818 226.001 431.347 226.198 430.857 226.198C430.367 226.198 429.896 226.001 429.548 225.65C429.2 225.299 429.004 224.821 429.004 224.322C429.004 223.823 429.2 223.346 429.548 222.994C429.896 222.643 430.367 222.447 430.857 222.447C431.347 222.447 431.818 222.643 432.166 222.994C432.514 223.346 432.71 223.823 432.71 224.322Z" fill="#10162F" stroke="#10162F"/>
<path d="M471.288 211.125C471.227 211.571 471.01 211.981 470.678 212.281C470.333 212.593 469.886 212.765 469.424 212.765C468.963 212.765 468.516 212.593 468.171 212.281C467.839 211.981 467.622 211.571 467.56 211.125C467.622 210.679 467.839 210.269 468.171 209.969C468.516 209.657 468.963 209.485 469.424 209.485C469.886 209.485 470.333 209.657 470.678 209.969C471.01 210.269 471.227 210.679 471.288 211.125Z" fill="#10162F" stroke="#10162F"/>
<path d="M486.046 167.706C486.378 168.006 486.595 168.415 486.657 168.861C486.595 169.308 486.378 169.717 486.046 170.017C485.701 170.329 485.255 170.501 484.793 170.501C484.331 170.501 483.884 170.329 483.539 170.017C483.207 169.717 482.991 169.308 482.929 168.861C482.991 168.415 483.207 168.006 483.539 167.706C483.884 167.394 484.331 167.222 484.793 167.222C485.255 167.222 485.701 167.394 486.046 167.706Z" fill="#10162F" stroke="#10162F"/>
<path d="M423.149 263.77C423.149 264.269 422.953 264.747 422.605 265.098C422.257 265.449 421.786 265.646 421.296 265.646C420.806 265.646 420.335 265.449 419.987 265.098C419.639 264.747 419.442 264.269 419.442 263.77C419.442 263.271 419.639 262.794 419.987 262.442C420.335 262.091 420.806 261.895 421.296 261.895C421.786 261.895 422.257 262.091 422.605 262.442C422.953 262.794 423.149 263.271 423.149 263.77Z" fill="#10162F" stroke="#10162F"/>
<path d="M381.195 248.36C381.527 248.66 381.743 249.07 381.805 249.516C381.743 249.962 381.527 250.372 381.195 250.672C380.849 250.984 380.403 251.156 379.941 251.156C379.479 251.156 379.033 250.984 378.687 250.672C378.355 250.372 378.139 249.962 378.077 249.516C378.139 249.07 378.355 248.66 378.687 248.36C379.033 248.048 379.479 247.876 379.941 247.876C380.403 247.876 380.849 248.048 381.195 248.36Z" fill="#10162F" stroke="#10162F"/>
<path d="M393.453 207.183C393.785 207.483 394.001 207.892 394.063 208.339C394.001 208.785 393.785 209.194 393.453 209.494C393.107 209.806 392.661 209.978 392.199 209.978C391.737 209.978 391.291 209.806 390.945 209.494C390.613 209.194 390.397 208.785 390.335 208.339C390.397 207.892 390.613 207.483 390.945 207.183C391.291 206.871 391.737 206.699 392.199 206.699C392.661 206.699 393.107 206.871 393.453 207.183Z" fill="#10162F" stroke="#10162F"/>
<path d="M382.708 164.157C383.04 164.457 383.256 164.867 383.318 165.313C383.256 165.759 383.04 166.169 382.708 166.469C382.362 166.781 381.916 166.953 381.454 166.953C380.992 166.953 380.545 166.781 380.2 166.469C379.868 166.169 379.652 165.759 379.59 165.313C379.652 164.867 379.868 164.457 380.2 164.157C380.545 163.845 380.992 163.673 381.454 163.673C381.916 163.673 382.362 163.845 382.708 164.157Z" fill="#10162F" stroke="#10162F"/>
<path d="M338.143 147.746C338.143 148.245 337.947 148.723 337.599 149.074C337.251 149.425 336.78 149.622 336.29 149.622C335.8 149.622 335.329 149.425 334.981 149.074C334.633 148.723 334.437 148.245 334.437 147.746C334.437 147.247 334.633 146.77 334.981 146.418C335.329 146.067 335.8 145.871 336.29 145.871C336.78 145.871 337.251 146.067 337.599 146.418C337.947 146.77 338.143 147.247 338.143 147.746Z" fill="#10162F" stroke="#10162F"/>
<mask id="path-23-inside-1_1662_9441" fill="white">
<path d="M543.173 104.339C542.592 104.134 541.895 104.632 541.256 105.366C541.857 102.742 542.255 100.075 542.447 97.3883C542.679 94.2208 542.766 88.8243 540.907 88.5897C540.558 88.5897 539.658 88.3844 538.496 91.1999C538.641 89.0589 539.077 82.0494 536.985 81.7268C534.893 81.4041 533.411 88.619 532.046 93.1943C532.046 90.9653 531.668 82.8999 529.373 82.7533C528.85 82.7533 527.339 82.7533 525.916 90.3494C525.227 94.2147 524.345 98.0421 523.272 101.817L522.807 100.966C518.623 93.5462 517.2 92.813 516.241 93.165C515.282 93.5169 514.701 94.9833 516.241 103.137C517.984 111.935 512.755 123.051 511.592 125.397L509.704 124.664C509.59 124.623 509.466 124.62 509.35 124.657C509.234 124.694 509.134 124.769 509.065 124.869C496.888 142.588 483.715 159.587 469.611 175.784C469.146 176.312 469.959 177.045 470.453 176.488C484.516 160.358 497.65 143.427 509.791 125.778C518.538 128.838 525.929 134.927 530.651 142.965C501.598 190.36 462.58 228.781 445.468 244.501C447.443 234.852 442.795 222.856 442.562 222.299C442.496 222.188 442.393 222.104 442.272 222.061C442.151 222.018 442.018 222.019 441.898 222.065C441.777 222.11 441.676 222.196 441.612 222.309C441.547 222.421 441.524 222.552 441.546 222.68C441.546 223.091 453.167 264.415 377.774 307.734C383.585 296.765 374.143 267.935 369.058 255.558C363.974 243.181 351.801 219.484 340.092 213.618H359.732C383.381 236.524 381.958 235.262 382.306 235.262C382.402 235.257 382.494 235.226 382.574 235.173C382.655 235.121 382.72 235.048 382.764 234.962C382.808 234.876 382.829 234.781 382.825 234.684C382.821 234.588 382.793 234.494 382.742 234.412L317.664 132.113C327.658 135.721 352.701 120.881 354.067 110.381C368.593 135.369 407.089 196.373 430.244 213.501C431.713 214.706 433.429 215.568 435.267 216.025C437.106 216.481 439.022 216.521 440.877 216.14C441.007 216.095 441.118 216.006 441.192 215.889C441.266 215.772 441.298 215.633 441.284 215.495C440.982 213.355 440.982 211.183 441.284 209.043C450 210.685 453.225 204.321 453.167 195.317C453.167 195.169 453.109 195.027 453.005 194.923C452.902 194.818 452.761 194.76 452.615 194.76C452.468 194.76 452.328 194.818 452.224 194.923C452.121 195.027 452.063 195.169 452.063 195.317C452.063 201.534 450.61 205.553 447.676 207.254C442.824 210.186 435.415 205.699 435.154 205.553C435.071 205.5 434.975 205.472 434.877 205.469C434.779 205.467 434.682 205.491 434.597 205.538C434.511 205.586 434.439 205.656 434.389 205.741C434.339 205.826 434.312 205.923 434.311 206.022C434.311 206.315 434.021 205.787 439.977 213.706C439.977 214.175 439.977 214.674 440.122 215.172C434.631 216.199 430.622 212.65 426.467 208.925C430.825 208.749 428.501 198.25 427.426 193.968C427.402 193.858 427.343 193.76 427.26 193.686C427.176 193.612 427.072 193.567 426.961 193.557C418.565 187.281 423.562 179.479 427.716 184.143C429.14 185.756 430.186 186.372 431.028 186.196C431.871 186.02 432.423 184.582 432.365 184.26C430.36 171.209 442.795 162.263 448.896 177.25C448.961 177.369 449.067 177.459 449.194 177.505C449.32 177.55 449.459 177.547 449.584 177.497C449.708 177.447 449.811 177.352 449.871 177.231C449.932 177.11 449.947 176.971 449.913 176.84V176.605C450.385 176.14 450.911 175.736 451.482 175.403C451.538 175.516 451.631 175.607 451.745 175.66C451.859 175.713 451.988 175.726 452.11 175.695C452.232 175.664 452.34 175.592 452.416 175.491C452.492 175.39 452.531 175.266 452.528 175.139C451.278 106.451 440.325 93.9568 435.677 91.7572C434.766 91.3144 433.747 91.1507 432.746 91.2862C431.744 91.4217 430.804 91.8505 430.041 92.5197C428.693 93.8676 427.63 95.4774 426.916 97.2519C426.201 99.0263 425.851 100.928 425.886 102.843C418.826 82.0787 409.239 73.5147 402.963 74.6292C397.763 75.4798 394.945 82.1667 395.264 93.0183C395.571 104.903 397.587 116.679 401.249 127.978C395.293 117.566 390.151 112.845 386.49 114.634C380.679 117.566 382.074 135.164 389.018 149.828C407.815 189.51 426.351 191.651 427.891 205.553C427.687 206.96 427.222 207.43 426.961 207.576C426.7 207.723 425.102 207.576 423.765 206.227C400.145 183.351 370.337 136.014 353.805 107.565C353.381 106.768 352.759 106.095 352 105.612C351.242 105.129 350.372 104.852 349.477 104.808L349.07 103.958C348.132 102.209 347.739 100.216 347.941 98.2382C348.143 96.2604 348.931 94.3901 350.203 92.8717C361.824 78.7059 359.79 76.3889 359.122 75.6264C355.374 71.4911 345.119 83.9557 339.657 84.6303C338.349 84.8063 336.751 79.6444 336.403 77.1808C336.403 77.1808 333.73 59.5836 333.497 58.4691C333.062 55.155 331.987 49.6705 329.72 49.6705C327.454 49.6705 326.815 56.5041 326.815 59.2023C326.815 64.9214 326.815 69.5554 326.815 72.4882C324.694 65.7133 321.498 55.5949 321.208 54.5977C320.249 51.3422 318.303 45.9751 315.978 46.503C314.235 46.9136 313.712 50.697 314.642 56.3868C315.717 62.9271 316.879 70.5232 317.547 75.0105C315.949 71.4324 313.974 66.6811 311.94 61.05C310.545 57.208 308.454 52.75 306.449 53.3073C303.98 53.9818 305.113 61.1087 305.519 63.279C306.129 66.6812 307.611 73.808 308.831 78.5006C307.582 76.213 306.275 73.6027 305.084 70.7872C303.486 67.0331 301.19 62.6631 299.273 63.3083C296.803 64.1589 298.401 71.491 298.953 73.72C300.9 81.5801 302.469 85.2462 306.478 99.5879C308.974 107.905 312.012 116.047 315.572 123.96C313.276 128.565 315.572 130.354 315.572 130.706L367.431 212.533C331.086 212.533 336.809 212.327 333.904 212.943C329.633 214.762 328.094 222.094 329.72 233.473L251.277 246.73C204.56 145.458 207.93 152.38 207.378 152.468C205.344 152.468 203.456 152.761 201.568 152.995C198.256 146.162 198.517 136.689 184.397 130.178C170.277 123.667 148.923 94.9833 144.536 103.459C142.328 107.712 167.779 155.547 170.684 164.434C168.825 165.695 167.024 167.044 165.338 168.452C165.256 168.522 165.195 168.614 165.164 168.719C165.133 168.823 165.133 168.934 165.164 169.038C175.681 204.497 186.809 240.014 198.662 274.856C148.894 251.921 151.858 253.094 151.451 253.476C150.318 254.561 149.185 255.705 148.11 256.878C141.079 253.388 135.704 245.938 120.626 249.516C105.547 253.094 72.6883 243.65 72.9498 253.124C73.0951 258.989 127.221 280.751 132.45 284.183C131.782 286.412 131.172 288.641 130.678 290.84C130.657 290.943 130.664 291.05 130.7 291.149C130.736 291.247 130.799 291.333 130.882 291.398C165.336 318.601 202.183 342.564 240.963 362.989C245.655 365.527 250.854 366.962 256.172 367.185C261.489 367.409 266.789 366.415 271.673 364.279C305.986 349.58 338.797 331.535 369.639 310.403C370.794 310.976 372.088 311.201 373.366 311.05C374.644 310.899 375.852 310.379 376.845 309.552C414.381 288.289 430.68 267.553 437.711 252.889C466.764 228.224 506.566 184.436 531.813 143.2C531.868 143.117 531.898 143.02 531.898 142.921C531.898 142.822 531.868 142.725 531.813 142.642C531.374 141.804 530.889 140.992 530.361 140.208C531.784 137.833 541.052 121.995 543.376 111.114C544.655 105.6 543.958 104.574 543.173 104.339ZM315.717 56.2695C314.729 50.1691 315.717 47.8228 316.24 47.6761C316.763 47.5295 318.303 48.732 320.162 55.0083C320.453 55.9762 327.425 78.2073 327.6 78.7352C325.263 79.7082 323.026 80.9064 320.917 82.3133C320.685 81.6681 321.15 82.9292 319.174 78.7059C319.029 77.6207 317.286 65.8599 315.717 56.2695ZM306.594 63.1617C305.432 57.0027 306.217 54.5977 306.594 54.3631C306.972 54.1285 308.541 55.3309 310.778 61.4313C313.402 68.6764 316.408 75.7743 319.784 82.6946C317.848 84.1051 316.031 85.6746 314.351 87.3872C313.006 85.7075 311.811 83.9116 310.778 82.0201C309.033 75.8183 307.637 69.5222 306.594 63.1617ZM307.495 99.3826C303.544 85.1582 302.004 81.7854 299.999 73.5441C298.43 67.1797 299.07 64.7455 299.593 64.4522C300.115 64.1589 301.568 65.3614 304.067 71.3151C306.668 77.3788 309.943 83.1249 313.828 88.443C312.085 90.2907 310.4 92.3437 308.657 94.6021C308.192 95.1593 309.064 95.8339 309.5 95.2766C315.891 87.0059 321.615 81.5801 331.958 78.2953C332.035 78.2827 332.11 78.2533 332.175 78.2093C332.241 78.1652 332.297 78.1075 332.338 78.0399C332.38 77.9723 332.407 77.8965 332.417 77.8176C332.428 77.7387 332.421 77.6584 332.398 77.5823C332.375 77.5061 332.336 77.4359 332.284 77.3762C332.231 77.3165 332.167 77.2689 332.095 77.2364C332.023 77.2039 331.945 77.1874 331.866 77.1879C331.787 77.1884 331.71 77.206 331.638 77.2395C330.592 77.5621 329.575 77.914 328.733 78.2953L328.035 76.0957C328.035 75.2158 328.035 68.7928 328.035 59.2903C328.035 53.0726 329.314 50.9023 329.895 50.873C330.476 50.8436 331.754 52.2808 332.626 58.7331C332.771 59.7889 335.531 77.4448 335.531 77.4448C335.531 77.4448 337.013 86.2434 340.005 85.8621C345.409 85.1582 355.781 73.5147 358.512 76.4769C359.006 77.0342 359.848 79.8204 349.564 92.2851C348.158 93.9762 347.287 96.0543 347.065 98.2504C346.842 100.447 347.277 102.66 348.314 104.603C348.314 104.926 352.12 112.317 352.411 112.845C348.024 121.643 331.086 131.85 321.005 131.527C315.357 121.34 310.828 110.561 307.495 99.3826ZM207.088 153.582C242.561 230.541 249.156 245.088 250.667 247.639C250.958 248.196 250.667 248.108 251.568 247.991L354.793 230.394C361.069 240.202 366.28 250.664 370.337 261.6L257.756 280.135C252.239 281.049 246.579 279.994 241.749 277.152C236.919 274.31 233.22 269.858 231.289 264.562L191.69 156.046C196.727 154.702 201.886 153.877 207.088 153.582ZM145.64 103.987C149.04 97.3883 170.277 124.811 184.049 131.175C197.82 137.539 197.152 145.839 200.464 153.142C190.206 154.487 180.373 158.113 171.672 163.759C168.68 155.166 143.897 107.331 145.64 103.987ZM73.9957 253.094C73.8214 245.527 106.128 254.121 120.858 250.601C135.123 247.199 140.208 254.091 147.297 257.728C140.757 265.082 135.809 273.733 132.77 283.127C126.988 279.637 74.17 257.875 73.9957 253.094ZM271.237 363.194C266.507 365.269 261.374 366.235 256.222 366.022C251.069 365.809 246.032 364.421 241.486 361.962C202.869 341.617 166.169 317.762 131.84 290.694C134.82 276.928 141.823 264.381 151.945 254.678L199.127 276.44L207.843 301.223C210.487 308.731 215.531 315.138 222.18 319.434C228.829 323.73 236.704 325.67 244.566 324.95C289.104 320.814 324.229 314.303 355.113 304.42C355.234 304.363 355.33 304.264 355.385 304.141C355.439 304.018 355.448 303.88 355.409 303.751C355.37 303.622 355.286 303.512 355.173 303.441C355.06 303.37 354.925 303.342 354.793 303.364C323.968 313.159 288.93 319.641 244.392 323.894C236.752 324.577 229.104 322.669 222.659 318.473C216.213 314.277 211.337 308.031 208.802 300.724C194.275 259.341 182.16 223.208 166.384 169.068C173.483 163.19 181.715 158.865 190.556 156.368L230.185 264.884C231.966 269.761 235.186 273.969 239.409 276.943C243.632 279.916 248.656 281.511 253.805 281.514C256.71 281.514 247.123 282.951 370.627 262.597C376.67 278.874 379.605 294.213 378.21 302.982C344.836 326.934 308.964 347.125 271.237 363.194ZM537.944 96.6844C539.542 89.9388 540.849 89.5575 540.849 89.5575C540.849 89.5575 541.895 91.3172 541.488 97.271C540.969 103.311 539.569 109.241 537.333 114.868C536.841 112.856 536.171 110.893 535.329 109.002C536.481 104.982 537.355 100.886 537.944 96.7431V96.6844ZM534.312 89.0296C535.794 83.1639 536.811 82.6946 536.811 82.6946C536.811 82.6946 537.769 84.4837 537.479 89.8801C537.183 95.839 536.208 101.744 534.573 107.477C533.68 105.608 532.61 103.83 531.378 102.169C531.716 100.399 531.91 98.6038 531.959 96.8017C532.772 94.69 533.557 92.0211 534.312 89.0883V89.0296ZM542.302 110.967C540.123 121.174 531.668 135.897 529.663 139.299C525.343 133.307 519.473 128.63 512.697 125.778C514.004 123.198 519.262 112.023 517.432 102.843C515.892 95.2473 516.532 94.2501 516.619 94.0448C516.706 93.8395 517.955 94.3968 521.848 101.318C525.741 108.24 527.978 124.605 528.007 124.781C528.007 125.544 529.17 125.309 529.082 124.781C528.113 117.467 526.399 110.273 523.969 103.313C525.177 99.1094 526.147 94.8401 526.874 90.5254C527.862 85.1582 528.908 83.8678 529.17 83.8384C529.431 83.8091 530.274 84.2784 530.738 91.2293C530.927 94.5667 530.81 97.9145 530.39 101.23C529.994 100.743 529.567 100.282 529.111 99.8519C528.588 99.3533 527.833 100.175 528.356 100.644C532.948 105.707 535.88 112.078 536.752 118.886C536.752 119.034 536.811 119.176 536.914 119.28C537.018 119.385 537.158 119.443 537.304 119.443C537.451 119.443 537.591 119.385 537.695 119.28C537.798 119.176 537.856 119.034 537.856 118.886C537.537 116.54 537.392 117.39 537.856 115.953C538.321 114.516 539.367 111.906 540.181 109.032C540.695 107.657 541.532 106.429 542.621 105.454C542.621 105.454 543.377 106.04 542.302 110.967Z"/>
</mask>
<path d="M543.173 104.339C542.592 104.134 541.895 104.632 541.256 105.366C541.857 102.742 542.255 100.075 542.447 97.3883C542.679 94.2208 542.766 88.8243 540.907 88.5897C540.558 88.5897 539.658 88.3844 538.496 91.1999C538.641 89.0589 539.077 82.0494 536.985 81.7268C534.893 81.4041 533.411 88.619 532.046 93.1943C532.046 90.9653 531.668 82.8999 529.373 82.7533C528.85 82.7533 527.339 82.7533 525.916 90.3494C525.227 94.2147 524.345 98.0421 523.272 101.817L522.807 100.966C518.623 93.5462 517.2 92.813 516.241 93.165C515.282 93.5169 514.701 94.9833 516.241 103.137C517.984 111.935 512.755 123.051 511.592 125.397L509.704 124.664C509.59 124.623 509.466 124.62 509.35 124.657C509.234 124.694 509.134 124.769 509.065 124.869C496.888 142.588 483.715 159.587 469.611 175.784C469.146 176.312 469.959 177.045 470.453 176.488C484.516 160.358 497.65 143.427 509.791 125.778C518.538 128.838 525.929 134.927 530.651 142.965C501.598 190.36 462.58 228.781 445.468 244.501C447.443 234.852 442.795 222.856 442.562 222.299C442.496 222.188 442.393 222.104 442.272 222.061C442.151 222.018 442.018 222.019 441.898 222.065C441.777 222.11 441.676 222.196 441.612 222.309C441.547 222.421 441.524 222.552 441.546 222.68C441.546 223.091 453.167 264.415 377.774 307.734C383.585 296.765 374.143 267.935 369.058 255.558C363.974 243.181 351.801 219.484 340.092 213.618H359.732C383.381 236.524 381.958 235.262 382.306 235.262C382.402 235.257 382.494 235.226 382.574 235.173C382.655 235.121 382.72 235.048 382.764 234.962C382.808 234.876 382.829 234.781 382.825 234.684C382.821 234.588 382.793 234.494 382.742 234.412L317.664 132.113C327.658 135.721 352.701 120.881 354.067 110.381C368.593 135.369 407.089 196.373 430.244 213.501C431.713 214.706 433.429 215.568 435.267 216.025C437.106 216.481 439.022 216.521 440.877 216.14C441.007 216.095 441.118 216.006 441.192 215.889C441.266 215.772 441.298 215.633 441.284 215.495C440.982 213.355 440.982 211.183 441.284 209.043C450 210.685 453.225 204.321 453.167 195.317C453.167 195.169 453.109 195.027 453.005 194.923C452.902 194.818 452.761 194.76 452.615 194.76C452.468 194.76 452.328 194.818 452.224 194.923C452.121 195.027 452.063 195.169 452.063 195.317C452.063 201.534 450.61 205.553 447.676 207.254C442.824 210.186 435.415 205.699 435.154 205.553C435.071 205.5 434.975 205.472 434.877 205.469C434.779 205.467 434.682 205.491 434.597 205.538C434.511 205.586 434.439 205.656 434.389 205.741C434.339 205.826 434.312 205.923 434.311 206.022C434.311 206.315 434.021 205.787 439.977 213.706C439.977 214.175 439.977 214.674 440.122 215.172C434.631 216.199 430.622 212.65 426.467 208.925C430.825 208.749 428.501 198.25 427.426 193.968C427.402 193.858 427.343 193.76 427.26 193.686C427.176 193.612 427.072 193.567 426.961 193.557C418.565 187.281 423.562 179.479 427.716 184.143C429.14 185.756 430.186 186.372 431.028 186.196C431.871 186.02 432.423 184.582 432.365 184.26C430.36 171.209 442.795 162.263 448.896 177.25C448.961 177.369 449.067 177.459 449.194 177.505C449.32 177.55 449.459 177.547 449.584 177.497C449.708 177.447 449.811 177.352 449.871 177.231C449.932 177.11 449.947 176.971 449.913 176.84V176.605C450.385 176.14 450.911 175.736 451.482 175.403C451.538 175.516 451.631 175.607 451.745 175.66C451.859 175.713 451.988 175.726 452.11 175.695C452.232 175.664 452.34 175.592 452.416 175.491C452.492 175.39 452.531 175.266 452.528 175.139C451.278 106.451 440.325 93.9568 435.677 91.7572C434.766 91.3144 433.747 91.1507 432.746 91.2862C431.744 91.4217 430.804 91.8505 430.041 92.5197C428.693 93.8676 427.63 95.4774 426.916 97.2519C426.201 99.0263 425.851 100.928 425.886 102.843C418.826 82.0787 409.239 73.5147 402.963 74.6292C397.763 75.4798 394.945 82.1667 395.264 93.0183C395.571 104.903 397.587 116.679 401.249 127.978C395.293 117.566 390.151 112.845 386.49 114.634C380.679 117.566 382.074 135.164 389.018 149.828C407.815 189.51 426.351 191.651 427.891 205.553C427.687 206.96 427.222 207.43 426.961 207.576C426.7 207.723 425.102 207.576 423.765 206.227C400.145 183.351 370.337 136.014 353.805 107.565C353.381 106.768 352.759 106.095 352 105.612C351.242 105.129 350.372 104.852 349.477 104.808L349.07 103.958C348.132 102.209 347.739 100.216 347.941 98.2382C348.143 96.2604 348.931 94.3901 350.203 92.8717C361.824 78.7059 359.79 76.3889 359.122 75.6264C355.374 71.4911 345.119 83.9557 339.657 84.6303C338.349 84.8063 336.751 79.6444 336.403 77.1808C336.403 77.1808 333.73 59.5836 333.497 58.4691C333.062 55.155 331.987 49.6705 329.72 49.6705C327.454 49.6705 326.815 56.5041 326.815 59.2023C326.815 64.9214 326.815 69.5554 326.815 72.4882C324.694 65.7133 321.498 55.5949 321.208 54.5977C320.249 51.3422 318.303 45.9751 315.978 46.503C314.235 46.9136 313.712 50.697 314.642 56.3868C315.717 62.9271 316.879 70.5232 317.547 75.0105C315.949 71.4324 313.974 66.6811 311.94 61.05C310.545 57.208 308.454 52.75 306.449 53.3073C303.98 53.9818 305.113 61.1087 305.519 63.279C306.129 66.6812 307.611 73.808 308.831 78.5006C307.582 76.213 306.275 73.6027 305.084 70.7872C303.486 67.0331 301.19 62.6631 299.273 63.3083C296.803 64.1589 298.401 71.491 298.953 73.72C300.9 81.5801 302.469 85.2462 306.478 99.5879C308.974 107.905 312.012 116.047 315.572 123.96C313.276 128.565 315.572 130.354 315.572 130.706L367.431 212.533C331.086 212.533 336.809 212.327 333.904 212.943C329.633 214.762 328.094 222.094 329.72 233.473L251.277 246.73C204.56 145.458 207.93 152.38 207.378 152.468C205.344 152.468 203.456 152.761 201.568 152.995C198.256 146.162 198.517 136.689 184.397 130.178C170.277 123.667 148.923 94.9833 144.536 103.459C142.328 107.712 167.779 155.547 170.684 164.434C168.825 165.695 167.024 167.044 165.338 168.452C165.256 168.522 165.195 168.614 165.164 168.719C165.133 168.823 165.133 168.934 165.164 169.038C175.681 204.497 186.809 240.014 198.662 274.856C148.894 251.921 151.858 253.094 151.451 253.476C150.318 254.561 149.185 255.705 148.11 256.878C141.079 253.388 135.704 245.938 120.626 249.516C105.547 253.094 72.6883 243.65 72.9498 253.124C73.0951 258.989 127.221 280.751 132.45 284.183C131.782 286.412 131.172 288.641 130.678 290.84C130.657 290.943 130.664 291.05 130.7 291.149C130.736 291.247 130.799 291.333 130.882 291.398C165.336 318.601 202.183 342.564 240.963 362.989C245.655 365.527 250.854 366.962 256.172 367.185C261.489 367.409 266.789 366.415 271.673 364.279C305.986 349.58 338.797 331.535 369.639 310.403C370.794 310.976 372.088 311.201 373.366 311.05C374.644 310.899 375.852 310.379 376.845 309.552C414.381 288.289 430.68 267.553 437.711 252.889C466.764 228.224 506.566 184.436 531.813 143.2C531.868 143.117 531.898 143.02 531.898 142.921C531.898 142.822 531.868 142.725 531.813 142.642C531.374 141.804 530.889 140.992 530.361 140.208C531.784 137.833 541.052 121.995 543.376 111.114C544.655 105.6 543.958 104.574 543.173 104.339ZM315.717 56.2695C314.729 50.1691 315.717 47.8228 316.24 47.6761C316.763 47.5295 318.303 48.732 320.162 55.0083C320.453 55.9762 327.425 78.2073 327.6 78.7352C325.263 79.7082 323.026 80.9064 320.917 82.3133C320.685 81.6681 321.15 82.9292 319.174 78.7059C319.029 77.6207 317.286 65.8599 315.717 56.2695ZM306.594 63.1617C305.432 57.0027 306.217 54.5977 306.594 54.3631C306.972 54.1285 308.541 55.3309 310.778 61.4313C313.402 68.6764 316.408 75.7743 319.784 82.6946C317.848 84.1051 316.031 85.6746 314.351 87.3872C313.006 85.7075 311.811 83.9116 310.778 82.0201C309.033 75.8183 307.637 69.5222 306.594 63.1617ZM307.495 99.3826C303.544 85.1582 302.004 81.7854 299.999 73.5441C298.43 67.1797 299.07 64.7455 299.593 64.4522C300.115 64.1589 301.568 65.3614 304.067 71.3151C306.668 77.3788 309.943 83.1249 313.828 88.443C312.085 90.2907 310.4 92.3437 308.657 94.6021C308.192 95.1593 309.064 95.8339 309.5 95.2766C315.891 87.0059 321.615 81.5801 331.958 78.2953C332.035 78.2827 332.11 78.2533 332.175 78.2093C332.241 78.1652 332.297 78.1075 332.338 78.0399C332.38 77.9723 332.407 77.8965 332.417 77.8176C332.428 77.7387 332.421 77.6584 332.398 77.5823C332.375 77.5061 332.336 77.4359 332.284 77.3762C332.231 77.3165 332.167 77.2689 332.095 77.2364C332.023 77.2039 331.945 77.1874 331.866 77.1879C331.787 77.1884 331.71 77.206 331.638 77.2395C330.592 77.5621 329.575 77.914 328.733 78.2953L328.035 76.0957C328.035 75.2158 328.035 68.7928 328.035 59.2903C328.035 53.0726 329.314 50.9023 329.895 50.873C330.476 50.8436 331.754 52.2808 332.626 58.7331C332.771 59.7889 335.531 77.4448 335.531 77.4448C335.531 77.4448 337.013 86.2434 340.005 85.8621C345.409 85.1582 355.781 73.5147 358.512 76.4769C359.006 77.0342 359.848 79.8204 349.564 92.2851C348.158 93.9762 347.287 96.0543 347.065 98.2504C346.842 100.447 347.277 102.66 348.314 104.603C348.314 104.926 352.12 112.317 352.411 112.845C348.024 121.643 331.086 131.85 321.005 131.527C315.357 121.34 310.828 110.561 307.495 99.3826ZM207.088 153.582C242.561 230.541 249.156 245.088 250.667 247.639C250.958 248.196 250.667 248.108 251.568 247.991L354.793 230.394C361.069 240.202 366.28 250.664 370.337 261.6L257.756 280.135C252.239 281.049 246.579 279.994 241.749 277.152C236.919 274.31 233.22 269.858 231.289 264.562L191.69 156.046C196.727 154.702 201.886 153.877 207.088 153.582ZM145.64 103.987C149.04 97.3883 170.277 124.811 184.049 131.175C197.82 137.539 197.152 145.839 200.464 153.142C190.206 154.487 180.373 158.113 171.672 163.759C168.68 155.166 143.897 107.331 145.64 103.987ZM73.9957 253.094C73.8214 245.527 106.128 254.121 120.858 250.601C135.123 247.199 140.208 254.091 147.297 257.728C140.757 265.082 135.809 273.733 132.77 283.127C126.988 279.637 74.17 257.875 73.9957 253.094ZM271.237 363.194C266.507 365.269 261.374 366.235 256.222 366.022C251.069 365.809 246.032 364.421 241.486 361.962C202.869 341.617 166.169 317.762 131.84 290.694C134.82 276.928 141.823 264.381 151.945 254.678L199.127 276.44L207.843 301.223C210.487 308.731 215.531 315.138 222.18 319.434C228.829 323.73 236.704 325.67 244.566 324.95C289.104 320.814 324.229 314.303 355.113 304.42C355.234 304.363 355.33 304.264 355.385 304.141C355.439 304.018 355.448 303.88 355.409 303.751C355.37 303.622 355.286 303.512 355.173 303.441C355.06 303.37 354.925 303.342 354.793 303.364C323.968 313.159 288.93 319.641 244.392 323.894C236.752 324.577 229.104 322.669 222.659 318.473C216.213 314.277 211.337 308.031 208.802 300.724C194.275 259.341 182.16 223.208 166.384 169.068C173.483 163.19 181.715 158.865 190.556 156.368L230.185 264.884C231.966 269.761 235.186 273.969 239.409 276.943C243.632 279.916 248.656 281.511 253.805 281.514C256.71 281.514 247.123 282.951 370.627 262.597C376.67 278.874 379.605 294.213 378.21 302.982C344.836 326.934 308.964 347.125 271.237 363.194ZM537.944 96.6844C539.542 89.9388 540.849 89.5575 540.849 89.5575C540.849 89.5575 541.895 91.3172 541.488 97.271C540.969 103.311 539.569 109.241 537.333 114.868C536.841 112.856 536.171 110.893 535.329 109.002C536.481 104.982 537.355 100.886 537.944 96.7431V96.6844ZM534.312 89.0296C535.794 83.1639 536.811 82.6946 536.811 82.6946C536.811 82.6946 537.769 84.4837 537.479 89.8801C537.183 95.839 536.208 101.744 534.573 107.477C533.68 105.608 532.61 103.83 531.378 102.169C531.716 100.399 531.91 98.6038 531.959 96.8017C532.772 94.69 533.557 92.0211 534.312 89.0883V89.0296ZM542.302 110.967C540.123 121.174 531.668 135.897 529.663 139.299C525.343 133.307 519.473 128.63 512.697 125.778C514.004 123.198 519.262 112.023 517.432 102.843C515.892 95.2473 516.532 94.2501 516.619 94.0448C516.706 93.8395 517.955 94.3968 521.848 101.318C525.741 108.24 527.978 124.605 528.007 124.781C528.007 125.544 529.17 125.309 529.082 124.781C528.113 117.467 526.399 110.273 523.969 103.313C525.177 99.1094 526.147 94.8401 526.874 90.5254C527.862 85.1582 528.908 83.8678 529.17 83.8384C529.431 83.8091 530.274 84.2784 530.738 91.2293C530.927 94.5667 530.81 97.9145 530.39 101.23C529.994 100.743 529.567 100.282 529.111 99.8519C528.588 99.3533 527.833 100.175 528.356 100.644C532.948 105.707 535.88 112.078 536.752 118.886C536.752 119.034 536.811 119.176 536.914 119.28C537.018 119.385 537.158 119.443 537.304 119.443C537.451 119.443 537.591 119.385 537.695 119.28C537.798 119.176 537.856 119.034 537.856 118.886C537.537 116.54 537.392 117.39 537.856 115.953C538.321 114.516 539.367 111.906 540.181 109.032C540.695 107.657 541.532 106.429 542.621 105.454C542.621 105.454 543.377 106.04 542.302 110.967Z" fill="#10162F" stroke="#10162F" stroke-width="2" mask="url(#path-23-inside-1_1662_9441)"/>
<path d="M477.34 0.955875L476.987 0.602286C461.769 15.8169 456.908 30.4221 457.299 44.7293C457.69 58.9936 463.305 72.9193 468.916 86.7579L469.018 87.0077C474.609 100.798 480.167 114.505 480.722 128.538C481.278 142.612 476.798 157.05 462.106 172.21L461.012 173.339L462.557 173.049C463.605 172.853 464.682 172.874 465.722 173.111C466.762 173.348 467.743 173.796 468.607 174.427C469.47 175.059 470.198 175.862 470.745 176.787C471.292 177.713 471.648 178.741 471.789 179.809L471.79 179.816L472.662 185.799L472.662 185.799C472.968 187.889 472.445 190.017 471.205 191.718C469.966 193.418 468.113 194.554 466.051 194.881C454.852 196.494 449.606 197.301 447.051 197.705C444.906 198.043 444.675 198.094 444.442 198.101C444.394 198.102 444.345 198.102 444.28 198.102C442.679 198.096 441.117 197.597 439.804 196.67C438.491 195.744 437.489 194.434 436.932 192.916L436.796 192.544L436.402 192.592C430.919 193.256 427.342 193.71 424.981 194.009C423.736 194.167 422.829 194.282 422.16 194.362C421.18 194.48 420.775 194.514 420.59 194.506C420.589 194.506 420.589 194.506 420.588 194.506C420.585 194.503 420.582 194.5 420.578 194.497C417.498 191.147 415.601 189.217 414.478 188.074C414.368 187.962 414.265 187.857 414.169 187.759C413.716 187.297 413.441 187.011 413.281 186.822C413.571 186.756 414.141 186.662 415.282 186.504C417.385 186.214 421.337 185.721 428.835 184.784C430.712 184.55 432.811 184.287 435.159 183.994L435.561 183.943L435.595 183.54C435.746 181.757 436.487 180.078 437.696 178.772C438.906 177.466 440.514 176.609 442.263 176.337L442.264 176.337L460.742 173.404L460.903 173.378L461.018 173.263C476.265 157.981 481.052 143.307 480.569 128.926C480.092 114.709 474.463 100.819 468.867 87.0084L468.724 86.6572C463.067 72.6941 457.486 58.8083 457.127 44.5807C456.769 30.3957 461.606 15.8274 476.909 0.517479L476.911 0.51588C476.922 0.505178 476.935 0.5 476.948 0.5C476.961 0.5 476.974 0.505148 476.985 0.515879C476.996 0.526787 477.003 0.542555 477.003 0.559937C477.003 0.57732 476.996 0.593088 476.985 0.603995L477.34 0.955875ZM477.34 0.955875C477.444 0.850866 477.503 0.708443 477.503 0.559937C477.503 0.411432 477.444 0.269008 477.34 0.163999C477.236 0.0589903 477.095 0 476.948 0C476.801 0 476.66 0.0589903 476.556 0.163999M477.34 0.955875C446.975 31.3152 458.222 59.0532 469.499 86.8634C480.624 114.3 491.777 141.806 463.031 171.969C462.811 171.993 462.591 172.026 462.373 172.067L462.465 172.558L462.824 172.906C462.972 172.753 463.119 172.601 463.265 172.448C464.123 172.373 464.989 172.431 465.833 172.623C466.939 172.875 467.984 173.352 468.902 174.024C469.821 174.696 470.594 175.55 471.176 176.533C471.757 177.516 472.135 178.608 472.285 179.744L473.156 185.727C473.482 187.946 472.926 190.205 471.609 192.012C470.292 193.82 468.321 195.029 466.126 195.376L476.556 0.163999M476.556 0.163999C445.661 31.0723 457.042 59.1591 468.386 87.1524C479.646 114.941 490.869 142.637 460.664 172.91L476.556 0.163999ZM466.028 194.638L466.028 194.638L457.323 195.985C457.321 195.986 457.319 195.986 457.317 195.986C456.291 196.168 455.238 196.139 454.223 195.902C453.205 195.664 452.246 195.221 451.403 194.601C450.559 193.981 449.849 193.195 449.313 192.292C448.778 191.389 448.429 190.387 448.286 189.346C448.136 188.334 448.001 187.463 447.884 186.704C447.664 185.28 447.506 184.254 447.419 183.444C447.284 182.172 447.32 181.379 447.569 180.358L447.57 180.353C447.952 178.855 448.76 177.502 449.895 176.461C451.031 175.42 452.445 174.738 453.962 174.498L453.965 174.498L462.68 173.178C463.69 173.023 464.722 173.071 465.714 173.32C466.706 173.57 467.639 174.015 468.459 174.63C469.279 175.245 469.97 176.018 470.492 176.904C471.014 177.789 471.357 178.77 471.501 179.79L466.028 194.638ZM466.028 194.638L466.039 194.636C468.053 194.276 469.843 193.129 471.023 191.445C472.201 189.764 472.675 187.682 472.343 185.651C472.343 185.649 472.343 185.647 472.343 185.646L471.502 179.791L466.028 194.638Z" fill="#FFD644" stroke="#10162F"/>
<path d="M477.34 0.955875L476.987 0.602286C461.769 15.8169 456.908 30.4221 457.299 44.7293C457.69 58.9936 463.305 72.9193 468.916 86.7579L469.018 87.0077C474.609 100.798 480.167 114.505 480.722 128.538C481.278 142.612 476.798 157.05 462.106 172.21L461.012 173.339L462.557 173.049C463.605 172.853 464.682 172.874 465.722 173.111C466.762 173.348 467.743 173.796 468.607 174.427C469.47 175.059 470.198 175.862 470.745 176.787C471.292 177.713 471.648 178.741 471.789 179.809L471.79 179.816L472.662 185.799L472.662 185.799C472.968 187.889 472.445 190.017 471.205 191.718C469.966 193.418 468.113 194.554 466.051 194.881C454.852 196.494 449.606 197.301 447.051 197.705C444.906 198.043 444.675 198.094 444.442 198.101C444.394 198.102 444.345 198.102 444.28 198.102C442.679 198.096 441.117 197.597 439.804 196.67C438.491 195.744 437.489 194.434 436.932 192.916L436.796 192.544L436.402 192.592C430.919 193.256 427.342 193.71 424.981 194.009C423.736 194.167 422.829 194.282 422.16 194.362C421.18 194.48 420.775 194.514 420.59 194.506C420.589 194.506 420.589 194.506 420.588 194.506C420.585 194.503 420.582 194.5 420.578 194.497C417.498 191.147 415.601 189.217 414.478 188.074C414.368 187.962 414.265 187.857 414.169 187.759C413.716 187.297 413.441 187.011 413.281 186.822C413.571 186.756 414.141 186.662 415.282 186.504C417.385 186.214 421.337 185.721 428.835 184.784C430.712 184.55 432.811 184.287 435.159 183.994L435.561 183.943L435.595 183.54C435.746 181.757 436.487 180.078 437.696 178.772C438.906 177.466 440.514 176.609 442.263 176.337L442.264 176.337L460.742 173.404L460.903 173.378L461.018 173.263C476.265 157.981 481.052 143.307 480.569 128.926C480.092 114.709 474.463 100.819 468.867 87.0084L468.724 86.6572C463.067 72.6941 457.486 58.8083 457.127 44.5807C456.769 30.3957 461.606 15.8274 476.909 0.517479L476.911 0.51588C476.922 0.505178 476.935 0.5 476.948 0.5C476.961 0.5 476.974 0.505148 476.985 0.515879C476.996 0.526787 477.003 0.542555 477.003 0.559937C477.003 0.57732 476.996 0.593088 476.985 0.603995L477.34 0.955875ZM477.34 0.955875C477.444 0.850866 477.503 0.708443 477.503 0.559937C477.503 0.411432 477.444 0.269008 477.34 0.163999C477.236 0.0589903 477.095 0 476.948 0C476.801 0 476.66 0.0589903 476.556 0.163999M477.34 0.955875C446.975 31.3152 458.222 59.0532 469.499 86.8634C480.624 114.3 491.777 141.806 463.031 171.969C462.811 171.993 462.591 172.026 462.373 172.067L462.465 172.558L462.824 172.906C462.972 172.753 463.119 172.601 463.265 172.448C464.123 172.373 464.989 172.431 465.833 172.623C466.939 172.875 467.984 173.352 468.902 174.024C469.821 174.696 470.594 175.55 471.176 176.533C471.757 177.516 472.135 178.608 472.285 179.744L473.156 185.727C473.482 187.946 472.926 190.205 471.609 192.012C470.292 193.82 468.321 195.029 466.126 195.376L476.556 0.163999M476.556 0.163999C445.661 31.0723 457.042 59.1591 468.386 87.1524C479.646 114.941 490.869 142.637 460.664 172.91L476.556 0.163999ZM466.028 194.638L466.028 194.638L457.323 195.985C457.321 195.986 457.319 195.986 457.317 195.986C456.291 196.168 455.238 196.139 454.223 195.902C453.205 195.664 452.246 195.221 451.403 194.601C450.559 193.981 449.849 193.195 449.313 192.292C448.778 191.389 448.429 190.387 448.286 189.346C448.136 188.334 448.001 187.463 447.884 186.704C447.664 185.28 447.506 184.254 447.419 183.444C447.284 182.172 447.32 181.379 447.569 180.358L447.57 180.353C447.952 178.855 448.76 177.502 449.895 176.461C451.031 175.42 452.445 174.738 453.962 174.498L453.965 174.498L462.68 173.178C463.69 173.023 464.722 173.071 465.714 173.32C466.706 173.57 467.639 174.015 468.459 174.63C469.279 175.245 469.97 176.018 470.492 176.904C471.014 177.789 471.357 178.77 471.501 179.79L466.028 194.638ZM466.028 194.638L466.039 194.636C468.053 194.276 469.843 193.129 471.023 191.445C472.201 189.764 472.675 187.682 472.343 185.651C472.343 185.649 472.343 185.647 472.343 185.646L471.502 179.791L466.028 194.638Z" fill="#FFD644" stroke="#10162F"/>
</svg>
