<svg width="757" height="809" viewBox="0 0 757 809" fill="none" xmlns="http://www.w3.org/2000/svg">
<path d="M317.291 612.97C290.761 605.323 266.028 592.436 244.53 575.059C223.033 557.681 205.2 536.159 192.069 511.745C191.985 511.59 191.966 511.407 192.016 511.237C192.066 511.067 192.181 510.923 192.336 510.838C192.49 510.752 192.672 510.732 192.841 510.782C193.01 510.831 193.152 510.946 193.236 511.102C211.953 545.669 239.988 574.187 274.127 593.388C308.267 612.589 347.13 621.695 386.264 619.664C425.397 617.633 463.217 604.546 495.39 581.904C527.563 559.261 552.786 527.979 568.17 491.642C568.239 491.479 568.37 491.349 568.533 491.282C568.696 491.215 568.879 491.217 569.041 491.285C569.203 491.354 569.331 491.485 569.396 491.649C569.462 491.813 569.46 491.997 569.391 492.16C549.241 539.831 512.436 578.47 465.964 600.74C419.491 623.01 366.586 627.362 317.291 612.97Z" fill="#10162F"/>
<path d="M584.497 412.656C584.369 398.854 582.803 385.054 579.824 371.461C579.794 371.291 579.834 371.118 579.936 370.978C580.037 370.839 580.193 370.745 580.37 370.715C580.547 370.684 580.731 370.721 580.885 370.817C581.038 370.912 581.149 371.059 581.193 371.228C584.195 384.903 585.773 398.786 585.902 412.672C585.906 412.85 585.835 413.019 585.706 413.143C585.577 413.267 585.399 413.336 585.213 413.334C585.027 413.332 584.846 413.259 584.712 413.132C584.578 413.005 584.5 412.834 584.497 412.656Z" fill="#0063D2"/>
<path d="M241.832 419.625C243.58 413.599 242.854 407.122 239.815 401.616C236.776 396.11 231.67 392.024 225.619 390.255L174.991 375.512L183.837 345.136L235.525 360.188C238.113 360.939 240.893 360.637 243.253 359.348C245.613 358.06 247.361 355.891 248.114 353.316L258.181 318.747C258.927 316.171 258.616 313.403 257.316 311.05C256.017 308.696 253.835 306.95 251.248 306.194L131.779 271.404C129.193 270.659 126.418 270.963 124.062 272.252C121.706 273.54 119.961 275.706 119.208 278.277L109.141 312.846C108.394 315.423 108.704 318.192 110.004 320.546C111.303 322.9 113.486 324.646 116.073 325.403L167.741 340.449L158.895 370.825L108.277 356.085C102.222 354.329 95.7219 355.036 90.2018 358.049C84.6817 361.062 80.5924 366.136 78.831 372.158L56.7452 448C54.9982 454.026 55.724 460.503 58.7634 466.008C61.8027 471.514 66.9074 475.6 72.9578 477.37L190.3 511.541C196.355 513.296 202.855 512.59 208.375 509.576C213.895 506.563 217.985 501.489 219.746 495.467L241.832 419.625ZM153.116 450.631L157.012 437.252C158.298 440.249 160.433 442.809 163.155 444.619C163.301 444.718 163.48 444.756 163.654 444.723C163.827 444.69 163.98 444.59 164.079 444.445C164.178 444.3 164.215 444.121 164.181 443.948C164.148 443.775 164.047 443.623 163.901 443.524C157.592 439.258 154.603 430.946 158.981 420.201C159.048 420.039 159.048 419.856 158.98 419.694C158.913 419.531 158.783 419.402 158.62 419.335C158.457 419.267 158.273 419.267 158.11 419.334C157.947 419.401 157.818 419.53 157.751 419.693C152.683 432.034 145.83 430.687 146.806 426.599C148.293 420.405 149.21 416.105 150.158 413.395C151.961 408.254 153.921 408.685 160.768 410.206C169.997 412.251 170.547 412.375 172.098 417.565C172.653 419.455 170.185 426.666 175.086 428.148C192.974 433.566 226.888 442.62 233.355 443.976L222.585 480.959C217.966 479.485 163.646 463.04 150.685 458.979L152.127 454.026C152.842 453.044 153.192 451.844 153.116 450.631ZM125.225 491.207L135.809 454.86C136.812 455.035 142.78 456.006 145.077 456.418C146.835 456.796 148.67 456.542 150.254 455.699L138.766 495.151L125.225 491.207ZM145.316 455.116C138.143 453.83 134.374 453.459 130.922 452.417C125.892 450.912 128.056 442.618 134.463 443.967C139.504 445.031 142.997 445.718 148.029 447.004C154.535 448.668 152.01 456.313 145.309 455.114L145.316 455.116ZM149.048 412.573C148.082 415.53 147.277 418.536 146.636 421.58C143.857 420.961 141.123 420.156 138.452 419.171C133.682 417.276 136.217 408.811 142.502 410.605L149.048 412.573ZM138.74 421.283C141.297 421.969 143.708 422.458 146.281 423.112C146.047 424.108 145.796 425.172 145.525 426.292C144.529 430.459 149.752 433.531 154.912 427.364C155.348 428.15 155.536 429.049 155.45 429.942C155.364 430.834 155.009 431.68 154.432 432.367C153.854 433.054 153.081 433.55 152.214 433.79C151.347 434.031 150.426 434.004 149.573 433.714C142.365 432.018 138.252 431.374 134.635 430.075C129.416 428.204 131.988 419.475 138.74 421.283ZM155.783 432.779C155.896 433.559 156.059 434.332 156.27 435.092L154.772 440.235C154.823 439.193 154.563 438.159 154.025 437.263C153.487 436.367 152.696 435.649 151.75 435.199C152.565 435.136 153.352 434.884 154.05 434.463C154.748 434.042 155.337 433.464 155.769 432.775L155.783 432.779ZM135.709 432.222C140.875 433.466 144.446 434.275 149.633 435.763C156.35 437.69 153.539 445.583 146.63 444.139C139.47 442.645 135.427 442.113 131.842 440.933C126.63 439.214 129.097 430.63 135.695 432.218L135.709 432.222ZM154.12 442.476L152.398 448.387C151.889 447.666 151.241 447.053 150.492 446.583C149.743 446.113 148.908 445.795 148.036 445.649C149.247 445.742 150.459 445.493 151.532 444.931C152.606 444.37 153.498 443.517 154.106 442.472L154.12 442.476ZM225.263 391.531C230.975 393.201 235.794 397.058 238.664 402.256C241.533 407.454 242.218 413.568 240.568 419.257L233.74 442.705C227.739 441.482 193.497 432.339 175.483 426.885C171.788 425.768 174.079 419.507 173.389 417.193C171.905 412.242 170.824 411.234 165.016 409.818L174.634 376.787L225.263 391.531ZM116.404 324.252L116.441 324.127C114.188 323.471 112.287 321.951 111.156 319.902C110.025 317.853 109.756 315.443 110.409 313.201L120.472 278.645C121.125 276.404 122.646 274.514 124.7 273.393C126.754 272.271 129.174 272.01 131.426 272.666L250.882 307.452C253.134 308.108 255.035 309.627 256.166 311.676C257.297 313.726 257.566 316.136 256.913 318.378L246.847 352.947C246.194 355.189 244.673 357.078 242.619 358.2C240.564 359.321 238.145 359.582 235.892 358.927L183.575 343.692C183.492 343.667 183.404 343.659 183.317 343.669C183.23 343.678 183.146 343.704 183.07 343.746C182.993 343.788 182.926 343.844 182.871 343.912C182.817 343.98 182.776 344.058 182.752 344.141L163.713 409.519C162.874 409.326 161.953 409.124 160.945 408.9C154.022 407.365 151.457 407.315 149.567 411.36L148.594 411.058L169.23 340.193C169.279 340.024 169.258 339.842 169.172 339.688C169.086 339.534 168.943 339.42 168.773 339.37C117.836 324.537 117.641 324.433 116.39 324.251L116.404 324.252ZM58.0304 448.371L80.1152 372.532C81.7766 366.847 85.6362 362.056 90.8471 359.211C96.058 356.366 102.194 355.699 107.91 357.357L158.528 372.097L147.304 410.642C146.522 410.415 142.897 409.322 142.897 409.322C141.552 408.875 140.096 408.899 138.769 409.391C137.442 409.883 136.326 410.812 135.605 412.025C134.884 413.238 134.602 414.661 134.806 416.058C135.01 417.454 135.688 418.741 136.727 419.703C135.44 419.718 134.192 420.133 133.154 420.888C132.116 421.643 131.341 422.702 130.936 423.917C130.531 425.133 130.516 426.444 130.894 427.671C131.271 428.897 132.022 429.976 133.043 430.76C127.109 431.673 125.523 440.219 131.433 442.171C131.773 442.27 132.134 442.397 132.491 442.501C126.406 442.996 124.676 451.343 130.028 453.488C130.25 453.637 133.856 454.885 134.392 455.071L123.978 490.83L73.3601 476.089C67.6419 474.428 62.8138 470.576 59.9367 465.378C57.0596 460.181 56.3687 454.064 58.0158 448.37L58.0304 448.371ZM190.686 510.266L140.044 495.519L150.315 460.25C163.28 464.312 217.622 480.768 222.214 482.233L218.473 495.082C216.812 500.769 212.952 505.563 207.74 508.41C202.528 511.256 196.389 511.924 190.671 510.266L190.686 510.266Z" fill="#10162F"/>
<path d="M145.175 301.106L139.388 298.422L138.358 291.859C138.326 291.739 138.265 291.63 138.18 291.542C138.096 291.455 137.991 291.391 137.876 291.358C137.76 291.324 137.637 291.321 137.519 291.35C137.401 291.379 137.291 291.438 137.199 291.522L132.81 296.507L126.483 295.663C126.359 295.648 126.232 295.671 126.118 295.727C126.003 295.783 125.905 295.871 125.834 295.981C125.763 296.091 125.723 296.218 125.717 296.349C125.712 296.479 125.741 296.608 125.802 296.721L128.863 302.486L125.989 308.511C125.931 308.63 125.905 308.762 125.916 308.894C125.926 309.026 125.972 309.15 126.048 309.254C126.124 309.358 126.227 309.437 126.346 309.481C126.464 309.526 126.593 309.534 126.718 309.506L133.006 308.1L137.552 312.661C137.642 312.752 137.755 312.814 137.879 312.84C138.003 312.866 138.132 312.855 138.252 312.808C138.372 312.761 138.478 312.681 138.557 312.575C138.637 312.47 138.687 312.344 138.701 312.213L139.511 305.586L145.199 302.381C145.315 302.319 145.412 302.224 145.479 302.108C145.546 301.992 145.581 301.859 145.578 301.725C145.576 301.591 145.536 301.461 145.465 301.352C145.394 301.242 145.293 301.157 145.175 301.106Z" fill="#8BA6FF"/>
<path d="M302.497 88.3732L292.258 83.6256L290.437 72.0141C290.379 71.8015 290.271 71.6088 290.121 71.4536C289.972 71.2985 289.787 71.186 289.582 71.1265C289.378 71.067 289.161 71.0624 288.952 71.1131C288.743 71.1639 288.548 71.2683 288.385 71.4168L280.62 80.2366L269.427 78.7431C269.207 78.718 268.983 78.7574 268.78 78.8569C268.577 78.9563 268.404 79.1119 268.279 79.3062C268.153 79.5005 268.082 79.7259 268.072 79.9571C268.062 80.1882 268.114 80.4161 268.222 80.6152L273.638 90.8146L268.552 101.474C268.449 101.685 268.404 101.92 268.422 102.153C268.441 102.385 268.522 102.606 268.657 102.79C268.791 102.974 268.974 103.113 269.184 103.192C269.393 103.27 269.622 103.285 269.842 103.235L280.967 100.747L289.01 108.817C289.169 108.978 289.37 109.088 289.589 109.134C289.808 109.18 290.037 109.16 290.249 109.078C290.461 108.995 290.648 108.852 290.789 108.666C290.929 108.479 291.018 108.257 291.043 108.024L292.476 96.3006L302.54 90.6296C302.745 90.5198 302.917 90.3523 303.035 90.1466C303.154 89.941 303.215 89.7058 303.21 89.4688C303.206 89.2317 303.136 89.0027 303.01 88.8086C302.884 88.6145 302.706 88.4635 302.497 88.3732Z" fill="#8BA6FF"/>
<path d="M169.554 308.208L163.761 305.522L162.735 298.958C162.702 298.838 162.641 298.729 162.557 298.641C162.472 298.553 162.367 298.49 162.252 298.456C162.136 298.422 162.014 298.42 161.895 298.449C161.777 298.477 161.667 298.536 161.575 298.62L157.185 303.607L150.856 302.763C150.732 302.749 150.605 302.771 150.49 302.827C150.375 302.883 150.277 302.971 150.206 303.081C150.136 303.191 150.095 303.318 150.09 303.449C150.084 303.58 150.113 303.709 150.174 303.821L153.236 309.588L150.361 315.615C150.317 315.708 150.292 315.81 150.289 315.913C150.286 316.016 150.305 316.117 150.344 316.211C150.382 316.304 150.441 316.387 150.515 316.454C150.588 316.52 150.676 316.569 150.77 316.596C153.005 316.332 155.217 315.864 157.382 315.197L161.93 319.759C162.02 319.85 162.133 319.913 162.257 319.939C162.381 319.965 162.511 319.954 162.631 319.907C162.751 319.86 162.856 319.779 162.936 319.674C163.015 319.569 163.065 319.443 163.08 319.311L163.89 312.683L169.58 309.476C169.694 309.413 169.789 309.318 169.855 309.203C169.92 309.087 169.953 308.956 169.951 308.823C169.948 308.69 169.909 308.562 169.839 308.453C169.769 308.345 169.67 308.259 169.554 308.208Z" fill="#8BA6FF"/>
<path d="M193.923 315.308L188.131 312.623L187.106 306.055C187.073 305.935 187.012 305.826 186.927 305.738C186.843 305.65 186.738 305.587 186.623 305.553C186.507 305.52 186.385 305.517 186.266 305.546C186.148 305.574 186.038 305.634 185.946 305.718L181.551 310.707L175.227 309.864C175.102 309.85 174.976 309.872 174.861 309.928C174.746 309.985 174.648 310.073 174.577 310.183C174.507 310.293 174.466 310.42 174.46 310.551C174.455 310.682 174.484 310.811 174.545 310.923L177.606 316.692L174.716 322.707C174.671 322.8 174.646 322.901 174.642 323.004C174.639 323.107 174.657 323.208 174.695 323.302C174.734 323.396 174.792 323.479 174.866 323.545C174.939 323.612 175.027 323.66 175.121 323.687C177.357 323.436 179.571 322.967 181.733 322.286L186.283 326.851C186.373 326.942 186.487 327.005 186.611 327.031C186.734 327.057 186.864 327.046 186.984 326.999C187.104 326.952 187.21 326.871 187.289 326.766C187.368 326.66 187.418 326.534 187.433 326.403L188.256 319.794L193.947 316.585C194.061 316.521 194.157 316.426 194.223 316.31C194.289 316.194 194.323 316.062 194.321 315.928C194.318 315.795 194.279 315.666 194.209 315.556C194.139 315.446 194.039 315.36 193.923 315.308Z" fill="#8BA6FF"/>
<path d="M218.304 322.406L212.513 319.721L211.485 313.158C211.453 313.037 211.392 312.927 211.307 312.839C211.223 312.75 211.117 312.686 211.001 312.652C210.885 312.618 210.762 312.616 210.643 312.645C210.524 312.674 210.414 312.734 210.322 312.819L205.93 317.804L199.6 316.959C199.476 316.947 199.35 316.97 199.236 317.026C199.122 317.083 199.024 317.171 198.954 317.28C198.883 317.389 198.843 317.516 198.836 317.646C198.83 317.776 198.858 317.905 198.918 318.018L201.982 323.784L199.107 329.81C199.062 329.903 199.036 330.004 199.033 330.107C199.029 330.21 199.048 330.311 199.086 330.405C199.125 330.498 199.183 330.581 199.257 330.648C199.331 330.714 199.418 330.763 199.512 330.79C201.747 330.527 203.961 330.059 206.126 329.392L210.676 333.955C210.766 334.046 210.88 334.108 211.004 334.134C211.128 334.16 211.257 334.149 211.377 334.102C211.497 334.056 211.603 333.975 211.682 333.869C211.762 333.764 211.812 333.638 211.826 333.507L212.636 326.879L218.327 323.673C218.441 323.611 218.536 323.516 218.602 323.401C218.667 323.286 218.701 323.155 218.698 323.022C218.696 322.89 218.658 322.762 218.588 322.653C218.518 322.544 218.42 322.458 218.304 322.406Z" fill="#8BA6FF"/>
<path d="M242.67 329.497L236.886 326.814L235.858 320.252C235.825 320.132 235.764 320.023 235.68 319.935C235.596 319.847 235.491 319.784 235.375 319.75C235.26 319.717 235.137 319.714 235.019 319.743C234.901 319.772 234.791 319.831 234.699 319.914L230.312 324.9L223.992 324.058C223.867 324.041 223.739 324.06 223.623 324.115C223.506 324.169 223.406 324.256 223.333 324.366C223.26 324.476 223.218 324.604 223.211 324.735C223.204 324.867 223.233 324.997 223.294 325.111L226.366 330.879L223.493 336.905C223.434 337.023 223.409 337.156 223.419 337.288C223.429 337.419 223.475 337.544 223.551 337.648C223.627 337.752 223.731 337.831 223.849 337.875C223.967 337.92 224.096 337.928 224.221 337.9L230.506 336.492L235.049 341.053C235.139 341.144 235.252 341.206 235.376 341.232C235.5 341.258 235.629 341.247 235.749 341.2C235.869 341.153 235.974 341.072 236.054 340.967C236.133 340.862 236.183 340.736 236.197 340.604L237.008 333.978L242.694 330.772C242.809 330.71 242.906 330.615 242.973 330.499C243.041 330.383 243.075 330.25 243.072 330.116C243.07 329.982 243.031 329.853 242.959 329.743C242.888 329.633 242.787 329.548 242.67 329.497Z" fill="#8BA6FF"/>
<path d="M584.617 485.297C545.296 503.554 505.795 521.809 465.195 538.449C456.83 541.9 447.467 542.076 438.972 538.94C430.478 535.805 423.476 529.588 419.362 521.53C406.301 495.864 390.372 459.496 384.748 426.507L374.97 463.608L341.138 494.5C346.774 527.71 357.809 565.534 372.191 606.256C351.314 626.279 324.53 630.747 295.709 626.517C283.19 584.958 274.529 542.34 269.837 499.201C269.225 493.085 269.927 486.911 271.898 481.091C273.868 475.271 277.062 469.94 281.264 465.454L360.92 380.578C385.683 384.605 410.809 385.942 435.856 384.564C438.014 384.45 440.142 384.016 442.172 383.276C449.891 389.767 465.788 410.037 468.084 467.796L555.017 421.533C564.899 428.84 572.788 438.508 577.96 449.649C583.132 460.79 585.421 473.048 584.617 485.297Z" fill="#FFD644"/>
<path d="M671.152 284.7L553.806 250.528C547.752 248.773 541.257 249.462 535.747 252.443C530.237 255.424 526.16 260.454 524.412 266.43L507.378 324.924C505.646 330.904 506.385 337.336 509.433 342.809C512.482 348.281 517.591 352.348 523.64 354.118L640.986 388.289C647.039 390.045 653.534 389.358 659.044 386.377C664.555 383.397 668.631 378.367 670.379 372.391L687.413 313.897C689.147 307.917 688.408 301.484 685.36 296.011C682.311 290.537 677.202 286.47 671.152 284.7ZM603.863 279.131C604.355 276.973 609.841 280.267 608.173 291.968C606.904 300.841 606.458 302.539 606.039 305.23C604.974 312.113 604.32 313.488 604.389 313.897C605.938 324.508 594.835 335.835 585.042 331.64C584.88 331.574 584.699 331.572 584.538 331.637C584.377 331.701 584.248 331.826 584.179 331.984C584.11 332.142 584.107 332.321 584.17 332.482C584.234 332.643 584.358 332.774 584.517 332.845C595.309 337.444 607.325 325.389 605.718 313.837C605.803 313.443 606.098 312.076 606.522 309.899C608.573 312.108 611.327 313.553 614.319 313.99C613.135 313.962 611.979 314.328 611.034 315.028C610.089 315.728 609.411 316.722 609.106 317.853C608.801 318.983 608.889 320.184 609.353 321.265C609.818 322.345 610.634 323.243 611.671 323.815C610.45 323.55 609.176 323.715 608.07 324.282C606.964 324.849 606.096 325.782 605.616 326.92C605.136 328.058 605.074 329.328 605.441 330.512C605.809 331.696 606.582 332.718 607.627 333.401C606.454 333.563 605.366 334.091 604.521 334.908C603.675 335.726 603.117 336.79 602.927 337.947C602.737 339.104 602.924 340.293 603.462 341.342C604.001 342.391 604.861 343.245 605.92 343.781C600.347 344.164 598.949 352.063 605.877 354.9L607.259 355.47C589.922 351.149 511.487 330.023 507.902 329.085C507.999 327.99 508.207 326.909 508.521 325.858C509.456 322.319 512.091 313.498 520.17 285.754C525.542 287.682 561.718 300.652 573.693 303.998C578.373 305.302 587.083 307.737 591.7 302.904C595.949 298.474 603.187 282.111 603.866 279.132L603.863 279.131ZM606.375 353.694C600.027 351.096 602.102 343.375 608.424 345.456C613.517 347.14 614.396 347.308 618.495 348.837C624.615 351.129 622.03 359.236 616.961 357.8C613.347 356.665 609.811 355.294 606.379 353.695L606.375 353.694ZM608.573 343.614C601.807 341.389 603.45 333.23 610.139 334.923C615.25 336.214 618.877 337.311 623.967 338.815C630.475 340.739 628.349 349.329 622.99 348.22C619.361 347.469 615.148 345.765 608.577 343.615L608.573 343.614ZM611.01 333.651C604.386 331.722 605.613 323.867 612.099 325.232C617.461 326.357 629.653 329.488 629.993 329.587C636.009 331.339 634.363 339.447 629.233 338.601C625.65 338.009 617.893 335.605 611.014 333.652L611.01 333.651ZM615.144 323.862C608.424 322.502 608.958 314.518 615.562 315.375C619.897 315.942 629.122 317.442 630.08 317.721C635.621 319.334 634.563 327.078 629.512 326.656C625.933 326.33 622.125 325.272 615.147 323.863L615.144 323.862ZM669.098 372.018C667.449 377.66 663.6 382.409 658.398 385.222C653.196 388.036 647.065 388.685 641.35 387.027L524.008 352.856C519.169 351.44 514.941 348.458 512.002 344.39C509.063 340.322 507.584 335.403 507.803 330.424C511.486 331.395 519.038 333.427 528.532 335.98C644.434 367.184 604.792 355.639 616.589 359.075C622.323 360.697 625.655 353.252 621.602 349.25C621.973 349.358 622.354 349.429 622.728 349.509C628.422 350.687 631.325 343.64 627.807 339.664C628.25 339.76 628.658 339.839 629.024 339.898C635.887 341.034 638.052 330.271 630.047 328.238L628.574 327.867C628.852 327.898 629.131 327.928 629.412 327.951C636.331 328.55 637.641 317.647 629.529 316.246C610.032 311.791 606.671 311.464 607.257 305.982C608.072 301.465 608.803 296.968 609.492 292.16C611.551 277.711 603.48 274.84 602.567 278.837C601.919 281.669 594.752 297.801 590.733 301.996C586.659 306.27 578.453 303.964 574.047 302.732C562.062 299.384 525.612 286.316 520.538 284.493L525.689 266.802C527.338 261.16 531.186 256.411 536.387 253.596C541.589 250.781 547.72 250.132 553.435 251.789L670.781 285.961C676.493 287.631 681.317 291.471 684.195 296.638C687.073 301.805 687.769 307.878 686.132 313.524L669.098 372.018Z" fill="#10162F"/>
<path d="M157.152 549.139L149.637 546.95C148.79 546.703 147.999 546.291 147.312 545.738C146.624 545.184 146.053 544.5 145.63 543.724C145.207 542.948 144.942 542.096 144.849 541.217C144.756 540.338 144.838 539.449 145.089 538.602L147.273 531.104C147.322 530.934 147.302 530.752 147.217 530.597C147.132 530.442 146.989 530.327 146.819 530.277C146.65 530.228 146.468 530.248 146.313 530.333C146.158 530.419 146.043 530.562 145.993 530.732L143.81 538.229C143.566 539.079 143.156 539.872 142.605 540.563C142.055 541.254 141.373 541.83 140.6 542.257C139.827 542.685 138.978 542.955 138.1 543.053C137.223 543.152 136.335 543.076 135.488 542.83L127.962 540.638C127.793 540.589 127.61 540.609 127.455 540.694C127.3 540.78 127.186 540.923 127.136 541.093C127.087 541.263 127.107 541.445 127.192 541.6C127.277 541.755 127.42 541.87 127.589 541.92L135.104 544.108C135.95 544.354 136.738 544.764 137.425 545.316C138.112 545.867 138.683 546.548 139.106 547.321C139.529 548.094 139.796 548.943 139.891 549.82C139.986 550.696 139.908 551.583 139.66 552.429L137.468 559.957C137.432 560.123 137.461 560.296 137.548 560.442C137.634 560.587 137.773 560.694 137.935 560.741C138.098 560.789 138.272 560.773 138.423 560.697C138.575 560.62 138.691 560.49 138.751 560.331L140.943 552.803C141.189 551.956 141.599 551.167 142.15 550.479C142.701 549.791 143.382 549.218 144.153 548.793C144.925 548.369 145.773 548.101 146.648 548.005C147.523 547.908 148.408 547.985 149.253 548.232L156.771 550.421C156.941 550.472 157.124 550.453 157.28 550.368C157.436 550.283 157.552 550.14 157.602 549.97C157.653 549.8 157.634 549.617 157.549 549.461C157.465 549.305 157.322 549.189 157.152 549.139ZM141.211 549.524C140.947 547.508 139.938 545.666 138.382 544.36C140.395 544.096 142.235 543.084 143.54 541.526C143.8 543.541 144.807 545.384 146.362 546.688C144.354 546.953 142.518 547.961 141.214 549.514L141.211 549.524Z" fill="#10162F"/>
<path d="M604.776 220.888L588.492 216.146L593.236 199.855C593.272 199.691 593.243 199.52 593.157 199.376C593.071 199.232 592.934 199.125 592.772 199.079C592.611 199.032 592.438 199.047 592.288 199.123C592.138 199.198 592.022 199.327 591.964 199.485L587.219 215.779L570.928 211.035C570.764 211 570.593 211.029 570.449 211.115C570.305 211.201 570.198 211.338 570.151 211.499C570.104 211.66 570.12 211.833 570.196 211.983C570.271 212.133 570.4 212.249 570.558 212.308L586.852 217.053L582.109 233.34C582.074 233.504 582.102 233.676 582.188 233.82C582.274 233.964 582.411 234.07 582.573 234.117C582.734 234.164 582.907 234.148 583.057 234.073C583.207 233.998 583.323 233.868 583.381 233.711L588.125 217.42L604.419 222.165C604.584 222.198 604.755 222.168 604.898 222.081C605.042 221.993 605.146 221.854 605.192 221.693C605.237 221.531 605.219 221.358 605.142 221.209C605.065 221.06 604.934 220.945 604.776 220.888Z" fill="#10162F"/>
<path d="M222.628 71.3118C231.041 41.2826 264.996 23.0375 299.846 32.8065C348.247 46.3028 364.185 103.254 327.85 132.984L330.395 160.73C330.407 160.858 330.381 160.987 330.32 161.1C330.259 161.213 330.166 161.306 330.052 161.367C329.939 161.428 329.809 161.455 329.68 161.444C329.551 161.433 329.428 161.385 329.326 161.305L306.968 144.036C259.475 158.558 209.867 116.862 222.628 71.3118ZM300.17 34.273C284.286 29.4854 267.191 30.8529 252.341 38.0992C245.189 41.4723 238.888 46.3821 233.891 52.4747C228.894 58.5672 225.327 65.6907 223.446 73.3316C221.565 80.9725 221.417 88.9404 223.013 96.6611C224.61 104.382 227.91 111.663 232.676 117.979C240.946 129.25 252.546 137.691 265.853 142.122C279.16 146.553 293.51 146.751 306.896 142.691C306.985 142.662 307.055 142.638 307.617 143.021C309.012 143.971 313.461 147.402 328.93 159.351C327.216 140.649 326.633 134.939 326.552 133.131C326.508 132.195 326.599 132.298 326.735 132.188C362.254 103.476 347.379 48.0206 300.17 34.273Z" fill="#10162F"/>
<path d="M552.843 671.811L530.896 661.785L526.719 637.939C526.687 637.826 526.626 637.723 526.543 637.64C526.461 637.557 526.358 637.496 526.246 637.463C526.133 637.431 526.014 637.427 525.9 637.453C525.785 637.478 525.679 637.533 525.591 637.611L509.265 655.485L485.366 652.161C485.246 652.147 485.124 652.166 485.014 652.217C484.903 652.268 484.809 652.349 484.742 652.451C484.675 652.552 484.637 652.67 484.633 652.792C484.629 652.914 484.659 653.034 484.719 653.14L496.577 674.205L485.986 695.993C485.931 696.103 485.908 696.226 485.919 696.349C485.931 696.472 485.976 696.589 486.051 696.686C486.126 696.784 486.227 696.858 486.342 696.901C486.457 696.944 486.582 696.953 486.702 696.928L510.357 692.075L527.708 708.869C527.796 708.955 527.907 709.014 528.027 709.04C528.147 709.066 528.272 709.057 528.387 709.015C528.502 708.972 528.604 708.898 528.679 708.801C528.755 708.704 528.802 708.587 528.814 708.464L531.577 684.397L552.89 672.991C552.998 672.933 553.089 672.845 553.15 672.738C553.211 672.631 553.241 672.509 553.236 672.385C553.231 672.262 553.191 672.143 553.122 672.041C553.052 671.939 552.956 671.86 552.843 671.811ZM530.644 683.398C530.213 683.636 530.535 681.869 527.654 706.992C509.671 689.582 510.925 690.608 510.426 690.707L487.712 695.361L497.875 674.459C498.094 674.018 498.859 675.629 486.481 653.642C511.499 657.125 509.644 656.992 509.978 656.627L525.64 639.483L529.647 662.355C529.734 662.842 528.148 661.984 551.077 672.453L530.644 683.398Z" fill="#10162F"/>
<path d="M203.167 291.387C224.396 260.387 253.609 235.685 287.73 219.882C321.852 204.078 359.618 197.758 397.053 201.587C397.228 201.605 397.388 201.691 397.499 201.827C397.61 201.963 397.663 202.138 397.645 202.312C397.627 202.487 397.541 202.647 397.405 202.757C397.269 202.868 397.094 202.92 396.919 202.902C359.719 199.093 322.188 205.371 288.28 221.074C254.372 236.776 225.341 261.323 204.245 292.129C204.137 292.244 203.991 292.317 203.833 292.334C203.675 292.351 203.517 292.311 203.386 292.221C203.255 292.131 203.161 291.998 203.121 291.845C203.081 291.691 203.097 291.529 203.167 291.387Z" fill="#10162F"/>
<path d="M676.499 440.866C661.007 426.598 609.292 413.716 579.472 410.265C579.355 410.264 579.347 410.229 579.071 410.383C578.203 410.843 574.922 413.02 559.435 422.89C558.33 421.944 557.194 421.013 556.026 420.098C555.907 420.004 555.651 419.988 554.817 420.355C552.188 421.529 539.274 428.59 469.394 465.87C467.097 411.662 453.002 390.592 444.194 382.644C447.82 381.122 450.987 378.679 453.38 375.558C455.773 372.436 457.31 368.743 457.839 364.846C460.844 343.067 465.638 297.85 462.273 282.593C458.667 266.285 439.529 261.01 435.246 256.38C427.88 248.408 427.049 235.365 429.498 224.926C429.529 224.759 429.494 224.586 429.401 224.444C429.307 224.302 429.163 224.201 428.998 224.162C428.832 224.123 428.658 224.149 428.511 224.236C428.365 224.322 428.257 224.461 428.21 224.624C425.641 235.498 426.596 248.974 434.272 257.279C437.277 259.715 440.542 261.811 444.008 263.529C442.385 265.62 440.234 267.24 437.777 268.222C435.255 268.959 432.655 269.397 430.031 269.524C406.558 270.676 389.952 250.439 393.709 254.783C392.016 253.163 390.766 251.135 390.079 248.894C393.447 248.708 396.823 248.701 400.192 248.871C403.271 248.785 406.233 247.668 408.603 245.7C410.973 243.731 412.615 241.024 413.265 238.012L418.641 232.358C418.732 232.256 418.788 232.127 418.803 231.991C418.817 231.855 418.789 231.718 418.723 231.598C418.656 231.479 418.554 231.383 418.431 231.323C418.308 231.264 418.169 231.244 418.034 231.267C416.536 231.779 414.997 232.16 413.433 232.406C405.241 233.649 400.615 230.399 400.758 222.105C401.464 214.65 403.531 207.387 406.855 200.677C409.021 196.203 412.945 190.002 417.707 191.421C421.805 192.615 425.145 199.096 425.972 204.878C425.996 205.014 426.061 205.14 426.159 205.238C426.257 205.336 426.383 205.401 426.52 205.424C426.656 205.448 426.797 205.428 426.922 205.368C427.046 205.308 427.15 205.211 427.217 205.09C429.584 200.568 432.905 197.848 435.507 198.606C435.846 198.705 446.059 201.613 447.161 202C459.174 205.311 474.466 203.764 478.881 188.602C483.133 173.999 477.685 153.997 464.281 150.094C449.73 145.856 434.149 156.503 428.694 169.107C427.325 172.286 426.771 175.756 427.083 179.203C422.883 178.61 418.603 179.35 414.846 181.319C411.088 183.288 408.043 186.387 406.139 190.179C406.051 190.331 406.027 190.512 406.071 190.681C406.116 190.851 406.226 190.996 406.377 191.086C406.377 191.086 407.063 191.252 407.543 191.355C404.825 198.386 402.585 205.593 400.839 212.927C397.473 225.746 399.816 235.351 412.785 233.826C411.924 241.334 407.921 247.212 400.137 247.548C394.441 247.806 376.09 244.405 360.68 263.804C355.987 269.709 351.895 277.268 347.072 282.976C346.955 278.249 346.936 276.158 346.879 275.208C346.83 274.419 346.862 274.384 345.97 273.93L339.068 269.823C337.723 265.808 335.302 262.239 332.069 259.505L355.656 241.26C355.94 241.054 356.178 240.793 356.356 240.491C356.534 240.189 356.647 239.854 356.69 239.506C356.733 239.159 356.703 238.806 356.604 238.47C356.504 238.135 356.336 237.823 356.111 237.555C355.886 237.287 355.607 237.068 355.294 236.913C354.98 236.757 354.638 236.668 354.288 236.65C353.938 236.633 353.589 236.688 353.261 236.812C352.934 236.935 352.635 237.125 352.384 237.369L329.807 257.932C327.761 256.699 325.482 255.904 323.113 255.597L323.87 248.131C323.882 248.004 323.857 247.875 323.799 247.761C323.74 247.647 323.65 247.553 323.539 247.488L314.91 242.519C314.543 242.305 313.991 242.383 313.924 243.271C313.841 244.348 313.86 247.108 313.754 254.77C296.086 244.256 291.321 241.323 289.897 240.614C288.885 240.107 288.932 240.726 288.959 241.314C289.03 244.614 290.074 261.362 293.929 344.658C293.956 345.206 290.552 342.941 348.517 378.471C349.205 378.767 349.456 378.447 349.497 376.92C349.551 375.122 349.312 371.656 349.161 365.545C350.317 366.617 351.487 367.64 352.662 368.647C353.021 372.332 354.245 379.599 357.921 379.836C358.764 379.979 359.602 380.113 360.437 380.246C351.861 389.4 281.703 464.257 281.703 464.257C277.438 468.817 274.197 474.235 272.195 480.149C270.193 486.062 269.477 492.336 270.094 498.548C274.746 541.735 283.39 584.397 295.913 625.987C296.06 626.477 296.472 626.462 297.269 626.573C299.888 626.943 302.461 627.237 304.989 627.455C307.383 635.735 308.461 638.222 305.245 653.931C301.603 675.301 300.46 697.022 301.837 718.655L302.885 730.623C302.894 730.736 302.933 730.846 302.997 730.94C303.061 731.034 303.148 731.11 303.25 731.161C303.352 731.211 303.466 731.234 303.58 731.228C303.693 731.221 303.803 731.185 303.899 731.124C321.666 719.806 347.401 673.13 358.395 645.195C358.522 644.762 358.908 646.321 350.901 621.087C359.249 617.424 366.874 612.296 373.416 605.945C373.504 605.857 373.567 605.746 373.596 605.625C373.624 605.503 373.619 605.376 373.579 605.258C358.043 561.178 347.937 524.76 342.698 493.953L390.597 450.169C398.071 474.608 407.744 498.319 419.498 521.011C423.715 529.184 430.836 535.482 439.462 538.668C448.087 541.854 457.592 541.696 466.109 538.227C505.254 522.13 543.31 504.595 585.43 484.994C585.541 484.943 585.636 484.861 585.704 484.759C585.772 484.657 585.81 484.538 585.815 484.416C586.116 476.971 585.432 469.519 583.781 462.254C589.515 460.378 595.508 459.418 601.54 459.409C623.157 457.598 644.468 453.113 664.984 446.058C672.508 443.439 675.169 442.506 676.13 442.055C676.848 441.721 676.818 441.18 676.499 440.866ZM444.777 264.694C445.341 265.226 445.711 265.931 445.827 266.698C445.943 267.465 445.799 268.248 445.417 268.923C445.036 269.599 444.44 270.127 443.723 270.423C443.007 270.72 442.212 270.767 441.465 270.559C440.517 270.317 439.646 269.837 438.934 269.165C441.193 268.13 443.187 266.597 444.767 264.679L444.777 264.694ZM437.487 269.698C437.5 270.237 437.387 270.771 437.155 271.257C436.924 271.743 436.581 272.168 436.155 272.498C435.729 272.827 435.231 273.051 434.702 273.152C434.173 273.254 433.628 273.229 433.11 273.08C432.569 272.923 432.076 272.633 431.674 272.237C431.273 271.842 430.977 271.352 430.812 270.813C433.063 270.641 435.294 270.263 437.476 269.684L437.487 269.698ZM429.308 270.886C429.142 271.688 428.692 272.403 428.042 272.901C427.392 273.399 426.585 273.647 425.767 273.598C424.95 273.549 424.178 273.208 423.591 272.637C423.005 272.065 422.644 271.301 422.574 270.485C424.802 270.789 427.05 270.918 429.297 270.871L429.308 270.886ZM420.856 270.198C420.541 270.938 419.965 271.536 419.238 271.878C418.511 272.22 417.683 272.283 416.912 272.053C416.183 271.839 415.549 271.381 415.117 270.755C414.685 270.129 414.482 269.374 414.54 268.616C416.606 269.272 418.712 269.796 420.845 270.184L420.856 270.198ZM406.945 265.49C408.946 266.481 411.002 267.361 413.101 268.123C412.713 268.75 412.13 269.232 411.442 269.496C410.754 269.76 409.999 269.791 409.291 269.584C408.445 269.336 407.727 268.769 407.287 268.004C406.848 267.238 406.722 266.332 406.934 265.476L406.945 265.49ZM399.959 261.395C401.826 262.651 403.756 263.811 405.741 264.871C405.217 265.498 404.487 265.916 403.682 266.051C402.876 266.186 402.05 266.029 401.35 265.608C400.651 265.186 400.125 264.529 399.868 263.754C399.611 262.979 399.639 262.137 399.948 261.381L399.959 261.395ZM393.477 256.35C395.168 257.838 396.933 259.239 398.766 260.549C398.164 261.088 397.39 261.397 396.583 261.421C395.775 261.445 394.984 261.182 394.351 260.68C393.718 260.177 393.283 259.467 393.123 258.675C392.963 257.882 393.088 257.059 393.477 256.35ZM388.807 249.217C389.46 251.483 390.662 253.552 392.306 255.241C391.889 255.547 391.408 255.753 390.899 255.843C390.39 255.933 389.868 255.904 389.372 255.76C388.709 255.54 388.126 255.131 387.693 254.583C387.26 254.035 386.996 253.373 386.935 252.677C386.873 251.981 387.016 251.283 387.347 250.667C387.677 250.052 388.18 249.547 388.793 249.213L388.807 249.217ZM330.994 260.323C333.734 262.549 335.868 265.43 337.2 268.699L327.573 262.958L330.994 260.323ZM328.786 258.843C326.956 260.513 325.813 261.487 325.582 261.791L322.661 260.048L322.98 256.898C325.025 257.155 326.998 257.816 328.786 258.843ZM315.228 244.212L322.502 248.402L321.404 259.296L315.075 255.529L315.228 244.212ZM348.095 376.667L295.224 344.22L290.196 242.299L345.543 275.231L346.432 310.613C344.548 316.858 342.972 320.681 341.15 321.127C340.783 321.169 340.411 321.115 340.072 320.969C339.732 320.823 339.437 320.591 339.215 320.295C333.193 310.476 326.26 301.245 318.508 292.725C316.57 290.871 310.84 285.399 308.774 287.074C307.336 288.23 308.512 291.944 312.263 298.111C313.764 300.597 315.132 303.044 316.35 305.43C314.202 303.53 311.607 301.335 309.935 299.93C305.89 296.549 303.099 295.343 301.864 296.445C301.59 296.723 301.425 297.091 301.4 297.481C301.375 297.871 301.491 298.257 301.727 298.568C304.212 302.376 308.559 307.946 311.477 312.167C309.361 310.9 304.007 307.817 302.444 309.745C302.219 310.066 302.115 310.456 302.153 310.846C302.19 311.236 302.365 311.6 302.647 311.872C306.335 315.909 313.482 322.338 316.827 326.206C322.049 331.561 326.762 337.391 330.903 343.62C332.345 346.542 334.09 349.303 336.11 351.86C339.733 356.251 343.639 360.401 347.803 364.283L348.095 376.667ZM319.964 322C313.167 313.022 316.248 316.281 308.155 305.309C306.233 302.696 304.243 299.998 302.834 297.84C302.71 297.65 302.708 297.466 302.743 297.446C302.778 297.427 304.004 296.712 309.065 300.951C311.477 302.979 315.815 306.662 317.924 308.672C321.081 315.336 323.577 322.293 325.377 329.445C323.697 326.906 321.779 324.376 319.966 321.983L319.964 322ZM327.328 335.224C327.566 335.878 327.812 336.536 328.067 337.198C325.587 334.03 322.71 330.824 320.363 328.205C317.181 324.475 313.789 320.929 310.205 317.583C307.832 315.28 305.383 312.9 303.627 310.975C303.474 310.809 303.44 310.623 303.474 310.581C303.508 310.54 304.604 309.651 310.3 313.01C310.872 313.349 311.924 313.975 313.164 314.721C317.459 321.502 323.912 328.522 327.329 335.206L327.328 335.224ZM353.716 367.801C346.977 362.09 340.842 355.701 335.408 348.736C333.379 345.696 331.655 342.463 330.26 339.085C328.078 333.593 326.218 327.978 324.687 322.27C321.936 313.562 318.142 305.219 313.389 297.421C309.266 290.643 309.271 288.368 309.597 288.106C309.62 288.093 309.645 288.085 309.67 288.08C310.029 288.019 311.792 288.132 317.581 293.689C325.266 302.136 332.135 311.291 338.098 321.031C338.126 321.082 338.16 321.129 338.2 321.171C338.58 321.654 339.083 322.024 339.656 322.244C340.229 322.464 340.851 322.525 341.456 322.42C345.408 321.456 347.285 311.416 348.636 308.152C349.212 306.357 350.093 304.674 351.24 303.178C351.42 303.267 352.351 304.141 352.929 312.505C353.383 319.115 354.186 330.703 358.231 335.608C360.475 337.961 363.514 339.393 366.756 339.625C367.912 351.332 366.284 363.146 362.005 374.104C359.126 372.155 356.359 370.045 353.718 367.783L353.716 367.801ZM360.29 378.874C361.349 377.871 362.217 376.684 362.851 375.371C367.62 366.331 369.395 348.917 368.007 338.947C367.785 336.224 366.946 333.587 365.554 331.237L415.693 337.355C415.781 337.366 415.87 337.36 415.956 337.335C416.042 337.311 416.121 337.269 416.191 337.213C416.26 337.157 416.317 337.088 416.358 337.009C416.4 336.931 416.425 336.844 416.432 336.756L418.852 308.719C418.867 308.543 418.812 308.369 418.699 308.235C418.585 308.1 418.423 308.016 418.248 308.001C418.073 307.986 417.899 308.041 417.764 308.155C417.63 308.268 417.546 308.43 417.53 308.605L415.172 335.955L369.05 330.309C368.532 328.043 366.236 317.977 365.863 316.308C362.574 301.672 368.806 284.418 368.871 284.246C368.927 284.082 368.917 283.902 368.843 283.746C368.768 283.59 368.636 283.469 368.473 283.409C368.311 283.349 368.131 283.355 367.973 283.426C367.815 283.497 367.691 283.627 367.628 283.788C367.576 283.967 361.193 301.575 364.567 316.599C364.92 318.171 366.981 327.217 367.654 330.138L363.268 329.595C361.6 329.322 359.952 330.605 358.362 333.406C352.918 324.065 355.59 302.488 351.488 301.848C350.087 301.616 349.087 303.627 347.674 307.016L347.116 284.946C357.791 273.131 363.295 253.237 386.647 249.334C386.147 249.952 385.806 250.683 385.653 251.463C385.501 252.243 385.541 253.049 385.772 253.809C386.002 254.57 386.415 255.263 386.975 255.827C387.535 256.391 388.224 256.81 388.983 257.046C389.914 257.317 390.907 257.292 391.823 256.973C391.633 257.832 391.683 258.726 391.969 259.558C392.254 260.389 392.763 261.126 393.44 261.687C394.118 262.247 394.936 262.61 395.806 262.735C396.676 262.86 397.564 262.742 398.372 262.395C398.335 263.251 398.528 264.102 398.931 264.858C399.334 265.615 399.931 266.25 400.662 266.698C401.393 267.146 402.23 267.391 403.087 267.406C403.944 267.422 404.789 267.208 405.536 266.787C405.619 267.647 405.937 268.468 406.456 269.159C406.975 269.85 407.673 270.385 408.476 270.706C409.278 271.026 410.153 271.12 411.005 270.976C411.857 270.832 412.653 270.457 413.306 269.891C413.499 270.747 413.93 271.53 414.551 272.151C415.171 272.771 415.955 273.203 416.811 273.395C417.667 273.587 418.56 273.533 419.386 273.237C420.213 272.942 420.938 272.418 421.479 271.727C421.777 272.598 422.322 273.364 423.048 273.93C423.774 274.496 424.65 274.838 425.567 274.914C426.485 274.991 427.405 274.798 428.215 274.359C429.024 273.921 429.689 273.256 430.127 272.446C430.652 273.219 431.394 273.819 432.259 274.172C433.124 274.526 434.074 274.615 434.99 274.431C435.906 274.246 436.747 273.796 437.408 273.135C438.069 272.475 438.521 271.634 438.706 270.718C439.439 271.217 440.248 271.594 441.101 271.834C441.978 272.078 442.907 272.067 443.778 271.804C444.65 271.541 445.428 271.036 446.024 270.348C446.62 269.659 447.008 268.815 447.144 267.915C447.279 267.015 447.156 266.094 446.789 265.261C450.208 267.103 453.223 269.612 455.657 272.639C458.09 275.666 459.893 279.15 460.958 282.886C464.277 297.96 459.501 342.978 456.505 364.674C455.838 369.578 453.483 374.097 449.845 377.453C446.207 380.809 441.514 382.793 436.573 383.061C411.068 384.433 385.49 383.022 360.291 378.856L360.29 378.874ZM353.895 634.958L357.07 644.956C346.057 672.841 320.938 717.666 304.104 729.413L303.185 718.904C316.634 707.133 338.011 667.13 353.897 634.94L353.895 634.958ZM584.496 483.988C542.538 503.515 504.607 520.986 465.603 537.026C457.395 540.369 448.234 540.521 439.921 537.452C431.608 534.382 424.744 528.313 420.679 520.437C408.77 497.491 399.021 473.487 391.558 448.734C389.319 441.194 387.553 433.521 386.27 425.76C385.96 424.671 385.079 425.009 384.93 425.524C384.93 425.524 384.93 425.524 375.189 462.464C349.325 486.111 343.104 491.677 341.684 493.151C341.148 493.73 341.302 493.679 341.331 493.834C346.549 524.698 356.644 561.167 372.183 605.311C364.68 612.527 355.748 618.091 345.964 621.643L331.064 571.799C331.002 571.648 330.887 571.524 330.739 571.452C330.592 571.38 330.423 571.366 330.266 571.411C330.108 571.457 329.973 571.559 329.887 571.698C329.8 571.837 329.768 572.004 329.797 572.165L344.71 622.078C329.301 626.86 312.98 627.926 297.081 625.188C284.642 583.808 276.053 541.364 271.426 498.4C270.826 492.376 271.52 486.293 273.461 480.558C275.402 474.823 278.545 469.569 282.68 465.147C282.68 465.147 360.838 381.729 361.883 380.45C386.59 384.448 411.658 385.764 436.649 384.376C438.738 384.262 440.802 383.858 442.78 383.176C449.869 389.313 465.838 409.43 468.092 466.974C468.097 467.087 468.13 467.196 468.188 467.292C468.247 467.388 468.329 467.467 468.426 467.523C468.524 467.578 468.634 467.608 468.746 467.61C468.858 467.611 468.969 467.584 469.068 467.53L555.532 421.404C562.142 426.503 567.898 432.623 572.583 439.534L526.698 462.75C526.579 462.81 526.48 462.904 526.415 463.02C526.35 463.137 526.322 463.27 526.334 463.403C526.346 463.536 526.398 463.662 526.483 463.765C526.568 463.868 526.682 463.943 526.81 463.98C527.199 464.093 523.978 465.612 573.315 440.651C581.453 453.577 585.362 468.72 584.497 483.973L584.496 483.988ZM664.861 444.715C650.081 434.748 605.938 424.35 570.729 417.259L579.565 411.625C609.331 415.105 659.092 427.869 674.771 441.127L664.861 444.715Z" fill="#10162F"/>
<path d="M414.221 396.136C414.166 396.073 414.125 396 414.099 395.922C414.073 395.844 414.064 395.763 414.071 395.682C414.078 395.602 414.101 395.523 414.14 395.452C414.179 395.381 414.232 395.319 414.297 395.268C414.361 395.217 414.436 395.18 414.517 395.157C414.597 395.134 414.682 395.127 414.767 395.136C414.851 395.145 414.933 395.17 415.009 395.209C415.084 395.248 415.151 395.301 415.206 395.364C418.987 400.042 423.712 403.952 429.087 406.85C434.462 409.747 440.371 411.571 446.448 412.208C446.619 412.224 446.778 412.305 446.89 412.431C447.001 412.558 447.057 412.721 447.045 412.884C447.033 413.047 446.953 413.197 446.824 413.3C446.695 413.404 446.526 413.453 446.356 413.437C440.108 412.782 434.032 410.909 428.504 407.933C422.976 404.957 418.115 400.941 414.221 396.136Z" fill="black"/>
<path d="M445.611 200.905C443.919 200.084 442.124 199.495 440.274 199.154C440.216 195.257 438.869 191.484 436.443 188.417C434.017 185.351 430.646 183.162 426.852 182.188C423.107 180.861 419.009 180.943 415.33 182.42C411.651 183.896 408.647 186.664 406.885 190.2L406.319 190.057C404.525 189.633 402.361 190.756 400.381 193.136C394.102 200.686 393.44 215.387 399.995 217.891L400.046 217.905C400.133 217.931 400.224 217.938 400.314 217.926C400.403 217.915 400.49 217.885 400.567 217.839C401.661 217.191 400.109 212.376 408.495 191.686C408.567 191.598 408.618 191.496 408.644 191.386C408.67 191.275 408.669 191.161 408.643 191.051C408.617 190.94 408.566 190.837 408.493 190.75C408.421 190.663 408.329 190.593 408.225 190.546C409.889 187.367 412.654 184.897 416.01 183.592C419.366 182.287 423.086 182.236 426.485 183.448C429.954 184.291 433.052 186.247 435.298 189.014C437.544 191.78 438.815 195.203 438.913 198.754L435.419 197.736C427.808 195.52 420.187 211.76 423.544 221.004C420.266 222.721 416.666 223.745 412.968 224.012C412.74 223.329 412.301 222.735 411.713 222.315C411.125 221.896 410.42 221.672 409.697 221.677C408.975 221.681 408.274 221.913 407.694 222.34C407.114 222.767 406.686 223.367 406.471 224.052C406.353 224.497 406.329 224.962 406.4 225.417C406.471 225.872 406.635 226.308 406.882 226.698C407.13 227.088 407.455 227.423 407.838 227.682C408.221 227.942 408.654 228.12 409.109 228.206C409.563 228.292 410.031 228.284 410.482 228.182C410.933 228.08 411.357 227.887 411.729 227.614C412.101 227.342 412.413 226.996 412.644 226.597C412.875 226.199 413.021 225.758 413.073 225.3C413.11 225.305 413.148 225.307 413.185 225.304C416.979 224.95 420.672 223.904 424.081 222.218C424.408 222.913 424.874 223.534 425.451 224.043C426.028 224.552 426.703 224.938 427.435 225.178C437.374 228.072 436.813 227.982 437.733 227.983C447.041 227.982 453.474 205.903 445.611 200.905ZM399.714 216.263C395.465 213.331 395.503 201.087 401.412 193.979C403.036 192.028 404.759 191.043 406.015 191.339L407.108 191.614C403.722 199.525 401.239 207.793 399.704 216.26L399.714 216.263ZM427.789 223.976L427.805 223.919C424.335 222.908 423.065 216.341 425.029 209.597C426.993 202.854 431.589 197.995 435.06 199.006L440.805 200.679C433.563 203.834 429.059 218.86 433.53 225.586C429.792 224.497 428.37 224.094 427.779 223.973L427.789 223.976ZM437.738 226.669C431.137 226.679 431.673 209.83 439.308 203.225C440.952 201.797 443.071 200.84 444.913 202.018C447.428 203.617 448.905 208.917 446.856 215.954C444.807 222.99 440.708 226.666 437.728 226.666L437.738 226.669Z" fill="#0063D2"/>
<path d="M525.63 265.459C523.607 264.87 498.801 233.284 447.647 214.404C447.485 214.34 447.355 214.214 447.284 214.054C447.214 213.894 447.208 213.712 447.269 213.547C447.329 213.382 447.451 213.247 447.609 213.171C447.766 213.095 447.946 213.084 448.111 213.14C477.713 223.989 504.449 241.494 526.304 264.335C526.412 264.441 526.481 264.58 526.5 264.731C526.519 264.881 526.486 265.034 526.408 265.165C526.33 265.295 526.21 265.395 526.069 265.449C525.928 265.502 525.773 265.506 525.63 265.459Z" fill="#10162F"/>
</svg>
