<svg width="16" height="16" viewBox="0 0 16 16" fill="none" xmlns="http://www.w3.org/2000/svg">
<g clip-path="url(#clip0_1662_6754)">
<path d="M14.001 16H2.00098C0.900977 16 0.000976562 15.1 0.000976562 14V2C0.000976562 0.9 0.900977 0 2.00098 0H14.001C15.101 0 16.001 0.9 16.001 2V14C16.001 15.1 15.101 16 14.001 16ZM8.00098 4.9C6.80098 4.9 5.70098 5.6 5.20098 6.7C5.20098 6.8 5.10098 6.8 5.10098 6.9V7C5.00098 7.1 5.00098 7.2 5.00098 7.2V7.9C5.00098 9.6 6.40098 11 8.10098 11C9.80098 11 11.201 9.6 11.201 7.9V7.2C11.201 7.2 11.201 7.1 11.101 7V6.9C11.101 6.8 11.001 6.8 11.001 6.7C10.301 5.6 9.20098 4.9 8.00098 4.9ZM14.201 2.6C14.201 2.2 13.801 1.8 13.401 1.8H11.801C11.401 1.8 11.001 2.2 11.001 2.6V4.2C11.001 4.6 11.401 5 11.801 5H13.401C13.801 5 14.201 4.6 14.201 4.2V2.6ZM14.201 6.7H12.701C12.801 7.1 12.901 7.5 12.901 8C12.901 10.7 10.701 12.9 8.00098 12.9C5.30098 12.9 3.10098 10.7 3.10098 8C3.10098 7.5 3.20098 7.1 3.30098 6.7H1.80098V13.4C1.80098 13.8 2.20098 14.2 2.60098 14.2H13.401C13.801 14.2 14.201 13.8 14.201 13.4V6.7Z" fill="#10162F"/>
</g>
<defs>
<clipPath id="clip0_1662_6754">
<rect width="16" height="16" fill="white" transform="translate(0.000976562)"/>
</clipPath>
</defs>
</svg>
