<svg width="14" height="14" viewBox="0 0 14 14" fill="none" xmlns="http://www.w3.org/2000/svg">
<path d="M9.675 8.475H9L8.775 8.25C9.525 7.425 9.975 6.225 9.975 5.025C9.975 2.25 7.725 0 4.95 0C2.175 0 0 2.25 0 5.025C0 7.8 2.25 10.05 5.025 10.05C6.225 10.05 7.425 9.6 8.25 8.85L8.475 9.075V9.675L12.3 13.5L13.425 12.375L9.675 8.475ZM5.025 8.475C3.075 8.475 1.575 6.9 1.575 5.025C1.575 3.15 3.15 1.575 5.025 1.575C6.9 1.575 8.475 3.15 8.475 5.025C8.475 6.9 6.975 8.475 5.025 8.475Z" fill="black"/>
</svg>
