<svg width="110" height="106" viewBox="0 0 110 106" fill="none" xmlns="http://www.w3.org/2000/svg">
<path d="M93.7043 58.7253C93.7043 84.2382 73.0221 104.92 47.5093 104.92C21.9964 104.92 1.31421 84.2382 1.31421 58.7253C1.31421 33.2125 21.9964 12.5303 47.5093 12.5303C73.0221 12.5303 93.7043 33.2125 93.7043 58.7253Z" stroke="#10162F"/>
<path d="M20.9726 23.3961H72.7009C75.4805 23.3961 77.7638 25.5205 78.0159 28.2342H15.6576C15.9097 25.5205 18.1931 23.3961 20.9726 23.3961Z" fill="#10162F" stroke="#10162F"/>
<path d="M15.6345 29.0746H78.039V76.8645C78.039 78.8789 77.2388 80.8108 75.8144 82.2352C74.39 83.6595 72.4581 84.4598 70.4437 84.4598H23.2298C21.2154 84.4598 19.2835 83.6595 17.8591 82.2352C16.4347 80.8108 15.6345 78.8789 15.6345 76.8645V29.0746Z" stroke="#10162F"/>
<path d="M26.0539 35.1741H67.6401C68.2306 35.1741 68.7083 35.652 68.7083 36.2405C68.7083 36.829 68.2306 37.307 67.6401 37.307H26.0539C25.4634 37.307 24.9857 36.829 24.9857 36.2405C24.9857 35.652 25.4634 35.1741 26.0539 35.1741Z" fill="#10162F" stroke="#10162F"/>
<path d="M26.0539 48.4845H67.6401C68.2306 48.4845 68.7083 48.9625 68.7083 49.5509C68.7083 50.1394 68.2306 50.6174 67.6401 50.6174H26.0539C25.4634 50.6174 24.9857 50.1394 24.9857 49.5509C24.9857 48.9625 25.4634 48.4845 26.0539 48.4845Z" fill="#10162F" stroke="#10162F"/>
<path d="M26.0539 61.7949H67.6401C68.2306 61.7949 68.7083 62.2729 68.7083 62.8614C68.7083 63.4498 68.2306 63.9278 67.6401 63.9278H26.0539C25.4634 63.9278 24.9857 63.4498 24.9857 62.8614C24.9857 62.2729 25.4634 61.7949 26.0539 61.7949Z" fill="#10162F" stroke="#10162F"/>
<path d="M26.0539 75.1053H67.6401C68.2306 75.1053 68.7083 75.5833 68.7083 76.1717C68.7083 76.7602 68.2306 77.2382 67.6401 77.2382H26.0539C25.4634 77.2382 24.9857 76.7602 24.9857 76.1717C24.9857 75.5833 25.4634 75.1053 26.0539 75.1053Z" fill="#10162F" stroke="#10162F"/>
<g filter="url(#filter0_d_287_2258)">
<path d="M64.3503 9.5H88.8092C89.6729 9.5 90.3729 10.2001 90.3729 11.0637V22.56C90.3729 23.4236 89.6729 24.1237 88.8092 24.1237H64.3503C63.4867 24.1237 62.7866 23.4236 62.7866 22.56V11.0637C62.7866 10.2001 63.4867 9.5 64.3503 9.5Z" stroke="#10162F" shape-rendering="crispEdges"/>
</g>
<path d="M6.09911 74.7742H23.3011C23.6042 74.7742 23.85 75.0199 23.85 75.323V75.3264C23.85 75.6295 23.6043 75.8752 23.3011 75.8752H6.09911C5.79601 75.8752 5.55029 75.6295 5.55029 75.3264V75.323C5.55029 75.0199 5.79601 74.7742 6.09911 74.7742Z" fill="#D2F7FF" stroke="#10162F"/>
<path d="M6.25673 89.558H23.3109C23.62 89.558 23.8507 89.7999 23.8507 90.0742V90.0774C23.8507 90.3517 23.62 90.5936 23.3109 90.5936H6.25673C5.94767 90.5936 5.71692 90.3517 5.71692 90.0774V90.0742C5.71692 89.7999 5.94767 89.558 6.25673 89.558Z" fill="#D2F7FF" stroke="#10162F"/>
<path d="M6.25673 81.8231H23.3109C23.62 81.8231 23.8507 82.0649 23.8507 82.3392V82.3425C23.8507 82.6167 23.62 82.8586 23.3109 82.8586H6.25673C5.94767 82.8586 5.71692 82.6167 5.71692 82.3425V82.3392C5.71692 82.0649 5.94767 81.8231 6.25673 81.8231Z" fill="#D2F7FF" stroke="#10162F"/>
<path d="M7.36188 63.8277H12.3888C13.2261 63.8277 13.9049 64.5065 13.9049 65.3439V66.7389C13.9049 67.5763 13.2261 68.2551 12.3888 68.2551H7.36188C6.52452 68.2551 5.8457 67.5763 5.8457 66.7389V65.3439C5.8457 64.5065 6.52452 63.8277 7.36188 63.8277Z" fill="#10162F" stroke="#10162F"/>
<path d="M70.1957 16.8102C70.1957 17.8444 69.3573 18.6828 68.3231 18.6828C67.2889 18.6828 66.4506 17.8444 66.4506 16.8102C66.4506 15.776 67.2889 14.9376 68.3231 14.9376C69.3573 14.9376 70.1957 15.776 70.1957 16.8102Z" fill="#10162F" stroke="#10162F"/>
<path d="M78.6745 16.8102C78.6745 17.8444 77.8361 18.6828 76.8019 18.6828C75.7677 18.6828 74.9293 17.8444 74.9293 16.8102C74.9293 15.776 75.7677 14.9376 76.8019 14.9376C77.8361 14.9376 78.6745 15.776 78.6745 16.8102Z" fill="#10162F" stroke="#10162F"/>
<path d="M87.1532 16.8102C87.1532 17.8444 86.3149 18.6828 85.2807 18.6828C84.2465 18.6828 83.4081 17.8444 83.4081 16.8102C83.4081 15.776 84.2465 14.9376 85.2807 14.9376C86.3149 14.9376 87.1532 15.776 87.1532 16.8102Z" fill="#10162F" stroke="#10162F"/>
<path d="M89.7419 97.0531L73.5453 82.3617L78.8823 76.4778L95.0789 91.1692L89.7419 97.0531Z" fill="#10162F" stroke="#10162F"/>
<mask id="path-17-inside-1_287_2258" fill="white">
<path fill-rule="evenodd" clip-rule="evenodd" d="M85.198 64.8069C85.198 78.6657 73.9632 89.9006 60.1044 89.9006C46.2456 89.9006 35.0107 78.6657 35.0107 64.8069C35.0107 50.9481 46.2456 39.7133 60.1044 39.7133C73.9632 39.7133 85.198 50.9481 85.198 64.8069ZM81.3489 64.8069C81.3489 76.54 71.8374 86.0515 60.1043 86.0515C48.3712 86.0515 38.8597 76.54 38.8597 64.8069C38.8597 53.0739 48.3712 43.5624 60.1043 43.5624C71.8374 43.5624 81.3489 53.0739 81.3489 64.8069Z"/>
</mask>
<path fill-rule="evenodd" clip-rule="evenodd" d="M85.198 64.8069C85.198 78.6657 73.9632 89.9006 60.1044 89.9006C46.2456 89.9006 35.0107 78.6657 35.0107 64.8069C35.0107 50.9481 46.2456 39.7133 60.1044 39.7133C73.9632 39.7133 85.198 50.9481 85.198 64.8069ZM81.3489 64.8069C81.3489 76.54 71.8374 86.0515 60.1043 86.0515C48.3712 86.0515 38.8597 76.54 38.8597 64.8069C38.8597 53.0739 48.3712 43.5624 60.1043 43.5624C71.8374 43.5624 81.3489 53.0739 81.3489 64.8069Z" fill="#10162F"/>
<path d="M60.1044 90.9006C74.5155 90.9006 86.198 79.218 86.198 64.8069H84.198C84.198 78.1135 73.4109 88.9006 60.1044 88.9006V90.9006ZM34.0107 64.8069C34.0107 79.218 45.6933 90.9006 60.1044 90.9006V88.9006C46.7978 88.9006 36.0107 78.1135 36.0107 64.8069H34.0107ZM60.1044 38.7133C45.6933 38.7133 34.0107 50.3958 34.0107 64.8069H36.0107C36.0107 51.5004 46.7978 40.7133 60.1044 40.7133V38.7133ZM86.198 64.8069C86.198 50.3958 74.5155 38.7133 60.1044 38.7133V40.7133C73.4109 40.7133 84.198 51.5004 84.198 64.8069H86.198ZM60.1043 87.0515C72.3896 87.0515 82.3489 77.0923 82.3489 64.8069H80.3489C80.3489 75.9877 71.2851 85.0515 60.1043 85.0515V87.0515ZM37.8597 64.8069C37.8597 77.0923 47.819 87.0515 60.1043 87.0515V85.0515C48.9235 85.0515 39.8597 75.9877 39.8597 64.8069H37.8597ZM60.1043 42.5624C47.819 42.5624 37.8597 52.5216 37.8597 64.8069H39.8597C39.8597 53.6262 48.9235 44.5624 60.1043 44.5624V42.5624ZM82.3489 64.8069C82.3489 52.5216 72.3896 42.5624 60.1043 42.5624V44.5624C71.2851 44.5624 80.3489 53.6262 80.3489 64.8069H82.3489Z" fill="#10162F" mask="url(#path-17-inside-1_287_2258)"/>
<g filter="url(#filter1_b_287_2258)">
<path d="M60.1044 86.0515C71.8375 86.0515 81.349 76.54 81.349 64.807C81.349 53.0739 71.8375 43.5624 60.1044 43.5624C48.3714 43.5624 38.8599 53.0739 38.8599 64.807C38.8599 76.54 48.3714 86.0515 60.1044 86.0515Z" fill="#F7FFD2"/>
</g>
<path d="M64.8554 64.4537L64.503 64.8069L64.8554 65.1601L70.9202 71.2384C71.3672 71.7482 71.6048 72.4085 71.5849 73.0866C71.5648 73.7694 71.2851 74.4189 70.8028 74.9026C70.3205 75.3864 69.6719 75.668 68.9892 75.6902C68.3115 75.7121 67.6508 75.4768 67.1397 75.0317L61.0621 68.9541L60.7086 68.6006L60.355 68.9541L54.2657 75.0434L54.2607 75.0484L54.2559 75.0535C54.0094 75.3144 53.7132 75.5231 53.3846 75.6675C53.0561 75.8118 52.702 75.8888 52.3432 75.8939C51.9843 75.8989 51.6282 75.832 51.2957 75.697C50.9632 75.5621 50.6611 75.3618 50.4074 75.1081C50.1537 74.8543 49.9534 74.5523 49.8184 74.2198C49.6834 73.8873 49.6165 73.5311 49.6216 73.1723C49.6267 72.8135 49.7037 72.4594 49.848 72.1308C49.9923 71.8023 50.2011 71.506 50.4619 71.2596L50.4671 71.2547L50.4722 71.2496L56.5581 65.1604L56.9113 64.8069L56.5581 64.4534L50.4722 58.3642L50.4671 58.3591L50.4619 58.3542C50.2011 58.1077 49.9923 57.8115 49.848 57.483L49.3902 57.6841L49.848 57.483C49.7037 57.1544 49.6267 56.8003 49.6216 56.4415C49.6165 56.0827 49.6834 55.7265 49.8184 55.394C49.9534 55.0615 50.1537 54.7595 50.4074 54.5057C50.6611 54.252 50.9632 54.0517 51.2957 53.9167C51.6282 53.7818 51.9843 53.7149 52.3432 53.7199C52.702 53.725 53.0561 53.802 53.3846 53.9463C53.7132 54.0907 54.0094 54.2994 54.2559 54.5603L54.2557 54.5604L54.2653 54.57L60.341 60.6593L60.6946 61.0136L61.0485 60.6597L67.1326 54.5756C67.6398 54.0988 68.3126 53.8376 69.0089 53.8475C69.7074 53.8574 70.3746 54.1393 70.8686 54.6333C71.3626 55.1273 71.6445 55.7944 71.6544 56.493C71.6643 57.1894 71.4031 57.8622 70.9261 58.3695L64.8554 64.4537Z" fill="#10162F" stroke="#10162F"/>
<g filter="url(#filter2_f_287_2258)">
<ellipse cx="60.807" cy="76.5408" rx="14.9347" ry="2.20626" fill="#EC5575" fill-opacity="0.56"/>
<path d="M75.2533 76.4816C75.2534 76.4816 75.253 76.4825 75.2518 76.4843C75.2527 76.4825 75.2532 76.4816 75.2533 76.4816ZM75.1456 76.5016C75.1659 76.5162 75.1826 76.5293 75.1962 76.5408C75.1826 76.5523 75.1659 76.5654 75.1456 76.58C75.0035 76.6826 74.7621 76.8022 74.4032 76.9275C73.6915 77.1761 72.634 77.4083 71.2943 77.6062C68.6226 78.0009 64.9145 78.2471 60.807 78.2471C56.6995 78.2471 52.9914 78.0009 50.3197 77.6062C48.9799 77.4083 47.9225 77.1761 47.2108 76.9275C46.8518 76.8022 46.6104 76.6826 46.4684 76.58C46.4481 76.5654 46.4314 76.5523 46.4177 76.5408C46.4314 76.5293 46.4481 76.5162 46.4684 76.5016C46.6104 76.399 46.8518 76.2794 47.2108 76.1541C47.9225 75.9055 48.9799 75.6733 50.3197 75.4754C52.9914 75.0807 56.6995 74.8345 60.807 74.8345C64.9145 74.8345 68.6226 75.0807 71.2943 75.4754C72.634 75.6733 73.6915 75.9055 74.4032 76.1541C74.7621 76.2794 75.0035 76.399 75.1456 76.5016ZM46.3607 76.4816C46.3607 76.4816 46.3613 76.4825 46.3622 76.4843C46.361 76.4825 46.3606 76.4816 46.3607 76.4816ZM46.3607 76.6C46.3606 76.6 46.361 76.5991 46.3622 76.5973C46.3613 76.5991 46.3607 76.6 46.3607 76.6ZM75.2518 76.5973C75.253 76.5991 75.2534 76.6 75.2533 76.6C75.2532 76.6 75.2527 76.5991 75.2518 76.5973Z" stroke="#10162F"/>
</g>
<path d="M43.4151 93.8732C43.6592 92.8619 45.0977 92.8619 45.3418 93.8732C45.5171 94.5993 46.084 95.1662 46.8101 95.3414C47.8214 95.5856 47.8214 97.0241 46.8101 97.2682C46.084 97.4435 45.5171 98.0104 45.3418 98.7365C45.0977 99.7478 43.6592 99.7478 43.4151 98.7365C43.2398 98.0104 42.6729 97.4435 41.9468 97.2682C40.9355 97.0241 40.9355 95.5856 41.9468 95.3414C42.6729 95.1662 43.2398 94.5993 43.4151 93.8732Z" fill="#10162F" stroke="#10162F"/>
<path d="M9.62551 15.7094C9.86964 14.6981 11.3082 14.6981 11.5523 15.7094C11.7276 16.4355 12.2945 17.0024 13.0205 17.1777C14.0319 17.4218 14.0319 18.8603 13.0205 19.1045C12.2945 19.2797 11.7276 19.8467 11.5523 20.5727C11.3082 21.5841 9.86964 21.5841 9.62551 20.5727C9.45024 19.8467 8.88333 19.2797 8.15725 19.1045C7.14591 18.8603 7.14591 17.4218 8.15725 17.1777C8.88333 17.0024 9.45024 16.4355 9.62551 15.7094Z" fill="#10162F" stroke="#10162F"/>
<path d="M45.6476 14.008C46.711 14.008 47.5731 13.1459 47.5731 12.0824C47.5731 11.019 46.711 10.1569 45.6476 10.1569C44.5841 10.1569 43.722 11.019 43.722 12.0824C43.722 13.1459 44.5841 14.008 45.6476 14.008ZM47.6423 12.0824C47.6423 13.1841 46.7492 14.0772 45.6476 14.0772C44.5459 14.0772 43.6528 13.1841 43.6528 12.0824C43.6528 10.9808 44.5459 10.0877 45.6476 10.0877C46.7492 10.0877 47.6423 10.9808 47.6423 12.0824Z" fill="url(#paint0_linear_287_2258)" stroke="#10162F"/>
<path d="M90.9041 54.381C90.6662 53.4479 91.5276 52.6072 92.4546 52.8677L92.5583 52.8968C93.4853 53.1573 93.7827 54.3237 93.0936 54.9962L93.0165 55.0714C92.3274 55.744 91.1686 55.4184 90.9307 54.4853L90.9041 54.381Z" stroke="#10162F"/>
<path d="M4.77674 47.5681C5.71011 47.3314 6.5497 48.1939 6.288 49.1206L6.25873 49.2242C5.99703 50.1509 4.83031 50.4467 4.15864 49.7568L4.08352 49.6796C3.41185 48.9896 3.73898 47.8313 4.67235 47.5946L4.77674 47.5681Z" stroke="#10162F"/>
<path d="M72.7629 96.8276C73.6963 96.5909 74.5359 97.4534 74.2742 98.38L74.2449 98.4837C73.9832 99.4103 72.8165 99.7062 72.1448 99.0162L72.0697 98.9391C71.3981 98.2491 71.7252 97.0907 72.6586 96.854L72.7629 96.8276Z" fill="url(#paint1_linear_287_2258)" stroke="#10162F"/>
<path d="M93.2785 34.7702C94.342 34.7702 95.2041 33.9081 95.2041 32.8446C95.2041 31.7812 94.342 30.9191 93.2785 30.9191C92.2151 30.9191 91.353 31.7812 91.353 32.8446C91.353 33.9081 92.2151 34.7702 93.2785 34.7702ZM95.2733 32.8446C95.2733 33.9463 94.3802 34.8394 93.2785 34.8394C92.1769 34.8394 91.2838 33.9463 91.2838 32.8446C91.2838 31.743 92.1769 30.8499 93.2785 30.8499C94.3802 30.8499 95.2733 31.743 95.2733 32.8446Z" fill="url(#paint2_linear_287_2258)" stroke="#10162F"/>
<path d="M90.4835 97.7231L95.8182 91.8417L96.353 92.3267C97.1329 93.0342 97.5998 94.0224 97.6511 95.0742C97.7023 96.1259 97.3337 97.1549 96.6263 97.9348C95.9188 98.7147 94.9305 99.1817 93.8788 99.2329C92.8271 99.2842 91.7981 98.9155 91.0182 98.2081L90.4835 97.7231Z" stroke="#10162F"/>
<defs>
<filter id="filter0_d_287_2258" x="55.2866" y="0" width="54.5863" height="41.6237" filterUnits="userSpaceOnUse" color-interpolation-filters="sRGB">
<feFlood flood-opacity="0" result="BackgroundImageFix"/>
<feColorMatrix in="SourceAlpha" type="matrix" values="0 0 0 0 0 0 0 0 0 0 0 0 0 0 0 0 0 0 127 0" result="hardAlpha"/>
<feOffset dx="6" dy="4"/>
<feGaussianBlur stdDeviation="6.5"/>
<feComposite in2="hardAlpha" operator="out"/>
<feColorMatrix type="matrix" values="0 0 0 0 0.104618 0 0 0 0 0.465612 0 0 0 0 0.545833 0 0 0 0.09 0"/>
<feBlend mode="normal" in2="BackgroundImageFix" result="effect1_dropShadow_287_2258"/>
<feBlend mode="normal" in="SourceGraphic" in2="effect1_dropShadow_287_2258" result="shape"/>
</filter>
<filter id="filter1_b_287_2258" x="22.1847" y="26.8872" width="75.8394" height="75.8394" filterUnits="userSpaceOnUse" color-interpolation-filters="sRGB">
<feFlood flood-opacity="0" result="BackgroundImageFix"/>
<feGaussianBlur in="BackgroundImage" stdDeviation="8.33757"/>
<feComposite in2="SourceAlpha" operator="in" result="effect1_backgroundBlur_287_2258"/>
<feBlend mode="normal" in="SourceGraphic" in2="effect1_backgroundBlur_287_2258" result="shape"/>
</filter>
<filter id="filter2_f_287_2258" x="25.0284" y="53.4906" width="71.5572" height="46.1004" filterUnits="userSpaceOnUse" color-interpolation-filters="sRGB">
<feFlood flood-opacity="0" result="BackgroundImageFix"/>
<feBlend mode="normal" in="SourceGraphic" in2="BackgroundImageFix" result="shape"/>
<feGaussianBlur stdDeviation="10.422" result="effect1_foregroundBlur_287_2258"/>
</filter>
<linearGradient id="paint0_linear_287_2258" x1="43.1472" y1="10.7392" x2="48.1694" y2="10.7718" gradientUnits="userSpaceOnUse">
<stop stop-color="#90E3F5"/>
<stop offset="1" stop-color="#65C8DE"/>
</linearGradient>
<linearGradient id="paint1_linear_287_2258" x1="71.9093" y1="94.1854" x2="76.8805" y2="99.3589" gradientUnits="userSpaceOnUse">
<stop stop-color="#90E3F5"/>
<stop offset="1" stop-color="#65C8DE"/>
</linearGradient>
<linearGradient id="paint2_linear_287_2258" x1="90.7782" y1="31.5014" x2="95.8004" y2="31.534" gradientUnits="userSpaceOnUse">
<stop stop-color="#90E3F5"/>
<stop offset="1" stop-color="#65C8DE"/>
</linearGradient>
</defs>
</svg>
