<svg width="24" height="24" viewBox="0 0 24 24" fill="none" xmlns="http://www.w3.org/2000/svg">
<path d="M18.0799 12.42L11.8999 18.61C11.0897 19.33 10.0351 19.7133 8.95164 19.6814C7.86821 19.6495 6.83792 19.2049 6.07149 18.4385C5.30506 17.672 4.86043 16.6417 4.82853 15.5583C4.79664 14.4749 5.1799 13.4202 5.89992 12.61L13.8999 4.61003C14.3775 4.15633 15.0112 3.90336 15.6699 3.90336C16.3287 3.90336 16.9623 4.15633 17.4399 4.61003C17.9053 5.08162 18.1662 5.7175 18.1662 6.38003C18.1662 7.04256 17.9053 7.67844 17.4399 8.15003L10.5399 15.04C10.4716 15.1136 10.3895 15.1729 10.2983 15.2147C10.2071 15.2566 10.1085 15.28 10.0082 15.2837C9.90791 15.2874 9.80788 15.2713 9.7138 15.2364C9.61973 15.2015 9.53346 15.1483 9.45992 15.08C9.38638 15.0117 9.32701 14.9296 9.2852 14.8384C9.24339 14.7472 9.21995 14.6486 9.21624 14.5483C9.21253 14.448 9.2286 14.348 9.26355 14.2539C9.29849 14.1598 9.35163 14.0736 9.41992 14L14.5499 8.88003C14.7382 8.69173 14.844 8.43633 14.844 8.17003C14.844 7.90373 14.7382 7.64833 14.5499 7.46003C14.3616 7.27173 14.1062 7.16594 13.8399 7.16594C13.5736 7.16594 13.3182 7.27173 13.1299 7.46003L7.99992 12.6C7.74322 12.8547 7.53948 13.1577 7.40045 13.4916C7.26141 13.8254 7.18983 14.1834 7.18983 14.545C7.18983 14.9066 7.26141 15.2647 7.40045 15.5985C7.53948 15.9323 7.74322 16.2353 7.99992 16.49C8.52429 16.9895 9.22072 17.2681 9.94492 17.2681C10.6691 17.2681 11.3655 16.9895 11.8899 16.49L18.7799 9.59003C19.5748 8.73698 20.0075 7.6087 19.987 6.44289C19.9664 5.27709 19.4941 4.16478 18.6696 3.3403C17.8452 2.51582 16.7329 2.04355 15.5671 2.02298C14.4012 2.00241 13.273 2.43515 12.4199 3.23003L4.41992 11.23C3.34111 12.4249 2.76494 13.9899 2.81145 15.599C2.85795 17.2081 3.52355 18.7373 4.66955 19.8678C5.81556 20.9983 7.35359 21.6431 8.9632 21.6677C10.5728 21.6924 12.1299 21.095 13.3099 20L19.4999 13.82C19.5932 13.7268 19.6671 13.6161 19.7176 13.4943C19.768 13.3725 19.794 13.2419 19.794 13.11C19.794 12.9782 19.768 12.8476 19.7176 12.7258C19.6671 12.604 19.5932 12.4933 19.4999 12.4C19.4067 12.3068 19.296 12.2328 19.1742 12.1824C19.0523 12.1319 18.9218 12.1059 18.7899 12.1059C18.6581 12.1059 18.5275 12.1319 18.4057 12.1824C18.2838 12.2328 18.1732 12.3068 18.0799 12.4V12.42Z" fill="black"/>
</svg>
