<svg width="19" height="17" viewBox="0 0 19 17" fill="none" xmlns="http://www.w3.org/2000/svg">
<path d="M14.7238 4.08807L14.5982 3.97784C14.1827 3.61356 13.6194 3.40895 13.0321 3.40895C12.4448 3.40895 11.8815 3.61356 11.4659 3.97784L4.38134 10.1896C4.28685 10.2739 4.22043 10.3793 4.18926 10.4944L3.45052 13.088C3.41534 13.1976 3.41368 13.3135 3.44569 13.4238C3.4777 13.5342 3.54226 13.6352 3.63287 13.7167C3.72348 13.7982 3.83694 13.8573 3.96185 13.8881C4.08675 13.9189 4.2187 13.9202 4.3444 13.8921L7.29939 13.2437C7.43047 13.2163 7.55054 13.158 7.6466 13.0751L14.7238 6.85679C15.1388 6.49206 15.3719 5.99765 15.3719 5.48216C15.3719 4.96667 15.1388 4.47226 14.7238 4.10752V4.08807ZM6.74533 12.0117L5.17918 12.3553L5.57072 10.9807L10.4317 6.71414L11.6063 7.74512L6.74533 12.0117ZM13.6822 5.92308L12.6479 6.82437L11.4807 5.79988L12.5076 4.8921C12.5762 4.83133 12.6579 4.78309 12.748 4.75017C12.838 4.71725 12.9345 4.7003 13.0321 4.7003C13.1296 4.7003 13.2261 4.71725 13.3162 4.75017C13.4062 4.78309 13.4879 4.83133 13.5566 4.8921L13.6822 5.00233C13.7514 5.06261 13.8064 5.13433 13.8439 5.21334C13.8814 5.29236 13.9007 5.37711 13.9007 5.46271C13.9007 5.54831 13.8814 5.63306 13.8439 5.71207C13.8064 5.79109 13.7514 5.8628 13.6822 5.92308Z" fill="#222221"/>
</svg>
