<svg width="18" height="18" viewBox="0 0 18 18" fill="none" xmlns="http://www.w3.org/2000/svg">
<path d="M10.4225 1.82979L11.1951 4.13966C11.5367 5.16113 12.4942 5.84897 13.5713 5.8467L15.9281 5.84173C17.3976 5.83864 17.9946 7.73148 16.7893 8.57209L15.0066 9.81524C14.0937 10.4519 13.7116 11.6155 14.0694 12.6695L14.7834 14.7729C15.25 16.1475 13.6868 17.3172 12.4997 16.4817L10.4389 15.0313C9.5758 14.4238 8.4242 14.4238 7.56111 15.0313L5.50031 16.4817C4.31324 17.3172 2.74997 16.1475 3.21659 14.7729L3.93063 12.6695C4.28841 11.6155 3.90632 10.4519 2.99335 9.81524L1.21075 8.57209C0.00536776 7.73148 0.602396 5.83864 2.07194 5.84173L4.42874 5.8467C5.50583 5.84897 6.46329 5.16113 6.80492 4.13966L7.57745 1.82979C8.03419 0.464151 9.96581 0.464152 10.4225 1.82979Z" fill="#A22CFF" stroke="#10162F"/>
</svg>
