<svg width="160" height="53" viewBox="0 0 160 53" fill="none" xmlns="http://www.w3.org/2000/svg">
<path d="M41.7314 21.5192C41.7314 33.4039 32.3896 43.0384 20.8657 43.0384C9.34188 43.0384 0 33.4039 0 21.5192C0 9.63445 9.34188 0 20.8657 0C32.3896 0 41.7314 9.63445 41.7314 21.5192ZM6.3155 21.5192C6.3155 29.8067 12.8299 36.5251 20.8657 36.5251C28.9016 36.5251 35.4159 29.8067 35.4159 21.5192C35.4159 13.2317 28.9016 6.51329 20.8657 6.51329C12.8299 6.51329 6.3155 13.2317 6.3155 21.5192Z" fill="#10162F"/>
<path d="M30.7174 37.6688C29.5095 36.3344 29.5793 34.2429 30.8731 32.9972C32.167 31.7515 34.195 31.8234 35.4028 33.1578L46.4299 45.3398C47.6377 46.6742 47.568 48.7657 46.2742 50.0114C44.9803 51.2571 42.9523 51.1852 41.7444 49.8508L30.7174 37.6688Z" fill="#10162F"/>
<path d="M54.3505 33.223C51.1215 33.223 48.7964 32.557 47.3754 31.2248C45.9544 29.8736 45.2441 27.7137 45.2441 24.7449V17.323L45.2718 14.4399L45.2441 12.7271H51.4442V23.3176C51.4442 24.193 51.509 24.9733 51.638 25.6584C51.767 26.3245 52.0438 26.8478 52.4684 27.2284C52.8929 27.609 53.5385 27.7993 54.4059 27.7993C55.2916 27.7993 55.9466 27.6281 56.3711 27.2855C56.7957 26.943 57.0724 26.4387 57.2015 25.7726C57.3305 25.1065 57.3952 24.2882 57.3952 23.3176V12.7271H63.4569V24.7449C63.4569 26.686 63.1525 28.2846 62.5435 29.5406C61.9346 30.7776 60.9658 31.7006 59.6372 32.3096C58.3086 32.9186 56.5465 33.223 54.3505 33.223ZM67.0501 32.9376L66.4965 31.2248L67.0501 28.3702V12.7271H81.3048L82.6887 13.5835L80.8619 18.4363L78.3708 18.1508H73.1948V20.4345H80.0316V25.1446H76.2119L73.1948 24.8591V27.5139H80.8619L84.1557 31.1106L82.5227 32.9376H67.0501ZM93.1582 33.223C92.143 33.223 91.1377 33.1279 90.1412 32.9376C89.1631 32.7663 88.2957 32.5379 87.5394 32.2525C86.7827 31.967 86.2385 31.6816 85.9063 31.3961V25.43C86.6072 25.8297 87.3916 26.1912 88.259 26.5148C89.126 26.8383 90.0028 27.0952 90.8885 27.2855C91.7926 27.4568 92.6506 27.5424 93.4627 27.5424C94.5882 27.5424 95.1511 27.276 95.1511 26.7431C95.1511 26.4767 95.031 26.2578 94.7913 26.0866C94.5699 25.8963 94.173 25.6965 93.6011 25.4871C93.0288 25.2778 92.2171 25.0114 91.1653 24.6878C89.9475 24.2882 88.9046 23.8695 88.0376 23.4318C87.1885 22.9941 86.5336 22.4327 86.0724 21.7476C85.6295 21.0625 85.4081 20.149 85.4081 19.0072C85.4081 17.028 86.1737 15.439 87.7055 14.24C89.2367 13.0411 91.4787 12.4417 94.4315 12.4417C95.0217 12.4417 95.6493 12.4702 96.3136 12.5273C96.9962 12.5654 97.5405 12.6225 97.9467 12.6986L101.351 15.0679L99.9673 19.4068L92.8814 17.5514C92.143 17.5514 91.7743 17.8083 91.7743 18.3221C91.7743 18.7217 92.0046 19.0548 92.4662 19.3212C92.9457 19.5686 93.8038 19.9111 95.0404 20.3489C96.6824 20.9198 97.9833 21.5097 98.9431 22.1187C99.9208 22.7086 100.622 23.3842 101.047 24.1455C101.471 24.9067 101.683 25.8106 101.683 26.8573C101.683 28.7604 100.973 30.3018 99.5521 31.4817C98.1311 32.6426 95.9998 33.223 93.1582 33.223ZM108.93 32.9376V18.1794L103.394 18.4648V12.7271H120.693V18.4648L115.019 18.1794V28.3702L115.324 31.2248L115.019 32.9376H108.93ZM127.337 32.9376V18.1794L121.801 18.4648V12.7271H139.101V18.4648L133.427 18.1794V28.3702L133.731 31.2248L133.427 32.9376H127.337ZM146.935 32.9376V24.6593L140.071 14.4399V12.7271H147.018L149.786 18.6076H150.34L153.08 12.7271H160V14.4399L152.941 24.8306L153.108 27.7137V32.9376H146.935Z" fill="#10162F"/>
</svg>
