<svg width="601" height="705" viewBox="0 0 601 705" fill="none" xmlns="http://www.w3.org/2000/svg">
<path d="M542.808 317.102C533.365 209.147 533.817 211.871 533.264 211.5C495.595 198.921 496.1 198.65 495.558 198.751L464.82 29.725L440.509 0L490.415 274.427L488.011 274.865L438.104 0.437842L425.815 36.8233L452.312 182.502C402.495 163.152 353.991 140.579 307.108 114.926C306.992 114.864 306.861 114.835 306.73 114.844C306.599 114.852 306.472 114.898 306.366 114.974C240.449 163.783 171.697 208.641 100.472 249.314C100.313 249.403 100.072 249.485 100.127 250.906C100.287 254.839 102.09 272.427 109.315 355.031C121.982 499.804 222.616 658.923 358.053 704.963C358.146 704.994 358.243 705.006 358.34 704.997C358.437 704.989 358.532 704.961 358.617 704.914C382.006 691.914 403.495 675.758 422.479 656.9C422.602 656.768 422.669 656.593 422.666 656.413C422.663 656.233 422.591 656.06 422.464 655.932C422.338 655.803 422.166 655.728 421.986 655.723C421.806 655.717 421.63 655.782 421.496 655.902C402.677 674.598 381.385 690.627 358.213 703.542C230.664 660.01 124.294 510.197 110.721 354.904L101.556 250.305C172.557 209.735 241.099 165.007 306.826 116.355C353.894 142.085 402.591 164.718 452.605 184.109L469.714 278.182L450.42 281.692C450.248 281.723 450.095 281.817 449.989 281.955C449.883 282.094 449.833 282.266 449.849 282.44C449.864 282.613 449.944 282.775 450.072 282.892C450.2 283.01 450.368 283.076 450.542 283.076C450.913 283.076 453.254 282.597 482.274 277.317C496.17 353.728 495.139 348.693 495.51 348.953C495.881 349.212 494.938 349.261 509.035 346.7C509.217 346.667 509.379 346.563 509.484 346.41C509.59 346.258 509.631 346.07 509.599 345.888L496.653 274.716L528.259 268.965C528.441 268.932 528.602 268.828 528.708 268.676C528.813 268.524 528.854 268.336 528.821 268.154C528.788 267.972 528.684 267.811 528.532 267.705C528.38 267.6 528.192 267.559 528.01 267.592L508.716 271.098L495.825 200.227C507.729 204.446 519.981 208.617 532.266 212.632L541.416 317.22C550.785 424.287 513.428 546.549 446.249 628.704C446.136 628.848 446.084 629.03 446.104 629.211C446.124 629.393 446.214 629.56 446.356 629.675C446.497 629.791 446.678 629.847 446.86 629.83C447.042 629.814 447.21 629.726 447.329 629.587C514.727 547.173 552.207 424.514 542.808 317.102Z" fill="#10162F"/>
<path d="M46.9045 440.335L33.4613 469.448L18.4003 451.738C18.2802 451.597 18.109 451.509 17.9242 451.494C17.7395 451.479 17.5564 451.538 17.4151 451.658C17.2739 451.778 17.1862 451.949 17.1712 452.134C17.1563 452.319 17.2153 452.502 17.3354 452.643C34.4557 472.829 33.1645 471.43 33.6357 471.43C34.2888 471.43 33.2127 473.337 48.1735 440.922C48.2513 440.753 48.259 440.561 48.195 440.387C48.1633 440.301 48.1149 440.222 48.0527 440.155C47.9904 440.087 47.9155 440.033 47.8322 439.994C47.6639 439.916 47.4716 439.909 47.2977 439.973C47.1237 440.037 46.9823 440.167 46.9045 440.335V440.335Z" fill="#10162F"/>
<path d="M582.292 607.29C582.275 607.109 582.188 606.942 582.049 606.824C581.911 606.706 581.731 606.647 581.55 606.66L540.248 610.27L538.994 595.944C538.523 590.559 540.211 585.208 543.686 581.068C547.161 576.928 552.138 574.338 557.522 573.868C562.907 573.397 568.258 575.085 572.398 578.56C576.538 582.035 579.128 587.012 579.598 592.396C579.614 592.581 579.703 592.751 579.845 592.87C579.987 592.989 580.171 593.047 580.355 593.031C580.54 593.015 580.71 592.926 580.829 592.784C580.948 592.642 581.006 592.458 580.99 592.274C580.445 586.553 577.662 581.278 573.245 577.601C568.829 573.923 563.138 572.141 557.412 572.642C551.687 573.142 546.392 575.886 542.681 580.275C538.97 584.663 537.145 590.341 537.602 596.07L540.983 634.7C541.486 640.454 544.255 645.772 548.679 649.485C553.104 653.198 558.822 655.001 564.576 654.498C570.33 653.994 575.648 651.226 579.361 646.801C583.074 642.376 584.877 636.658 584.374 630.904L582.292 607.29ZM564.426 653.108C559.043 653.571 553.696 651.881 549.557 648.408C545.419 644.935 542.826 639.963 542.348 634.581L540.345 611.669L580.949 608.114L582.956 631.027C583.42 636.411 581.73 641.759 578.256 645.898C574.783 650.038 569.809 652.631 564.426 653.108V653.108Z" fill="#10162F"/>
<path d="M566.561 626.143C566.537 625.538 566.39 624.944 566.13 624.398C565.869 623.851 565.501 623.363 565.046 622.963C564.591 622.563 564.06 622.259 563.485 622.07C562.909 621.882 562.301 621.812 561.698 621.865C561.095 621.918 560.509 622.093 559.975 622.379C559.441 622.665 558.971 623.057 558.593 623.53C558.215 624.003 557.938 624.548 557.776 625.132C557.615 625.716 557.574 626.326 557.656 626.926L558.176 632.863C558.199 633.469 558.345 634.063 558.606 634.61C558.866 635.157 559.234 635.646 559.689 636.047C560.143 636.447 560.674 636.751 561.25 636.941C561.826 637.13 562.434 637.2 563.037 637.147C563.641 637.094 564.227 636.92 564.761 636.633C565.295 636.347 565.766 635.955 566.144 635.482C566.522 635.008 566.8 634.463 566.961 633.879C567.122 633.295 567.163 632.684 567.081 632.084L566.561 626.143ZM560.647 634.845C560.336 634.586 560.08 634.268 559.893 633.909C559.706 633.551 559.593 633.159 559.56 632.756L559.04 626.796C559.005 626.394 559.05 625.989 559.172 625.603C559.294 625.218 559.49 624.861 559.75 624.552C560.01 624.242 560.329 623.987 560.687 623.801C561.046 623.615 561.437 623.501 561.84 623.466C562.242 623.431 562.648 623.476 563.033 623.598C563.418 623.72 563.775 623.916 564.085 624.176C564.394 624.436 564.649 624.755 564.835 625.113C565.021 625.472 565.135 625.863 565.17 626.266L565.689 632.203C565.745 632.81 565.619 633.42 565.327 633.955C565.036 634.49 564.592 634.927 564.052 635.21C563.512 635.493 562.9 635.609 562.294 635.544C561.688 635.479 561.115 635.236 560.647 634.845V634.845Z" fill="#10162F"/>
<path d="M134.285 146.195C136.972 145.959 139.529 144.932 141.633 143.243C143.736 141.555 145.292 139.28 146.103 136.707C146.914 134.135 146.944 131.379 146.189 128.789C145.434 126.2 143.928 123.892 141.861 122.158C139.795 120.424 137.261 119.342 134.579 119.048C131.898 118.754 129.189 119.262 126.796 120.508C124.404 121.753 122.434 123.68 121.136 126.045C119.838 128.41 119.271 131.107 119.506 133.794C119.827 137.396 121.563 140.723 124.334 143.048C127.104 145.372 130.682 146.504 134.285 146.195V146.195ZM132.025 120.407C134.031 120.23 136.05 120.552 137.902 121.342C139.754 122.133 141.383 123.368 142.644 124.938C143.905 126.509 144.759 128.366 145.13 130.345C145.502 132.325 145.38 134.365 144.774 136.286C144.169 138.206 143.099 139.948 141.659 141.357C140.22 142.765 138.455 143.797 136.522 144.36C134.588 144.924 132.546 145.001 130.575 144.587C128.604 144.172 126.766 143.278 125.224 141.983C123.37 140.426 122.02 138.355 121.343 136.031C120.667 133.707 120.694 131.235 121.422 128.926C122.15 126.617 123.545 124.576 125.433 123.061C127.32 121.545 129.614 120.623 132.025 120.41V120.407Z" fill="#10162F"/>
<path d="M599.841 170.584L587.448 171.664C584.538 171.915 581.647 171.001 579.409 169.123C577.172 167.244 575.772 164.555 575.515 161.645L574.435 149.252C574.42 149.068 574.331 148.897 574.19 148.778C574.048 148.658 573.865 148.6 573.68 148.616C573.496 148.632 573.325 148.72 573.206 148.862C573.086 149.003 573.028 149.186 573.044 149.371L574.131 161.779C574.381 164.689 573.467 167.579 571.589 169.815C569.71 172.052 567.022 173.452 564.113 173.708L551.719 174.792C551.542 174.81 551.379 174.895 551.263 175.029C551.146 175.164 551.086 175.338 551.093 175.515C551.101 175.693 551.176 175.861 551.304 175.985C551.431 176.109 551.601 176.18 551.779 176.183L564.235 175.1C565.677 174.973 567.129 175.132 568.509 175.568C569.889 176.003 571.169 176.706 572.278 177.636C573.386 178.566 574.3 179.706 574.967 180.99C575.635 182.274 576.043 183.677 576.168 185.118L577.248 197.511C577.264 197.696 577.353 197.866 577.495 197.985C577.637 198.104 577.82 198.162 578.005 198.146C578.189 198.13 578.36 198.041 578.479 197.899C578.598 197.757 578.656 197.573 578.639 197.389L577.56 184.996C577.308 182.085 578.222 179.194 580.101 176.957C581.979 174.72 584.668 173.319 587.578 173.063L599.971 171.983C600.063 171.974 600.152 171.948 600.234 171.905C600.315 171.862 600.388 171.803 600.447 171.732C600.506 171.661 600.55 171.579 600.577 171.491C600.605 171.403 600.614 171.31 600.606 171.218C600.597 171.127 600.571 171.037 600.528 170.956C600.485 170.874 600.426 170.802 600.355 170.743C600.284 170.684 600.202 170.64 600.114 170.612C600.026 170.585 599.933 170.575 599.841 170.584ZM576.502 180.951C575.735 179.254 574.597 177.751 573.172 176.552C571.747 175.354 570.071 174.489 568.268 174.024C569.961 173.253 571.46 172.113 572.656 170.687C573.851 169.262 574.713 167.588 575.177 165.786C575.948 167.482 577.088 168.984 578.515 170.181C579.942 171.379 581.618 172.242 583.422 172.706C581.726 173.476 580.224 174.617 579.026 176.043C577.829 177.47 576.966 179.147 576.502 180.951V180.951Z" fill="#10162F"/>
<path d="M231.973 455.445C231.112 460.194 219.357 483.912 212.059 494.198C207.413 500.762 201.072 502.628 206.623 489.452C208.457 485.047 210.067 480.551 211.447 475.983C206.823 481.532 201.521 486.48 195.666 490.71C188.408 495.712 185.54 491.905 193.692 482.866C196.801 479.474 199.681 475.88 202.311 472.105C196.783 475.45 190.868 478.11 184.697 480.027C176.646 482.439 177.276 477.571 185.714 473.137C188.552 471.599 191.268 469.847 193.84 467.897C189.503 469.028 185.052 469.662 180.571 469.786C174.516 469.563 172.549 466.272 181.499 464.128C188.546 462.477 195.297 459.75 201.513 456.042C201.836 451.576 203.1 447.228 205.224 443.286C203.723 443.358 202.259 443.776 200.946 444.507C199.633 445.238 198.506 446.263 197.655 447.501C188.645 460.487 181.443 464.131 184.545 454.313C186.43 448.321 187.439 444.733 188.738 440.191C190.022 435.738 200.519 428.904 201.02 426.336C201.336 423.34 201.284 420.317 200.864 417.334C209.981 415.984 219.226 415.723 228.404 416.559C229.053 421.72 232.953 450.05 231.973 455.445Z" fill="#E6E7E8"/>
<path d="M318.511 260.661C317.714 267.21 316.43 272.905 321.435 277.822C308.574 279.197 295.89 281.905 283.588 285.903C288.434 284.162 292.468 280.695 294.92 276.167C295.486 275.359 295.933 274.475 296.248 273.54C302.363 259.881 299.257 240.795 297.966 239.733C285.532 229.392 294.712 217.949 300.701 225.633C303.588 229.344 304.986 229.129 305.729 226.828C308.17 214.873 323.075 197.352 330.96 221.403C331.774 223.939 332.437 226.522 332.945 229.136C338.882 258.716 327.78 262.249 318.511 260.661Z" fill="#E6E7E8"/>
<path d="M502.345 421.453L455.533 575.298C434.754 578.742 409.248 573.673 392.343 560.019L413.834 469.879C384.291 484.906 340.941 500.724 309.906 489.693L350.459 503.915C333.162 533.879 314.107 562.792 293.394 590.504C285.462 600.828 274.742 608.667 262.499 613.097C250.257 617.527 237.003 618.363 224.301 615.506C184.439 606.56 150.328 596.493 108.714 583.076C105.746 555.202 109.872 542.557 119.208 526.902L125.167 518.271C163.026 527.978 201.402 535.547 240.111 540.943C256.039 517.484 269.63 492.522 280.69 466.413C273.77 453.007 274.33 436.729 277.881 422.076C279.277 416.412 281.127 410.869 283.413 405.501C309.647 409.278 336.392 407.213 361.735 399.453L456.531 374.066C463.026 372.33 469.867 372.362 476.345 374.159C482.823 375.956 488.703 379.452 493.375 384.285C498.048 389.118 501.344 395.113 502.921 401.648C504.498 408.182 504.299 415.02 502.345 421.453V421.453Z" fill="#FFD644"/>
<path d="M508.307 303.206C509.595 303.042 510.856 302.872 511.402 302.749C517.572 301.321 515.751 291.224 508.166 292.319C507.825 292.375 504.289 292.56 504.289 292.56C504.946 292.43 511.09 291.135 511.732 290.968C517.487 289.425 515.558 279.54 508.467 280.779C505.869 281.239 498.404 282.709 495.669 283.221C476.449 286.672 469.673 287.811 464.237 290.608C475.74 299.239 483.239 313.354 487.243 328.764C494.79 326.805 502.4 325.977 507.895 324.482C508.396 324.411 508.886 324.345 509.38 324.252C515.316 323.228 513.988 313.569 506.723 314.233L510.589 313.636C516.485 312.426 515.168 303.039 508.307 303.206Z" fill="#E6E7E8"/>
<path d="M511.795 303.369C517.58 301.796 516.852 293.399 511.227 291.799C511.557 291.729 511.795 291.673 511.902 291.647C518.559 289.859 516.244 278.709 508.333 280.089C506.812 280.364 493.238 282.946 493.238 282.946C476.17 286.007 469.525 287.198 464.296 289.799C462.617 288.565 460.854 287.45 459.02 286.46C458.411 286.297 462.504 283.718 390.98 332.842C364.09 291.896 362.071 272.987 321.653 277.024C317.415 272.631 318.354 267.507 319.118 261.473C336.328 263.885 337.059 246.123 333.63 228.969C332.628 223.975 332.888 225.259 322.599 191.945C322.032 190.636 321.076 189.533 319.86 188.787C318.644 188.04 317.228 187.686 315.804 187.772C314.38 187.859 313.017 188.381 311.901 189.269C310.784 190.157 309.968 191.368 309.564 192.736C308.756 191.667 307.657 190.853 306.399 190.391C305.141 189.93 303.776 189.84 302.469 190.133C301.161 190.425 299.965 191.088 299.024 192.042C298.082 192.995 297.435 194.2 297.159 195.511C296.236 194.451 295.011 193.697 293.649 193.348C292.287 193 290.851 193.074 289.531 193.561C288.212 194.047 287.072 194.923 286.262 196.073C285.452 197.223 285.011 198.591 284.996 199.997C283.687 198.987 282.059 198.479 280.408 198.564C278.756 198.648 277.19 199.321 275.99 200.46C274.791 201.598 274.039 203.128 273.869 204.773C273.699 206.418 274.122 208.07 275.063 209.429C279.397 217.682 300.295 258.698 295.594 273.34C294.494 276.094 292.823 278.583 290.691 280.645C288.56 282.707 286.016 284.294 283.226 285.302C257.897 293.722 233.905 305.73 211.984 320.96C186.753 338.177 186.423 348.11 185.666 372.114C184.965 389.238 185.267 406.389 186.571 423.479C186.419 427.453 193.528 428.955 197.944 429.044C195.139 431.708 189.038 436.577 188.051 439.99C188.051 439.99 184.497 452.079 183.862 454.09C182.749 457.664 182.849 459.727 184.215 460.398C187.844 462.116 195.892 451.196 198.207 447.894C199.568 445.933 201.639 444.578 203.981 444.116C202.226 447.723 201.15 451.623 200.808 455.619C194.748 459.209 188.173 461.849 181.313 463.448C175.621 464.814 174.571 466.528 174.69 467.73C174.846 469.304 177.083 470.357 180.527 470.487C183.892 470.412 187.245 470.039 190.545 469.374C188.874 470.524 187.14 471.578 185.35 472.532C182.649 473.953 177.317 477.411 178.412 480.083C178.76 480.936 180.063 482.157 184.864 480.713C190.044 479.106 195.047 476.979 199.799 474.365C197.709 477.162 195.48 479.853 193.12 482.428C190.797 485.003 186.144 490.917 188.786 493.144L188.838 493.184C188.953 493.276 189.077 493.354 189.209 493.418L189.25 493.44C191.847 494.639 196.441 491.073 198.69 489.311C202.618 486.211 206.289 482.8 209.669 479.11C208.556 482.506 207.317 485.93 205.932 489.21C204.499 492.026 203.779 495.15 203.836 498.309C203.885 498.611 204.002 498.898 204.177 499.149C204.352 499.4 204.581 499.609 204.847 499.76C205.114 499.91 205.41 500 205.715 500.021C206.021 500.042 206.327 499.995 206.612 499.882C209.077 498.76 211.156 496.933 212.585 494.632C220.637 482.471 227.337 469.468 232.567 455.853C233.465 451.853 231.112 432.146 230.563 428.061C236.348 427.23 240.433 424.722 240.288 421.976C239.483 406.826 237.361 374.336 237.457 362.674C246.834 358.118 259.512 350.333 269.557 347.064C276.421 363.869 279.92 386.025 282.655 405.457C274.785 424.48 270.592 447.961 279.687 466.231C269.057 492.257 255.676 517.071 239.772 540.253C201.231 534.849 163.022 527.293 125.325 517.618C125.187 517.585 125.043 517.595 124.91 517.645C124.778 517.695 124.664 517.784 124.583 517.9C124.583 517.9 118.308 527.039 118.164 527.284C107.152 523.125 95.8295 519.841 84.3015 517.462C84.0937 517.422 84.1419 517.362 83.7412 517.592C82.7913 518.13 79.3219 520.301 63.9937 528.223C41.9283 538.871 21.0464 551.814 1.69401 566.838C0.988366 567.403 0.468434 568.167 0.201475 569.03C-0.0654836 569.894 -0.0671852 570.817 0.196592 571.682C0.460369 572.546 0.977492 573.312 1.68105 573.879C2.38461 574.447 3.24223 574.79 4.14296 574.864C51.6971 578.575 84.9397 569.195 107.155 572.267L108.015 583.146C108.025 583.284 108.076 583.415 108.161 583.524C108.247 583.632 108.363 583.713 108.494 583.755C148.33 596.601 183.239 607.035 224.133 616.214C236.966 619.076 250.35 618.219 262.714 613.744C275.077 609.269 285.909 601.362 293.939 590.949C317.832 559.282 339.474 525.977 358.706 491.281C358.735 491.228 358.756 491.172 358.769 491.114C377.523 486.724 395.667 480.049 412.794 471.237C390.95 562.85 391.615 559.506 391.644 560.167C394.383 562.736 397.466 564.91 400.806 566.627C396.581 577.75 393.252 589.192 390.85 600.845C390.816 601.015 390.847 601.191 390.936 601.339C402.932 621.684 414.839 651.743 440.222 683.453C440.786 684.16 441.549 684.682 442.413 684.95C443.277 685.218 444.201 685.221 445.066 684.957C445.931 684.694 446.697 684.176 447.265 683.472C447.832 682.768 448.175 681.909 448.248 681.008C449.671 657.286 449.034 633.485 446.345 609.873C444.826 598.988 444.642 587.958 445.796 577.028C449.093 576.907 452.379 576.581 455.636 576.052C455.772 576.028 455.898 575.964 455.998 575.869C456.099 575.774 456.169 575.652 456.2 575.517L503.008 421.701C504.993 415.15 505.191 408.188 503.582 401.534C501.972 394.881 498.613 388.779 493.853 383.86C489.093 378.94 483.105 375.383 476.508 373.555C469.912 371.727 462.946 371.696 456.334 373.464L362.851 398.499C364.771 392.234 365.659 385.699 365.481 379.149C370.501 384.695 377.314 388.294 384.724 389.316C392.135 390.337 399.668 388.714 406 384.733C493.892 330.214 489.068 333.947 489.005 333.205C488.968 332.797 488.281 329.988 488.099 329.272C495.365 327.45 503.012 326.545 507.992 325.19C508.507 325.12 509.005 325.053 509.494 324.96C510.625 324.683 511.645 324.067 512.415 323.194C513.186 322.321 513.671 321.233 513.806 320.076C513.94 318.92 513.718 317.749 513.168 316.723C512.618 315.696 511.767 314.862 510.73 314.333C511.884 314.021 512.916 313.364 513.688 312.45C514.46 311.536 514.935 310.409 515.051 309.219C515.166 308.029 514.917 306.831 514.335 305.786C513.753 304.741 512.867 303.898 511.795 303.369V303.369ZM297.326 272.868C302.273 260.883 300.859 242.687 298.621 239.392C298.365 239.021 291.542 233.915 292.621 227.763C293.315 223.785 297.119 222.119 300.187 226.045C302.02 228.387 303.36 229.355 304.525 229.155C305.56 228.984 306.124 227.956 306.447 226.954C308.013 219.296 315.579 208.06 322.347 210.372C328.257 212.39 331.055 223.121 332.28 229.251C335.356 244.657 334.135 254.449 328.692 258.364C321.326 263.648 308.388 256.286 308.258 256.212C308.178 256.166 308.091 256.136 308 256.124C307.909 256.112 307.816 256.118 307.728 256.142C307.549 256.19 307.397 256.307 307.304 256.468C307.212 256.628 307.187 256.819 307.235 256.998C307.283 257.176 307.4 257.329 307.56 257.421C310.751 259.193 314.187 260.483 317.757 261.247C316.985 267.239 316.091 272.549 319.957 277.202C309.736 278.402 299.633 280.446 289.75 283.313C293.137 280.547 295.748 276.947 297.326 272.868ZM210.804 475.637C206.239 481.093 201.015 485.962 195.254 490.134C191.955 492.409 190.092 492.48 189.643 491.967C189.001 491.225 189.684 488.335 194.196 483.333C199.781 477.149 204.725 470.414 208.953 463.233C210.464 464.134 212.039 464.924 213.665 465.597C212.7 469.222 211.754 472.558 210.804 475.637ZM191.139 476.951C188.834 477.93 179.265 481.622 179.71 479.177C179.896 478.194 181.636 476.057 186.018 473.745C192.582 469.875 198.749 465.368 204.43 460.291C205.402 461.007 206.545 461.775 207.743 462.517C205.517 466.135 203.576 469.077 201.836 471.552C198.41 473.618 194.833 475.423 191.135 476.951H191.139ZM214.021 464.235C210.263 462.605 206.758 460.445 203.613 457.819C203.475 457.708 203.298 457.653 203.121 457.666C202.943 457.679 202.777 457.76 202.656 457.891C202.536 458.023 202.47 458.195 202.472 458.373C202.474 458.552 202.544 458.722 202.667 458.851C202.86 459.025 203.075 459.222 203.313 459.408C199.395 462.699 196.237 465.233 193.524 467.24C189.294 468.33 184.956 468.945 180.59 469.074C177.621 468.962 176.137 468.116 176.092 467.589C176.055 467.196 176.979 465.931 181.658 464.814C188.763 463.133 195.571 460.38 201.847 456.651C201.956 456.592 202.047 456.506 202.113 456.402C202.178 456.297 202.214 456.177 202.218 456.053C202.525 451.82 203.704 447.695 205.68 443.938C207.604 443.937 209.47 444.591 210.971 445.794C215.001 449.033 216.103 455.73 214.018 464.235H214.021ZM206.623 498.39C206.461 498.479 206.283 498.534 206.099 498.552C205.915 498.57 205.73 498.55 205.554 498.494C204.712 497.83 205.439 494.943 205.74 493.915C209.492 484.603 212.647 475.059 215.183 465.344C221.064 443.081 204.589 437.605 197.454 446.588C195.108 450.034 192.468 453.269 189.562 456.257C187.25 458.484 185.621 459.382 184.927 459.178L184.846 459.148C183.732 458.595 185.588 453.359 186.077 451.727C189.884 439.374 188.816 439.935 192.211 436.365C196.137 432.239 201.294 428.632 201.702 426.477C202.044 423.64 202.009 420.77 201.599 417.942C210.271 416.733 219.05 416.484 227.776 417.2C228.392 421.946 232.333 450.825 231.253 455.541C226.068 468.981 219.441 481.821 211.491 493.834C210.251 495.717 208.581 497.279 206.619 498.39H206.623ZM2.56969 567.94C33.9385 542.824 64.1644 530.746 84.2903 518.902C86.8543 519.422 89.5667 520.038 92.5314 520.757C71.4927 532.746 41.8196 546.776 11.4675 572.17C10.9117 572.629 10.4666 573.208 10.1651 573.862C8.20227 573.759 6.23198 573.621 4.25798 573.469C3.64002 573.413 3.05274 573.174 2.57116 572.783C2.08958 572.392 1.73557 571.866 1.55435 571.273C1.37314 570.679 1.37295 570.045 1.55381 569.452C1.73466 568.858 2.08835 568.332 2.56969 567.94V567.94ZM292.829 590.118C284.964 600.32 274.352 608.067 262.239 612.451C250.125 616.834 237.013 617.673 224.441 614.867C183.747 605.736 148.983 595.358 109.37 582.586C108.816 577.858 108.505 573.105 108.438 568.345C108.16 549.421 112.52 540.72 119.837 527.232L125.459 519.102C163.188 528.764 201.429 536.3 240.003 541.677C240.131 541.697 240.262 541.68 240.381 541.629C240.5 541.577 240.602 541.492 240.674 541.384C256.537 518.342 269.909 493.681 280.566 467.816C289.987 484.917 306.54 489.262 319.849 493.923L312.146 504.413C312.071 504.517 312.025 504.64 312.015 504.769C312.005 504.897 312.03 505.026 312.088 505.141C312.147 505.256 312.236 505.353 312.345 505.421C312.455 505.489 312.581 505.525 312.71 505.526C313.211 505.526 312.577 506.186 321.245 494.394L349.626 504.346C332.521 534.105 313.551 562.753 292.829 590.118V590.118ZM446.861 680.881C446.809 681.503 446.572 682.095 446.18 682.58C445.788 683.066 445.26 683.422 444.663 683.604C444.067 683.786 443.429 683.784 442.833 683.6C442.237 683.416 441.71 683.057 441.321 682.57C416.119 651.09 404.216 621.194 392.279 600.849C392.887 597.84 393.622 594.69 394.553 591.061C407.206 612.723 420.939 643.546 447.243 675.386C447.12 677.208 446.998 679.026 446.861 680.881ZM501.673 421.293L454.983 574.727C434.267 578.015 409.503 572.809 393.121 559.788L414.434 470.398C426.508 464.25 434.36 459.2 434.438 459.152C434.578 459.046 434.674 458.892 434.706 458.72C434.738 458.547 434.704 458.369 434.61 458.221C434.516 458.072 434.37 457.965 434.201 457.919C434.031 457.874 433.851 457.894 433.696 457.975C433.618 458.027 425.696 463.122 413.525 469.304C383.195 484.754 341.292 499.923 309.259 488.736C273.093 476.101 269.264 441.59 283.861 406.303C295.373 407.83 306.999 408.318 318.599 407.761C316.901 412.063 315.738 416.558 315.137 421.145C315.117 421.327 315.169 421.509 315.283 421.653C315.396 421.796 315.562 421.89 315.743 421.913C315.925 421.935 316.108 421.886 316.254 421.775C316.399 421.664 316.495 421.5 316.521 421.319C317.146 416.633 318.365 412.046 320.15 407.668C334.362 407.019 348.425 404.489 361.971 400.143L456.697 374.763C463.073 373.058 469.789 373.089 476.149 374.853C482.509 376.617 488.281 380.049 492.868 384.795C497.455 389.54 500.689 395.426 502.236 401.842C503.783 408.258 503.586 414.971 501.665 421.286L501.673 421.293ZM366.019 377.62L332.231 338.682C332.115 338.553 331.954 338.472 331.781 338.455C331.608 338.438 331.435 338.486 331.296 338.59C331.157 338.694 331.061 338.846 331.028 339.017C330.995 339.188 331.027 339.365 331.118 339.513L363.4 389.928C362.989 393 362.251 396.019 361.199 398.933C336.217 406.491 309.891 408.531 284.043 404.911C281.119 384.132 276.963 356.363 266.878 338.025C266.106 336.912 266.336 337.235 251.95 353.491C246.106 356.574 240.971 359.427 236.511 361.576C236.394 361.632 236.296 361.72 236.226 361.83C236.157 361.939 236.119 362.066 236.118 362.196C235.984 370.151 237.572 402.907 238.715 419.141C232.199 413.809 209.584 415.319 201.387 416.544C197.524 417.104 190.627 418.425 187.792 421.134C186.64 404.843 186.393 388.502 187.05 372.184C187.814 348.003 188.1 338.956 212.76 322.14C242.262 302.018 277.494 285.083 313.118 279.544C325.571 277.607 340.109 276.356 350.895 281.77C365.593 289.158 371.878 306.957 390.19 334.222C390.798 335.124 387.566 336.879 458.805 287.959C474.793 296.779 483.621 315.157 487.502 332.916L405.24 383.512C399.081 387.391 391.733 388.93 384.535 387.849C377.337 386.767 370.767 383.138 366.019 377.62V377.62ZM510.448 312.949C509.502 313.146 507.45 313.398 506.674 313.499C506.129 313.562 505.502 315.02 506.734 314.927C513.127 314.348 514.348 322.686 509.246 323.565C508.771 323.658 508.296 323.721 507.717 323.806C502.804 325.142 494.637 326.185 487.751 327.91C483.992 313.784 476.99 299.747 465.558 290.742C470.549 288.438 477.268 287.232 493.494 284.319C493.494 284.319 507.068 281.722 508.589 281.466C514.811 280.375 516.433 288.987 511.557 290.293C510.941 290.452 504.86 291.733 504.136 291.877C503.212 292.063 503.665 293.425 504.322 293.388C505.22 293.332 508.107 293.035 508.251 293.016C515.023 292.044 516.474 300.868 511.242 302.07C510.292 302.289 506.897 302.664 505.305 302.883C505.139 302.926 504.995 303.028 504.899 303.169C504.803 303.311 504.763 303.484 504.785 303.653C504.807 303.823 504.891 303.979 505.02 304.091C505.15 304.204 505.316 304.265 505.487 304.263L507.68 304.011C514.351 303.232 515.635 311.892 510.448 312.949Z" fill="#10162F"/>
<path d="M449.767 423.608C449.858 423.618 449.95 423.61 450.038 423.584C450.126 423.558 450.208 423.515 450.279 423.458C450.351 423.4 450.41 423.329 450.454 423.249C450.498 423.168 450.525 423.08 450.535 422.989C450.545 422.898 450.537 422.805 450.511 422.718C450.485 422.63 450.442 422.548 450.384 422.476C450.327 422.405 450.256 422.346 450.175 422.302C450.095 422.258 450.007 422.23 449.915 422.221C445.774 421.775 443.979 422.733 435.37 425.56C435.211 425.611 435.076 425.717 434.989 425.859C434.902 426.002 434.868 426.17 434.895 426.335C434.921 426.5 435.006 426.65 435.133 426.757C435.261 426.865 435.422 426.923 435.589 426.922C435.804 426.922 443.381 424.376 443.578 424.325C445.566 423.646 447.676 423.401 449.767 423.608Z" fill="#10162F"/>
<path d="M373.961 443.686C368.766 444.966 363.943 446.057 359.583 446.929C359.401 446.966 359.242 447.074 359.14 447.228C359.037 447.383 359.001 447.571 359.037 447.753C359.074 447.934 359.182 448.094 359.336 448.196C359.491 448.299 359.68 448.335 359.861 448.298C364.221 447.423 369.078 446.328 374.295 445.041C374.472 444.993 374.623 444.879 374.716 444.722C374.809 444.564 374.836 444.377 374.793 444.2C374.749 444.022 374.637 443.869 374.482 443.773C374.326 443.677 374.139 443.646 373.961 443.686Z" fill="#10162F"/>
<path d="M335.321 449.571C333.919 449.487 332.534 449.219 331.202 448.773C328.032 447.656 325.126 445.895 322.668 443.601C322.533 443.483 322.358 443.422 322.179 443.43C322 443.438 321.831 443.515 321.707 443.644C321.583 443.773 321.513 443.945 321.513 444.124C321.512 444.304 321.58 444.476 321.703 444.606C325.381 448.165 330.138 450.401 335.225 450.962C335.407 450.971 335.585 450.908 335.721 450.786C335.857 450.665 335.94 450.496 335.953 450.314C335.965 450.132 335.906 449.953 335.788 449.814C335.67 449.675 335.502 449.588 335.321 449.571Z" fill="#10162F"/>
<path d="M411.882 433.037C407.217 434.469 402.475 435.887 397.741 437.259C397.563 437.311 397.412 437.431 397.323 437.594C397.234 437.756 397.212 437.948 397.264 438.126C397.316 438.304 397.436 438.454 397.598 438.544C397.761 438.633 397.952 438.654 398.13 438.603C402.869 437.226 407.622 435.809 412.29 434.373C412.467 434.319 412.615 434.196 412.702 434.033C412.789 433.869 412.808 433.678 412.754 433.501C412.699 433.324 412.577 433.175 412.414 433.088C412.25 433.001 412.059 432.983 411.882 433.037Z" fill="#10162F"/>
<path d="M459.784 456.458C463.94 440.926 463.784 441.634 463.959 440.503C463.988 440.32 463.943 440.132 463.834 439.982C463.725 439.833 463.561 439.732 463.378 439.703C463.195 439.674 463.008 439.719 462.858 439.828C462.708 439.937 462.607 440.101 462.578 440.284C462.397 441.456 462.456 441.085 458.434 456.09C458.41 456.179 458.403 456.272 458.415 456.363C458.426 456.454 458.456 456.542 458.502 456.622C458.547 456.702 458.608 456.772 458.681 456.828C458.754 456.884 458.837 456.925 458.925 456.95C459.014 456.974 459.107 456.98 459.198 456.968C459.289 456.957 459.377 456.927 459.457 456.882C459.536 456.836 459.606 456.775 459.663 456.702C459.719 456.63 459.76 456.547 459.784 456.458Z" fill="#10162F"/>
<path d="M431.709 556.03L427.894 570.285C427.845 570.465 427.869 570.656 427.961 570.817C428.053 570.979 428.205 571.097 428.384 571.146C428.563 571.195 428.754 571.172 428.916 571.08C429.077 570.988 429.196 570.836 429.245 570.657L433.056 556.401C433.08 556.312 433.087 556.22 433.075 556.129C433.064 556.038 433.035 555.95 432.989 555.87C432.944 555.79 432.884 555.72 432.811 555.664C432.739 555.608 432.656 555.566 432.568 555.542C432.479 555.517 432.387 555.511 432.296 555.522C432.205 555.533 432.117 555.562 432.037 555.608C431.957 555.653 431.887 555.714 431.831 555.786C431.774 555.858 431.733 555.941 431.709 556.03Z" fill="#10162F"/>
<path d="M452.052 479.901L448.238 494.157C448.189 494.336 448.213 494.527 448.305 494.689C448.396 494.85 448.549 494.968 448.728 495.018C448.907 495.067 449.098 495.043 449.26 494.951C449.421 494.859 449.539 494.707 449.589 494.528L453.403 480.276C453.453 480.097 453.429 479.905 453.338 479.743C453.246 479.581 453.094 479.463 452.915 479.413C452.736 479.363 452.544 479.387 452.383 479.478C452.221 479.57 452.102 479.722 452.052 479.901V479.901Z" fill="#10162F"/>
<path d="M441.892 517.967L438.078 532.223C438.029 532.402 438.052 532.593 438.144 532.755C438.236 532.916 438.388 533.035 438.568 533.084C438.747 533.133 438.938 533.109 439.099 533.017C439.261 532.925 439.379 532.773 439.428 532.594L443.243 518.338C443.292 518.159 443.268 517.968 443.176 517.806C443.084 517.645 442.932 517.527 442.753 517.477C442.664 517.453 442.572 517.446 442.48 517.458C442.389 517.469 442.301 517.499 442.221 517.544C442.06 517.636 441.941 517.788 441.892 517.967Z" fill="#10162F"/>
<path d="M297.565 524.297L288.835 536.171C288.758 536.275 288.711 536.398 288.7 536.527C288.689 536.655 288.714 536.785 288.772 536.9C288.83 537.016 288.919 537.113 289.029 537.18C289.139 537.248 289.266 537.284 289.395 537.284C289.907 537.284 289.198 538.052 298.693 525.106C298.771 524.957 298.792 524.784 298.753 524.62C298.713 524.456 298.616 524.312 298.479 524.214C298.342 524.115 298.175 524.07 298.007 524.085C297.839 524.101 297.682 524.176 297.565 524.297V524.297Z" fill="#10162F"/>
<path d="M274.25 556.041C266.369 566.764 263.337 571.974 255.697 576.983C255.62 577.033 255.554 577.099 255.503 577.175C255.451 577.25 255.415 577.336 255.396 577.426C255.378 577.516 255.377 577.608 255.394 577.699C255.411 577.789 255.446 577.875 255.497 577.951C255.547 578.028 255.612 578.094 255.688 578.146C255.764 578.198 255.85 578.234 255.939 578.252C256.029 578.271 256.122 578.272 256.212 578.254C256.302 578.237 256.388 578.202 256.465 578.152C264.428 572.92 267.463 567.614 275.367 556.868C275.448 556.72 275.474 556.546 275.438 556.38C275.401 556.215 275.306 556.067 275.17 555.966C275.033 555.865 274.865 555.817 274.696 555.831C274.527 555.845 274.368 555.919 274.25 556.041V556.041Z" fill="#10162F"/>
<path d="M232.796 583.688C226.488 583.61 222.818 582.204 210.162 579.272C209.982 579.229 209.792 579.258 209.633 579.355C209.475 579.451 209.361 579.606 209.318 579.786C209.274 579.966 209.303 580.157 209.4 580.315C209.496 580.473 209.651 580.587 209.832 580.631C221.984 583.562 226.458 585.042 232.766 585.083C232.951 585.087 233.13 585.017 233.264 584.889C233.398 584.761 233.475 584.585 233.479 584.4C233.483 584.215 233.413 584.036 233.285 583.903C233.157 583.769 232.981 583.692 232.796 583.688V583.688Z" fill="#10162F"/>
<path d="M147.912 564.267L133.564 560.809C133.384 560.766 133.194 560.796 133.036 560.892C132.878 560.989 132.765 561.145 132.722 561.325C132.678 561.505 132.708 561.695 132.805 561.853C132.902 562.011 133.057 562.124 133.237 562.167L147.582 565.625C147.762 565.669 147.952 565.639 148.111 565.543C148.269 565.447 148.383 565.291 148.426 565.111C148.47 564.931 148.441 564.741 148.344 564.583C148.248 564.424 148.092 564.311 147.912 564.267Z" fill="#10162F"/>
<path d="M186.211 573.499L171.866 570.041C171.686 569.997 171.496 570.027 171.337 570.123C171.179 570.219 171.066 570.375 171.022 570.555C170.978 570.735 171.007 570.925 171.104 571.083C171.2 571.241 171.356 571.355 171.536 571.399L185.881 574.857C186.061 574.901 186.251 574.871 186.409 574.775C186.567 574.679 186.681 574.523 186.725 574.343C186.768 574.163 186.739 573.973 186.643 573.815C186.546 573.656 186.391 573.543 186.211 573.499V573.499Z" fill="#10162F"/>
</svg>
