<svg width="24" height="22" viewBox="0 0 24 22" fill="none" xmlns="http://www.w3.org/2000/svg">
<path d="M8.86085 3.08246C9.85798 0.0679207 14.142 0.0679197 15.1392 3.08246C15.7144 4.82147 17.344 6.00332 19.178 5.99941L19.3414 5.99906C22.4586 5.99242 23.7343 10.0005 21.1867 11.7969C19.6723 12.8648 19.0411 14.8041 19.6305 16.5595C20.6259 19.5243 17.2517 22.0336 14.7142 20.2278L14.4979 20.0739C13.0026 19.0098 10.9974 19.0098 9.50213 20.0739L9.28584 20.2278C6.74834 22.0336 3.37415 19.5243 4.36952 16.5595C4.95886 14.8041 4.32774 12.8648 2.81327 11.7969C0.26572 10.0005 1.54144 5.99242 4.65862 5.99906L4.82202 5.99941C6.65602 6.00332 8.28563 4.82146 8.86085 3.08246Z" fill="#FABD2E" stroke="#10162F"/>
</svg>
