<svg width="16" height="16" viewBox="0 0 16 16" fill="none" xmlns="http://www.w3.org/2000/svg">
<g clip-path="url(#clip0_1662_6746)">
<path d="M16.001 3C15.401 3.3 14.801 3.4 14.101 3.5C14.801 3.1 15.301 2.5 15.501 1.7C14.901 2.1 14.201 2.3 13.401 2.5C12.801 1.9 11.901 1.5 11.001 1.5C9.30098 1.5 7.80098 3 7.80098 4.8C7.80098 5.1 7.80098 5.3 7.90098 5.6C5.20098 5.4 2.70098 4.1 1.10098 2.1C0.800977 2.6 0.700977 3.2 0.700977 3.7C0.700977 4.8 1.30098 5.8 2.20098 6.4C1.70098 6.4 1.20098 6.2 0.700977 6C0.700977 7.6 1.80098 8.9 3.30098 9.2C3.00098 9.4 2.70098 9.4 2.40098 9.4C2.20098 9.4 2.00098 9.4 1.80098 9.3C2.20098 10.6 3.40098 11.6 4.90098 11.6C3.80098 12.5 2.40098 13 0.800977 13H0.000976562C1.50098 13.9 3.20098 14.5 5.00098 14.5C11.001 14.5 14.301 9.5 14.301 5.2V4.8C15.001 4.3 15.601 3.7 16.001 3Z" fill="#10162F"/>
</g>
<defs>
<clipPath id="clip0_1662_6746">
<rect width="16" height="16" fill="white" transform="translate(0.000976562)"/>
</clipPath>
</defs>
</svg>
