<svg width="1922" height="318" viewBox="0 0 1922 318" fill="none" xmlns="http://www.w3.org/2000/svg">
<path d="M1921.5 175.998V317.5H1815.22H1814.6H1813.97H1813.33H1812.7H1812.06H1811.42H1810.78H1810.14H1809.49H1808.84H1808.19H1807.54H1806.88H1806.23H1805.57H1804.9H1804.24H1803.57H1802.9H1802.23H1801.55H1800.88H1800.2H1799.51H1798.83H1798.14H1797.45H1796.76H1796.07H1795.37H1794.68H1793.98H1793.27H1792.57H1791.86H1791.15H1790.44H1789.73H1789.01H1788.29H1787.57H1786.85H1786.12H1785.4H1784.67H1783.93H1783.2H1782.46H1781.72H1780.98H1780.24H1779.5H1778.75H1778H1777.25H1776.49H1775.74H1774.98H1774.22H1773.46H1772.69H1771.92H1771.16H1770.38H1769.61H1768.84H1768.06H1767.28H1766.5H1765.71H1764.93H1764.14H1763.35H1762.55H1761.76H1760.96H1760.17H1759.36H1758.56H1757.76H1756.95H1756.14H1755.33H1754.52H1753.7H1752.88H1752.07H1751.24H1750.42H1749.6H1748.77H1747.94H1747.11H1746.27H1745.44H1744.6H1743.76H1742.92H1742.08H1741.23H1740.39H1739.54H1738.69H1737.83H1736.98H1736.12H1735.26H1734.4H1733.54H1732.67H1731.81H1730.94H1730.07H1729.2H1728.32H1727.45H1726.57H1725.69H1724.81H1723.92H1723.04H1722.15H1721.26H1720.37H1719.48H1718.58H1717.68H1716.79H1715.89H1714.98H1714.08H1713.17H1712.27H1711.36H1710.45H1709.53H1708.62H1707.7H1706.78H1705.86H1704.94H1704.02H1703.09H1702.17H1701.24H1700.31H1699.37H1698.44H1697.5H1696.57H1695.63H1694.68H1693.74H1692.8H1691.85H1690.9H1689.95H1689H1688.05H1687.09H1686.14H1685.18H1684.22H1683.26H1682.3H1681.33H1680.36H1679.4H1678.43H1677.46H1676.48H1675.51H1674.53H1673.55H1672.57H1671.59H1670.61H1669.63H1668.64H1667.65H1666.66H1665.67H1664.68H1663.69H1662.69H1661.7H1660.7H1659.7H1658.7H1657.69H1656.69H1655.68H1654.67H1653.66H1652.65H1651.64H1650.63H1649.61H1648.6H1647.58H1646.56H1645.54H1644.51H1643.49H1642.46H1641.44H1640.41H1639.38H1638.35H1637.31H1636.28H1635.24H1634.21H1633.17H1632.13H1631.09H1630.04H1629H1627.95H1626.91H1625.86H1624.81H1623.76H1622.7H1621.65H1620.59H1619.54H1618.48H1617.42H1616.36H1615.3H1614.23H1613.17H1612.1H1611.04H1609.97H1608.9H1607.82H1606.75H1605.68H1604.6H1603.53H1602.45H1601.37H1600.29H1599.21H1598.12H1597.04H1595.95H1594.87H1593.78H1592.69H1591.6H1590.51H1589.41H1588.32H1587.22H1586.13H1585.03H1583.93H1582.83H1581.73H1580.63H1579.52H1578.42H1577.31H1576.2H1575.09H1573.98H1572.87H1571.76H1570.65H1569.53H1568.42H1567.3H1566.18H1565.06H1563.94H1562.82H1561.7H1560.58H1559.45H1558.33H1557.2H1556.07H1554.94H1553.81H1552.68H1551.55H1550.42H1549.28H1548.15H1547.01H1545.88H1544.74H1543.6H1542.46H1541.32H1540.17H1539.03H1537.88H1536.74H1535.59H1534.45H1533.3H1532.15H1531H1529.84H1528.69H1527.54H1526.38H1525.23H1524.07H1522.92H1521.76H1520.6H1519.44H1518.28H1517.12H1515.95H1514.79H1513.62H1512.46H1511.29H1510.12H1508.96H1507.79H1506.62H1505.45H1504.27H1503.1H1501.93H1500.75H1499.58H1498.4H1497.23H1496.05H1494.87H1493.69H1492.51H1491.33H1490.15H1488.96H1487.78H1486.6H1485.41H1484.22H1483.04H1481.85H1480.66H1479.47H1478.28H1477.09H1475.9H1474.71H1473.52H1472.32H1471.13H1469.93H1468.74H1467.54H1466.34H1465.15H1463.95H1462.75H1461.55H1460.35H1459.15H1457.94H1456.74H1455.54H1454.33H1453.13H1451.92H1450.72H1449.51H1448.3H1447.09H1445.88H1444.68H1443.47H1442.25H1441.04H1439.83H1438.62H1437.41H1436.19H1434.98H1433.76H1432.55H1431.33H1430.11H1428.9H1427.68H1426.46H1425.24H1424.02H1422.8H1421.58H1420.36H1419.14H1417.92H1416.7H1415.47H1414.25H1413.02H1411.8H1410.57H1409.35H1408.12H1406.9H1405.67H1404.44H1403.21H1401.98H1400.75H1399.53H1398.3H1397.06H1395.83H1394.6H1393.37H1392.14H1390.91H1389.67H1388.44H1387.21H1385.97H1384.74H1383.5H1382.27H1381.03H1379.79H1378.56H1377.32H1376.08H1374.85H1373.61H1372.37H1371.13H1369.89H1368.65H1367.41H1366.17H1364.93H1363.69H1362.45H1361.21H1359.97H1358.72H1357.48H1356.24H1355H1353.75H1352.51H1351.27H1350.02H1348.78H1347.53H1346.29H1345.04H1343.8H1342.55H1341.31H1340.06H1338.82H1337.57H1336.32H1335.08H1333.83H1332.58H1331.33H1330.09H1328.84H1327.59H1326.34H1325.09H1323.85H1322.6H1321.35H1320.1H1318.85H1317.6H1316.35H1315.1H1313.85H1312.6H1311.35H1310.1H1308.85H1307.6H1306.35H1305.1H1303.85H1302.6H1301.35H1300.1H1298.85H1297.6H1296.35H1295.1H1293.85H1292.59H1291.34H1290.09H1288.84H1287.59H1286.34H1285.09H1283.84H1282.58H1281.33H1280.08H1278.83H1277.58H1276.33H1275.08H1273.83H1272.57H1271.32H1270.07H1268.82H1267.57H1266.32H1265.07H1263.82H1262.56H1261.31H1260.06H1258.81H1257.56H1256.31H1255.06H1253.8H1252.55H1251.3H1250.05H1248.8H1247.55H1246.3H1245.05H1243.79H1242.54H1241.29H1240.04H1238.79H1237.54H1236.29H1235.04H1233.78H1232.53H1231.28H1230.03H1228.78H1227.53H1226.28H1225.02H1223.77H1222.52H1221.27H1220.02H1218.77H1217.52H1216.27H1215.01H1213.76H1212.51H1211.26H1210.01H1208.76H1207.51H1206.26H1205H1203.75H1202.5H1201.25H1200H1198.75H1197.5H1196.24H1194.99H1193.74H1192.49H1191.24H1189.99H1188.74H1187.49H1186.23H1184.98H1183.73H1182.48H1181.23H1179.98H1178.73H1177.48H1176.22H1174.97H1173.72H1172.47H1171.22H1169.97H1168.72H1167.46H1166.21H1164.96H1163.71H1162.46H1161.21H1159.96H1158.71H1157.45H1156.2H1154.95H1153.7H1152.45H1151.2H1149.95H1148.7H1147.44H1146.19H1144.94H1143.69H1142.44H1141.19H1139.94H1138.68H1137.43H1136.18H1134.93H1133.68H1132.43H1131.18H1129.93H1128.67H1127.42H1126.17H1124.92H1123.67H1122.42H1121.17H1119.92H1118.66H1117.41H1116.16H1114.91H1113.66H1112.41H1111.16H1109.91H1108.65H1107.4H1106.15H1104.9H1103.65H1102.4H1101.15H1099.89H1098.64H1097.39H1096.14H1094.89H1093.64H1092.39H1091.14H1089.88H1088.63H1087.38H1086.13H1084.88H1083.63H1082.38H1081.12H1079.87H1078.62H1077.37H1076.12H1074.87H1073.62H1072.37H1071.11H1069.86H1068.61H1067.36H1066.11H1064.86H1063.61H1062.36H1061.1H1059.85H1058.6H1057.35H1056.1H1054.85H1053.6H1052.35H1051.09H1049.84H1048.59H1047.34H1046.09H1044.84H1043.59H1042.33H1041.08H1039.83H1038.58H1037.33H1036.08H1034.83H1033.58H1032.32H1031.07H1029.82H1028.57H1027.32H1026.07H1024.82H1023.57H1022.31H1021.06H1019.81H1018.56H1017.31H1016.06H1014.81H1013.55H1012.3H1011.05H1009.8H1008.55H1007.3H1006.05H1004.8H1003.54H1002.29H1001.04H999.79H998.539H997.288H996.036H994.785H993.534H992.283H991.031H989.78H988.529H987.277H986.026H984.775H983.523H982.272H981.021H979.77H978.518H977.267H976.016H974.764H973.513H972.262H971.01H969.759H968.508H967.257H966.005H964.754H963.503H962.251H961H959.749H958.497H957.246H955.995H954.744H953.492H952.241H950.99H949.738H948.487H947.236H945.984H944.733H943.482H942.231H940.979H939.728H938.477H937.225H935.974H934.723H933.471H932.22H930.969H929.718H928.466H927.215H925.964H924.712H923.461H922.21H920.958H919.707H918.456H917.204H915.953H914.702H913.451H912.199H910.948H909.697H908.445H907.194H905.943H904.691H903.44H902.189H900.938H899.686H898.435H897.184H895.932H894.681H893.43H892.178H890.927H889.676H888.425H887.173H885.922H884.671H883.419H882.168H880.917H879.665H878.414H877.163H875.911H874.66H873.409H872.158H870.906H869.655H868.404H867.152H865.901H864.65H863.398H862.147H860.896H859.645H858.393H857.142H855.891H854.639H853.388H852.137H850.885H849.634H848.383H847.132H845.88H844.629H843.378H842.126H840.875H839.624H838.372H837.121H835.87H834.619H833.367H832.116H830.865H829.613H828.362H827.111H825.859H824.608H823.357H822.106H820.854H819.603H818.352H817.1H815.849H814.598H813.346H812.095H810.844H809.592H808.341H807.09H805.839H804.587H803.336H802.085H800.833H799.582H798.331H797.079H795.828H794.577H793.326H792.074H790.823H789.572H788.32H787.069H785.818H784.566H783.315H782.064H780.813H779.561H778.31H777.059H775.807H774.556H773.305H772.053H770.802H769.551H768.299H767.048H765.797H764.546H763.294H762.043H760.792H759.54H758.289H757.038H755.786H754.535H753.284H752.033H750.781H749.53H748.279H747.027H745.776H744.525H743.273H742.022H740.771H739.52H738.268H737.017H735.766H734.514H733.263H732.012H730.76H729.509H728.258H727.007H725.755H724.504H723.253H722.001H720.75H719.499H718.247H716.996H715.745H714.494H713.242H711.991H710.74H709.488H708.237H706.986H705.734H704.483H703.232H701.981H700.729H699.478H698.227H696.975H695.724H694.473H693.221H691.97H690.719H689.467H688.216H686.965H685.714H684.462H683.211H681.96H680.708H679.457H678.206H676.954H675.703H674.452H673.201H671.949H670.698H669.447H668.195H666.944H665.693H664.441H663.19H661.939H660.688H659.436H658.185H656.934H655.682H654.431H653.18H651.928H650.677H649.426H648.174H646.923H645.672H644.421H643.169H641.918H640.667H639.415H638.164H636.913H635.661H634.41H633.159H631.908H630.657H629.406H628.154H626.903H625.652H624.401H623.151H621.9H620.649H619.398H618.148H616.897H615.647H614.397H613.146H611.896H610.646H609.397H608.147H606.897H605.648H604.398H603.149H601.9H600.651H599.402H598.154H596.905H595.657H594.409H593.161H591.913H590.666H589.418H588.171H586.924H585.677H584.431H583.184H581.938H580.692H579.446H578.201H576.956H575.711H574.466H573.222H571.977H570.733H569.49H568.246H567.003H565.76H564.518H563.276H562.034H560.792H559.551H558.309H557.069H555.828H554.588H553.348H552.109H550.87H549.631H548.393H547.155H545.917H544.68H543.443H542.206H540.97H539.734H538.499H537.263H536.029H534.795H533.561H532.327H531.094H529.862H528.629H527.398H526.166H524.935H523.705H522.475H521.246H520.016H518.788H517.56H516.332H515.105H513.878H512.652H511.426H510.201H508.976H507.752H506.528H505.305H504.082H502.86H501.639H500.417H499.197H497.977H496.757H495.539H494.32H493.102H491.885H490.669H489.452H488.237H487.022H485.808H484.594H483.381H482.168H480.957H479.745H478.535H477.325H476.115H474.906H473.698H472.491H471.284H470.078H468.872H467.667H466.463H465.26H464.057H462.855H461.653H460.452H459.252H458.053H456.854H455.656H454.459H453.263H452.067H450.872H449.677H448.484H447.291H446.099H444.908H443.717H442.527H441.338H440.15H438.962H437.776H436.59H435.405H434.22H433.037H431.854H430.672H429.491H428.311H427.131H425.952H424.775H423.598H422.422H421.246H420.072H418.898H417.726H416.554H415.383H414.213H413.044H411.875H410.708H409.542H408.376H407.211H406.048H404.885H403.723H402.562H401.402H400.242H399.084H397.927H396.771H395.615H394.461H393.308H392.155H391.004H389.853H388.704H387.555H386.407H385.261H384.115H382.971H381.827H380.685H379.543H378.403H377.263H376.125H374.988H373.851H372.716H371.582H370.449H369.317H368.186H367.056H365.927H364.799H363.672H362.547H361.422H360.299H359.177H358.055H356.935H355.816H354.699H353.582H352.466H351.352H350.239H349.127H348.016H346.906H345.797H344.69H343.583H342.478H341.374H340.272H339.17H338.07H336.971H335.873H334.776H333.681H332.586H331.493H330.401H329.311H328.221H327.133H326.047H324.961H323.877H322.794H321.712H320.631H319.552H318.474H317.397H316.322H315.248H314.175H313.104H312.034H310.965H309.897H308.831H307.766H306.703H305.64H304.58H303.52H302.462H301.405H300.35H299.296H298.243H297.192H296.142H295.094H294.046H293.001H291.956H290.913H289.872H288.832H287.793H286.756H285.72H284.686H283.653H282.622H281.592H280.563H279.536H278.51H277.486H276.463H275.442H274.423H273.404H272.388H271.372H270.359H269.346H268.336H267.326H266.319H265.313H264.308H263.305H262.303H261.303H260.305H259.308H258.313H257.319H256.327H255.336H254.347H253.36H252.374H251.39H250.407H249.426H248.447H247.469H246.493H245.518H244.545H243.574H242.604H241.636H240.669H239.705H238.742H237.78H236.82H235.862H234.906H233.951H232.998H232.047H231.097H230.149H229.203H228.258H227.315H226.374H225.435H224.497H223.561H222.627H221.695H220.764H219.835H218.908H217.982H217.059H216.137H215.216H214.298H213.382H212.467H211.554H210.643H209.733H208.826H207.92H207.016H206.114H205.214H204.315H203.418H202.524H201.631H200.74H199.85H198.963H198.078H197.194H196.312H195.432H194.554H193.678H192.804H191.932H191.061H190.193H189.326H188.462H187.599H186.738H185.879H185.022H184.167H183.314H182.463H181.614H180.767H179.922H179.079H178.237H177.398H176.561H175.726H174.892H174.061H173.232H172.404H171.579H170.756H169.935H169.115H168.298H167.483H166.67H165.859H165.05H164.243H163.438H162.636H161.835H161.036H160.24H159.445H158.653H157.862H157.074H156.288H155.504H154.722H153.943H153.165H152.389H151.616H150.845H150.076H149.309H148.544H147.782H147.021H146.263H145.507H144.753H144.001H143.251H142.504H141.759H141.016H140.275H139.536H138.8H138.066H137.334H136.604H135.877H135.152H134.429H133.708H132.99H132.273H131.559H130.848H130.138H129.431H128.726H128.024H127.324H126.626H125.93H125.237H124.546H123.857H123.17H122.486H121.805H121.125H120.448H119.773H119.101H118.431H117.763H117.098H116.435H115.774H115.116H114.46H113.807H113.156H112.507H111.861H111.217H110.576H109.936H109.3H108.666H108.034H107.405H106.778H0.5V34.0647L106.604 73.3996L106.606 73.4005C108.659 74.15 110.751 74.9148 112.882 75.6938C221.585 115.428 431.14 192.028 640.721 168.312C743.606 157.099 846.483 121.71 949.294 86.3432C953.251 84.9823 957.207 83.6214 961.163 82.262C1067.95 45.5652 1174.67 9.89589 1281.37 2.26603L1281.37 2.26593C1494.78 -13.587 1708.23 81.2391 1815.02 128.688L1921.5 175.998Z" fill="white" stroke="black"/>
<rect y="176" width="1922" height="142" fill="white"/>
<path d="M0 34L10.5 38.5L14 176H0V34Z" fill="white"/>
</svg>
