<svg width="18" height="18" viewBox="0 0 18 18" fill="none" xmlns="http://www.w3.org/2000/svg">
<path d="M7.57742 1.82977C8.03416 0.464132 9.96578 0.464133 10.4225 1.82977L11.1951 4.13964C11.5367 5.16111 12.4941 5.84895 13.5712 5.84668L15.928 5.84171C17.3976 5.83862 17.9946 7.73146 16.7892 8.57207L15.0066 9.81523C14.0937 10.4519 13.7116 11.6155 14.0693 12.6694L14.7834 14.7729C15.25 16.1475 13.6867 17.3172 12.4997 16.4817L10.4389 15.0313C9.57577 14.4238 8.42417 14.4238 7.56108 15.0313L5.50028 16.4817C4.31321 17.3172 2.74994 16.1475 3.21656 14.7729L3.9306 12.6694C4.28838 11.6155 3.90629 10.4519 2.99332 9.81523L1.21072 8.57207C0.00533789 7.73146 0.602367 5.83862 2.07191 5.84171L4.42871 5.84668C5.5058 5.84895 6.46326 5.16111 6.80489 4.13964L7.57742 1.82977Z" fill="#FABD2E" stroke="#10162F"/>
</svg>
